%TF.GenerationSoftware,KiCad,Pcbnew,7.0.6*%
%TF.CreationDate,2023-10-13T18:17:28+03:00*%
%TF.ProjectId,colorimeter-led,636f6c6f-7269-46d6-9574-65722d6c6564,rev?*%
%TF.SameCoordinates,Original*%
%TF.FileFunction,Drillmap*%
%TF.FilePolarity,Positive*%
%FSLAX45Y45*%
G04 Gerber Fmt 4.5, Leading zero omitted, Abs format (unit mm)*
G04 Created by KiCad (PCBNEW 7.0.6) date 2023-10-13 18:17:28*
%MOMM*%
%LPD*%
G01*
G04 APERTURE LIST*
%ADD10C,1.000000*%
%ADD11C,0.200000*%
%ADD12C,0.091000*%
%ADD13C,0.100000*%
G04 APERTURE END LIST*
D10*
X8890000Y-6350000D02*
X11239500Y-6350000D01*
X11239500Y-7239000D01*
X8890000Y-7239000D01*
X8890000Y-6350000D01*
D11*
D12*
X10876500Y-6558500D02*
X10967500Y-6649500D01*
X10967500Y-6558500D02*
X10876500Y-6649500D01*
X10876500Y-6685500D02*
X10967500Y-6776500D01*
X10967500Y-6685500D02*
X10876500Y-6776500D01*
X10876500Y-6812500D02*
X10967500Y-6903500D01*
X10967500Y-6812500D02*
X10876500Y-6903500D01*
X10876500Y-6939500D02*
X10967500Y-7030500D01*
X10967500Y-6939500D02*
X10876500Y-7030500D01*
D13*
X9947000Y-6540500D02*
G75*
G03*
X9947000Y-6540500I-50000J0D01*
G01*
X9947000Y-6794500D02*
G75*
G03*
X9947000Y-6794500I-50000J0D01*
G01*
X9947000Y-7048500D02*
G75*
G03*
X9947000Y-7048500I-50000J0D01*
G01*
X10201000Y-6540500D02*
G75*
G03*
X10201000Y-6540500I-50000J0D01*
G01*
X10201000Y-6794500D02*
G75*
G03*
X10201000Y-6794500I-50000J0D01*
G01*
X10201000Y-7048500D02*
G75*
G03*
X10201000Y-7048500I-50000J0D01*
G01*
D11*
X9100777Y-7600484D02*
X9100777Y-7400484D01*
X9100777Y-7400484D02*
X9148396Y-7400484D01*
X9148396Y-7400484D02*
X9176967Y-7410008D01*
X9176967Y-7410008D02*
X9196015Y-7429055D01*
X9196015Y-7429055D02*
X9205539Y-7448103D01*
X9205539Y-7448103D02*
X9215063Y-7486198D01*
X9215063Y-7486198D02*
X9215063Y-7514769D01*
X9215063Y-7514769D02*
X9205539Y-7552865D01*
X9205539Y-7552865D02*
X9196015Y-7571912D01*
X9196015Y-7571912D02*
X9176967Y-7590960D01*
X9176967Y-7590960D02*
X9148396Y-7600484D01*
X9148396Y-7600484D02*
X9100777Y-7600484D01*
X9300777Y-7600484D02*
X9300777Y-7467150D01*
X9300777Y-7505246D02*
X9310301Y-7486198D01*
X9310301Y-7486198D02*
X9319824Y-7476674D01*
X9319824Y-7476674D02*
X9338872Y-7467150D01*
X9338872Y-7467150D02*
X9357920Y-7467150D01*
X9424586Y-7600484D02*
X9424586Y-7467150D01*
X9424586Y-7400484D02*
X9415063Y-7410008D01*
X9415063Y-7410008D02*
X9424586Y-7419531D01*
X9424586Y-7419531D02*
X9434110Y-7410008D01*
X9434110Y-7410008D02*
X9424586Y-7400484D01*
X9424586Y-7400484D02*
X9424586Y-7419531D01*
X9548396Y-7600484D02*
X9529348Y-7590960D01*
X9529348Y-7590960D02*
X9519824Y-7571912D01*
X9519824Y-7571912D02*
X9519824Y-7400484D01*
X9653158Y-7600484D02*
X9634110Y-7590960D01*
X9634110Y-7590960D02*
X9624586Y-7571912D01*
X9624586Y-7571912D02*
X9624586Y-7400484D01*
X9881729Y-7600484D02*
X9881729Y-7400484D01*
X9881729Y-7400484D02*
X9948396Y-7543341D01*
X9948396Y-7543341D02*
X10015063Y-7400484D01*
X10015063Y-7400484D02*
X10015063Y-7600484D01*
X10196015Y-7600484D02*
X10196015Y-7495722D01*
X10196015Y-7495722D02*
X10186491Y-7476674D01*
X10186491Y-7476674D02*
X10167444Y-7467150D01*
X10167444Y-7467150D02*
X10129348Y-7467150D01*
X10129348Y-7467150D02*
X10110301Y-7476674D01*
X10196015Y-7590960D02*
X10176967Y-7600484D01*
X10176967Y-7600484D02*
X10129348Y-7600484D01*
X10129348Y-7600484D02*
X10110301Y-7590960D01*
X10110301Y-7590960D02*
X10100777Y-7571912D01*
X10100777Y-7571912D02*
X10100777Y-7552865D01*
X10100777Y-7552865D02*
X10110301Y-7533817D01*
X10110301Y-7533817D02*
X10129348Y-7524293D01*
X10129348Y-7524293D02*
X10176967Y-7524293D01*
X10176967Y-7524293D02*
X10196015Y-7514769D01*
X10291253Y-7467150D02*
X10291253Y-7667150D01*
X10291253Y-7476674D02*
X10310301Y-7467150D01*
X10310301Y-7467150D02*
X10348396Y-7467150D01*
X10348396Y-7467150D02*
X10367444Y-7476674D01*
X10367444Y-7476674D02*
X10376967Y-7486198D01*
X10376967Y-7486198D02*
X10386491Y-7505246D01*
X10386491Y-7505246D02*
X10386491Y-7562388D01*
X10386491Y-7562388D02*
X10376967Y-7581436D01*
X10376967Y-7581436D02*
X10367444Y-7590960D01*
X10367444Y-7590960D02*
X10348396Y-7600484D01*
X10348396Y-7600484D02*
X10310301Y-7600484D01*
X10310301Y-7600484D02*
X10291253Y-7590960D01*
X10472205Y-7581436D02*
X10481729Y-7590960D01*
X10481729Y-7590960D02*
X10472205Y-7600484D01*
X10472205Y-7600484D02*
X10462682Y-7590960D01*
X10462682Y-7590960D02*
X10472205Y-7581436D01*
X10472205Y-7581436D02*
X10472205Y-7600484D01*
X10472205Y-7476674D02*
X10481729Y-7486198D01*
X10481729Y-7486198D02*
X10472205Y-7495722D01*
X10472205Y-7495722D02*
X10462682Y-7486198D01*
X10462682Y-7486198D02*
X10472205Y-7476674D01*
X10472205Y-7476674D02*
X10472205Y-7495722D01*
D12*
X8749000Y-7883500D02*
X8840000Y-7974500D01*
X8840000Y-7883500D02*
X8749000Y-7974500D01*
D11*
X9138872Y-7820484D02*
X9157920Y-7820484D01*
X9157920Y-7820484D02*
X9176967Y-7830008D01*
X9176967Y-7830008D02*
X9186491Y-7839531D01*
X9186491Y-7839531D02*
X9196015Y-7858579D01*
X9196015Y-7858579D02*
X9205539Y-7896674D01*
X9205539Y-7896674D02*
X9205539Y-7944293D01*
X9205539Y-7944293D02*
X9196015Y-7982388D01*
X9196015Y-7982388D02*
X9186491Y-8001436D01*
X9186491Y-8001436D02*
X9176967Y-8010960D01*
X9176967Y-8010960D02*
X9157920Y-8020484D01*
X9157920Y-8020484D02*
X9138872Y-8020484D01*
X9138872Y-8020484D02*
X9119824Y-8010960D01*
X9119824Y-8010960D02*
X9110301Y-8001436D01*
X9110301Y-8001436D02*
X9100777Y-7982388D01*
X9100777Y-7982388D02*
X9091253Y-7944293D01*
X9091253Y-7944293D02*
X9091253Y-7896674D01*
X9091253Y-7896674D02*
X9100777Y-7858579D01*
X9100777Y-7858579D02*
X9110301Y-7839531D01*
X9110301Y-7839531D02*
X9119824Y-7830008D01*
X9119824Y-7830008D02*
X9138872Y-7820484D01*
X9291253Y-8001436D02*
X9300777Y-8010960D01*
X9300777Y-8010960D02*
X9291253Y-8020484D01*
X9291253Y-8020484D02*
X9281729Y-8010960D01*
X9281729Y-8010960D02*
X9291253Y-8001436D01*
X9291253Y-8001436D02*
X9291253Y-8020484D01*
X9396015Y-8020484D02*
X9434110Y-8020484D01*
X9434110Y-8020484D02*
X9453158Y-8010960D01*
X9453158Y-8010960D02*
X9462682Y-8001436D01*
X9462682Y-8001436D02*
X9481729Y-7972865D01*
X9481729Y-7972865D02*
X9491253Y-7934769D01*
X9491253Y-7934769D02*
X9491253Y-7858579D01*
X9491253Y-7858579D02*
X9481729Y-7839531D01*
X9481729Y-7839531D02*
X9472205Y-7830008D01*
X9472205Y-7830008D02*
X9453158Y-7820484D01*
X9453158Y-7820484D02*
X9415063Y-7820484D01*
X9415063Y-7820484D02*
X9396015Y-7830008D01*
X9396015Y-7830008D02*
X9386491Y-7839531D01*
X9386491Y-7839531D02*
X9376967Y-7858579D01*
X9376967Y-7858579D02*
X9376967Y-7906198D01*
X9376967Y-7906198D02*
X9386491Y-7925246D01*
X9386491Y-7925246D02*
X9396015Y-7934769D01*
X9396015Y-7934769D02*
X9415063Y-7944293D01*
X9415063Y-7944293D02*
X9453158Y-7944293D01*
X9453158Y-7944293D02*
X9472205Y-7934769D01*
X9472205Y-7934769D02*
X9481729Y-7925246D01*
X9481729Y-7925246D02*
X9491253Y-7906198D01*
X9681729Y-8020484D02*
X9567444Y-8020484D01*
X9624586Y-8020484D02*
X9624586Y-7820484D01*
X9624586Y-7820484D02*
X9605539Y-7849055D01*
X9605539Y-7849055D02*
X9586491Y-7868103D01*
X9586491Y-7868103D02*
X9567444Y-7877627D01*
X9805539Y-7820484D02*
X9824586Y-7820484D01*
X9824586Y-7820484D02*
X9843634Y-7830008D01*
X9843634Y-7830008D02*
X9853158Y-7839531D01*
X9853158Y-7839531D02*
X9862682Y-7858579D01*
X9862682Y-7858579D02*
X9872205Y-7896674D01*
X9872205Y-7896674D02*
X9872205Y-7944293D01*
X9872205Y-7944293D02*
X9862682Y-7982388D01*
X9862682Y-7982388D02*
X9853158Y-8001436D01*
X9853158Y-8001436D02*
X9843634Y-8010960D01*
X9843634Y-8010960D02*
X9824586Y-8020484D01*
X9824586Y-8020484D02*
X9805539Y-8020484D01*
X9805539Y-8020484D02*
X9786491Y-8010960D01*
X9786491Y-8010960D02*
X9776967Y-8001436D01*
X9776967Y-8001436D02*
X9767444Y-7982388D01*
X9767444Y-7982388D02*
X9757920Y-7944293D01*
X9757920Y-7944293D02*
X9757920Y-7896674D01*
X9757920Y-7896674D02*
X9767444Y-7858579D01*
X9767444Y-7858579D02*
X9776967Y-7839531D01*
X9776967Y-7839531D02*
X9786491Y-7830008D01*
X9786491Y-7830008D02*
X9805539Y-7820484D01*
X9957920Y-8020484D02*
X9957920Y-7887150D01*
X9957920Y-7906198D02*
X9967444Y-7896674D01*
X9967444Y-7896674D02*
X9986491Y-7887150D01*
X9986491Y-7887150D02*
X10015063Y-7887150D01*
X10015063Y-7887150D02*
X10034110Y-7896674D01*
X10034110Y-7896674D02*
X10043634Y-7915722D01*
X10043634Y-7915722D02*
X10043634Y-8020484D01*
X10043634Y-7915722D02*
X10053158Y-7896674D01*
X10053158Y-7896674D02*
X10072205Y-7887150D01*
X10072205Y-7887150D02*
X10100777Y-7887150D01*
X10100777Y-7887150D02*
X10119825Y-7896674D01*
X10119825Y-7896674D02*
X10129348Y-7915722D01*
X10129348Y-7915722D02*
X10129348Y-8020484D01*
X10224586Y-8020484D02*
X10224586Y-7887150D01*
X10224586Y-7906198D02*
X10234110Y-7896674D01*
X10234110Y-7896674D02*
X10253158Y-7887150D01*
X10253158Y-7887150D02*
X10281729Y-7887150D01*
X10281729Y-7887150D02*
X10300777Y-7896674D01*
X10300777Y-7896674D02*
X10310301Y-7915722D01*
X10310301Y-7915722D02*
X10310301Y-8020484D01*
X10310301Y-7915722D02*
X10319825Y-7896674D01*
X10319825Y-7896674D02*
X10338872Y-7887150D01*
X10338872Y-7887150D02*
X10367444Y-7887150D01*
X10367444Y-7887150D02*
X10386491Y-7896674D01*
X10386491Y-7896674D02*
X10396015Y-7915722D01*
X10396015Y-7915722D02*
X10396015Y-8020484D01*
X10786491Y-7810960D02*
X10615063Y-8068103D01*
X11043634Y-7820484D02*
X11062682Y-7820484D01*
X11062682Y-7820484D02*
X11081729Y-7830008D01*
X11081729Y-7830008D02*
X11091253Y-7839531D01*
X11091253Y-7839531D02*
X11100777Y-7858579D01*
X11100777Y-7858579D02*
X11110301Y-7896674D01*
X11110301Y-7896674D02*
X11110301Y-7944293D01*
X11110301Y-7944293D02*
X11100777Y-7982388D01*
X11100777Y-7982388D02*
X11091253Y-8001436D01*
X11091253Y-8001436D02*
X11081729Y-8010960D01*
X11081729Y-8010960D02*
X11062682Y-8020484D01*
X11062682Y-8020484D02*
X11043634Y-8020484D01*
X11043634Y-8020484D02*
X11024587Y-8010960D01*
X11024587Y-8010960D02*
X11015063Y-8001436D01*
X11015063Y-8001436D02*
X11005539Y-7982388D01*
X11005539Y-7982388D02*
X10996015Y-7944293D01*
X10996015Y-7944293D02*
X10996015Y-7896674D01*
X10996015Y-7896674D02*
X11005539Y-7858579D01*
X11005539Y-7858579D02*
X11015063Y-7839531D01*
X11015063Y-7839531D02*
X11024587Y-7830008D01*
X11024587Y-7830008D02*
X11043634Y-7820484D01*
X11196015Y-8001436D02*
X11205539Y-8010960D01*
X11205539Y-8010960D02*
X11196015Y-8020484D01*
X11196015Y-8020484D02*
X11186491Y-8010960D01*
X11186491Y-8010960D02*
X11196015Y-8001436D01*
X11196015Y-8001436D02*
X11196015Y-8020484D01*
X11329348Y-7820484D02*
X11348396Y-7820484D01*
X11348396Y-7820484D02*
X11367444Y-7830008D01*
X11367444Y-7830008D02*
X11376967Y-7839531D01*
X11376967Y-7839531D02*
X11386491Y-7858579D01*
X11386491Y-7858579D02*
X11396015Y-7896674D01*
X11396015Y-7896674D02*
X11396015Y-7944293D01*
X11396015Y-7944293D02*
X11386491Y-7982388D01*
X11386491Y-7982388D02*
X11376967Y-8001436D01*
X11376967Y-8001436D02*
X11367444Y-8010960D01*
X11367444Y-8010960D02*
X11348396Y-8020484D01*
X11348396Y-8020484D02*
X11329348Y-8020484D01*
X11329348Y-8020484D02*
X11310301Y-8010960D01*
X11310301Y-8010960D02*
X11300777Y-8001436D01*
X11300777Y-8001436D02*
X11291253Y-7982388D01*
X11291253Y-7982388D02*
X11281729Y-7944293D01*
X11281729Y-7944293D02*
X11281729Y-7896674D01*
X11281729Y-7896674D02*
X11291253Y-7858579D01*
X11291253Y-7858579D02*
X11300777Y-7839531D01*
X11300777Y-7839531D02*
X11310301Y-7830008D01*
X11310301Y-7830008D02*
X11329348Y-7820484D01*
X11462682Y-7820484D02*
X11586491Y-7820484D01*
X11586491Y-7820484D02*
X11519825Y-7896674D01*
X11519825Y-7896674D02*
X11548396Y-7896674D01*
X11548396Y-7896674D02*
X11567444Y-7906198D01*
X11567444Y-7906198D02*
X11576967Y-7915722D01*
X11576967Y-7915722D02*
X11586491Y-7934769D01*
X11586491Y-7934769D02*
X11586491Y-7982388D01*
X11586491Y-7982388D02*
X11576967Y-8001436D01*
X11576967Y-8001436D02*
X11567444Y-8010960D01*
X11567444Y-8010960D02*
X11548396Y-8020484D01*
X11548396Y-8020484D02*
X11491253Y-8020484D01*
X11491253Y-8020484D02*
X11472206Y-8010960D01*
X11472206Y-8010960D02*
X11462682Y-8001436D01*
X11767444Y-7820484D02*
X11672206Y-7820484D01*
X11672206Y-7820484D02*
X11662682Y-7915722D01*
X11662682Y-7915722D02*
X11672206Y-7906198D01*
X11672206Y-7906198D02*
X11691253Y-7896674D01*
X11691253Y-7896674D02*
X11738872Y-7896674D01*
X11738872Y-7896674D02*
X11757920Y-7906198D01*
X11757920Y-7906198D02*
X11767444Y-7915722D01*
X11767444Y-7915722D02*
X11776967Y-7934769D01*
X11776967Y-7934769D02*
X11776967Y-7982388D01*
X11776967Y-7982388D02*
X11767444Y-8001436D01*
X11767444Y-8001436D02*
X11757920Y-8010960D01*
X11757920Y-8010960D02*
X11738872Y-8020484D01*
X11738872Y-8020484D02*
X11691253Y-8020484D01*
X11691253Y-8020484D02*
X11672206Y-8010960D01*
X11672206Y-8010960D02*
X11662682Y-8001436D01*
X11891253Y-7906198D02*
X11872206Y-7896674D01*
X11872206Y-7896674D02*
X11862682Y-7887150D01*
X11862682Y-7887150D02*
X11853158Y-7868103D01*
X11853158Y-7868103D02*
X11853158Y-7858579D01*
X11853158Y-7858579D02*
X11862682Y-7839531D01*
X11862682Y-7839531D02*
X11872206Y-7830008D01*
X11872206Y-7830008D02*
X11891253Y-7820484D01*
X11891253Y-7820484D02*
X11929348Y-7820484D01*
X11929348Y-7820484D02*
X11948396Y-7830008D01*
X11948396Y-7830008D02*
X11957920Y-7839531D01*
X11957920Y-7839531D02*
X11967444Y-7858579D01*
X11967444Y-7858579D02*
X11967444Y-7868103D01*
X11967444Y-7868103D02*
X11957920Y-7887150D01*
X11957920Y-7887150D02*
X11948396Y-7896674D01*
X11948396Y-7896674D02*
X11929348Y-7906198D01*
X11929348Y-7906198D02*
X11891253Y-7906198D01*
X11891253Y-7906198D02*
X11872206Y-7915722D01*
X11872206Y-7915722D02*
X11862682Y-7925246D01*
X11862682Y-7925246D02*
X11853158Y-7944293D01*
X11853158Y-7944293D02*
X11853158Y-7982388D01*
X11853158Y-7982388D02*
X11862682Y-8001436D01*
X11862682Y-8001436D02*
X11872206Y-8010960D01*
X11872206Y-8010960D02*
X11891253Y-8020484D01*
X11891253Y-8020484D02*
X11929348Y-8020484D01*
X11929348Y-8020484D02*
X11948396Y-8010960D01*
X11948396Y-8010960D02*
X11957920Y-8001436D01*
X11957920Y-8001436D02*
X11967444Y-7982388D01*
X11967444Y-7982388D02*
X11967444Y-7944293D01*
X11967444Y-7944293D02*
X11957920Y-7925246D01*
X11957920Y-7925246D02*
X11948396Y-7915722D01*
X11948396Y-7915722D02*
X11929348Y-7906198D01*
X12043634Y-7820484D02*
X12043634Y-7858579D01*
X12119825Y-7820484D02*
X12119825Y-7858579D01*
X12415063Y-8096674D02*
X12405539Y-8087150D01*
X12405539Y-8087150D02*
X12386491Y-8058579D01*
X12386491Y-8058579D02*
X12376968Y-8039531D01*
X12376968Y-8039531D02*
X12367444Y-8010960D01*
X12367444Y-8010960D02*
X12357920Y-7963341D01*
X12357920Y-7963341D02*
X12357920Y-7925246D01*
X12357920Y-7925246D02*
X12367444Y-7877627D01*
X12367444Y-7877627D02*
X12376968Y-7849055D01*
X12376968Y-7849055D02*
X12386491Y-7830008D01*
X12386491Y-7830008D02*
X12405539Y-7801436D01*
X12405539Y-7801436D02*
X12415063Y-7791912D01*
X12576968Y-7887150D02*
X12576968Y-8020484D01*
X12529348Y-7810960D02*
X12481729Y-7953817D01*
X12481729Y-7953817D02*
X12605539Y-7953817D01*
X12834110Y-8020484D02*
X12834110Y-7820484D01*
X12919825Y-8020484D02*
X12919825Y-7915722D01*
X12919825Y-7915722D02*
X12910301Y-7896674D01*
X12910301Y-7896674D02*
X12891253Y-7887150D01*
X12891253Y-7887150D02*
X12862682Y-7887150D01*
X12862682Y-7887150D02*
X12843634Y-7896674D01*
X12843634Y-7896674D02*
X12834110Y-7906198D01*
X13043634Y-8020484D02*
X13024587Y-8010960D01*
X13024587Y-8010960D02*
X13015063Y-8001436D01*
X13015063Y-8001436D02*
X13005539Y-7982388D01*
X13005539Y-7982388D02*
X13005539Y-7925246D01*
X13005539Y-7925246D02*
X13015063Y-7906198D01*
X13015063Y-7906198D02*
X13024587Y-7896674D01*
X13024587Y-7896674D02*
X13043634Y-7887150D01*
X13043634Y-7887150D02*
X13072206Y-7887150D01*
X13072206Y-7887150D02*
X13091253Y-7896674D01*
X13091253Y-7896674D02*
X13100777Y-7906198D01*
X13100777Y-7906198D02*
X13110301Y-7925246D01*
X13110301Y-7925246D02*
X13110301Y-7982388D01*
X13110301Y-7982388D02*
X13100777Y-8001436D01*
X13100777Y-8001436D02*
X13091253Y-8010960D01*
X13091253Y-8010960D02*
X13072206Y-8020484D01*
X13072206Y-8020484D02*
X13043634Y-8020484D01*
X13224587Y-8020484D02*
X13205539Y-8010960D01*
X13205539Y-8010960D02*
X13196015Y-7991912D01*
X13196015Y-7991912D02*
X13196015Y-7820484D01*
X13376968Y-8010960D02*
X13357920Y-8020484D01*
X13357920Y-8020484D02*
X13319825Y-8020484D01*
X13319825Y-8020484D02*
X13300777Y-8010960D01*
X13300777Y-8010960D02*
X13291253Y-7991912D01*
X13291253Y-7991912D02*
X13291253Y-7915722D01*
X13291253Y-7915722D02*
X13300777Y-7896674D01*
X13300777Y-7896674D02*
X13319825Y-7887150D01*
X13319825Y-7887150D02*
X13357920Y-7887150D01*
X13357920Y-7887150D02*
X13376968Y-7896674D01*
X13376968Y-7896674D02*
X13386491Y-7915722D01*
X13386491Y-7915722D02*
X13386491Y-7934769D01*
X13386491Y-7934769D02*
X13291253Y-7953817D01*
X13462682Y-8010960D02*
X13481730Y-8020484D01*
X13481730Y-8020484D02*
X13519825Y-8020484D01*
X13519825Y-8020484D02*
X13538872Y-8010960D01*
X13538872Y-8010960D02*
X13548396Y-7991912D01*
X13548396Y-7991912D02*
X13548396Y-7982388D01*
X13548396Y-7982388D02*
X13538872Y-7963341D01*
X13538872Y-7963341D02*
X13519825Y-7953817D01*
X13519825Y-7953817D02*
X13491253Y-7953817D01*
X13491253Y-7953817D02*
X13472206Y-7944293D01*
X13472206Y-7944293D02*
X13462682Y-7925246D01*
X13462682Y-7925246D02*
X13462682Y-7915722D01*
X13462682Y-7915722D02*
X13472206Y-7896674D01*
X13472206Y-7896674D02*
X13491253Y-7887150D01*
X13491253Y-7887150D02*
X13519825Y-7887150D01*
X13519825Y-7887150D02*
X13538872Y-7896674D01*
X13615063Y-8096674D02*
X13624587Y-8087150D01*
X13624587Y-8087150D02*
X13643634Y-8058579D01*
X13643634Y-8058579D02*
X13653158Y-8039531D01*
X13653158Y-8039531D02*
X13662682Y-8010960D01*
X13662682Y-8010960D02*
X13672206Y-7963341D01*
X13672206Y-7963341D02*
X13672206Y-7925246D01*
X13672206Y-7925246D02*
X13662682Y-7877627D01*
X13662682Y-7877627D02*
X13653158Y-7849055D01*
X13653158Y-7849055D02*
X13643634Y-7830008D01*
X13643634Y-7830008D02*
X13624587Y-7801436D01*
X13624587Y-7801436D02*
X13615063Y-7791912D01*
D13*
X8840000Y-8193000D02*
G75*
G03*
X8840000Y-8193000I-50000J0D01*
G01*
D11*
X9205539Y-8284484D02*
X9091253Y-8284484D01*
X9148396Y-8284484D02*
X9148396Y-8084484D01*
X9148396Y-8084484D02*
X9129348Y-8113055D01*
X9129348Y-8113055D02*
X9110301Y-8132103D01*
X9110301Y-8132103D02*
X9091253Y-8141627D01*
X9291253Y-8265436D02*
X9300777Y-8274960D01*
X9300777Y-8274960D02*
X9291253Y-8284484D01*
X9291253Y-8284484D02*
X9281729Y-8274960D01*
X9281729Y-8274960D02*
X9291253Y-8265436D01*
X9291253Y-8265436D02*
X9291253Y-8284484D01*
X9424586Y-8084484D02*
X9443634Y-8084484D01*
X9443634Y-8084484D02*
X9462682Y-8094008D01*
X9462682Y-8094008D02*
X9472205Y-8103531D01*
X9472205Y-8103531D02*
X9481729Y-8122579D01*
X9481729Y-8122579D02*
X9491253Y-8160674D01*
X9491253Y-8160674D02*
X9491253Y-8208293D01*
X9491253Y-8208293D02*
X9481729Y-8246388D01*
X9481729Y-8246388D02*
X9472205Y-8265436D01*
X9472205Y-8265436D02*
X9462682Y-8274960D01*
X9462682Y-8274960D02*
X9443634Y-8284484D01*
X9443634Y-8284484D02*
X9424586Y-8284484D01*
X9424586Y-8284484D02*
X9405539Y-8274960D01*
X9405539Y-8274960D02*
X9396015Y-8265436D01*
X9396015Y-8265436D02*
X9386491Y-8246388D01*
X9386491Y-8246388D02*
X9376967Y-8208293D01*
X9376967Y-8208293D02*
X9376967Y-8160674D01*
X9376967Y-8160674D02*
X9386491Y-8122579D01*
X9386491Y-8122579D02*
X9396015Y-8103531D01*
X9396015Y-8103531D02*
X9405539Y-8094008D01*
X9405539Y-8094008D02*
X9424586Y-8084484D01*
X9615063Y-8084484D02*
X9634110Y-8084484D01*
X9634110Y-8084484D02*
X9653158Y-8094008D01*
X9653158Y-8094008D02*
X9662682Y-8103531D01*
X9662682Y-8103531D02*
X9672205Y-8122579D01*
X9672205Y-8122579D02*
X9681729Y-8160674D01*
X9681729Y-8160674D02*
X9681729Y-8208293D01*
X9681729Y-8208293D02*
X9672205Y-8246388D01*
X9672205Y-8246388D02*
X9662682Y-8265436D01*
X9662682Y-8265436D02*
X9653158Y-8274960D01*
X9653158Y-8274960D02*
X9634110Y-8284484D01*
X9634110Y-8284484D02*
X9615063Y-8284484D01*
X9615063Y-8284484D02*
X9596015Y-8274960D01*
X9596015Y-8274960D02*
X9586491Y-8265436D01*
X9586491Y-8265436D02*
X9576967Y-8246388D01*
X9576967Y-8246388D02*
X9567444Y-8208293D01*
X9567444Y-8208293D02*
X9567444Y-8160674D01*
X9567444Y-8160674D02*
X9576967Y-8122579D01*
X9576967Y-8122579D02*
X9586491Y-8103531D01*
X9586491Y-8103531D02*
X9596015Y-8094008D01*
X9596015Y-8094008D02*
X9615063Y-8084484D01*
X9805539Y-8084484D02*
X9824586Y-8084484D01*
X9824586Y-8084484D02*
X9843634Y-8094008D01*
X9843634Y-8094008D02*
X9853158Y-8103531D01*
X9853158Y-8103531D02*
X9862682Y-8122579D01*
X9862682Y-8122579D02*
X9872205Y-8160674D01*
X9872205Y-8160674D02*
X9872205Y-8208293D01*
X9872205Y-8208293D02*
X9862682Y-8246388D01*
X9862682Y-8246388D02*
X9853158Y-8265436D01*
X9853158Y-8265436D02*
X9843634Y-8274960D01*
X9843634Y-8274960D02*
X9824586Y-8284484D01*
X9824586Y-8284484D02*
X9805539Y-8284484D01*
X9805539Y-8284484D02*
X9786491Y-8274960D01*
X9786491Y-8274960D02*
X9776967Y-8265436D01*
X9776967Y-8265436D02*
X9767444Y-8246388D01*
X9767444Y-8246388D02*
X9757920Y-8208293D01*
X9757920Y-8208293D02*
X9757920Y-8160674D01*
X9757920Y-8160674D02*
X9767444Y-8122579D01*
X9767444Y-8122579D02*
X9776967Y-8103531D01*
X9776967Y-8103531D02*
X9786491Y-8094008D01*
X9786491Y-8094008D02*
X9805539Y-8084484D01*
X9957920Y-8284484D02*
X9957920Y-8151150D01*
X9957920Y-8170198D02*
X9967444Y-8160674D01*
X9967444Y-8160674D02*
X9986491Y-8151150D01*
X9986491Y-8151150D02*
X10015063Y-8151150D01*
X10015063Y-8151150D02*
X10034110Y-8160674D01*
X10034110Y-8160674D02*
X10043634Y-8179722D01*
X10043634Y-8179722D02*
X10043634Y-8284484D01*
X10043634Y-8179722D02*
X10053158Y-8160674D01*
X10053158Y-8160674D02*
X10072205Y-8151150D01*
X10072205Y-8151150D02*
X10100777Y-8151150D01*
X10100777Y-8151150D02*
X10119825Y-8160674D01*
X10119825Y-8160674D02*
X10129348Y-8179722D01*
X10129348Y-8179722D02*
X10129348Y-8284484D01*
X10224586Y-8284484D02*
X10224586Y-8151150D01*
X10224586Y-8170198D02*
X10234110Y-8160674D01*
X10234110Y-8160674D02*
X10253158Y-8151150D01*
X10253158Y-8151150D02*
X10281729Y-8151150D01*
X10281729Y-8151150D02*
X10300777Y-8160674D01*
X10300777Y-8160674D02*
X10310301Y-8179722D01*
X10310301Y-8179722D02*
X10310301Y-8284484D01*
X10310301Y-8179722D02*
X10319825Y-8160674D01*
X10319825Y-8160674D02*
X10338872Y-8151150D01*
X10338872Y-8151150D02*
X10367444Y-8151150D01*
X10367444Y-8151150D02*
X10386491Y-8160674D01*
X10386491Y-8160674D02*
X10396015Y-8179722D01*
X10396015Y-8179722D02*
X10396015Y-8284484D01*
X10786491Y-8074960D02*
X10615063Y-8332103D01*
X11043634Y-8084484D02*
X11062682Y-8084484D01*
X11062682Y-8084484D02*
X11081729Y-8094008D01*
X11081729Y-8094008D02*
X11091253Y-8103531D01*
X11091253Y-8103531D02*
X11100777Y-8122579D01*
X11100777Y-8122579D02*
X11110301Y-8160674D01*
X11110301Y-8160674D02*
X11110301Y-8208293D01*
X11110301Y-8208293D02*
X11100777Y-8246388D01*
X11100777Y-8246388D02*
X11091253Y-8265436D01*
X11091253Y-8265436D02*
X11081729Y-8274960D01*
X11081729Y-8274960D02*
X11062682Y-8284484D01*
X11062682Y-8284484D02*
X11043634Y-8284484D01*
X11043634Y-8284484D02*
X11024587Y-8274960D01*
X11024587Y-8274960D02*
X11015063Y-8265436D01*
X11015063Y-8265436D02*
X11005539Y-8246388D01*
X11005539Y-8246388D02*
X10996015Y-8208293D01*
X10996015Y-8208293D02*
X10996015Y-8160674D01*
X10996015Y-8160674D02*
X11005539Y-8122579D01*
X11005539Y-8122579D02*
X11015063Y-8103531D01*
X11015063Y-8103531D02*
X11024587Y-8094008D01*
X11024587Y-8094008D02*
X11043634Y-8084484D01*
X11196015Y-8265436D02*
X11205539Y-8274960D01*
X11205539Y-8274960D02*
X11196015Y-8284484D01*
X11196015Y-8284484D02*
X11186491Y-8274960D01*
X11186491Y-8274960D02*
X11196015Y-8265436D01*
X11196015Y-8265436D02*
X11196015Y-8284484D01*
X11329348Y-8084484D02*
X11348396Y-8084484D01*
X11348396Y-8084484D02*
X11367444Y-8094008D01*
X11367444Y-8094008D02*
X11376967Y-8103531D01*
X11376967Y-8103531D02*
X11386491Y-8122579D01*
X11386491Y-8122579D02*
X11396015Y-8160674D01*
X11396015Y-8160674D02*
X11396015Y-8208293D01*
X11396015Y-8208293D02*
X11386491Y-8246388D01*
X11386491Y-8246388D02*
X11376967Y-8265436D01*
X11376967Y-8265436D02*
X11367444Y-8274960D01*
X11367444Y-8274960D02*
X11348396Y-8284484D01*
X11348396Y-8284484D02*
X11329348Y-8284484D01*
X11329348Y-8284484D02*
X11310301Y-8274960D01*
X11310301Y-8274960D02*
X11300777Y-8265436D01*
X11300777Y-8265436D02*
X11291253Y-8246388D01*
X11291253Y-8246388D02*
X11281729Y-8208293D01*
X11281729Y-8208293D02*
X11281729Y-8160674D01*
X11281729Y-8160674D02*
X11291253Y-8122579D01*
X11291253Y-8122579D02*
X11300777Y-8103531D01*
X11300777Y-8103531D02*
X11310301Y-8094008D01*
X11310301Y-8094008D02*
X11329348Y-8084484D01*
X11462682Y-8084484D02*
X11586491Y-8084484D01*
X11586491Y-8084484D02*
X11519825Y-8160674D01*
X11519825Y-8160674D02*
X11548396Y-8160674D01*
X11548396Y-8160674D02*
X11567444Y-8170198D01*
X11567444Y-8170198D02*
X11576967Y-8179722D01*
X11576967Y-8179722D02*
X11586491Y-8198769D01*
X11586491Y-8198769D02*
X11586491Y-8246388D01*
X11586491Y-8246388D02*
X11576967Y-8265436D01*
X11576967Y-8265436D02*
X11567444Y-8274960D01*
X11567444Y-8274960D02*
X11548396Y-8284484D01*
X11548396Y-8284484D02*
X11491253Y-8284484D01*
X11491253Y-8284484D02*
X11472206Y-8274960D01*
X11472206Y-8274960D02*
X11462682Y-8265436D01*
X11681729Y-8284484D02*
X11719825Y-8284484D01*
X11719825Y-8284484D02*
X11738872Y-8274960D01*
X11738872Y-8274960D02*
X11748396Y-8265436D01*
X11748396Y-8265436D02*
X11767444Y-8236865D01*
X11767444Y-8236865D02*
X11776967Y-8198769D01*
X11776967Y-8198769D02*
X11776967Y-8122579D01*
X11776967Y-8122579D02*
X11767444Y-8103531D01*
X11767444Y-8103531D02*
X11757920Y-8094008D01*
X11757920Y-8094008D02*
X11738872Y-8084484D01*
X11738872Y-8084484D02*
X11700777Y-8084484D01*
X11700777Y-8084484D02*
X11681729Y-8094008D01*
X11681729Y-8094008D02*
X11672206Y-8103531D01*
X11672206Y-8103531D02*
X11662682Y-8122579D01*
X11662682Y-8122579D02*
X11662682Y-8170198D01*
X11662682Y-8170198D02*
X11672206Y-8189246D01*
X11672206Y-8189246D02*
X11681729Y-8198769D01*
X11681729Y-8198769D02*
X11700777Y-8208293D01*
X11700777Y-8208293D02*
X11738872Y-8208293D01*
X11738872Y-8208293D02*
X11757920Y-8198769D01*
X11757920Y-8198769D02*
X11767444Y-8189246D01*
X11767444Y-8189246D02*
X11776967Y-8170198D01*
X11948396Y-8151150D02*
X11948396Y-8284484D01*
X11900777Y-8074960D02*
X11853158Y-8217817D01*
X11853158Y-8217817D02*
X11976967Y-8217817D01*
X12043634Y-8084484D02*
X12043634Y-8122579D01*
X12119825Y-8084484D02*
X12119825Y-8122579D01*
X12415063Y-8360674D02*
X12405539Y-8351150D01*
X12405539Y-8351150D02*
X12386491Y-8322579D01*
X12386491Y-8322579D02*
X12376968Y-8303531D01*
X12376968Y-8303531D02*
X12367444Y-8274960D01*
X12367444Y-8274960D02*
X12357920Y-8227341D01*
X12357920Y-8227341D02*
X12357920Y-8189246D01*
X12357920Y-8189246D02*
X12367444Y-8141627D01*
X12367444Y-8141627D02*
X12376968Y-8113055D01*
X12376968Y-8113055D02*
X12386491Y-8094008D01*
X12386491Y-8094008D02*
X12405539Y-8065436D01*
X12405539Y-8065436D02*
X12415063Y-8055912D01*
X12576968Y-8084484D02*
X12538872Y-8084484D01*
X12538872Y-8084484D02*
X12519825Y-8094008D01*
X12519825Y-8094008D02*
X12510301Y-8103531D01*
X12510301Y-8103531D02*
X12491253Y-8132103D01*
X12491253Y-8132103D02*
X12481729Y-8170198D01*
X12481729Y-8170198D02*
X12481729Y-8246388D01*
X12481729Y-8246388D02*
X12491253Y-8265436D01*
X12491253Y-8265436D02*
X12500777Y-8274960D01*
X12500777Y-8274960D02*
X12519825Y-8284484D01*
X12519825Y-8284484D02*
X12557920Y-8284484D01*
X12557920Y-8284484D02*
X12576968Y-8274960D01*
X12576968Y-8274960D02*
X12586491Y-8265436D01*
X12586491Y-8265436D02*
X12596015Y-8246388D01*
X12596015Y-8246388D02*
X12596015Y-8198769D01*
X12596015Y-8198769D02*
X12586491Y-8179722D01*
X12586491Y-8179722D02*
X12576968Y-8170198D01*
X12576968Y-8170198D02*
X12557920Y-8160674D01*
X12557920Y-8160674D02*
X12519825Y-8160674D01*
X12519825Y-8160674D02*
X12500777Y-8170198D01*
X12500777Y-8170198D02*
X12491253Y-8179722D01*
X12491253Y-8179722D02*
X12481729Y-8198769D01*
X12834110Y-8284484D02*
X12834110Y-8084484D01*
X12919825Y-8284484D02*
X12919825Y-8179722D01*
X12919825Y-8179722D02*
X12910301Y-8160674D01*
X12910301Y-8160674D02*
X12891253Y-8151150D01*
X12891253Y-8151150D02*
X12862682Y-8151150D01*
X12862682Y-8151150D02*
X12843634Y-8160674D01*
X12843634Y-8160674D02*
X12834110Y-8170198D01*
X13043634Y-8284484D02*
X13024587Y-8274960D01*
X13024587Y-8274960D02*
X13015063Y-8265436D01*
X13015063Y-8265436D02*
X13005539Y-8246388D01*
X13005539Y-8246388D02*
X13005539Y-8189246D01*
X13005539Y-8189246D02*
X13015063Y-8170198D01*
X13015063Y-8170198D02*
X13024587Y-8160674D01*
X13024587Y-8160674D02*
X13043634Y-8151150D01*
X13043634Y-8151150D02*
X13072206Y-8151150D01*
X13072206Y-8151150D02*
X13091253Y-8160674D01*
X13091253Y-8160674D02*
X13100777Y-8170198D01*
X13100777Y-8170198D02*
X13110301Y-8189246D01*
X13110301Y-8189246D02*
X13110301Y-8246388D01*
X13110301Y-8246388D02*
X13100777Y-8265436D01*
X13100777Y-8265436D02*
X13091253Y-8274960D01*
X13091253Y-8274960D02*
X13072206Y-8284484D01*
X13072206Y-8284484D02*
X13043634Y-8284484D01*
X13224587Y-8284484D02*
X13205539Y-8274960D01*
X13205539Y-8274960D02*
X13196015Y-8255912D01*
X13196015Y-8255912D02*
X13196015Y-8084484D01*
X13376968Y-8274960D02*
X13357920Y-8284484D01*
X13357920Y-8284484D02*
X13319825Y-8284484D01*
X13319825Y-8284484D02*
X13300777Y-8274960D01*
X13300777Y-8274960D02*
X13291253Y-8255912D01*
X13291253Y-8255912D02*
X13291253Y-8179722D01*
X13291253Y-8179722D02*
X13300777Y-8160674D01*
X13300777Y-8160674D02*
X13319825Y-8151150D01*
X13319825Y-8151150D02*
X13357920Y-8151150D01*
X13357920Y-8151150D02*
X13376968Y-8160674D01*
X13376968Y-8160674D02*
X13386491Y-8179722D01*
X13386491Y-8179722D02*
X13386491Y-8198769D01*
X13386491Y-8198769D02*
X13291253Y-8217817D01*
X13462682Y-8274960D02*
X13481730Y-8284484D01*
X13481730Y-8284484D02*
X13519825Y-8284484D01*
X13519825Y-8284484D02*
X13538872Y-8274960D01*
X13538872Y-8274960D02*
X13548396Y-8255912D01*
X13548396Y-8255912D02*
X13548396Y-8246388D01*
X13548396Y-8246388D02*
X13538872Y-8227341D01*
X13538872Y-8227341D02*
X13519825Y-8217817D01*
X13519825Y-8217817D02*
X13491253Y-8217817D01*
X13491253Y-8217817D02*
X13472206Y-8208293D01*
X13472206Y-8208293D02*
X13462682Y-8189246D01*
X13462682Y-8189246D02*
X13462682Y-8179722D01*
X13462682Y-8179722D02*
X13472206Y-8160674D01*
X13472206Y-8160674D02*
X13491253Y-8151150D01*
X13491253Y-8151150D02*
X13519825Y-8151150D01*
X13519825Y-8151150D02*
X13538872Y-8160674D01*
X13615063Y-8360674D02*
X13624587Y-8351150D01*
X13624587Y-8351150D02*
X13643634Y-8322579D01*
X13643634Y-8322579D02*
X13653158Y-8303531D01*
X13653158Y-8303531D02*
X13662682Y-8274960D01*
X13662682Y-8274960D02*
X13672206Y-8227341D01*
X13672206Y-8227341D02*
X13672206Y-8189246D01*
X13672206Y-8189246D02*
X13662682Y-8141627D01*
X13662682Y-8141627D02*
X13653158Y-8113055D01*
X13653158Y-8113055D02*
X13643634Y-8094008D01*
X13643634Y-8094008D02*
X13624587Y-8065436D01*
X13624587Y-8065436D02*
X13615063Y-8055912D01*
M02*
