G04 #@! TF.GenerationSoftware,KiCad,Pcbnew,7.0.6*
G04 #@! TF.CreationDate,2023-10-13T18:17:15+03:00*
G04 #@! TF.ProjectId,colorimeter-led,636f6c6f-7269-46d6-9574-65722d6c6564,rev?*
G04 #@! TF.SameCoordinates,Original*
G04 #@! TF.FileFunction,Legend,Bot*
G04 #@! TF.FilePolarity,Positive*
%FSLAX46Y46*%
G04 Gerber Fmt 4.6, Leading zero omitted, Abs format (unit mm)*
G04 Created by KiCad (PCBNEW 7.0.6) date 2023-10-13 18:17:15*
%MOMM*%
%LPD*%
G01*
G04 APERTURE LIST*
%ADD10C,0.100000*%
%ADD11C,1.150000*%
%ADD12R,1.700000X1.700000*%
%ADD13O,1.700000X1.700000*%
G04 APERTURE END LIST*
D10*
X105531104Y-70482782D02*
X105531104Y-70863734D01*
X105531104Y-70863734D02*
X106331104Y-70863734D01*
X105950152Y-70216115D02*
X105950152Y-69949449D01*
X105531104Y-69835163D02*
X105531104Y-70216115D01*
X105531104Y-70216115D02*
X106331104Y-70216115D01*
X106331104Y-70216115D02*
X106331104Y-69835163D01*
X105531104Y-69492305D02*
X106331104Y-69492305D01*
X106331104Y-69492305D02*
X106331104Y-69301829D01*
X106331104Y-69301829D02*
X106293009Y-69187543D01*
X106293009Y-69187543D02*
X106216819Y-69111353D01*
X106216819Y-69111353D02*
X106140628Y-69073258D01*
X106140628Y-69073258D02*
X105988247Y-69035162D01*
X105988247Y-69035162D02*
X105873961Y-69035162D01*
X105873961Y-69035162D02*
X105721580Y-69073258D01*
X105721580Y-69073258D02*
X105645390Y-69111353D01*
X105645390Y-69111353D02*
X105569200Y-69187543D01*
X105569200Y-69187543D02*
X105531104Y-69301829D01*
X105531104Y-69301829D02*
X105531104Y-69492305D01*
X105531104Y-67625638D02*
X105912057Y-67892305D01*
X105531104Y-68082781D02*
X106331104Y-68082781D01*
X106331104Y-68082781D02*
X106331104Y-67778019D01*
X106331104Y-67778019D02*
X106293009Y-67701829D01*
X106293009Y-67701829D02*
X106254914Y-67663734D01*
X106254914Y-67663734D02*
X106178723Y-67625638D01*
X106178723Y-67625638D02*
X106064438Y-67625638D01*
X106064438Y-67625638D02*
X105988247Y-67663734D01*
X105988247Y-67663734D02*
X105950152Y-67701829D01*
X105950152Y-67701829D02*
X105912057Y-67778019D01*
X105912057Y-67778019D02*
X105912057Y-68082781D01*
X105531104Y-67282781D02*
X106064438Y-67282781D01*
X106331104Y-67282781D02*
X106293009Y-67320877D01*
X106293009Y-67320877D02*
X106254914Y-67282781D01*
X106254914Y-67282781D02*
X106293009Y-67244686D01*
X106293009Y-67244686D02*
X106331104Y-67282781D01*
X106331104Y-67282781D02*
X106254914Y-67282781D01*
X105569200Y-66939925D02*
X105531104Y-66863734D01*
X105531104Y-66863734D02*
X105531104Y-66711353D01*
X105531104Y-66711353D02*
X105569200Y-66635163D01*
X105569200Y-66635163D02*
X105645390Y-66597067D01*
X105645390Y-66597067D02*
X105683485Y-66597067D01*
X105683485Y-66597067D02*
X105759676Y-66635163D01*
X105759676Y-66635163D02*
X105797771Y-66711353D01*
X105797771Y-66711353D02*
X105797771Y-66825639D01*
X105797771Y-66825639D02*
X105835866Y-66901829D01*
X105835866Y-66901829D02*
X105912057Y-66939925D01*
X105912057Y-66939925D02*
X105950152Y-66939925D01*
X105950152Y-66939925D02*
X106026342Y-66901829D01*
X106026342Y-66901829D02*
X106064438Y-66825639D01*
X106064438Y-66825639D02*
X106064438Y-66711353D01*
X106064438Y-66711353D02*
X106026342Y-66635163D01*
X105569200Y-65949448D02*
X105531104Y-66025639D01*
X105531104Y-66025639D02*
X105531104Y-66178020D01*
X105531104Y-66178020D02*
X105569200Y-66254210D01*
X105569200Y-66254210D02*
X105645390Y-66292306D01*
X105645390Y-66292306D02*
X105950152Y-66292306D01*
X105950152Y-66292306D02*
X106026342Y-66254210D01*
X106026342Y-66254210D02*
X106064438Y-66178020D01*
X106064438Y-66178020D02*
X106064438Y-66025639D01*
X106064438Y-66025639D02*
X106026342Y-65949448D01*
X106026342Y-65949448D02*
X105950152Y-65911353D01*
X105950152Y-65911353D02*
X105873961Y-65911353D01*
X105873961Y-65911353D02*
X105797771Y-66292306D01*
X105531104Y-65568496D02*
X106064438Y-65568496D01*
X105912057Y-65568496D02*
X105988247Y-65530401D01*
X105988247Y-65530401D02*
X106026342Y-65492306D01*
X106026342Y-65492306D02*
X106064438Y-65416115D01*
X106064438Y-65416115D02*
X106064438Y-65339925D01*
X104776438Y-70939925D02*
X104243104Y-70749449D01*
X104243104Y-70749449D02*
X104776438Y-70558972D01*
X104243104Y-69835163D02*
X104243104Y-70292306D01*
X104243104Y-70063734D02*
X105043104Y-70063734D01*
X105043104Y-70063734D02*
X104928819Y-70139925D01*
X104928819Y-70139925D02*
X104852628Y-70216115D01*
X104852628Y-70216115D02*
X104814533Y-70292306D01*
%LPC*%
D11*
X109220000Y-69850000D03*
X109220000Y-68580000D03*
X109220000Y-67310000D03*
X109220000Y-66040000D03*
D12*
X101510000Y-65405000D03*
D13*
X98970000Y-65405000D03*
X101510000Y-67945000D03*
X98970000Y-67945000D03*
X101510000Y-70485000D03*
X98970000Y-70485000D03*
%LPD*%
M02*
