%TF.GenerationSoftware,KiCad,Pcbnew,7.0.6*%
%TF.CreationDate,2023-10-13T18:17:28+03:00*%
%TF.ProjectId,colorimeter-led,636f6c6f-7269-46d6-9574-65722d6c6564,rev?*%
%TF.SameCoordinates,Original*%
%TF.FileFunction,Drillmap*%
%TF.FilePolarity,Positive*%
%FSLAX45Y45*%
G04 Gerber Fmt 4.5, Leading zero omitted, Abs format (unit mm)*
G04 Created by KiCad (PCBNEW 7.0.6) date 2023-10-13 18:17:28*
%MOMM*%
%LPD*%
G01*
G04 APERTURE LIST*
%ADD10C,1.000000*%
%ADD11C,0.200000*%
G04 APERTURE END LIST*
D10*
X8890000Y-6350000D02*
X11239500Y-6350000D01*
X11239500Y-7239000D01*
X8890000Y-7239000D01*
X8890000Y-6350000D01*
D11*
X9100777Y-7600484D02*
X9100777Y-7400484D01*
X9100777Y-7400484D02*
X9148396Y-7400484D01*
X9148396Y-7400484D02*
X9176967Y-7410008D01*
X9176967Y-7410008D02*
X9196015Y-7429055D01*
X9196015Y-7429055D02*
X9205539Y-7448103D01*
X9205539Y-7448103D02*
X9215063Y-7486198D01*
X9215063Y-7486198D02*
X9215063Y-7514769D01*
X9215063Y-7514769D02*
X9205539Y-7552865D01*
X9205539Y-7552865D02*
X9196015Y-7571912D01*
X9196015Y-7571912D02*
X9176967Y-7590960D01*
X9176967Y-7590960D02*
X9148396Y-7600484D01*
X9148396Y-7600484D02*
X9100777Y-7600484D01*
X9300777Y-7600484D02*
X9300777Y-7467150D01*
X9300777Y-7505246D02*
X9310301Y-7486198D01*
X9310301Y-7486198D02*
X9319824Y-7476674D01*
X9319824Y-7476674D02*
X9338872Y-7467150D01*
X9338872Y-7467150D02*
X9357920Y-7467150D01*
X9424586Y-7600484D02*
X9424586Y-7467150D01*
X9424586Y-7400484D02*
X9415063Y-7410008D01*
X9415063Y-7410008D02*
X9424586Y-7419531D01*
X9424586Y-7419531D02*
X9434110Y-7410008D01*
X9434110Y-7410008D02*
X9424586Y-7400484D01*
X9424586Y-7400484D02*
X9424586Y-7419531D01*
X9548396Y-7600484D02*
X9529348Y-7590960D01*
X9529348Y-7590960D02*
X9519824Y-7571912D01*
X9519824Y-7571912D02*
X9519824Y-7400484D01*
X9653158Y-7600484D02*
X9634110Y-7590960D01*
X9634110Y-7590960D02*
X9624586Y-7571912D01*
X9624586Y-7571912D02*
X9624586Y-7400484D01*
X9881729Y-7600484D02*
X9881729Y-7400484D01*
X9881729Y-7400484D02*
X9948396Y-7543341D01*
X9948396Y-7543341D02*
X10015063Y-7400484D01*
X10015063Y-7400484D02*
X10015063Y-7600484D01*
X10196015Y-7600484D02*
X10196015Y-7495722D01*
X10196015Y-7495722D02*
X10186491Y-7476674D01*
X10186491Y-7476674D02*
X10167444Y-7467150D01*
X10167444Y-7467150D02*
X10129348Y-7467150D01*
X10129348Y-7467150D02*
X10110301Y-7476674D01*
X10196015Y-7590960D02*
X10176967Y-7600484D01*
X10176967Y-7600484D02*
X10129348Y-7600484D01*
X10129348Y-7600484D02*
X10110301Y-7590960D01*
X10110301Y-7590960D02*
X10100777Y-7571912D01*
X10100777Y-7571912D02*
X10100777Y-7552865D01*
X10100777Y-7552865D02*
X10110301Y-7533817D01*
X10110301Y-7533817D02*
X10129348Y-7524293D01*
X10129348Y-7524293D02*
X10176967Y-7524293D01*
X10176967Y-7524293D02*
X10196015Y-7514769D01*
X10291253Y-7467150D02*
X10291253Y-7667150D01*
X10291253Y-7476674D02*
X10310301Y-7467150D01*
X10310301Y-7467150D02*
X10348396Y-7467150D01*
X10348396Y-7467150D02*
X10367444Y-7476674D01*
X10367444Y-7476674D02*
X10376967Y-7486198D01*
X10376967Y-7486198D02*
X10386491Y-7505246D01*
X10386491Y-7505246D02*
X10386491Y-7562388D01*
X10386491Y-7562388D02*
X10376967Y-7581436D01*
X10376967Y-7581436D02*
X10367444Y-7590960D01*
X10367444Y-7590960D02*
X10348396Y-7600484D01*
X10348396Y-7600484D02*
X10310301Y-7600484D01*
X10310301Y-7600484D02*
X10291253Y-7590960D01*
X10472205Y-7581436D02*
X10481729Y-7590960D01*
X10481729Y-7590960D02*
X10472205Y-7600484D01*
X10472205Y-7600484D02*
X10462682Y-7590960D01*
X10462682Y-7590960D02*
X10472205Y-7581436D01*
X10472205Y-7581436D02*
X10472205Y-7600484D01*
X10472205Y-7476674D02*
X10481729Y-7486198D01*
X10481729Y-7486198D02*
X10472205Y-7495722D01*
X10472205Y-7495722D02*
X10462682Y-7486198D01*
X10462682Y-7486198D02*
X10472205Y-7476674D01*
X10472205Y-7476674D02*
X10472205Y-7495722D01*
M02*
