G04 #@! TF.GenerationSoftware,KiCad,Pcbnew,7.0.6*
G04 #@! TF.CreationDate,2023-10-13T18:17:15+03:00*
G04 #@! TF.ProjectId,colorimeter-led,636f6c6f-7269-46d6-9574-65722d6c6564,rev?*
G04 #@! TF.SameCoordinates,Original*
G04 #@! TF.FileFunction,Copper,L2,Bot*
G04 #@! TF.FilePolarity,Positive*
%FSLAX46Y46*%
G04 Gerber Fmt 4.6, Leading zero omitted, Abs format (unit mm)*
G04 Created by KiCad (PCBNEW 7.0.6) date 2023-10-13 18:17:15*
%MOMM*%
%LPD*%
G01*
G04 APERTURE LIST*
G04 #@! TA.AperFunction,ComponentPad*
%ADD10C,1.150000*%
G04 #@! TD*
G04 #@! TA.AperFunction,ComponentPad*
%ADD11R,1.700000X1.700000*%
G04 #@! TD*
G04 #@! TA.AperFunction,ComponentPad*
%ADD12O,1.700000X1.700000*%
G04 #@! TD*
G04 #@! TA.AperFunction,Conductor*
%ADD13C,0.400000*%
G04 #@! TD*
G04 APERTURE END LIST*
D10*
X109220000Y-69850000D03*
X109220000Y-68580000D03*
X109220000Y-67310000D03*
X109220000Y-66040000D03*
D11*
X101510000Y-65405000D03*
D12*
X98970000Y-65405000D03*
X101510000Y-67945000D03*
X98970000Y-67945000D03*
X101510000Y-70485000D03*
X98970000Y-70485000D03*
D13*
X108585000Y-70485000D02*
X109220000Y-69850000D01*
X101510000Y-70485000D02*
X108585000Y-70485000D01*
X106025000Y-69235000D02*
X106680000Y-68580000D01*
X106680000Y-68580000D02*
X109220000Y-68580000D01*
X100220000Y-69235000D02*
X106025000Y-69235000D01*
X98970000Y-70485000D02*
X100220000Y-69235000D01*
X103505000Y-67945000D02*
X105410000Y-66040000D01*
X105410000Y-66040000D02*
X109220000Y-66040000D01*
X101510000Y-67945000D02*
X103505000Y-67945000D01*
G04 #@! TA.AperFunction,Conductor*
G36*
X112337539Y-63520185D02*
G01*
X112383294Y-63572989D01*
X112394500Y-63624500D01*
X112394500Y-72265500D01*
X112374815Y-72332539D01*
X112322011Y-72378294D01*
X112270500Y-72389500D01*
X89024500Y-72389500D01*
X88957461Y-72369815D01*
X88911706Y-72317011D01*
X88900500Y-72265500D01*
X88900500Y-70485000D01*
X97614341Y-70485000D01*
X97634936Y-70720403D01*
X97634938Y-70720413D01*
X97696094Y-70948655D01*
X97696096Y-70948659D01*
X97696097Y-70948663D01*
X97743107Y-71049476D01*
X97795965Y-71162830D01*
X97795967Y-71162834D01*
X97904281Y-71317521D01*
X97931505Y-71356401D01*
X98098599Y-71523495D01*
X98195384Y-71591265D01*
X98292165Y-71659032D01*
X98292167Y-71659033D01*
X98292170Y-71659035D01*
X98506337Y-71758903D01*
X98734592Y-71820063D01*
X98922918Y-71836539D01*
X98969999Y-71840659D01*
X98970000Y-71840659D01*
X98970001Y-71840659D01*
X99009234Y-71837226D01*
X99205408Y-71820063D01*
X99433663Y-71758903D01*
X99647830Y-71659035D01*
X99841401Y-71523495D01*
X100008495Y-71356401D01*
X100138424Y-71170842D01*
X100193002Y-71127217D01*
X100262500Y-71120023D01*
X100324855Y-71151546D01*
X100341575Y-71170842D01*
X100471500Y-71356395D01*
X100471505Y-71356401D01*
X100638599Y-71523495D01*
X100735384Y-71591265D01*
X100832165Y-71659032D01*
X100832167Y-71659033D01*
X100832170Y-71659035D01*
X101046337Y-71758903D01*
X101274592Y-71820063D01*
X101462918Y-71836539D01*
X101509999Y-71840659D01*
X101510000Y-71840659D01*
X101510001Y-71840659D01*
X101549234Y-71837226D01*
X101745408Y-71820063D01*
X101973663Y-71758903D01*
X102187830Y-71659035D01*
X102381401Y-71523495D01*
X102548495Y-71356401D01*
X102631136Y-71238376D01*
X102685713Y-71194752D01*
X102732711Y-71185500D01*
X108561952Y-71185500D01*
X108565697Y-71185613D01*
X108573042Y-71186057D01*
X108627606Y-71189358D01*
X108665314Y-71182447D01*
X108688621Y-71178177D01*
X108692325Y-71177613D01*
X108710170Y-71175446D01*
X108753872Y-71170140D01*
X108763335Y-71166550D01*
X108784961Y-71160522D01*
X108785893Y-71160351D01*
X108794932Y-71158695D01*
X108851512Y-71133229D01*
X108854942Y-71131809D01*
X108912930Y-71109818D01*
X108921266Y-71104062D01*
X108940821Y-71093034D01*
X108950057Y-71088878D01*
X108998896Y-71050613D01*
X109001876Y-71048421D01*
X109052929Y-71013183D01*
X109094049Y-70966766D01*
X109096616Y-70964040D01*
X109098837Y-70961819D01*
X109160160Y-70928334D01*
X109186518Y-70925500D01*
X109319658Y-70925500D01*
X109319660Y-70925500D01*
X109515586Y-70888876D01*
X109701446Y-70816873D01*
X109870910Y-70711945D01*
X110018209Y-70577664D01*
X110138326Y-70418604D01*
X110227171Y-70240180D01*
X110281717Y-70048469D01*
X110300108Y-69850000D01*
X110281717Y-69651531D01*
X110227171Y-69459820D01*
X110138326Y-69281396D01*
X110138318Y-69281386D01*
X110137640Y-69280289D01*
X110137472Y-69279680D01*
X110135771Y-69276264D01*
X110136439Y-69275931D01*
X110119077Y-69212931D01*
X110136370Y-69154034D01*
X110135771Y-69153736D01*
X110137445Y-69150372D01*
X110137640Y-69149711D01*
X110138315Y-69148618D01*
X110138326Y-69148604D01*
X110227171Y-68970180D01*
X110281717Y-68778469D01*
X110300108Y-68580000D01*
X110281717Y-68381531D01*
X110227171Y-68189820D01*
X110138326Y-68011396D01*
X110138318Y-68011386D01*
X110137640Y-68010289D01*
X110137472Y-68009680D01*
X110135771Y-68006264D01*
X110136439Y-68005931D01*
X110119077Y-67942931D01*
X110136370Y-67884034D01*
X110135771Y-67883736D01*
X110137445Y-67880372D01*
X110137640Y-67879711D01*
X110138315Y-67878618D01*
X110138326Y-67878604D01*
X110227171Y-67700180D01*
X110281717Y-67508469D01*
X110300108Y-67310000D01*
X110281717Y-67111531D01*
X110227171Y-66919820D01*
X110138326Y-66741396D01*
X110138318Y-66741386D01*
X110137640Y-66740289D01*
X110137472Y-66739680D01*
X110135771Y-66736264D01*
X110136439Y-66735931D01*
X110119077Y-66672931D01*
X110136370Y-66614034D01*
X110135771Y-66613736D01*
X110137445Y-66610372D01*
X110137640Y-66609711D01*
X110138315Y-66608618D01*
X110138326Y-66608604D01*
X110227171Y-66430180D01*
X110281717Y-66238469D01*
X110300108Y-66040000D01*
X110281717Y-65841531D01*
X110227171Y-65649820D01*
X110182264Y-65559634D01*
X110138329Y-65471401D01*
X110138324Y-65471393D01*
X110018207Y-65312333D01*
X109870911Y-65178056D01*
X109870910Y-65178055D01*
X109806374Y-65138096D01*
X109701447Y-65073127D01*
X109701445Y-65073126D01*
X109619379Y-65041334D01*
X109515586Y-65001124D01*
X109515582Y-65001123D01*
X109436639Y-64986366D01*
X109319660Y-64964500D01*
X109120340Y-64964500D01*
X109030254Y-64981339D01*
X108924417Y-65001123D01*
X108924415Y-65001123D01*
X108924414Y-65001124D01*
X108872517Y-65021229D01*
X108738554Y-65073126D01*
X108738552Y-65073127D01*
X108569088Y-65178056D01*
X108427493Y-65307137D01*
X108364689Y-65337754D01*
X108343955Y-65339500D01*
X105433048Y-65339500D01*
X105429303Y-65339387D01*
X105367396Y-65335642D01*
X105367389Y-65335642D01*
X105306386Y-65346821D01*
X105302685Y-65347384D01*
X105241128Y-65354859D01*
X105241121Y-65354861D01*
X105231647Y-65358454D01*
X105210049Y-65364475D01*
X105200069Y-65366304D01*
X105143519Y-65391755D01*
X105140060Y-65393188D01*
X105082071Y-65415181D01*
X105082066Y-65415184D01*
X105073722Y-65420943D01*
X105054187Y-65431961D01*
X105044947Y-65436120D01*
X105044945Y-65436121D01*
X104996136Y-65474359D01*
X104993122Y-65476576D01*
X104942070Y-65511817D01*
X104942068Y-65511818D01*
X104900942Y-65558240D01*
X104898375Y-65560966D01*
X103251162Y-67208181D01*
X103189839Y-67241666D01*
X103163481Y-67244500D01*
X102732711Y-67244500D01*
X102665672Y-67224815D01*
X102631136Y-67191623D01*
X102548496Y-67073600D01*
X102548495Y-67073599D01*
X102426567Y-66951671D01*
X102393084Y-66890351D01*
X102398068Y-66820659D01*
X102439939Y-66764725D01*
X102470915Y-66747810D01*
X102602331Y-66698796D01*
X102717546Y-66612546D01*
X102803796Y-66497331D01*
X102854091Y-66362483D01*
X102860500Y-66302873D01*
X102860499Y-64507128D01*
X102854091Y-64447517D01*
X102803796Y-64312669D01*
X102803795Y-64312668D01*
X102803793Y-64312664D01*
X102717547Y-64197455D01*
X102717544Y-64197452D01*
X102602335Y-64111206D01*
X102602328Y-64111202D01*
X102467482Y-64060908D01*
X102467483Y-64060908D01*
X102407883Y-64054501D01*
X102407881Y-64054500D01*
X102407873Y-64054500D01*
X102407864Y-64054500D01*
X100612129Y-64054500D01*
X100612123Y-64054501D01*
X100552516Y-64060908D01*
X100417671Y-64111202D01*
X100417664Y-64111206D01*
X100302455Y-64197452D01*
X100302452Y-64197455D01*
X100216206Y-64312664D01*
X100216202Y-64312671D01*
X100165908Y-64447517D01*
X100159501Y-64507116D01*
X100159501Y-64507123D01*
X100159500Y-64507135D01*
X100159500Y-66302870D01*
X100159501Y-66302876D01*
X100165908Y-66362483D01*
X100216202Y-66497328D01*
X100216206Y-66497335D01*
X100302452Y-66612544D01*
X100302455Y-66612547D01*
X100417664Y-66698793D01*
X100417671Y-66698797D01*
X100549081Y-66747810D01*
X100605015Y-66789681D01*
X100629432Y-66855145D01*
X100614580Y-66923418D01*
X100593430Y-66951673D01*
X100471503Y-67073600D01*
X100335965Y-67267169D01*
X100335964Y-67267171D01*
X100236098Y-67481335D01*
X100236094Y-67481344D01*
X100174938Y-67709586D01*
X100174936Y-67709596D01*
X100154341Y-67944999D01*
X100154341Y-67945000D01*
X100174936Y-68180403D01*
X100174938Y-68180413D01*
X100229714Y-68384845D01*
X100228051Y-68454695D01*
X100188888Y-68512557D01*
X100132284Y-68538908D01*
X100116383Y-68541821D01*
X100112684Y-68542384D01*
X100051128Y-68549859D01*
X100051121Y-68549861D01*
X100041647Y-68553454D01*
X100020049Y-68559475D01*
X100010068Y-68561305D01*
X100010063Y-68561306D01*
X99953505Y-68586761D01*
X99950046Y-68588193D01*
X99892070Y-68610181D01*
X99892066Y-68610184D01*
X99883723Y-68615942D01*
X99864188Y-68626960D01*
X99854948Y-68631119D01*
X99854939Y-68631124D01*
X99806124Y-68669368D01*
X99803109Y-68671586D01*
X99752068Y-68706818D01*
X99710942Y-68753240D01*
X99708375Y-68755966D01*
X99341994Y-69122347D01*
X99280671Y-69155832D01*
X99222225Y-69154442D01*
X99205410Y-69149937D01*
X98970001Y-69129341D01*
X98969999Y-69129341D01*
X98734596Y-69149936D01*
X98734586Y-69149938D01*
X98506344Y-69211094D01*
X98506335Y-69211098D01*
X98292171Y-69310964D01*
X98292169Y-69310965D01*
X98098597Y-69446505D01*
X97931505Y-69613597D01*
X97795965Y-69807169D01*
X97795964Y-69807171D01*
X97696098Y-70021335D01*
X97696094Y-70021344D01*
X97634938Y-70249586D01*
X97634936Y-70249596D01*
X97614341Y-70484999D01*
X97614341Y-70485000D01*
X88900500Y-70485000D01*
X88900500Y-63624500D01*
X88920185Y-63557461D01*
X88972989Y-63511706D01*
X89024500Y-63500500D01*
X112270500Y-63500500D01*
X112337539Y-63520185D01*
G37*
G04 #@! TD.AperFunction*
G04 #@! TA.AperFunction,NonConductor*
G36*
X108168891Y-66760185D02*
G01*
X108214646Y-66812989D01*
X108224590Y-66882147D01*
X108214548Y-66914336D01*
X108214900Y-66914473D01*
X108212877Y-66919693D01*
X108212855Y-66919766D01*
X108212830Y-66919815D01*
X108212829Y-66919820D01*
X108169076Y-67073599D01*
X108158282Y-67111535D01*
X108139892Y-67309999D01*
X108139892Y-67310000D01*
X108158282Y-67508464D01*
X108212830Y-67700184D01*
X108212855Y-67700234D01*
X108212859Y-67700260D01*
X108214900Y-67705527D01*
X108213869Y-67705926D01*
X108225113Y-67769020D01*
X108198236Y-67833514D01*
X108140758Y-67873238D01*
X108101852Y-67879500D01*
X106703048Y-67879500D01*
X106699303Y-67879387D01*
X106637396Y-67875642D01*
X106637389Y-67875642D01*
X106576386Y-67886821D01*
X106572685Y-67887384D01*
X106511128Y-67894859D01*
X106511121Y-67894861D01*
X106501647Y-67898454D01*
X106480049Y-67904475D01*
X106470068Y-67906305D01*
X106470063Y-67906306D01*
X106413505Y-67931761D01*
X106410046Y-67933193D01*
X106352070Y-67955181D01*
X106352066Y-67955184D01*
X106343723Y-67960942D01*
X106324188Y-67971960D01*
X106314948Y-67976119D01*
X106314939Y-67976124D01*
X106266124Y-68014368D01*
X106263109Y-68016586D01*
X106212068Y-68051818D01*
X106170942Y-68098240D01*
X106168375Y-68100966D01*
X105771162Y-68498181D01*
X105709839Y-68531666D01*
X105683481Y-68534500D01*
X104205518Y-68534500D01*
X104138479Y-68514815D01*
X104092724Y-68462011D01*
X104082780Y-68392853D01*
X104111805Y-68329297D01*
X104117837Y-68322819D01*
X105663838Y-66776819D01*
X105725161Y-66743334D01*
X105751519Y-66740500D01*
X108101852Y-66740500D01*
X108168891Y-66760185D01*
G37*
G04 #@! TD.AperFunction*
G04 #@! TA.AperFunction,NonConductor*
G36*
X108168891Y-69300185D02*
G01*
X108214646Y-69352989D01*
X108224590Y-69422147D01*
X108214548Y-69454336D01*
X108214900Y-69454473D01*
X108212877Y-69459693D01*
X108212855Y-69459766D01*
X108212830Y-69459815D01*
X108212829Y-69459820D01*
X108169076Y-69613599D01*
X108158282Y-69651535D01*
X108156392Y-69671940D01*
X108130606Y-69736878D01*
X108073806Y-69777566D01*
X108032921Y-69784500D01*
X106765518Y-69784500D01*
X106698479Y-69764815D01*
X106652724Y-69712011D01*
X106642780Y-69642853D01*
X106671805Y-69579297D01*
X106677837Y-69572819D01*
X106790837Y-69459820D01*
X106933837Y-69316819D01*
X106995161Y-69283334D01*
X107021519Y-69280500D01*
X108101852Y-69280500D01*
X108168891Y-69300185D01*
G37*
G04 #@! TD.AperFunction*
M02*
