G04 #@! TF.GenerationSoftware,KiCad,Pcbnew,7.0.6*
G04 #@! TF.CreationDate,2023-10-13T18:47:00+03:00*
G04 #@! TF.ProjectId,colorimeter-2,636f6c6f-7269-46d6-9574-65722d322e6b,rev?*
G04 #@! TF.SameCoordinates,Original*
G04 #@! TF.FileFunction,Copper,L1,Top*
G04 #@! TF.FilePolarity,Positive*
%FSLAX46Y46*%
G04 Gerber Fmt 4.6, Leading zero omitted, Abs format (unit mm)*
G04 Created by KiCad (PCBNEW 7.0.6) date 2023-10-13 18:47:00*
%MOMM*%
%LPD*%
G01*
G04 APERTURE LIST*
G04 Aperture macros list*
%AMRoundRect*
0 Rectangle with rounded corners*
0 $1 Rounding radius*
0 $2 $3 $4 $5 $6 $7 $8 $9 X,Y pos of 4 corners*
0 Add a 4 corners polygon primitive as box body*
4,1,4,$2,$3,$4,$5,$6,$7,$8,$9,$2,$3,0*
0 Add four circle primitives for the rounded corners*
1,1,$1+$1,$2,$3*
1,1,$1+$1,$4,$5*
1,1,$1+$1,$6,$7*
1,1,$1+$1,$8,$9*
0 Add four rect primitives between the rounded corners*
20,1,$1+$1,$2,$3,$4,$5,0*
20,1,$1+$1,$4,$5,$6,$7,0*
20,1,$1+$1,$6,$7,$8,$9,0*
20,1,$1+$1,$8,$9,$2,$3,0*%
%AMHorizOval*
0 Thick line with rounded ends*
0 $1 width*
0 $2 $3 position (X,Y) of the first rounded end (center of the circle)*
0 $4 $5 position (X,Y) of the second rounded end (center of the circle)*
0 Add line between two ends*
20,1,$1,$2,$3,$4,$5,0*
0 Add two circle primitives to create the rounded ends*
1,1,$1,$2,$3*
1,1,$1,$4,$5*%
%AMFreePoly0*
4,1,19,0.500000,-0.750000,0.000000,-0.750000,0.000000,-0.744911,-0.071157,-0.744911,-0.207708,-0.704816,-0.327430,-0.627875,-0.420627,-0.520320,-0.479746,-0.390866,-0.500000,-0.250000,-0.500000,0.250000,-0.479746,0.390866,-0.420627,0.520320,-0.327430,0.627875,-0.207708,0.704816,-0.071157,0.744911,0.000000,0.744911,0.000000,0.750000,0.500000,0.750000,0.500000,-0.750000,0.500000,-0.750000,
$1*%
%AMFreePoly1*
4,1,19,0.000000,0.744911,0.071157,0.744911,0.207708,0.704816,0.327430,0.627875,0.420627,0.520320,0.479746,0.390866,0.500000,0.250000,0.500000,-0.250000,0.479746,-0.390866,0.420627,-0.520320,0.327430,-0.627875,0.207708,-0.704816,0.071157,-0.744911,0.000000,-0.744911,0.000000,-0.750000,-0.500000,-0.750000,-0.500000,0.750000,0.000000,0.750000,0.000000,0.744911,0.000000,0.744911,
$1*%
G04 Aperture macros list end*
G04 #@! TA.AperFunction,ComponentPad*
%ADD10R,1.600000X1.600000*%
G04 #@! TD*
G04 #@! TA.AperFunction,ComponentPad*
%ADD11C,1.600000*%
G04 #@! TD*
G04 #@! TA.AperFunction,ComponentPad*
%ADD12O,1.600000X1.600000*%
G04 #@! TD*
G04 #@! TA.AperFunction,ComponentPad*
%ADD13HorizOval,1.600000X0.000000X0.000000X0.000000X0.000000X0*%
G04 #@! TD*
G04 #@! TA.AperFunction,ComponentPad*
%ADD14R,1.700000X1.700000*%
G04 #@! TD*
G04 #@! TA.AperFunction,ComponentPad*
%ADD15O,1.700000X1.700000*%
G04 #@! TD*
G04 #@! TA.AperFunction,ComponentPad*
%ADD16C,1.524000*%
G04 #@! TD*
G04 #@! TA.AperFunction,ComponentPad*
%ADD17C,6.000000*%
G04 #@! TD*
G04 #@! TA.AperFunction,ComponentPad*
%ADD18R,1.160000X1.160000*%
G04 #@! TD*
G04 #@! TA.AperFunction,ComponentPad*
%ADD19C,1.160000*%
G04 #@! TD*
G04 #@! TA.AperFunction,ComponentPad*
%ADD20R,1.100000X1.800000*%
G04 #@! TD*
G04 #@! TA.AperFunction,ComponentPad*
%ADD21RoundRect,0.275000X0.275000X0.625000X-0.275000X0.625000X-0.275000X-0.625000X0.275000X-0.625000X0*%
G04 #@! TD*
G04 #@! TA.AperFunction,SMDPad,CuDef*
%ADD22FreePoly0,180.000000*%
G04 #@! TD*
G04 #@! TA.AperFunction,SMDPad,CuDef*
%ADD23FreePoly1,180.000000*%
G04 #@! TD*
G04 #@! TA.AperFunction,ComponentPad*
%ADD24C,4.000000*%
G04 #@! TD*
G04 #@! TA.AperFunction,ComponentPad*
%ADD25HorizOval,1.600000X0.000000X0.000000X0.000000X0.000000X0*%
G04 #@! TD*
G04 #@! TA.AperFunction,SMDPad,CuDef*
%ADD26FreePoly0,90.000000*%
G04 #@! TD*
G04 #@! TA.AperFunction,SMDPad,CuDef*
%ADD27FreePoly1,90.000000*%
G04 #@! TD*
G04 #@! TA.AperFunction,SMDPad,CuDef*
%ADD28FreePoly0,270.000000*%
G04 #@! TD*
G04 #@! TA.AperFunction,SMDPad,CuDef*
%ADD29FreePoly1,270.000000*%
G04 #@! TD*
G04 #@! TA.AperFunction,SMDPad,CuDef*
%ADD30R,1.500000X5.080000*%
G04 #@! TD*
G04 #@! TA.AperFunction,ViaPad*
%ADD31C,0.800000*%
G04 #@! TD*
G04 #@! TA.AperFunction,Conductor*
%ADD32C,0.250000*%
G04 #@! TD*
G04 #@! TA.AperFunction,Conductor*
%ADD33C,0.400000*%
G04 #@! TD*
G04 #@! TA.AperFunction,Conductor*
%ADD34C,0.500000*%
G04 #@! TD*
G04 APERTURE END LIST*
D10*
X45766974Y-108321974D03*
D11*
X49266974Y-108321974D03*
D10*
X62855000Y-78750000D03*
D12*
X60315000Y-78750000D03*
X57775000Y-78750000D03*
X55235000Y-78750000D03*
X55235000Y-86370000D03*
X57775000Y-86370000D03*
X60315000Y-86370000D03*
X62855000Y-86370000D03*
D11*
X149225000Y-63500000D03*
X149225000Y-58500000D03*
X63935795Y-71555795D03*
D13*
X71120000Y-78740000D03*
D14*
X65840795Y-61595000D03*
D15*
X65840795Y-64135000D03*
D11*
X70285795Y-65205795D03*
D13*
X77470000Y-72390000D03*
D10*
X122172349Y-62865000D03*
D11*
X125672349Y-62865000D03*
D14*
X36825000Y-64775000D03*
D15*
X34285000Y-64775000D03*
X36825000Y-67315000D03*
X34285000Y-67315000D03*
X36825000Y-69855000D03*
X34285000Y-69855000D03*
X36825000Y-72395000D03*
X34285000Y-72395000D03*
X36825000Y-74935000D03*
X34285000Y-74935000D03*
X36825000Y-77475000D03*
X34285000Y-77475000D03*
X36825000Y-80015000D03*
X34285000Y-80015000D03*
X36825000Y-82555000D03*
X34285000Y-82555000D03*
X36825000Y-85095000D03*
X34285000Y-85095000D03*
X36825000Y-87635000D03*
X34285000Y-87635000D03*
X36825000Y-90175000D03*
X34285000Y-90175000D03*
X36825000Y-92715000D03*
X34285000Y-92715000D03*
X36825000Y-95255000D03*
X34285000Y-95255000D03*
X36825000Y-97795000D03*
X34285000Y-97795000D03*
X36825000Y-100335000D03*
X34285000Y-100335000D03*
D11*
X136471680Y-70485000D03*
X131471680Y-70485000D03*
X67110795Y-68380795D03*
D13*
X74295000Y-75565000D03*
D14*
X66040000Y-103505000D03*
D15*
X66040000Y-100965000D03*
D11*
X51435000Y-85050000D03*
X51435000Y-80050000D03*
D16*
X85417946Y-100521929D03*
X83621895Y-102317980D03*
X87213997Y-102317980D03*
X85417946Y-104114031D03*
X89010048Y-104114031D03*
X87213997Y-105910082D03*
D14*
X41905000Y-64775000D03*
D15*
X44445000Y-64775000D03*
X41905000Y-67315000D03*
X44445000Y-67315000D03*
X41905000Y-69855000D03*
X44445000Y-69855000D03*
X41905000Y-72395000D03*
X44445000Y-72395000D03*
X41905000Y-74935000D03*
X44445000Y-74935000D03*
X41905000Y-77475000D03*
X44445000Y-77475000D03*
X41905000Y-80015000D03*
X44445000Y-80015000D03*
X41905000Y-82555000D03*
X44445000Y-82555000D03*
X41905000Y-85095000D03*
X44445000Y-85095000D03*
X41905000Y-87635000D03*
X44445000Y-87635000D03*
X41905000Y-90175000D03*
X44445000Y-90175000D03*
X41905000Y-92715000D03*
X44445000Y-92715000D03*
X41905000Y-95255000D03*
X44445000Y-95255000D03*
X41905000Y-97795000D03*
X44445000Y-97795000D03*
X41905000Y-100335000D03*
X44445000Y-100335000D03*
D17*
X146050000Y-52070000D03*
D18*
X137941680Y-91440000D03*
D19*
X137941680Y-88900000D03*
X137941680Y-86360000D03*
X137941680Y-83820000D03*
X137941680Y-81280000D03*
X137941680Y-78740000D03*
X137941680Y-76200000D03*
X137941680Y-73660000D03*
X130001680Y-73660000D03*
X130001680Y-76200000D03*
X130001680Y-78740000D03*
X130001680Y-81280000D03*
X130001680Y-83820000D03*
X130001680Y-86360000D03*
X130001680Y-88900000D03*
X130001680Y-91440000D03*
D11*
X148590000Y-83820000D03*
D12*
X148590000Y-93980000D03*
D20*
X144780000Y-96755000D03*
D21*
X143510000Y-98825000D03*
X142240000Y-96755000D03*
D22*
X52705000Y-97790000D03*
D23*
X51405000Y-97790000D03*
D16*
X122118533Y-71011052D03*
X120322482Y-72807103D03*
X118526430Y-71011052D03*
X116730379Y-69215000D03*
X120322482Y-69215000D03*
X118526430Y-67418949D03*
D24*
X99060000Y-103197518D03*
X78412482Y-82550000D03*
X99060000Y-61902482D03*
X119707518Y-82550000D03*
D22*
X52720000Y-100330000D03*
D23*
X51420000Y-100330000D03*
D11*
X139065000Y-65405001D03*
D12*
X139065000Y-55245001D03*
D11*
X130810000Y-52070000D03*
D12*
X140970000Y-52070000D03*
D14*
X60960000Y-114934999D03*
D15*
X60960000Y-112394999D03*
X60960000Y-109854999D03*
D20*
X144780000Y-83420000D03*
D21*
X143510000Y-85490000D03*
X142240000Y-83420000D03*
D11*
X77470000Y-99894205D03*
X81005534Y-96358671D03*
D16*
X88989584Y-60960000D03*
X87193533Y-59163949D03*
X87193533Y-62756051D03*
X85397482Y-60960000D03*
X85397482Y-64552102D03*
X83601431Y-62756051D03*
D11*
X70285795Y-99894205D03*
D25*
X77470000Y-92710000D03*
D20*
X144780000Y-69450000D03*
D21*
X143510000Y-71520000D03*
X142240000Y-69450000D03*
D11*
X67110795Y-96719205D03*
D25*
X74295000Y-89535000D03*
D20*
X144780000Y-61830000D03*
D21*
X143510000Y-63900000D03*
X142240000Y-61830000D03*
D26*
X57785000Y-75580000D03*
D27*
X57785000Y-74280000D03*
D14*
X75565000Y-111760000D03*
D15*
X75565000Y-109220000D03*
X75565000Y-106680000D03*
D11*
X63935795Y-93544205D03*
D25*
X71120000Y-86360000D03*
D16*
X118490022Y-97677615D03*
X116693971Y-95881564D03*
X118490022Y-94085512D03*
X120286074Y-92289461D03*
X120286074Y-95881564D03*
X122082125Y-94085512D03*
D14*
X62230000Y-103505000D03*
D15*
X62230000Y-100965000D03*
D10*
X35549323Y-108321974D03*
D11*
X39049323Y-108321974D03*
X66675000Y-85050000D03*
X66675000Y-80050000D03*
X148590000Y-69850001D03*
D12*
X148590000Y-80010001D03*
D28*
X55245000Y-89520000D03*
D29*
X55245000Y-90820000D03*
D11*
X148590000Y-97155000D03*
D12*
X148590000Y-107315000D03*
D14*
X62230000Y-61595000D03*
D15*
X62230000Y-64135000D03*
D11*
X77470000Y-65205795D03*
X81005534Y-68741329D03*
D10*
X122555000Y-101600000D03*
D11*
X126055000Y-101600000D03*
D14*
X56515000Y-114935000D03*
D15*
X56515000Y-112395000D03*
X56515000Y-109855000D03*
D14*
X139065000Y-109855000D03*
D15*
X139065000Y-107315000D03*
X139065000Y-104775000D03*
D17*
X146050000Y-113030000D03*
D11*
X131471680Y-94614999D03*
X136471680Y-94614999D03*
D30*
X50360000Y-49177500D03*
X58860000Y-49177500D03*
X89730000Y-49177500D03*
X98230000Y-49177500D03*
X70045000Y-49177500D03*
X78545000Y-49177500D03*
D31*
X51308000Y-89408000D03*
X130175000Y-59055000D03*
X128905000Y-59055000D03*
X127635000Y-59055000D03*
X64516000Y-97028000D03*
X39624000Y-61468000D03*
X59055000Y-51435000D03*
X77724000Y-96012000D03*
X50165000Y-71755000D03*
X52070000Y-103505000D03*
X55245000Y-93345000D03*
X54610000Y-97790000D03*
X57912000Y-64008000D03*
X69850000Y-51435000D03*
X127508000Y-85852000D03*
X58752072Y-113220215D03*
X140208000Y-81280000D03*
X105664000Y-90424000D03*
X58420000Y-89535000D03*
X74168000Y-103124000D03*
X114808000Y-88900000D03*
X103632000Y-110744000D03*
X85852000Y-94615000D03*
X113665000Y-117475000D03*
X58928000Y-80772000D03*
X54610000Y-100330000D03*
X127508000Y-91440000D03*
X52705000Y-115570000D03*
X40005000Y-116205000D03*
X114300000Y-101600000D03*
X59436000Y-84328000D03*
X130048000Y-97536000D03*
X98425000Y-51435000D03*
X127508000Y-79756000D03*
X132080000Y-79756000D03*
X64135000Y-67945000D03*
X62484000Y-89408000D03*
X91440000Y-82495908D03*
X123190000Y-107950000D03*
X140208000Y-94488000D03*
X126492000Y-67056000D03*
X117856000Y-51816000D03*
X149860000Y-81788000D03*
X139700000Y-67564000D03*
X85852000Y-70612000D03*
X33020000Y-61468000D03*
X89535000Y-51435000D03*
X40132000Y-103632000D03*
X57785000Y-72390000D03*
X126492000Y-73660000D03*
X50165000Y-51435000D03*
X119380000Y-64516000D03*
X142240000Y-102108000D03*
X132588000Y-104648000D03*
X73025000Y-57785000D03*
X59145000Y-103505000D03*
X45720000Y-115570000D03*
X75184000Y-66548000D03*
X122428000Y-75692000D03*
X132588000Y-62484000D03*
X114808000Y-76200000D03*
X105664000Y-74676000D03*
X33020000Y-103632000D03*
X78740000Y-51435000D03*
X90335000Y-115570000D03*
X70104000Y-74676000D03*
D32*
X71120000Y-78740000D02*
X62865000Y-78740000D01*
X77470000Y-72390000D02*
X74295000Y-75565000D01*
X81005534Y-68741329D02*
X77470000Y-72276863D01*
X74295000Y-75565000D02*
X71120000Y-78740000D01*
X42545000Y-97790000D02*
X43815000Y-99060000D01*
X58420000Y-109854999D02*
X60960000Y-112394999D01*
X36825000Y-97795000D02*
X41905000Y-97795000D01*
X43815000Y-99060000D02*
X54610000Y-99060000D01*
X54610000Y-99060000D02*
X58420000Y-102870000D01*
X58420000Y-102870000D02*
X58420000Y-109854999D01*
X42540000Y-99060000D02*
X43815000Y-100335000D01*
X34285000Y-100335000D02*
X35560000Y-99060000D01*
D33*
X44445000Y-100335000D02*
X51415000Y-100335000D01*
D32*
X35560000Y-99060000D02*
X42540000Y-99060000D01*
D34*
X137941680Y-91440000D02*
X136508168Y-92873512D01*
X136508168Y-92873512D02*
X121580098Y-92873512D01*
X120368098Y-94085512D02*
X118490022Y-94085512D01*
X121580098Y-92873512D02*
X120368098Y-94085512D01*
D32*
X36825000Y-82555000D02*
X41905000Y-82555000D01*
D34*
X139700000Y-87141680D02*
X139700000Y-85725000D01*
X118526430Y-71011052D02*
X120404506Y-71011052D01*
X137941680Y-88900000D02*
X139700000Y-87141680D01*
X130796680Y-80010000D02*
X129403454Y-80010000D01*
X139700000Y-85725000D02*
X139065000Y-85090000D01*
X135876680Y-85090000D02*
X130796680Y-80010000D01*
X139065000Y-85090000D02*
X135876680Y-85090000D01*
X129403454Y-80010000D02*
X120404506Y-71011052D01*
X137941680Y-86360000D02*
X136671680Y-87630000D01*
X136671680Y-87630000D02*
X124945535Y-87630000D01*
X124945535Y-87630000D02*
X120286074Y-92289461D01*
X129540000Y-65532000D02*
X134112000Y-70104000D01*
X134112000Y-77450320D02*
X137941680Y-81280000D01*
X116730379Y-66657621D02*
X117856000Y-65532000D01*
X134112000Y-70104000D02*
X134112000Y-77450320D01*
X116730379Y-69215000D02*
X116730379Y-66657621D01*
X117856000Y-65532000D02*
X129540000Y-65532000D01*
D32*
X36825000Y-80015000D02*
X41905000Y-80015000D01*
D34*
X120322482Y-77142482D02*
X124460000Y-81280000D01*
X124460000Y-81280000D02*
X130001680Y-81280000D01*
X120322482Y-72807103D02*
X120322482Y-77142482D01*
X124460000Y-83820000D02*
X130001680Y-83820000D01*
X116693971Y-95881564D02*
X116693971Y-91586029D01*
X116693971Y-91586029D02*
X124460000Y-83820000D01*
D32*
X36825000Y-77475000D02*
X41905000Y-77475000D01*
X142240000Y-55372000D02*
X140970000Y-54102000D01*
X143510000Y-71120000D02*
X143510000Y-85090000D01*
X143510000Y-71120000D02*
X143510000Y-63615000D01*
X140970000Y-54102000D02*
X140970000Y-52070000D01*
X149225000Y-63500000D02*
X143510000Y-63500000D01*
X143510000Y-63500000D02*
X142240000Y-62230000D01*
X143510000Y-98425000D02*
X143510000Y-85090000D01*
X142240000Y-62230000D02*
X142240000Y-55372000D01*
X56388000Y-52832000D02*
X126492000Y-52832000D01*
X43170000Y-63500000D02*
X44445000Y-64775000D01*
X35560000Y-63500000D02*
X43170000Y-63500000D01*
X126492000Y-52832000D02*
X130175000Y-56515000D01*
X34285000Y-64775000D02*
X35560000Y-63500000D01*
X44445000Y-64775000D02*
X56388000Y-52832000D01*
X130175000Y-56515000D02*
X130175000Y-59055000D01*
X128905000Y-59055000D02*
X128905000Y-57785000D01*
X56896000Y-54864000D02*
X44445000Y-67315000D01*
X128905000Y-57785000D02*
X125984000Y-54864000D01*
X35560000Y-66040000D02*
X43170000Y-66040000D01*
X125984000Y-54864000D02*
X56896000Y-54864000D01*
X43170000Y-66040000D02*
X44445000Y-67315000D01*
X34285000Y-67315000D02*
X35560000Y-66040000D01*
X127635000Y-59055000D02*
X125476000Y-56896000D01*
X34285000Y-69855000D02*
X35560000Y-68580000D01*
X35560000Y-68580000D02*
X43170000Y-68580000D01*
X57404000Y-56896000D02*
X44445000Y-69855000D01*
X125476000Y-56896000D02*
X57404000Y-56896000D01*
X43170000Y-68580000D02*
X44445000Y-69855000D01*
X36825000Y-69855000D02*
X41905000Y-69855000D01*
X36825000Y-72395000D02*
X41905000Y-72395000D01*
X36825000Y-64775000D02*
X41905000Y-64775000D01*
X36825000Y-67315000D02*
X41905000Y-67315000D01*
X69215000Y-88265000D02*
X71120000Y-86360000D01*
X74295000Y-89535000D02*
X77470000Y-92710000D01*
X71120000Y-86360000D02*
X74295000Y-89535000D01*
X62210000Y-88265000D02*
X69215000Y-88265000D01*
X60315000Y-86370000D02*
X62210000Y-88265000D01*
X77470000Y-92710000D02*
X81005534Y-96245534D01*
X63935795Y-71555795D02*
X62230000Y-69850000D01*
X62230000Y-69850000D02*
X62230000Y-64135000D01*
X67110795Y-68380795D02*
X65840795Y-67110795D01*
X65840795Y-67110795D02*
X65840795Y-64135000D01*
X62230000Y-95250000D02*
X62230000Y-100965000D01*
X63935795Y-93544205D02*
X62230000Y-95250000D01*
X34285000Y-72395000D02*
X35560000Y-71120000D01*
X35560000Y-71120000D02*
X43170000Y-71120000D01*
X43170000Y-71120000D02*
X44445000Y-72395000D01*
X60315000Y-63510000D02*
X62230000Y-61595000D01*
X60315000Y-78750000D02*
X60315000Y-63510000D01*
X65840795Y-61595000D02*
X62230000Y-61595000D01*
X83511846Y-59163949D02*
X87193533Y-59163949D01*
X77470000Y-65205795D02*
X70285795Y-65205795D01*
X66675000Y-61595000D02*
X70285795Y-65205795D01*
X65840795Y-61595000D02*
X66675000Y-61595000D01*
X88989584Y-60960000D02*
X87193533Y-59163949D01*
X77470000Y-65205795D02*
X83511846Y-59163949D01*
X62230000Y-103505000D02*
X60325000Y-101600000D01*
X85417946Y-100521929D02*
X83621895Y-102317980D01*
X60325000Y-101600000D02*
X60325000Y-88900000D01*
X83621895Y-102317980D02*
X79893775Y-102317980D01*
X60325000Y-88900000D02*
X57795000Y-86370000D01*
X66675000Y-103505000D02*
X70285795Y-99894205D01*
X62230000Y-103505000D02*
X66040000Y-103505000D01*
X79893775Y-102317980D02*
X77470000Y-99894205D01*
X70285795Y-99894205D02*
X77470000Y-99894205D01*
D34*
X144780000Y-69850000D02*
X148590000Y-69850001D01*
X148590000Y-97155000D02*
X144780000Y-97155000D01*
X144780000Y-83820000D02*
X148590000Y-83820000D01*
D32*
X36825000Y-74935000D02*
X41905000Y-74935000D01*
X34285000Y-74935000D02*
X35560000Y-73660000D01*
X35560000Y-73660000D02*
X43170000Y-73660000D01*
X43170000Y-73660000D02*
X44445000Y-74935000D01*
X34285000Y-77475000D02*
X35560000Y-76200000D01*
X35560000Y-76200000D02*
X43170000Y-76200000D01*
X43170000Y-76200000D02*
X44445000Y-77475000D01*
X43170000Y-78740000D02*
X44445000Y-80015000D01*
X34285000Y-80015000D02*
X35560000Y-78740000D01*
X35560000Y-78740000D02*
X43170000Y-78740000D01*
X35560000Y-81280000D02*
X43170000Y-81280000D01*
X43170000Y-81280000D02*
X44445000Y-82555000D01*
X34285000Y-82555000D02*
X35560000Y-81280000D01*
X36825000Y-85095000D02*
X41905000Y-85095000D01*
X35560000Y-83820000D02*
X43170000Y-83820000D01*
X43170000Y-83820000D02*
X44445000Y-85095000D01*
X34285000Y-85095000D02*
X35560000Y-83820000D01*
X36825000Y-90175000D02*
X41905000Y-90175000D01*
X34285000Y-90175000D02*
X35560000Y-88900000D01*
X43170000Y-88900000D02*
X44445000Y-90175000D01*
X35560000Y-88900000D02*
X43170000Y-88900000D01*
X41905000Y-100335000D02*
X45075000Y-103505000D01*
X47625000Y-103505000D02*
X56515000Y-112395000D01*
X45075000Y-103505000D02*
X47625000Y-103505000D01*
X36825000Y-100335000D02*
X41905000Y-100335000D01*
D33*
X89010048Y-104114031D02*
X89010048Y-68164668D01*
X83904079Y-109220000D02*
X75565000Y-109220000D01*
X83601431Y-62756051D02*
X85397482Y-64552102D01*
X87213997Y-105910082D02*
X89010048Y-104114031D01*
X87213997Y-105910082D02*
X83904079Y-109220000D01*
X85397482Y-64552102D02*
X89010048Y-68164668D01*
X55245000Y-90820000D02*
X55245000Y-93345000D01*
X52720000Y-100330000D02*
X54610000Y-100330000D01*
X57785000Y-74280000D02*
X57785000Y-72390000D01*
X52705000Y-97790000D02*
X54610000Y-97790000D01*
D32*
X35560000Y-96520000D02*
X43170000Y-96520000D01*
D33*
X44445000Y-97795000D02*
X51400000Y-97795000D01*
D32*
X43170000Y-96520000D02*
X44445000Y-97795000D01*
X34285000Y-97795000D02*
X35560000Y-96520000D01*
X66040000Y-97790000D02*
X66040000Y-100965000D01*
X67110795Y-96719205D02*
X66040000Y-97790000D01*
X57775000Y-78750000D02*
X57775000Y-75590000D01*
X55245000Y-87774000D02*
X55235000Y-87764000D01*
X55235000Y-86370000D02*
X55235000Y-87764000D01*
X55245000Y-89520000D02*
X55245000Y-87774000D01*
G04 #@! TA.AperFunction,Conductor*
G36*
X41584181Y-84320579D02*
G01*
X41584653Y-84321578D01*
X41904134Y-85090511D01*
X41904143Y-85099466D01*
X41904134Y-85099489D01*
X41584653Y-85868421D01*
X41578314Y-85874746D01*
X41569359Y-85874737D01*
X41568360Y-85874265D01*
X41240321Y-85700046D01*
X41238622Y-85698945D01*
X41011087Y-85521811D01*
X40815423Y-85368383D01*
X40677065Y-85306862D01*
X40573153Y-85260657D01*
X40573152Y-85260656D01*
X40215416Y-85221150D01*
X40207569Y-85216836D01*
X40205000Y-85209521D01*
X40205000Y-84980478D01*
X40208427Y-84972205D01*
X40215414Y-84968849D01*
X40573153Y-84929342D01*
X40815422Y-84821616D01*
X41011087Y-84668188D01*
X41238628Y-84491047D01*
X41240315Y-84489954D01*
X41568361Y-84315733D01*
X41577274Y-84314880D01*
X41584181Y-84320579D01*
G37*
G04 #@! TD.AperFunction*
G04 #@! TA.AperFunction,Conductor*
G36*
X145338227Y-69307180D02*
G01*
X145439999Y-69396000D01*
X145549999Y-69474000D01*
X145550001Y-69474001D01*
X145659995Y-69533998D01*
X145660007Y-69534003D01*
X145769999Y-69576000D01*
X145769998Y-69576000D01*
X145849582Y-69593364D01*
X145870793Y-69597992D01*
X145878146Y-69603104D01*
X145879999Y-69609423D01*
X145879999Y-70089694D01*
X145876572Y-70097967D01*
X145869776Y-70101300D01*
X145770011Y-70113996D01*
X145769995Y-70113999D01*
X145660001Y-70145997D01*
X145660000Y-70145998D01*
X145550007Y-70195996D01*
X145550003Y-70195997D01*
X145549999Y-70196000D01*
X145549990Y-70196005D01*
X145549991Y-70196005D01*
X145440011Y-70263991D01*
X145439989Y-70264007D01*
X145337766Y-70343927D01*
X145329138Y-70346323D01*
X145322698Y-70343374D01*
X145043143Y-70089694D01*
X144788103Y-69858260D01*
X144784280Y-69850164D01*
X144787302Y-69841735D01*
X144787685Y-69841330D01*
X145322271Y-69307714D01*
X145330547Y-69304296D01*
X145338227Y-69307180D01*
G37*
G04 #@! TD.AperFunction*
G04 #@! TA.AperFunction,Conductor*
G36*
X73567759Y-75263751D02*
G01*
X74291212Y-75562437D01*
X74297551Y-75568762D01*
X74297562Y-75568787D01*
X74596248Y-76292240D01*
X74596237Y-76301195D01*
X74589898Y-76307520D01*
X74588880Y-76307886D01*
X74256346Y-76410419D01*
X74254414Y-76410840D01*
X73986278Y-76445847D01*
X73755118Y-76475744D01*
X73523255Y-76566635D01*
X73260199Y-76778179D01*
X73251604Y-76780693D01*
X73244594Y-76777334D01*
X73082665Y-76615405D01*
X73079238Y-76607132D01*
X73081818Y-76599803D01*
X73293362Y-76336743D01*
X73384254Y-76104879D01*
X73414151Y-75873721D01*
X73449159Y-75605573D01*
X73449576Y-75603661D01*
X73552114Y-75271117D01*
X73557826Y-75264222D01*
X73566741Y-75263385D01*
X73567759Y-75263751D01*
G37*
G04 #@! TD.AperFunction*
G04 #@! TA.AperFunction,Conductor*
G36*
X75345405Y-74352665D02*
G01*
X75507334Y-74514594D01*
X75510761Y-74522867D01*
X75508179Y-74530199D01*
X75296635Y-74793255D01*
X75205744Y-75025118D01*
X75175847Y-75256278D01*
X75140840Y-75524414D01*
X75140419Y-75526346D01*
X75037886Y-75858880D01*
X75032173Y-75865777D01*
X75023258Y-75866614D01*
X75022240Y-75866248D01*
X74298787Y-75567562D01*
X74292448Y-75561237D01*
X74292437Y-75561212D01*
X74277650Y-75525397D01*
X73993750Y-74837759D01*
X73993762Y-74828804D01*
X74000101Y-74822479D01*
X74001102Y-74822119D01*
X74333661Y-74719576D01*
X74335573Y-74719159D01*
X74603721Y-74684151D01*
X74834879Y-74654254D01*
X75066743Y-74563362D01*
X75329803Y-74351819D01*
X75338395Y-74349306D01*
X75345405Y-74352665D01*
G37*
G04 #@! TD.AperFunction*
G04 #@! TA.AperFunction,Conductor*
G36*
X42687365Y-100014636D02*
G01*
X42693690Y-100020975D01*
X42694063Y-100022015D01*
X42802829Y-100377163D01*
X42803252Y-100379143D01*
X42838891Y-100665289D01*
X42868756Y-100912127D01*
X42868758Y-100912136D01*
X42963893Y-101159618D01*
X43188918Y-101440514D01*
X43191416Y-101449113D01*
X43188060Y-101456102D01*
X43026102Y-101618060D01*
X43017829Y-101621487D01*
X43010514Y-101618918D01*
X42729618Y-101393893D01*
X42482136Y-101298758D01*
X42482127Y-101298756D01*
X42235289Y-101268891D01*
X41949143Y-101233252D01*
X41947163Y-101232829D01*
X41592015Y-101124063D01*
X41585108Y-101118364D01*
X41584254Y-101109450D01*
X41584620Y-101108429D01*
X41902438Y-100338783D01*
X41908759Y-100332448D01*
X42678412Y-100014627D01*
X42687365Y-100014636D01*
G37*
G04 #@! TD.AperFunction*
G04 #@! TA.AperFunction,Conductor*
G36*
X88008524Y-59800583D02*
G01*
X88258027Y-60001881D01*
X88258028Y-60001881D01*
X88258029Y-60001882D01*
X88478016Y-60089546D01*
X88478019Y-60089547D01*
X88697252Y-60119465D01*
X88951701Y-60153991D01*
X88953590Y-60154409D01*
X89268950Y-60252208D01*
X89275836Y-60257932D01*
X89276659Y-60266849D01*
X89276299Y-60267847D01*
X88992146Y-60956211D01*
X88985821Y-60962551D01*
X88985795Y-60962562D01*
X88297431Y-61246715D01*
X88288477Y-61246704D01*
X88282152Y-61240364D01*
X88281792Y-61239366D01*
X88183994Y-60924008D01*
X88183575Y-60922115D01*
X88149049Y-60667668D01*
X88149048Y-60667668D01*
X88119131Y-60448435D01*
X88119130Y-60448432D01*
X88031466Y-60228445D01*
X88031465Y-60228444D01*
X88031465Y-60228443D01*
X87830167Y-59978940D01*
X87827640Y-59970351D01*
X87831000Y-59963323D01*
X87992907Y-59801416D01*
X88001179Y-59797990D01*
X88008524Y-59800583D01*
G37*
G04 #@! TD.AperFunction*
G04 #@! TA.AperFunction,Conductor*
G36*
X45566102Y-63491939D02*
G01*
X45728060Y-63653897D01*
X45731487Y-63662170D01*
X45728918Y-63669485D01*
X45503893Y-63950379D01*
X45408758Y-64197861D01*
X45408756Y-64197870D01*
X45378891Y-64444709D01*
X45343252Y-64730855D01*
X45342829Y-64732835D01*
X45234063Y-65087984D01*
X45228364Y-65094891D01*
X45219450Y-65095745D01*
X45218410Y-65095372D01*
X44448785Y-64777562D01*
X44442447Y-64771238D01*
X44124627Y-64001587D01*
X44124636Y-63992634D01*
X44130975Y-63986309D01*
X44132010Y-63985937D01*
X44487167Y-63877167D01*
X44489139Y-63876745D01*
X44775289Y-63841107D01*
X45022135Y-63811241D01*
X45269619Y-63716104D01*
X45550516Y-63491080D01*
X45559113Y-63488583D01*
X45566102Y-63491939D01*
G37*
G04 #@! TD.AperFunction*
G04 #@! TA.AperFunction,Conductor*
G36*
X78520405Y-63993460D02*
G01*
X78682334Y-64155389D01*
X78685761Y-64163662D01*
X78683179Y-64170994D01*
X78471635Y-64434050D01*
X78380744Y-64665913D01*
X78350847Y-64897073D01*
X78315840Y-65165209D01*
X78315419Y-65167141D01*
X78212886Y-65499675D01*
X78207173Y-65506572D01*
X78198258Y-65507409D01*
X78197240Y-65507043D01*
X77473787Y-65208357D01*
X77467448Y-65202032D01*
X77467437Y-65202007D01*
X77452650Y-65166192D01*
X77168750Y-64478554D01*
X77168762Y-64469599D01*
X77175101Y-64463274D01*
X77176102Y-64462914D01*
X77508661Y-64360371D01*
X77510573Y-64359954D01*
X77778721Y-64324946D01*
X78009879Y-64295049D01*
X78241743Y-64204157D01*
X78504803Y-63992614D01*
X78513395Y-63990101D01*
X78520405Y-63993460D01*
G37*
G04 #@! TD.AperFunction*
G04 #@! TA.AperFunction,Conductor*
G36*
X35406102Y-66031939D02*
G01*
X35568060Y-66193897D01*
X35571487Y-66202170D01*
X35568918Y-66209485D01*
X35343893Y-66490379D01*
X35248758Y-66737861D01*
X35248756Y-66737870D01*
X35218891Y-66984709D01*
X35183252Y-67270855D01*
X35182829Y-67272835D01*
X35074063Y-67627984D01*
X35068364Y-67634891D01*
X35059450Y-67635745D01*
X35058410Y-67635372D01*
X34288785Y-67317562D01*
X34282447Y-67311238D01*
X33964627Y-66541587D01*
X33964636Y-66532634D01*
X33970975Y-66526309D01*
X33972010Y-66525937D01*
X34327167Y-66417167D01*
X34329139Y-66416745D01*
X34615289Y-66381107D01*
X34862135Y-66351241D01*
X35109619Y-66256104D01*
X35390516Y-66031080D01*
X35399113Y-66028583D01*
X35406102Y-66031939D01*
G37*
G04 #@! TD.AperFunction*
G04 #@! TA.AperFunction,Conductor*
G36*
X35406102Y-78731939D02*
G01*
X35568060Y-78893897D01*
X35571487Y-78902170D01*
X35568918Y-78909485D01*
X35343893Y-79190379D01*
X35248758Y-79437861D01*
X35248756Y-79437870D01*
X35218891Y-79684709D01*
X35183252Y-79970855D01*
X35182829Y-79972835D01*
X35074063Y-80327984D01*
X35068364Y-80334891D01*
X35059450Y-80335745D01*
X35058410Y-80335372D01*
X34288785Y-80017562D01*
X34282447Y-80011238D01*
X33964627Y-79241587D01*
X33964636Y-79232634D01*
X33970975Y-79226309D01*
X33972010Y-79225937D01*
X34327167Y-79117167D01*
X34329139Y-79116745D01*
X34615289Y-79081107D01*
X34862135Y-79051241D01*
X35109619Y-78956104D01*
X35390516Y-78731080D01*
X35399113Y-78728583D01*
X35406102Y-78731939D01*
G37*
G04 #@! TD.AperFunction*
G04 #@! TA.AperFunction,Conductor*
G36*
X35406102Y-96511939D02*
G01*
X35568060Y-96673897D01*
X35571487Y-96682170D01*
X35568918Y-96689485D01*
X35343893Y-96970379D01*
X35248758Y-97217861D01*
X35248756Y-97217870D01*
X35218891Y-97464709D01*
X35183252Y-97750855D01*
X35182829Y-97752835D01*
X35074063Y-98107984D01*
X35068364Y-98114891D01*
X35059450Y-98115745D01*
X35058410Y-98115372D01*
X34288785Y-97797562D01*
X34282447Y-97791238D01*
X33964627Y-97021587D01*
X33964636Y-97012634D01*
X33970975Y-97006309D01*
X33972010Y-97005937D01*
X34327167Y-96897167D01*
X34329139Y-96896745D01*
X34615289Y-96861107D01*
X34862135Y-96831241D01*
X35109619Y-96736104D01*
X35390516Y-96511080D01*
X35399113Y-96508583D01*
X35406102Y-96511939D01*
G37*
G04 #@! TD.AperFunction*
G04 #@! TA.AperFunction,Conductor*
G36*
X58143594Y-72538504D02*
G01*
X58149912Y-72544851D01*
X58149891Y-72553805D01*
X58149824Y-72553962D01*
X58087780Y-72696882D01*
X58039592Y-72807935D01*
X58039586Y-72807952D01*
X58007827Y-72906799D01*
X58007827Y-72906801D01*
X57990349Y-73023963D01*
X57990347Y-73023978D01*
X57985365Y-73178677D01*
X57981674Y-73186835D01*
X57973671Y-73190000D01*
X57596329Y-73190000D01*
X57588056Y-73186573D01*
X57584635Y-73178677D01*
X57579651Y-73023978D01*
X57579651Y-73023972D01*
X57562171Y-72906799D01*
X57530410Y-72807947D01*
X57482219Y-72696882D01*
X57420174Y-72553961D01*
X57420024Y-72545009D01*
X57426248Y-72538571D01*
X57426321Y-72538539D01*
X57780500Y-72390875D01*
X57789449Y-72390855D01*
X58143594Y-72538504D01*
G37*
G04 #@! TD.AperFunction*
G04 #@! TA.AperFunction,Conductor*
G36*
X137416979Y-86142641D02*
G01*
X137609293Y-86221942D01*
X137937885Y-86357437D01*
X137944227Y-86363759D01*
X137944242Y-86363794D01*
X138159033Y-86884688D01*
X138159018Y-86893643D01*
X138152676Y-86899965D01*
X138152334Y-86900099D01*
X137932966Y-86982579D01*
X137763164Y-87039388D01*
X137692660Y-87069168D01*
X137622157Y-87098949D01*
X137477862Y-87193937D01*
X137306467Y-87349527D01*
X137298038Y-87352550D01*
X137290330Y-87349137D01*
X136952542Y-87011349D01*
X136949115Y-87003076D01*
X136952150Y-86995215D01*
X137107743Y-86823815D01*
X137202729Y-86679522D01*
X137262290Y-86538513D01*
X137319100Y-86368712D01*
X137401581Y-86149343D01*
X137407699Y-86142808D01*
X137416649Y-86142512D01*
X137416979Y-86142641D01*
G37*
G04 #@! TD.AperFunction*
G04 #@! TA.AperFunction,Conductor*
G36*
X86521593Y-105623262D02*
G01*
X87210208Y-105907519D01*
X87216548Y-105913844D01*
X87216559Y-105913870D01*
X87500814Y-106602480D01*
X87500803Y-106611434D01*
X87494463Y-106617759D01*
X87493698Y-106618044D01*
X87187252Y-106720169D01*
X87186569Y-106720351D01*
X86943280Y-106769860D01*
X86736203Y-106817842D01*
X86736201Y-106817843D01*
X86527202Y-106919257D01*
X86527199Y-106919259D01*
X86286002Y-107122220D01*
X86277465Y-107124925D01*
X86270196Y-107121541D01*
X86002537Y-106853882D01*
X85999110Y-106845609D01*
X86001857Y-106838077D01*
X86204820Y-106596877D01*
X86306234Y-106387874D01*
X86354217Y-106180797D01*
X86403725Y-105937504D01*
X86403904Y-105936833D01*
X86506034Y-105630379D01*
X86511901Y-105623615D01*
X86520833Y-105622979D01*
X86521593Y-105623262D01*
G37*
G04 #@! TD.AperFunction*
G04 #@! TA.AperFunction,Conductor*
G36*
X86906393Y-58470823D02*
G01*
X86906845Y-58471784D01*
X87192666Y-59159459D01*
X87192677Y-59168413D01*
X87192666Y-59168439D01*
X86906845Y-59856113D01*
X86900505Y-59862438D01*
X86891551Y-59862427D01*
X86890596Y-59861978D01*
X86598445Y-59708136D01*
X86596811Y-59707095D01*
X86392475Y-59551586D01*
X86216297Y-59417719D01*
X85998752Y-59324153D01*
X85679989Y-59290067D01*
X85672127Y-59285780D01*
X85669533Y-59278433D01*
X85669533Y-59049464D01*
X85672960Y-59041191D01*
X85679986Y-59037831D01*
X85998751Y-59003744D01*
X86216298Y-58910176D01*
X86392475Y-58776311D01*
X86596821Y-58620794D01*
X86598436Y-58619765D01*
X86890593Y-58465921D01*
X86899507Y-58465099D01*
X86906393Y-58470823D01*
G37*
G04 #@! TD.AperFunction*
G04 #@! TA.AperFunction,Conductor*
G36*
X69250992Y-63992614D02*
G01*
X69514050Y-64204157D01*
X69745914Y-64295049D01*
X69977073Y-64324946D01*
X70245216Y-64359954D01*
X70247134Y-64360372D01*
X70579676Y-64462908D01*
X70586572Y-64468621D01*
X70587409Y-64477536D01*
X70587043Y-64478554D01*
X70288357Y-65202007D01*
X70282032Y-65208346D01*
X70282007Y-65208357D01*
X69558554Y-65507043D01*
X69549599Y-65507032D01*
X69543274Y-65500693D01*
X69542912Y-65499686D01*
X69440372Y-65167134D01*
X69439954Y-65165216D01*
X69404946Y-64897073D01*
X69375049Y-64665914D01*
X69284157Y-64434050D01*
X69072614Y-64170992D01*
X69070101Y-64162399D01*
X69073459Y-64155390D01*
X69235390Y-63993459D01*
X69243662Y-63990033D01*
X69250992Y-63992614D01*
G37*
G04 #@! TD.AperFunction*
G04 #@! TA.AperFunction,Conductor*
G36*
X37160640Y-71615262D02*
G01*
X37161639Y-71615734D01*
X37489676Y-71789951D01*
X37491375Y-71791052D01*
X37718911Y-71968188D01*
X37914574Y-72121615D01*
X37914575Y-72121615D01*
X37914576Y-72121616D01*
X38156846Y-72229342D01*
X38514585Y-72268849D01*
X38522431Y-72273163D01*
X38525000Y-72280478D01*
X38525000Y-72509521D01*
X38521573Y-72517794D01*
X38514584Y-72521150D01*
X38156847Y-72560656D01*
X37914574Y-72668383D01*
X37718911Y-72821811D01*
X37491375Y-72998945D01*
X37489676Y-73000046D01*
X37161639Y-73174265D01*
X37152725Y-73175119D01*
X37145818Y-73169420D01*
X37145346Y-73168421D01*
X37075388Y-73000046D01*
X36825864Y-72399488D01*
X36825856Y-72390534D01*
X36825865Y-72390511D01*
X36871582Y-72280478D01*
X37145347Y-71621576D01*
X37151685Y-71615253D01*
X37160640Y-71615262D01*
G37*
G04 #@! TD.AperFunction*
G04 #@! TA.AperFunction,Conductor*
G36*
X148288332Y-96426727D02*
G01*
X148288615Y-96427355D01*
X148589134Y-97150510D01*
X148589144Y-97159463D01*
X148589135Y-97159485D01*
X148589134Y-97159490D01*
X148288615Y-97882644D01*
X148282276Y-97888969D01*
X148273321Y-97888958D01*
X148272693Y-97888675D01*
X147970579Y-97741728D01*
X147970082Y-97741456D01*
X147751567Y-97607603D01*
X147560187Y-97500939D01*
X147560182Y-97500937D01*
X147328801Y-97430458D01*
X147328795Y-97430457D01*
X147000823Y-97405813D01*
X146992830Y-97401776D01*
X146990000Y-97394146D01*
X146990000Y-96915853D01*
X146993427Y-96907580D01*
X147000821Y-96904186D01*
X147328797Y-96879541D01*
X147328799Y-96879540D01*
X147328801Y-96879540D01*
X147560182Y-96809061D01*
X147560183Y-96809060D01*
X147560188Y-96809059D01*
X147751567Y-96702396D01*
X147970094Y-96568534D01*
X147970580Y-96568270D01*
X148272693Y-96421324D01*
X148281632Y-96420787D01*
X148288332Y-96426727D01*
G37*
G04 #@! TD.AperFunction*
G04 #@! TA.AperFunction,Conductor*
G36*
X118828582Y-70312161D02*
G01*
X118829173Y-70312426D01*
X119115898Y-70450657D01*
X119116357Y-70450904D01*
X119324805Y-70575424D01*
X119324814Y-70575429D01*
X119324813Y-70575429D01*
X119422717Y-70628001D01*
X119507668Y-70673619D01*
X119728338Y-70737961D01*
X120039567Y-70760273D01*
X120047574Y-70764283D01*
X120050430Y-70771943D01*
X120050430Y-71250160D01*
X120047003Y-71258433D01*
X120039567Y-71261830D01*
X119728338Y-71284141D01*
X119507671Y-71348481D01*
X119324813Y-71446674D01*
X119324814Y-71446674D01*
X119324805Y-71446679D01*
X119267681Y-71480802D01*
X119116358Y-71571196D01*
X119115898Y-71571444D01*
X118829173Y-71709677D01*
X118820233Y-71710183D01*
X118813553Y-71704219D01*
X118813288Y-71703628D01*
X118758301Y-71571332D01*
X118527295Y-71015541D01*
X118527285Y-71006588D01*
X118527296Y-71006562D01*
X118624812Y-70771943D01*
X118813289Y-70318473D01*
X118819628Y-70312150D01*
X118828582Y-70312161D01*
G37*
G04 #@! TD.AperFunction*
G04 #@! TA.AperFunction,Conductor*
G36*
X61391723Y-61247760D02*
G01*
X62226216Y-61592438D01*
X62232553Y-61598763D01*
X62232562Y-61598784D01*
X62576364Y-62431158D01*
X62576355Y-62440113D01*
X62570017Y-62446439D01*
X62567267Y-62447198D01*
X62239136Y-62495884D01*
X61953976Y-62574366D01*
X61896188Y-62590271D01*
X61896186Y-62590271D01*
X61896174Y-62590275D01*
X61553255Y-62728150D01*
X61553222Y-62728166D01*
X61210306Y-62909535D01*
X61210287Y-62909547D01*
X60875306Y-63129209D01*
X60866508Y-63130880D01*
X60860617Y-63127698D01*
X60696727Y-62963808D01*
X60693300Y-62955535D01*
X60694699Y-62949989D01*
X60828456Y-62701705D01*
X60923230Y-62495885D01*
X60966341Y-62402262D01*
X60966341Y-62402261D01*
X61104228Y-62059311D01*
X61242114Y-61672864D01*
X61265872Y-61598784D01*
X61376124Y-61255002D01*
X61381913Y-61248173D01*
X61390837Y-61247436D01*
X61391723Y-61247760D01*
G37*
G04 #@! TD.AperFunction*
G04 #@! TA.AperFunction,Conductor*
G36*
X143635481Y-70073427D02*
G01*
X143638004Y-70077191D01*
X143715808Y-70263465D01*
X143715808Y-70263466D01*
X143796626Y-70432194D01*
X143796627Y-70432194D01*
X143877440Y-70576145D01*
X143958253Y-70695334D01*
X143994416Y-70737589D01*
X144030236Y-70779444D01*
X144033012Y-70787957D01*
X144028954Y-70795940D01*
X144027556Y-70796968D01*
X143516209Y-71117112D01*
X143507378Y-71118597D01*
X143503791Y-71117112D01*
X142992443Y-70796968D01*
X142987250Y-70789673D01*
X142988735Y-70780842D01*
X142989763Y-70779444D01*
X143061746Y-70695334D01*
X143142559Y-70576145D01*
X143223372Y-70432194D01*
X143223373Y-70432194D01*
X143304191Y-70263466D01*
X143304191Y-70263465D01*
X143381996Y-70077191D01*
X143388347Y-70070877D01*
X143392792Y-70070000D01*
X143627208Y-70070000D01*
X143635481Y-70073427D01*
G37*
G04 #@! TD.AperFunction*
G04 #@! TA.AperFunction,Conductor*
G36*
X78206195Y-92408762D02*
G01*
X78212520Y-92415101D01*
X78212886Y-92416119D01*
X78315419Y-92748651D01*
X78315840Y-92750583D01*
X78350847Y-93018721D01*
X78380744Y-93249879D01*
X78471635Y-93481742D01*
X78471636Y-93481743D01*
X78683179Y-93744801D01*
X78685693Y-93753395D01*
X78682334Y-93760405D01*
X78520405Y-93922334D01*
X78512132Y-93925761D01*
X78504801Y-93923179D01*
X78241743Y-93711636D01*
X78241742Y-93711635D01*
X78009879Y-93620744D01*
X77778721Y-93590847D01*
X77510583Y-93555840D01*
X77508651Y-93555419D01*
X77176119Y-93452886D01*
X77169222Y-93447173D01*
X77168385Y-93438258D01*
X77168751Y-93437240D01*
X77246105Y-93249879D01*
X77467438Y-92713785D01*
X77473762Y-92707448D01*
X77473764Y-92707446D01*
X78197240Y-92408751D01*
X78206195Y-92408762D01*
G37*
G04 #@! TD.AperFunction*
G04 #@! TA.AperFunction,Conductor*
G36*
X141697251Y-52371221D02*
G01*
X141703576Y-52377560D01*
X141703565Y-52386515D01*
X141703105Y-52387493D01*
X141540471Y-52695131D01*
X141539402Y-52696795D01*
X141374554Y-52911152D01*
X141232239Y-53095749D01*
X141132558Y-53323971D01*
X141096133Y-53659563D01*
X141091833Y-53667418D01*
X141084501Y-53670000D01*
X140855499Y-53670000D01*
X140847226Y-53666573D01*
X140843867Y-53659563D01*
X140807440Y-53323971D01*
X140707759Y-53095749D01*
X140707758Y-53095746D01*
X140565445Y-52911152D01*
X140400596Y-52696795D01*
X140399531Y-52695137D01*
X140236893Y-52387492D01*
X140236057Y-52378578D01*
X140241770Y-52371681D01*
X140242735Y-52371227D01*
X140965512Y-52070864D01*
X140974461Y-52070854D01*
X141697251Y-52371221D01*
G37*
G04 #@! TD.AperFunction*
G04 #@! TA.AperFunction,Conductor*
G36*
X41584181Y-79240579D02*
G01*
X41584653Y-79241578D01*
X41904134Y-80010511D01*
X41904143Y-80019466D01*
X41904134Y-80019489D01*
X41584653Y-80788421D01*
X41578314Y-80794746D01*
X41569359Y-80794737D01*
X41568360Y-80794265D01*
X41240321Y-80620046D01*
X41238622Y-80618945D01*
X41011087Y-80441811D01*
X40815423Y-80288383D01*
X40677065Y-80226862D01*
X40573153Y-80180657D01*
X40573152Y-80180656D01*
X40215416Y-80141150D01*
X40207569Y-80136836D01*
X40205000Y-80129521D01*
X40205000Y-79900478D01*
X40208427Y-79892205D01*
X40215414Y-79888849D01*
X40573153Y-79849342D01*
X40815422Y-79741616D01*
X41011087Y-79588188D01*
X41238628Y-79411047D01*
X41240315Y-79409954D01*
X41568361Y-79235733D01*
X41577274Y-79234880D01*
X41584181Y-79240579D01*
G37*
G04 #@! TD.AperFunction*
G04 #@! TA.AperFunction,Conductor*
G36*
X35406102Y-83811939D02*
G01*
X35568060Y-83973897D01*
X35571487Y-83982170D01*
X35568918Y-83989485D01*
X35343893Y-84270379D01*
X35248758Y-84517861D01*
X35248756Y-84517870D01*
X35218891Y-84764709D01*
X35183252Y-85050855D01*
X35182829Y-85052835D01*
X35074063Y-85407984D01*
X35068364Y-85414891D01*
X35059450Y-85415745D01*
X35058410Y-85415372D01*
X34288785Y-85097562D01*
X34282447Y-85091238D01*
X33964627Y-84321587D01*
X33964636Y-84312634D01*
X33970975Y-84306309D01*
X33972010Y-84305937D01*
X34327167Y-84197167D01*
X34329139Y-84196745D01*
X34615289Y-84161107D01*
X34862135Y-84131241D01*
X35109619Y-84036104D01*
X35390516Y-83811080D01*
X35399113Y-83808583D01*
X35406102Y-83811939D01*
G37*
G04 #@! TD.AperFunction*
G04 #@! TA.AperFunction,Conductor*
G36*
X84725793Y-100235213D02*
G01*
X85414157Y-100519366D01*
X85420497Y-100525691D01*
X85420508Y-100525717D01*
X85704661Y-101214081D01*
X85704650Y-101223035D01*
X85698310Y-101229360D01*
X85697311Y-101229720D01*
X85381953Y-101327516D01*
X85380061Y-101327935D01*
X85125614Y-101362462D01*
X84906378Y-101392380D01*
X84686391Y-101480045D01*
X84436888Y-101681344D01*
X84428297Y-101683872D01*
X84421268Y-101680511D01*
X84259363Y-101518606D01*
X84255936Y-101510333D01*
X84258528Y-101502989D01*
X84459827Y-101253484D01*
X84547493Y-101033492D01*
X84577411Y-100814259D01*
X84611937Y-100559807D01*
X84612356Y-100557918D01*
X84710155Y-100242560D01*
X84715878Y-100235676D01*
X84724795Y-100234853D01*
X84725793Y-100235213D01*
G37*
G04 #@! TD.AperFunction*
G04 #@! TA.AperFunction,Conductor*
G36*
X43339484Y-78731080D02*
G01*
X43620379Y-78956104D01*
X43867863Y-79051241D01*
X43867868Y-79051241D01*
X43867870Y-79051242D01*
X44114708Y-79081106D01*
X44114709Y-79081107D01*
X44400857Y-79116745D01*
X44402835Y-79117168D01*
X44757984Y-79225936D01*
X44764891Y-79231635D01*
X44765745Y-79240549D01*
X44765372Y-79241589D01*
X44447562Y-80011214D01*
X44441237Y-80017553D01*
X44441214Y-80017562D01*
X43671589Y-80335372D01*
X43662634Y-80335363D01*
X43656309Y-80329024D01*
X43655936Y-80327984D01*
X43547168Y-79972835D01*
X43546745Y-79970855D01*
X43511107Y-79684709D01*
X43481242Y-79437870D01*
X43481241Y-79437868D01*
X43481241Y-79437863D01*
X43386104Y-79190379D01*
X43161080Y-78909484D01*
X43158583Y-78900886D01*
X43161938Y-78893898D01*
X43323898Y-78731938D01*
X43332170Y-78728512D01*
X43339484Y-78731080D01*
G37*
G04 #@! TD.AperFunction*
G04 #@! TA.AperFunction,Conductor*
G36*
X116977761Y-67694427D02*
G01*
X116981158Y-67701863D01*
X117003468Y-68013090D01*
X117067808Y-68233756D01*
X117166001Y-68416616D01*
X117166001Y-68416615D01*
X117290523Y-68625069D01*
X117290771Y-68625529D01*
X117429004Y-68912256D01*
X117429510Y-68921196D01*
X117423546Y-68927876D01*
X117422955Y-68928141D01*
X116734868Y-69214133D01*
X116725914Y-69214144D01*
X116725888Y-69214133D01*
X116037802Y-68928141D01*
X116031477Y-68921801D01*
X116031488Y-68912847D01*
X116031753Y-68912256D01*
X116169990Y-68625517D01*
X116170226Y-68625079D01*
X116294751Y-68416624D01*
X116294756Y-68416615D01*
X116294756Y-68416616D01*
X116332086Y-68347095D01*
X116392946Y-68233760D01*
X116457288Y-68013091D01*
X116479600Y-67701862D01*
X116483610Y-67693856D01*
X116491270Y-67691000D01*
X116969488Y-67691000D01*
X116977761Y-67694427D01*
G37*
G04 #@! TD.AperFunction*
G04 #@! TA.AperFunction,Conductor*
G36*
X137371995Y-91204011D02*
G01*
X137937887Y-91437437D01*
X137944229Y-91443760D01*
X137944242Y-91443791D01*
X138177291Y-92008768D01*
X138177278Y-92017723D01*
X138170937Y-92024046D01*
X138170526Y-92024206D01*
X137971208Y-92097778D01*
X137971206Y-92097779D01*
X137760488Y-92195359D01*
X137670784Y-92245328D01*
X137549769Y-92312738D01*
X137473210Y-92362579D01*
X137339052Y-92449918D01*
X137339043Y-92449925D01*
X137339042Y-92449925D01*
X137136445Y-92600855D01*
X137127763Y-92603049D01*
X137121182Y-92599745D01*
X136781656Y-92260219D01*
X136778229Y-92251946D01*
X136780281Y-92245328D01*
X136892153Y-92082239D01*
X136892155Y-92082235D01*
X136892161Y-92082227D01*
X137009541Y-91891309D01*
X137126920Y-91680591D01*
X137244300Y-91450073D01*
X137356942Y-91209858D01*
X137363556Y-91203824D01*
X137371995Y-91204011D01*
G37*
G04 #@! TD.AperFunction*
G04 #@! TA.AperFunction,Conductor*
G36*
X64999079Y-60753372D02*
G01*
X65000026Y-60754220D01*
X65304843Y-61058679D01*
X65833507Y-61586722D01*
X65836939Y-61594993D01*
X65833517Y-61603268D01*
X65833507Y-61603278D01*
X65000028Y-62435777D01*
X64991753Y-62439199D01*
X64983482Y-62435767D01*
X64982632Y-62434818D01*
X64820790Y-62232962D01*
X64820790Y-62232963D01*
X64650795Y-62054452D01*
X64480794Y-61909452D01*
X64310794Y-61797968D01*
X64252644Y-61771298D01*
X64147617Y-61723128D01*
X64141526Y-61716564D01*
X64140795Y-61712493D01*
X64140795Y-61477506D01*
X64144222Y-61469233D01*
X64147617Y-61466871D01*
X64310794Y-61392031D01*
X64480794Y-61280547D01*
X64650795Y-61135547D01*
X64820790Y-60957036D01*
X64820790Y-60957037D01*
X64982632Y-60755181D01*
X64990480Y-60750870D01*
X64999079Y-60753372D01*
G37*
G04 #@! TD.AperFunction*
G04 #@! TA.AperFunction,Conductor*
G36*
X37160640Y-81775262D02*
G01*
X37161639Y-81775734D01*
X37489676Y-81949951D01*
X37491375Y-81951052D01*
X37718911Y-82128188D01*
X37914574Y-82281615D01*
X37914575Y-82281615D01*
X37914576Y-82281616D01*
X38156846Y-82389342D01*
X38514585Y-82428849D01*
X38522431Y-82433163D01*
X38525000Y-82440478D01*
X38525000Y-82669521D01*
X38521573Y-82677794D01*
X38514584Y-82681150D01*
X38156847Y-82720656D01*
X37914574Y-82828383D01*
X37718911Y-82981811D01*
X37491375Y-83158945D01*
X37489676Y-83160046D01*
X37161639Y-83334265D01*
X37152725Y-83335119D01*
X37145818Y-83329420D01*
X37145346Y-83328421D01*
X37075388Y-83160046D01*
X36825864Y-82559488D01*
X36825856Y-82550534D01*
X36825865Y-82550511D01*
X36871582Y-82440478D01*
X37145347Y-81781576D01*
X37151685Y-81775253D01*
X37160640Y-81775262D01*
G37*
G04 #@! TD.AperFunction*
G04 #@! TA.AperFunction,Conductor*
G36*
X35406102Y-71111939D02*
G01*
X35568060Y-71273897D01*
X35571487Y-71282170D01*
X35568918Y-71289485D01*
X35343893Y-71570379D01*
X35248758Y-71817861D01*
X35248756Y-71817870D01*
X35218891Y-72064709D01*
X35183252Y-72350855D01*
X35182829Y-72352835D01*
X35074063Y-72707984D01*
X35068364Y-72714891D01*
X35059450Y-72715745D01*
X35058410Y-72715372D01*
X34288785Y-72397562D01*
X34282447Y-72391238D01*
X33964627Y-71621587D01*
X33964636Y-71612634D01*
X33970975Y-71606309D01*
X33972010Y-71605937D01*
X34327167Y-71497167D01*
X34329139Y-71496745D01*
X34615289Y-71461107D01*
X34862135Y-71431241D01*
X35109619Y-71336104D01*
X35390516Y-71111080D01*
X35399113Y-71108583D01*
X35406102Y-71111939D01*
G37*
G04 #@! TD.AperFunction*
G04 #@! TA.AperFunction,Conductor*
G36*
X61051195Y-86068762D02*
G01*
X61057520Y-86075101D01*
X61057886Y-86076119D01*
X61160419Y-86408651D01*
X61160840Y-86410583D01*
X61195847Y-86678721D01*
X61225744Y-86909879D01*
X61316635Y-87141742D01*
X61316636Y-87141743D01*
X61528179Y-87404801D01*
X61530693Y-87413395D01*
X61527334Y-87420405D01*
X61365405Y-87582334D01*
X61357132Y-87585761D01*
X61349801Y-87583179D01*
X61086743Y-87371636D01*
X61086742Y-87371635D01*
X60854879Y-87280744D01*
X60623721Y-87250847D01*
X60355583Y-87215840D01*
X60353651Y-87215419D01*
X60021119Y-87112886D01*
X60014222Y-87107173D01*
X60013385Y-87098258D01*
X60013751Y-87097240D01*
X60091105Y-86909879D01*
X60312438Y-86373785D01*
X60318762Y-86367448D01*
X60318764Y-86367446D01*
X61042240Y-86068751D01*
X61051195Y-86068762D01*
G37*
G04 #@! TD.AperFunction*
G04 #@! TA.AperFunction,Conductor*
G36*
X43339484Y-96511080D02*
G01*
X43620379Y-96736104D01*
X43867863Y-96831241D01*
X43867868Y-96831241D01*
X43867870Y-96831242D01*
X44114709Y-96861107D01*
X44400857Y-96896745D01*
X44402835Y-96897168D01*
X44757984Y-97005936D01*
X44764891Y-97011635D01*
X44765745Y-97020549D01*
X44765372Y-97021589D01*
X44447562Y-97791214D01*
X44441237Y-97797553D01*
X44441214Y-97797562D01*
X43671589Y-98115372D01*
X43662634Y-98115363D01*
X43656309Y-98109024D01*
X43655936Y-98107984D01*
X43547168Y-97752835D01*
X43546745Y-97750855D01*
X43511107Y-97464709D01*
X43481242Y-97217870D01*
X43481241Y-97217868D01*
X43481241Y-97217863D01*
X43386104Y-96970379D01*
X43161080Y-96689484D01*
X43158583Y-96680886D01*
X43161938Y-96673898D01*
X43323898Y-96511938D01*
X43332170Y-96508512D01*
X43339484Y-96511080D01*
G37*
G04 #@! TD.AperFunction*
G04 #@! TA.AperFunction,Conductor*
G36*
X143635481Y-97378427D02*
G01*
X143638004Y-97382191D01*
X143715808Y-97568465D01*
X143715808Y-97568466D01*
X143796626Y-97737194D01*
X143796627Y-97737194D01*
X143877440Y-97881145D01*
X143958253Y-98000334D01*
X143994416Y-98042589D01*
X144030236Y-98084444D01*
X144033012Y-98092957D01*
X144028954Y-98100940D01*
X144027556Y-98101968D01*
X143516209Y-98422112D01*
X143507378Y-98423597D01*
X143503791Y-98422112D01*
X142992443Y-98101968D01*
X142987250Y-98094673D01*
X142988735Y-98085842D01*
X142989763Y-98084444D01*
X143061746Y-98000334D01*
X143142559Y-97881145D01*
X143223372Y-97737194D01*
X143223373Y-97737194D01*
X143304191Y-97568466D01*
X143304191Y-97568465D01*
X143381996Y-97382191D01*
X143388347Y-97375877D01*
X143392792Y-97375000D01*
X143627208Y-97375000D01*
X143635481Y-97378427D01*
G37*
G04 #@! TD.AperFunction*
G04 #@! TA.AperFunction,Conductor*
G36*
X57897774Y-77153427D02*
G01*
X57901133Y-77160437D01*
X57937558Y-77496027D01*
X57937559Y-77496029D01*
X58037241Y-77724252D01*
X58179554Y-77908846D01*
X58344402Y-78123202D01*
X58345471Y-78124866D01*
X58508105Y-78432506D01*
X58508942Y-78441421D01*
X58503229Y-78448318D01*
X58502251Y-78448778D01*
X57779490Y-78749134D01*
X57770536Y-78749144D01*
X57770510Y-78749134D01*
X57047748Y-78448778D01*
X57041423Y-78442439D01*
X57041434Y-78433484D01*
X57041889Y-78432516D01*
X57204529Y-78124863D01*
X57205597Y-78123202D01*
X57370445Y-77908846D01*
X57512758Y-77724252D01*
X57612440Y-77496029D01*
X57648867Y-77160436D01*
X57653167Y-77152582D01*
X57660499Y-77150000D01*
X57889501Y-77150000D01*
X57897774Y-77153427D01*
G37*
G04 #@! TD.AperFunction*
G04 #@! TA.AperFunction,Conductor*
G36*
X66695687Y-61043247D02*
G01*
X66696527Y-61044749D01*
X66828682Y-61328093D01*
X66966568Y-61585009D01*
X67104450Y-61803199D01*
X67104452Y-61803202D01*
X67242338Y-61982683D01*
X67372121Y-62115175D01*
X67375462Y-62123482D01*
X67372036Y-62131634D01*
X67207016Y-62296654D01*
X67198743Y-62300081D01*
X67198401Y-62300076D01*
X67100916Y-62297217D01*
X67100915Y-62297217D01*
X67100914Y-62297217D01*
X66998396Y-62310188D01*
X66895853Y-62339146D01*
X66793323Y-62384083D01*
X66698612Y-62440354D01*
X66689749Y-62441633D01*
X66684363Y-62438568D01*
X65850224Y-61604429D01*
X65846797Y-61596156D01*
X65850224Y-61587883D01*
X65852045Y-61586395D01*
X66679479Y-61039931D01*
X66688268Y-61038232D01*
X66695687Y-61043247D01*
G37*
G04 #@! TD.AperFunction*
G04 #@! TA.AperFunction,Conductor*
G36*
X35406102Y-88891939D02*
G01*
X35568060Y-89053897D01*
X35571487Y-89062170D01*
X35568918Y-89069485D01*
X35343893Y-89350379D01*
X35248758Y-89597861D01*
X35248756Y-89597870D01*
X35218891Y-89844709D01*
X35183252Y-90130855D01*
X35182829Y-90132835D01*
X35074063Y-90487984D01*
X35068364Y-90494891D01*
X35059450Y-90495745D01*
X35058410Y-90495372D01*
X34288785Y-90177562D01*
X34282447Y-90171238D01*
X33964627Y-89401587D01*
X33964636Y-89392634D01*
X33970975Y-89386309D01*
X33972010Y-89385937D01*
X34327167Y-89277167D01*
X34329139Y-89276745D01*
X34615289Y-89241107D01*
X34862135Y-89211241D01*
X35109619Y-89116104D01*
X35390516Y-88891080D01*
X35399113Y-88888583D01*
X35406102Y-88891939D01*
G37*
G04 #@! TD.AperFunction*
G04 #@! TA.AperFunction,Conductor*
G36*
X35406102Y-81271939D02*
G01*
X35568060Y-81433897D01*
X35571487Y-81442170D01*
X35568918Y-81449485D01*
X35343893Y-81730379D01*
X35248758Y-81977861D01*
X35248756Y-81977870D01*
X35218891Y-82224709D01*
X35183252Y-82510855D01*
X35182829Y-82512835D01*
X35074063Y-82867984D01*
X35068364Y-82874891D01*
X35059450Y-82875745D01*
X35058410Y-82875372D01*
X34288785Y-82557562D01*
X34282447Y-82551238D01*
X33964627Y-81781587D01*
X33964636Y-81772634D01*
X33970975Y-81766309D01*
X33972010Y-81765937D01*
X34327167Y-81657167D01*
X34329139Y-81656745D01*
X34615289Y-81621107D01*
X34862135Y-81591241D01*
X35109619Y-81496104D01*
X35390516Y-81271080D01*
X35399113Y-81268583D01*
X35406102Y-81271939D01*
G37*
G04 #@! TD.AperFunction*
G04 #@! TA.AperFunction,Conductor*
G36*
X65198284Y-102663372D02*
G01*
X65199231Y-102664220D01*
X66032712Y-103496722D01*
X66036144Y-103504992D01*
X66032722Y-103513267D01*
X66032712Y-103513277D01*
X65199233Y-104345777D01*
X65190958Y-104349199D01*
X65182687Y-104345767D01*
X65181837Y-104344818D01*
X65019995Y-104142962D01*
X65019995Y-104142963D01*
X64850000Y-103964452D01*
X64679999Y-103819452D01*
X64509999Y-103707968D01*
X64419654Y-103666532D01*
X64346821Y-103633128D01*
X64340730Y-103626564D01*
X64340000Y-103622498D01*
X64340000Y-103387503D01*
X64343426Y-103379233D01*
X64346818Y-103376872D01*
X64509999Y-103302031D01*
X64679999Y-103190547D01*
X64850000Y-103045547D01*
X65019995Y-102867036D01*
X65019995Y-102867037D01*
X65181837Y-102665181D01*
X65189685Y-102660870D01*
X65198284Y-102663372D01*
G37*
G04 #@! TD.AperFunction*
G04 #@! TA.AperFunction,Conductor*
G36*
X43339484Y-66031080D02*
G01*
X43620379Y-66256104D01*
X43867863Y-66351241D01*
X43867868Y-66351241D01*
X43867870Y-66351242D01*
X44114709Y-66381106D01*
X44114709Y-66381107D01*
X44400857Y-66416745D01*
X44402835Y-66417168D01*
X44757984Y-66525936D01*
X44764891Y-66531635D01*
X44765745Y-66540549D01*
X44765372Y-66541589D01*
X44447562Y-67311214D01*
X44441237Y-67317553D01*
X44441214Y-67317562D01*
X43671589Y-67635372D01*
X43662634Y-67635363D01*
X43656309Y-67629024D01*
X43655936Y-67627984D01*
X43547168Y-67272835D01*
X43546745Y-67270855D01*
X43511107Y-66984709D01*
X43481242Y-66737870D01*
X43481241Y-66737868D01*
X43481241Y-66737863D01*
X43386104Y-66490379D01*
X43161080Y-66209484D01*
X43158583Y-66200886D01*
X43161938Y-66193898D01*
X43323898Y-66031938D01*
X43332170Y-66028512D01*
X43339484Y-66031080D01*
G37*
G04 #@! TD.AperFunction*
G04 #@! TA.AperFunction,Conductor*
G36*
X43339484Y-83811080D02*
G01*
X43620379Y-84036104D01*
X43867863Y-84131241D01*
X43867868Y-84131241D01*
X43867870Y-84131242D01*
X44114709Y-84161106D01*
X44114709Y-84161107D01*
X44400857Y-84196745D01*
X44402835Y-84197168D01*
X44757984Y-84305936D01*
X44764891Y-84311635D01*
X44765745Y-84320549D01*
X44765372Y-84321589D01*
X44447562Y-85091214D01*
X44441237Y-85097553D01*
X44441214Y-85097562D01*
X43671589Y-85415372D01*
X43662634Y-85415363D01*
X43656309Y-85409024D01*
X43655936Y-85407984D01*
X43547168Y-85052835D01*
X43546745Y-85050855D01*
X43511107Y-84764709D01*
X43481242Y-84517870D01*
X43481241Y-84517868D01*
X43481241Y-84517863D01*
X43386104Y-84270379D01*
X43161080Y-83989484D01*
X43158583Y-83980886D01*
X43161938Y-83973898D01*
X43323898Y-83811938D01*
X43332170Y-83808512D01*
X43339484Y-83811080D01*
G37*
G04 #@! TD.AperFunction*
G04 #@! TA.AperFunction,Conductor*
G36*
X35406102Y-76191939D02*
G01*
X35568060Y-76353897D01*
X35571487Y-76362170D01*
X35568918Y-76369485D01*
X35343893Y-76650379D01*
X35248758Y-76897861D01*
X35248756Y-76897870D01*
X35218891Y-77144709D01*
X35183252Y-77430855D01*
X35182829Y-77432835D01*
X35074063Y-77787984D01*
X35068364Y-77794891D01*
X35059450Y-77795745D01*
X35058410Y-77795372D01*
X34288785Y-77477562D01*
X34282447Y-77471238D01*
X33964627Y-76701587D01*
X33964636Y-76692634D01*
X33970975Y-76686309D01*
X33972010Y-76685937D01*
X34327167Y-76577167D01*
X34329139Y-76576745D01*
X34615289Y-76541107D01*
X34862135Y-76511241D01*
X35109619Y-76416104D01*
X35390516Y-76191080D01*
X35399113Y-76188583D01*
X35406102Y-76191939D01*
G37*
G04 #@! TD.AperFunction*
G04 #@! TA.AperFunction,Conductor*
G36*
X78206195Y-99592967D02*
G01*
X78212520Y-99599306D01*
X78212886Y-99600324D01*
X78315419Y-99932856D01*
X78315840Y-99934788D01*
X78350847Y-100202926D01*
X78380744Y-100434084D01*
X78471635Y-100665947D01*
X78471636Y-100665948D01*
X78683179Y-100929006D01*
X78685693Y-100937600D01*
X78682334Y-100944610D01*
X78520405Y-101106539D01*
X78512132Y-101109966D01*
X78504801Y-101107384D01*
X78241743Y-100895841D01*
X78241742Y-100895840D01*
X78009879Y-100804949D01*
X77778721Y-100775052D01*
X77510583Y-100740045D01*
X77508651Y-100739624D01*
X77176119Y-100637091D01*
X77169222Y-100631378D01*
X77168385Y-100622463D01*
X77168751Y-100621445D01*
X77246105Y-100434084D01*
X77467438Y-99897990D01*
X77473762Y-99891653D01*
X77473764Y-99891651D01*
X78197240Y-99592956D01*
X78206195Y-99592967D01*
G37*
G04 #@! TD.AperFunction*
G04 #@! TA.AperFunction,Conductor*
G36*
X143899257Y-63028388D02*
G01*
X143899424Y-63028523D01*
X144034190Y-63139873D01*
X144178142Y-63234751D01*
X144322095Y-63305564D01*
X144466047Y-63352314D01*
X144466050Y-63352314D01*
X144466062Y-63352317D01*
X144576260Y-63369682D01*
X144600121Y-63373443D01*
X144607760Y-63378116D01*
X144610000Y-63385000D01*
X144610000Y-63617031D01*
X144606573Y-63625304D01*
X144602585Y-63627918D01*
X144500004Y-63668294D01*
X144500001Y-63668295D01*
X144500000Y-63668296D01*
X144390000Y-63732444D01*
X144389997Y-63732446D01*
X144389994Y-63732448D01*
X144280005Y-63817438D01*
X144169997Y-63923298D01*
X144068223Y-64040527D01*
X144060212Y-64044528D01*
X144051718Y-64041692D01*
X144051122Y-64041138D01*
X143827015Y-63817438D01*
X143516397Y-63507384D01*
X143512964Y-63499115D01*
X143515507Y-63491822D01*
X143882817Y-63030257D01*
X143890650Y-63025918D01*
X143899257Y-63028388D01*
G37*
G04 #@! TD.AperFunction*
G04 #@! TA.AperFunction,Conductor*
G36*
X88317644Y-103827211D02*
G01*
X89006259Y-104111468D01*
X89012599Y-104117793D01*
X89012610Y-104117819D01*
X89296865Y-104806429D01*
X89296854Y-104815383D01*
X89290514Y-104821708D01*
X89289749Y-104821993D01*
X88983303Y-104924118D01*
X88982620Y-104924300D01*
X88739331Y-104973809D01*
X88532254Y-105021791D01*
X88532252Y-105021792D01*
X88323253Y-105123206D01*
X88323250Y-105123208D01*
X88082053Y-105326169D01*
X88073516Y-105328874D01*
X88066247Y-105325490D01*
X87798588Y-105057831D01*
X87795161Y-105049558D01*
X87797908Y-105042026D01*
X88000871Y-104800826D01*
X88102285Y-104591823D01*
X88150268Y-104384746D01*
X88199776Y-104141453D01*
X88199955Y-104140782D01*
X88302085Y-103834328D01*
X88307952Y-103827564D01*
X88316884Y-103826928D01*
X88317644Y-103827211D01*
G37*
G04 #@! TD.AperFunction*
G04 #@! TA.AperFunction,Conductor*
G36*
X35406102Y-63491939D02*
G01*
X35568060Y-63653897D01*
X35571487Y-63662170D01*
X35568918Y-63669485D01*
X35343893Y-63950379D01*
X35248758Y-64197861D01*
X35248756Y-64197870D01*
X35218891Y-64444709D01*
X35183252Y-64730855D01*
X35182829Y-64732835D01*
X35074063Y-65087984D01*
X35068364Y-65094891D01*
X35059450Y-65095745D01*
X35058410Y-65095372D01*
X34288785Y-64777562D01*
X34282447Y-64771238D01*
X33964627Y-64001587D01*
X33964636Y-63992634D01*
X33970975Y-63986309D01*
X33972010Y-63985937D01*
X34327167Y-63877167D01*
X34329139Y-63876745D01*
X34615289Y-63841107D01*
X34862135Y-63811241D01*
X35109619Y-63716104D01*
X35390516Y-63491080D01*
X35399113Y-63488583D01*
X35406102Y-63491939D01*
G37*
G04 #@! TD.AperFunction*
G04 #@! TA.AperFunction,Conductor*
G36*
X45566102Y-68571939D02*
G01*
X45728060Y-68733897D01*
X45731487Y-68742170D01*
X45728918Y-68749485D01*
X45503893Y-69030379D01*
X45408758Y-69277861D01*
X45408756Y-69277870D01*
X45378891Y-69524709D01*
X45343252Y-69810855D01*
X45342829Y-69812835D01*
X45234063Y-70167984D01*
X45228364Y-70174891D01*
X45219450Y-70175745D01*
X45218410Y-70175372D01*
X44448785Y-69857562D01*
X44442447Y-69851238D01*
X44124627Y-69081587D01*
X44124636Y-69072634D01*
X44130975Y-69066309D01*
X44132010Y-69065937D01*
X44487167Y-68957167D01*
X44489139Y-68956745D01*
X44775289Y-68921107D01*
X45022135Y-68891241D01*
X45269619Y-68796104D01*
X45550516Y-68571080D01*
X45559113Y-68568583D01*
X45566102Y-68571939D01*
G37*
G04 #@! TD.AperFunction*
G04 #@! TA.AperFunction,Conductor*
G36*
X121194628Y-91042755D02*
G01*
X121532779Y-91380906D01*
X121536206Y-91389179D01*
X121533350Y-91396839D01*
X121329054Y-91632688D01*
X121329052Y-91632691D01*
X121218515Y-91834217D01*
X121158647Y-92032953D01*
X121099298Y-92268405D01*
X121099148Y-92268905D01*
X120994149Y-92569391D01*
X120988185Y-92576071D01*
X120979245Y-92576577D01*
X120978640Y-92576347D01*
X120289862Y-92292023D01*
X120283522Y-92285698D01*
X120283511Y-92285672D01*
X119999187Y-91596894D01*
X119999198Y-91587940D01*
X120005538Y-91581615D01*
X120006108Y-91581397D01*
X120306630Y-91476385D01*
X120307131Y-91476235D01*
X120329353Y-91470633D01*
X120542574Y-91416888D01*
X120741313Y-91357019D01*
X120942846Y-91246478D01*
X121178696Y-91042183D01*
X121187192Y-91039358D01*
X121194628Y-91042755D01*
G37*
G04 #@! TD.AperFunction*
G04 #@! TA.AperFunction,Conductor*
G36*
X75900731Y-108440042D02*
G01*
X75901538Y-108440414D01*
X76226219Y-108605176D01*
X76226888Y-108605574D01*
X76457192Y-108764230D01*
X76657143Y-108896311D01*
X76901415Y-108986574D01*
X77254372Y-109019023D01*
X77262296Y-109023192D01*
X77265000Y-109030673D01*
X77265000Y-109409326D01*
X77261573Y-109417599D01*
X77254371Y-109420977D01*
X76901416Y-109453424D01*
X76657143Y-109543688D01*
X76657141Y-109543689D01*
X76457192Y-109675768D01*
X76226888Y-109834424D01*
X76226215Y-109834824D01*
X75901537Y-109999585D01*
X75892608Y-110000273D01*
X75885809Y-109994447D01*
X75885443Y-109993655D01*
X75565864Y-109224488D01*
X75565856Y-109215534D01*
X75565865Y-109215511D01*
X75647097Y-109020000D01*
X75885438Y-108446356D01*
X75891776Y-108440033D01*
X75900731Y-108440042D01*
G37*
G04 #@! TD.AperFunction*
G04 #@! TA.AperFunction,Conductor*
G36*
X37160640Y-97015262D02*
G01*
X37161639Y-97015734D01*
X37489676Y-97189951D01*
X37491375Y-97191052D01*
X37718911Y-97368188D01*
X37914574Y-97521615D01*
X37914575Y-97521615D01*
X37914576Y-97521616D01*
X38156846Y-97629342D01*
X38514585Y-97668849D01*
X38522431Y-97673163D01*
X38525000Y-97680478D01*
X38525000Y-97909521D01*
X38521573Y-97917794D01*
X38514584Y-97921150D01*
X38156847Y-97960656D01*
X37914574Y-98068383D01*
X37718911Y-98221811D01*
X37491375Y-98398945D01*
X37489676Y-98400046D01*
X37161639Y-98574265D01*
X37152725Y-98575119D01*
X37145818Y-98569420D01*
X37145346Y-98568421D01*
X37075388Y-98400046D01*
X36825864Y-97799488D01*
X36825856Y-97790534D01*
X36825865Y-97790511D01*
X36871582Y-97680478D01*
X37145347Y-97021576D01*
X37151685Y-97015253D01*
X37160640Y-97015262D01*
G37*
G04 #@! TD.AperFunction*
G04 #@! TA.AperFunction,Conductor*
G36*
X71856195Y-86058762D02*
G01*
X71862520Y-86065101D01*
X71862886Y-86066119D01*
X71965419Y-86398651D01*
X71965840Y-86400583D01*
X72000847Y-86668721D01*
X72030744Y-86899879D01*
X72121635Y-87131742D01*
X72121636Y-87131743D01*
X72333179Y-87394801D01*
X72335693Y-87403395D01*
X72332334Y-87410405D01*
X72170405Y-87572334D01*
X72162132Y-87575761D01*
X72154801Y-87573179D01*
X71891743Y-87361636D01*
X71891742Y-87361635D01*
X71659879Y-87270744D01*
X71428721Y-87240847D01*
X71160583Y-87205840D01*
X71158651Y-87205419D01*
X70826119Y-87102886D01*
X70819222Y-87097173D01*
X70818385Y-87088258D01*
X70818751Y-87087240D01*
X70896105Y-86899879D01*
X71117438Y-86363785D01*
X71123762Y-86357448D01*
X71123764Y-86357446D01*
X71847240Y-86058751D01*
X71856195Y-86058762D01*
G37*
G04 #@! TD.AperFunction*
G04 #@! TA.AperFunction,Conductor*
G36*
X88157797Y-104698622D02*
G01*
X88425456Y-104966281D01*
X88428883Y-104974554D01*
X88426135Y-104982087D01*
X88223174Y-105223284D01*
X88223172Y-105223287D01*
X88121758Y-105432286D01*
X88121757Y-105432288D01*
X88073775Y-105639365D01*
X88024266Y-105882654D01*
X88024084Y-105883337D01*
X87921959Y-106189783D01*
X87916092Y-106196548D01*
X87907160Y-106197184D01*
X87906395Y-106196899D01*
X87217785Y-105912644D01*
X87211445Y-105906319D01*
X87211434Y-105906293D01*
X86927179Y-105217683D01*
X86927190Y-105208729D01*
X86933530Y-105202404D01*
X86934290Y-105202120D01*
X87240748Y-105099989D01*
X87241419Y-105099810D01*
X87484712Y-105050302D01*
X87691789Y-105002319D01*
X87900792Y-104900905D01*
X88141992Y-104697942D01*
X88150528Y-104695238D01*
X88157797Y-104698622D01*
G37*
G04 #@! TD.AperFunction*
G04 #@! TA.AperFunction,Conductor*
G36*
X80278293Y-68440080D02*
G01*
X81001746Y-68738766D01*
X81008085Y-68745091D01*
X81008096Y-68745116D01*
X81306782Y-69468569D01*
X81306771Y-69477524D01*
X81300432Y-69483849D01*
X81299414Y-69484215D01*
X80966880Y-69586748D01*
X80964948Y-69587169D01*
X80696812Y-69622176D01*
X80465652Y-69652073D01*
X80233789Y-69742964D01*
X79970733Y-69954508D01*
X79962138Y-69957022D01*
X79955128Y-69953663D01*
X79793199Y-69791734D01*
X79789772Y-69783461D01*
X79792352Y-69776132D01*
X80003896Y-69513072D01*
X80094788Y-69281208D01*
X80124685Y-69050050D01*
X80159693Y-68781902D01*
X80160110Y-68779990D01*
X80262648Y-68447446D01*
X80268360Y-68440551D01*
X80277275Y-68439714D01*
X80278293Y-68440080D01*
G37*
G04 #@! TD.AperFunction*
G04 #@! TA.AperFunction,Conductor*
G36*
X37160640Y-99555262D02*
G01*
X37161639Y-99555734D01*
X37489676Y-99729951D01*
X37491375Y-99731052D01*
X37718911Y-99908188D01*
X37914574Y-100061615D01*
X37914575Y-100061615D01*
X37914576Y-100061616D01*
X38156846Y-100169342D01*
X38514585Y-100208849D01*
X38522431Y-100213163D01*
X38525000Y-100220478D01*
X38525000Y-100449521D01*
X38521573Y-100457794D01*
X38514584Y-100461150D01*
X38156847Y-100500656D01*
X37914574Y-100608383D01*
X37718911Y-100761811D01*
X37491375Y-100938945D01*
X37489676Y-100940046D01*
X37161639Y-101114265D01*
X37152725Y-101115119D01*
X37145818Y-101109420D01*
X37145346Y-101108421D01*
X37075388Y-100940046D01*
X36825864Y-100339488D01*
X36825856Y-100330534D01*
X36825865Y-100330511D01*
X36871582Y-100220478D01*
X37145347Y-99561576D01*
X37151685Y-99555253D01*
X37160640Y-99555262D01*
G37*
G04 #@! TD.AperFunction*
G04 #@! TA.AperFunction,Conductor*
G36*
X80038579Y-95100459D02*
G01*
X80290247Y-95310897D01*
X80508673Y-95413959D01*
X80725291Y-95460967D01*
X80979384Y-95510038D01*
X80980092Y-95510222D01*
X81299727Y-95615625D01*
X81306510Y-95621469D01*
X81307173Y-95630399D01*
X81306877Y-95631200D01*
X81008096Y-96354883D01*
X81001771Y-96361222D01*
X81001746Y-96361233D01*
X80278563Y-96659808D01*
X80269608Y-96659797D01*
X80263283Y-96653458D01*
X80262843Y-96652189D01*
X80179686Y-96359378D01*
X80166345Y-96312400D01*
X80165924Y-96309927D01*
X80148981Y-96031839D01*
X80140891Y-95789860D01*
X80140890Y-95789858D01*
X80140890Y-95789855D01*
X80067255Y-95548342D01*
X80067254Y-95548339D01*
X79859854Y-95278513D01*
X79857529Y-95269865D01*
X79860856Y-95263111D01*
X80022805Y-95101162D01*
X80031077Y-95097736D01*
X80038579Y-95100459D01*
G37*
G04 #@! TD.AperFunction*
G04 #@! TA.AperFunction,Conductor*
G36*
X44780731Y-99555042D02*
G01*
X44781538Y-99555414D01*
X45106219Y-99720176D01*
X45106888Y-99720574D01*
X45337192Y-99879230D01*
X45537143Y-100011311D01*
X45781415Y-100101574D01*
X46134372Y-100134023D01*
X46142296Y-100138192D01*
X46145000Y-100145673D01*
X46145000Y-100524326D01*
X46141573Y-100532599D01*
X46134371Y-100535977D01*
X45781416Y-100568424D01*
X45537143Y-100658688D01*
X45537141Y-100658689D01*
X45337192Y-100790768D01*
X45106888Y-100949424D01*
X45106215Y-100949824D01*
X44781537Y-101114585D01*
X44772608Y-101115273D01*
X44765809Y-101109447D01*
X44765443Y-101108655D01*
X44445864Y-100339488D01*
X44445856Y-100330534D01*
X44445865Y-100330511D01*
X44527097Y-100135000D01*
X44765438Y-99561356D01*
X44771776Y-99555033D01*
X44780731Y-99555042D01*
G37*
G04 #@! TD.AperFunction*
G04 #@! TA.AperFunction,Conductor*
G36*
X41584181Y-76700579D02*
G01*
X41584653Y-76701578D01*
X41904134Y-77470511D01*
X41904143Y-77479466D01*
X41904134Y-77479489D01*
X41584653Y-78248421D01*
X41578314Y-78254746D01*
X41569359Y-78254737D01*
X41568360Y-78254265D01*
X41240321Y-78080046D01*
X41238622Y-78078945D01*
X41011087Y-77901811D01*
X40815423Y-77748383D01*
X40677065Y-77686862D01*
X40573153Y-77640657D01*
X40573152Y-77640656D01*
X40215416Y-77601150D01*
X40207569Y-77596836D01*
X40205000Y-77589521D01*
X40205000Y-77360478D01*
X40208427Y-77352205D01*
X40215414Y-77348849D01*
X40573153Y-77309342D01*
X40815422Y-77201616D01*
X41011087Y-77048188D01*
X41238628Y-76871047D01*
X41240315Y-76869954D01*
X41568361Y-76695733D01*
X41577274Y-76694880D01*
X41584181Y-76700579D01*
G37*
G04 #@! TD.AperFunction*
G04 #@! TA.AperFunction,Conductor*
G36*
X69558554Y-99592956D02*
G01*
X70282007Y-99891642D01*
X70288346Y-99897967D01*
X70288357Y-99897992D01*
X70587043Y-100621445D01*
X70587032Y-100630400D01*
X70580693Y-100636725D01*
X70579675Y-100637091D01*
X70247141Y-100739624D01*
X70245209Y-100740045D01*
X69977073Y-100775052D01*
X69745913Y-100804949D01*
X69514050Y-100895840D01*
X69250994Y-101107384D01*
X69242399Y-101109898D01*
X69235389Y-101106539D01*
X69073460Y-100944610D01*
X69070033Y-100936337D01*
X69072613Y-100929008D01*
X69284157Y-100665948D01*
X69375049Y-100434084D01*
X69404946Y-100202926D01*
X69439954Y-99934778D01*
X69440371Y-99932866D01*
X69542909Y-99600322D01*
X69548621Y-99593427D01*
X69557536Y-99592590D01*
X69558554Y-99592956D01*
G37*
G04 #@! TD.AperFunction*
G04 #@! TA.AperFunction,Conductor*
G36*
X84618572Y-101159397D02*
G01*
X84780477Y-101321302D01*
X84783904Y-101329575D01*
X84781310Y-101336922D01*
X84580011Y-101586425D01*
X84492346Y-101806412D01*
X84462428Y-102025648D01*
X84427901Y-102280095D01*
X84427482Y-102281987D01*
X84329686Y-102597345D01*
X84323962Y-102604232D01*
X84315046Y-102605055D01*
X84314047Y-102604695D01*
X83625683Y-102320542D01*
X83619343Y-102314217D01*
X83619332Y-102314191D01*
X83335179Y-101625827D01*
X83335190Y-101616873D01*
X83341530Y-101610548D01*
X83342513Y-101610193D01*
X83657888Y-101512388D01*
X83659773Y-101511971D01*
X83914225Y-101477445D01*
X84133459Y-101447527D01*
X84353450Y-101359861D01*
X84602955Y-101158563D01*
X84611543Y-101156036D01*
X84618572Y-101159397D01*
G37*
G04 #@! TD.AperFunction*
G04 #@! TA.AperFunction,Conductor*
G36*
X59854484Y-111111079D02*
G01*
X60135379Y-111336103D01*
X60382863Y-111431240D01*
X60382868Y-111431240D01*
X60382870Y-111431241D01*
X60629708Y-111461105D01*
X60629709Y-111461106D01*
X60915857Y-111496744D01*
X60917835Y-111497167D01*
X61272984Y-111605935D01*
X61279891Y-111611634D01*
X61280745Y-111620548D01*
X61280372Y-111621588D01*
X60962562Y-112391213D01*
X60956237Y-112397552D01*
X60956214Y-112397561D01*
X60186589Y-112715371D01*
X60177634Y-112715362D01*
X60171309Y-112709023D01*
X60170936Y-112707983D01*
X60062168Y-112352834D01*
X60061745Y-112350854D01*
X60026107Y-112064708D01*
X59996242Y-111817869D01*
X59996241Y-111817867D01*
X59996241Y-111817862D01*
X59901104Y-111570378D01*
X59676080Y-111289483D01*
X59673583Y-111280885D01*
X59676938Y-111273897D01*
X59838898Y-111111937D01*
X59847170Y-111108511D01*
X59854484Y-111111079D01*
G37*
G04 #@! TD.AperFunction*
G04 #@! TA.AperFunction,Conductor*
G36*
X37160640Y-66535262D02*
G01*
X37161639Y-66535734D01*
X37489676Y-66709951D01*
X37491375Y-66711052D01*
X37718911Y-66888188D01*
X37914574Y-67041615D01*
X37914575Y-67041615D01*
X37914576Y-67041616D01*
X38156846Y-67149342D01*
X38514585Y-67188849D01*
X38522431Y-67193163D01*
X38525000Y-67200478D01*
X38525000Y-67429521D01*
X38521573Y-67437794D01*
X38514584Y-67441150D01*
X38156847Y-67480656D01*
X37914574Y-67588383D01*
X37718911Y-67741811D01*
X37491375Y-67918945D01*
X37489676Y-67920046D01*
X37161639Y-68094265D01*
X37152725Y-68095119D01*
X37145818Y-68089420D01*
X37145346Y-68088421D01*
X37075388Y-67920046D01*
X36825864Y-67319488D01*
X36825856Y-67310534D01*
X36825865Y-67310511D01*
X36871582Y-67200478D01*
X37145347Y-66541576D01*
X37151685Y-66535253D01*
X37160640Y-66535262D01*
G37*
G04 #@! TD.AperFunction*
G04 #@! TA.AperFunction,Conductor*
G36*
X41584181Y-81780579D02*
G01*
X41584653Y-81781578D01*
X41904134Y-82550511D01*
X41904143Y-82559466D01*
X41904134Y-82559489D01*
X41584653Y-83328421D01*
X41578314Y-83334746D01*
X41569359Y-83334737D01*
X41568360Y-83334265D01*
X41240321Y-83160046D01*
X41238622Y-83158945D01*
X41011087Y-82981811D01*
X40815423Y-82828383D01*
X40677065Y-82766862D01*
X40573153Y-82720657D01*
X40573152Y-82720656D01*
X40215416Y-82681150D01*
X40207569Y-82676836D01*
X40205000Y-82669521D01*
X40205000Y-82440478D01*
X40208427Y-82432205D01*
X40215414Y-82428849D01*
X40573153Y-82389342D01*
X40815422Y-82281616D01*
X41011087Y-82128188D01*
X41238628Y-81951047D01*
X41240315Y-81949954D01*
X41568361Y-81775733D01*
X41577274Y-81774880D01*
X41584181Y-81780579D01*
G37*
G04 #@! TD.AperFunction*
G04 #@! TA.AperFunction,Conductor*
G36*
X65845279Y-64135863D02*
G01*
X66614216Y-64455346D01*
X66620541Y-64461685D01*
X66620532Y-64470640D01*
X66620060Y-64471639D01*
X66445841Y-64799676D01*
X66444740Y-64801375D01*
X66267606Y-65028911D01*
X66114178Y-65224574D01*
X66006451Y-65466847D01*
X65966945Y-65824584D01*
X65962631Y-65832431D01*
X65955316Y-65835000D01*
X65726274Y-65835000D01*
X65718001Y-65831573D01*
X65714645Y-65824584D01*
X65675137Y-65466847D01*
X65567410Y-65224574D01*
X65413983Y-65028911D01*
X65236847Y-64801375D01*
X65235746Y-64799676D01*
X65061529Y-64471639D01*
X65060675Y-64462725D01*
X65066374Y-64455818D01*
X65067361Y-64455351D01*
X65836306Y-64135864D01*
X65845261Y-64135856D01*
X65845279Y-64135863D01*
G37*
G04 #@! TD.AperFunction*
G04 #@! TA.AperFunction,Conductor*
G36*
X41584181Y-66540579D02*
G01*
X41584653Y-66541578D01*
X41904134Y-67310511D01*
X41904143Y-67319466D01*
X41904134Y-67319489D01*
X41584653Y-68088421D01*
X41578314Y-68094746D01*
X41569359Y-68094737D01*
X41568360Y-68094265D01*
X41240321Y-67920046D01*
X41238622Y-67918945D01*
X41011087Y-67741811D01*
X40815423Y-67588383D01*
X40677065Y-67526862D01*
X40573153Y-67480657D01*
X40573152Y-67480656D01*
X40215416Y-67441150D01*
X40207569Y-67436836D01*
X40205000Y-67429521D01*
X40205000Y-67200478D01*
X40208427Y-67192205D01*
X40215414Y-67188849D01*
X40573153Y-67149342D01*
X40815422Y-67041616D01*
X41011087Y-66888188D01*
X41238628Y-66711047D01*
X41240315Y-66709954D01*
X41568361Y-66535733D01*
X41577274Y-66534880D01*
X41584181Y-66540579D01*
G37*
G04 #@! TD.AperFunction*
G04 #@! TA.AperFunction,Conductor*
G36*
X77168318Y-64477565D02*
G01*
X77168778Y-64478543D01*
X77469134Y-65201305D01*
X77469144Y-65210258D01*
X77469135Y-65210280D01*
X77469134Y-65210285D01*
X77168778Y-65933046D01*
X77162439Y-65939371D01*
X77153484Y-65939360D01*
X77152506Y-65938900D01*
X76984405Y-65850033D01*
X76844863Y-65776264D01*
X76843202Y-65775197D01*
X76628846Y-65610349D01*
X76444252Y-65468036D01*
X76444248Y-65468034D01*
X76216027Y-65368353D01*
X75880437Y-65331927D01*
X75872582Y-65327627D01*
X75870000Y-65320295D01*
X75870000Y-65091294D01*
X75873427Y-65083021D01*
X75880436Y-65079662D01*
X76216029Y-65043235D01*
X76444252Y-64943553D01*
X76628846Y-64801240D01*
X76843202Y-64636392D01*
X76844863Y-64635324D01*
X77152507Y-64472688D01*
X77161421Y-64471852D01*
X77168318Y-64477565D01*
G37*
G04 #@! TD.AperFunction*
G04 #@! TA.AperFunction,Conductor*
G36*
X70602310Y-99160639D02*
G01*
X70603286Y-99161098D01*
X70910932Y-99323736D01*
X70912590Y-99324801D01*
X71126947Y-99489650D01*
X71311541Y-99631963D01*
X71539765Y-99731645D01*
X71875358Y-99768072D01*
X71883213Y-99772372D01*
X71885795Y-99779704D01*
X71885795Y-100008705D01*
X71882368Y-100016978D01*
X71875358Y-100020337D01*
X71539766Y-100056763D01*
X71311544Y-100156444D01*
X71126947Y-100298759D01*
X70912590Y-100463607D01*
X70910926Y-100464676D01*
X70603288Y-100627310D01*
X70594373Y-100628147D01*
X70587476Y-100622434D01*
X70587016Y-100621456D01*
X70286659Y-99898692D01*
X70286649Y-99889743D01*
X70587017Y-99166951D01*
X70593355Y-99160628D01*
X70602310Y-99160639D01*
G37*
G04 #@! TD.AperFunction*
G04 #@! TA.AperFunction,Conductor*
G36*
X143514957Y-63516019D02*
G01*
X143520598Y-63521660D01*
X144035870Y-64623404D01*
X144036271Y-64632350D01*
X144034161Y-64635968D01*
X143958263Y-64724652D01*
X143958245Y-64724676D01*
X143877438Y-64843857D01*
X143877438Y-64843858D01*
X143796627Y-64987805D01*
X143796626Y-64987805D01*
X143715808Y-65156533D01*
X143715808Y-65156534D01*
X143638004Y-65342809D01*
X143631653Y-65349123D01*
X143627208Y-65350000D01*
X143392792Y-65350000D01*
X143384519Y-65346573D01*
X143381996Y-65342809D01*
X143304191Y-65156534D01*
X143304191Y-65156533D01*
X143223373Y-64987805D01*
X143223372Y-64987805D01*
X143142561Y-64843858D01*
X143142561Y-64843857D01*
X143061753Y-64724676D01*
X143061746Y-64724665D01*
X143061735Y-64724652D01*
X142985838Y-64635968D01*
X142983062Y-64627455D01*
X142984129Y-64623404D01*
X143499402Y-63521660D01*
X143506011Y-63515618D01*
X143514957Y-63516019D01*
G37*
G04 #@! TD.AperFunction*
G04 #@! TA.AperFunction,Conductor*
G36*
X138593029Y-87910862D02*
G01*
X138930817Y-88248650D01*
X138934244Y-88256923D01*
X138931207Y-88264787D01*
X138775617Y-88436182D01*
X138680629Y-88580477D01*
X138650849Y-88650980D01*
X138621068Y-88721484D01*
X138564259Y-88891286D01*
X138481779Y-89110654D01*
X138475660Y-89117191D01*
X138466710Y-89117487D01*
X138466368Y-89117353D01*
X137945474Y-88902562D01*
X137939132Y-88896240D01*
X137939117Y-88896205D01*
X137724326Y-88375311D01*
X137724341Y-88366356D01*
X137730683Y-88360034D01*
X137730969Y-88359921D01*
X137950392Y-88277420D01*
X138012822Y-88256533D01*
X138120194Y-88220610D01*
X138120194Y-88220609D01*
X138261202Y-88161049D01*
X138405495Y-88066063D01*
X138576895Y-87910470D01*
X138585321Y-87907449D01*
X138593029Y-87910862D01*
G37*
G04 #@! TD.AperFunction*
G04 #@! TA.AperFunction,Conductor*
G36*
X60437774Y-77153427D02*
G01*
X60441133Y-77160437D01*
X60477558Y-77496027D01*
X60477559Y-77496029D01*
X60577241Y-77724252D01*
X60719554Y-77908846D01*
X60884402Y-78123202D01*
X60885471Y-78124866D01*
X61048105Y-78432506D01*
X61048942Y-78441421D01*
X61043229Y-78448318D01*
X61042251Y-78448778D01*
X60319490Y-78749134D01*
X60310536Y-78749144D01*
X60310510Y-78749134D01*
X59587748Y-78448778D01*
X59581423Y-78442439D01*
X59581434Y-78433484D01*
X59581889Y-78432516D01*
X59744529Y-78124863D01*
X59745597Y-78123202D01*
X59910445Y-77908846D01*
X59910445Y-77908845D01*
X60052758Y-77724252D01*
X60152440Y-77496029D01*
X60188867Y-77160436D01*
X60193167Y-77152582D01*
X60200499Y-77150000D01*
X60429501Y-77150000D01*
X60437774Y-77153427D01*
G37*
G04 #@! TD.AperFunction*
G04 #@! TA.AperFunction,Conductor*
G36*
X70602310Y-64472229D02*
G01*
X70603286Y-64472688D01*
X70910932Y-64635326D01*
X70912590Y-64636391D01*
X71126947Y-64801240D01*
X71311541Y-64943553D01*
X71539765Y-65043235D01*
X71875358Y-65079662D01*
X71883213Y-65083962D01*
X71885795Y-65091294D01*
X71885795Y-65320295D01*
X71882368Y-65328568D01*
X71875358Y-65331927D01*
X71539766Y-65368353D01*
X71311544Y-65468034D01*
X71126947Y-65610349D01*
X70912590Y-65775197D01*
X70910926Y-65776266D01*
X70603288Y-65938900D01*
X70594373Y-65939737D01*
X70587476Y-65934024D01*
X70587016Y-65933046D01*
X70286659Y-65210282D01*
X70286649Y-65201333D01*
X70587017Y-64478541D01*
X70593355Y-64472218D01*
X70602310Y-64472229D01*
G37*
G04 #@! TD.AperFunction*
G04 #@! TA.AperFunction,Conductor*
G36*
X78452729Y-71132492D02*
G01*
X78614676Y-71294439D01*
X78618103Y-71302712D01*
X78615679Y-71309842D01*
X78408278Y-71579666D01*
X78408276Y-71579670D01*
X78334641Y-71821184D01*
X78334640Y-71821191D01*
X78326551Y-72063168D01*
X78309608Y-72341251D01*
X78309185Y-72343735D01*
X78212690Y-72683518D01*
X78207133Y-72690541D01*
X78198239Y-72691577D01*
X78196970Y-72691137D01*
X77473787Y-72392562D01*
X77467448Y-72386237D01*
X77467437Y-72386212D01*
X77449397Y-72342518D01*
X77234161Y-71821189D01*
X77168656Y-71662529D01*
X77168667Y-71653574D01*
X77175006Y-71647249D01*
X77175781Y-71646962D01*
X77495444Y-71541549D01*
X77496143Y-71541368D01*
X77750241Y-71492296D01*
X77966860Y-71445288D01*
X78185285Y-71342226D01*
X78436954Y-71131787D01*
X78445496Y-71129111D01*
X78452729Y-71132492D01*
G37*
G04 #@! TD.AperFunction*
G04 #@! TA.AperFunction,Conductor*
G36*
X63087312Y-102664232D02*
G01*
X63088162Y-102665181D01*
X63250004Y-102867037D01*
X63250004Y-102867036D01*
X63419999Y-103045547D01*
X63590000Y-103190547D01*
X63760000Y-103302031D01*
X63923178Y-103376871D01*
X63929269Y-103383435D01*
X63930000Y-103387506D01*
X63930000Y-103622493D01*
X63926573Y-103630766D01*
X63923178Y-103633128D01*
X63760000Y-103707968D01*
X63759997Y-103707969D01*
X63589999Y-103819452D01*
X63419997Y-103964454D01*
X63250004Y-104142963D01*
X63250004Y-104142962D01*
X63088162Y-104344818D01*
X63080314Y-104349129D01*
X63071715Y-104346627D01*
X63070766Y-104345777D01*
X62867713Y-104142963D01*
X62237287Y-103513277D01*
X62233855Y-103505006D01*
X62237275Y-103496733D01*
X63070767Y-102664221D01*
X63079041Y-102660800D01*
X63087312Y-102664232D01*
G37*
G04 #@! TD.AperFunction*
G04 #@! TA.AperFunction,Conductor*
G36*
X148288332Y-83091727D02*
G01*
X148288615Y-83092355D01*
X148589134Y-83815510D01*
X148589144Y-83824463D01*
X148589135Y-83824485D01*
X148589134Y-83824490D01*
X148288615Y-84547644D01*
X148282276Y-84553969D01*
X148273321Y-84553958D01*
X148272693Y-84553675D01*
X147970579Y-84406728D01*
X147970082Y-84406456D01*
X147751567Y-84272603D01*
X147560187Y-84165939D01*
X147560182Y-84165937D01*
X147328801Y-84095458D01*
X147328795Y-84095457D01*
X147000823Y-84070813D01*
X146992830Y-84066776D01*
X146990000Y-84059146D01*
X146990000Y-83580853D01*
X146993427Y-83572580D01*
X147000821Y-83569186D01*
X147328797Y-83544541D01*
X147328799Y-83544540D01*
X147328801Y-83544540D01*
X147560182Y-83474061D01*
X147560183Y-83474060D01*
X147560188Y-83474059D01*
X147751567Y-83367396D01*
X147970094Y-83233534D01*
X147970580Y-83233270D01*
X148272693Y-83086324D01*
X148281632Y-83085787D01*
X148288332Y-83091727D01*
G37*
G04 #@! TD.AperFunction*
G04 #@! TA.AperFunction,Conductor*
G36*
X84302783Y-62469244D02*
G01*
X84309108Y-62475584D01*
X84309393Y-62476349D01*
X84411518Y-62782793D01*
X84411700Y-62783476D01*
X84461209Y-63026766D01*
X84509191Y-63233842D01*
X84509192Y-63233843D01*
X84610607Y-63442846D01*
X84714354Y-63566138D01*
X84813569Y-63684045D01*
X84816274Y-63692582D01*
X84812890Y-63699851D01*
X84545231Y-63967510D01*
X84536958Y-63970937D01*
X84529425Y-63968189D01*
X84435343Y-63889022D01*
X84288226Y-63765227D01*
X84153495Y-63699851D01*
X84079224Y-63663812D01*
X84079222Y-63663811D01*
X83872146Y-63615829D01*
X83628856Y-63566320D01*
X83628173Y-63566138D01*
X83321729Y-63464013D01*
X83314964Y-63458146D01*
X83314328Y-63449214D01*
X83314607Y-63448463D01*
X83598868Y-62759838D01*
X83605192Y-62753499D01*
X84293830Y-62469233D01*
X84302783Y-62469244D01*
G37*
G04 #@! TD.AperFunction*
G04 #@! TA.AperFunction,Conductor*
G36*
X37160640Y-89395262D02*
G01*
X37161639Y-89395734D01*
X37489676Y-89569951D01*
X37491375Y-89571052D01*
X37718911Y-89748188D01*
X37914574Y-89901615D01*
X37914575Y-89901615D01*
X37914576Y-89901616D01*
X38156846Y-90009342D01*
X38514585Y-90048849D01*
X38522431Y-90053163D01*
X38525000Y-90060478D01*
X38525000Y-90289521D01*
X38521573Y-90297794D01*
X38514584Y-90301150D01*
X38156847Y-90340656D01*
X37914574Y-90448383D01*
X37718911Y-90601811D01*
X37491375Y-90778945D01*
X37489676Y-90780046D01*
X37161639Y-90954265D01*
X37152725Y-90955119D01*
X37145818Y-90949420D01*
X37145346Y-90948421D01*
X37075388Y-90780046D01*
X36825864Y-90179488D01*
X36825856Y-90170534D01*
X36825865Y-90170511D01*
X36871582Y-90060478D01*
X37145347Y-89401576D01*
X37151685Y-89395253D01*
X37160640Y-89395262D01*
G37*
G04 #@! TD.AperFunction*
G04 #@! TA.AperFunction,Conductor*
G36*
X43339484Y-73651080D02*
G01*
X43620379Y-73876104D01*
X43867863Y-73971241D01*
X43867868Y-73971241D01*
X43867870Y-73971242D01*
X44114709Y-74001106D01*
X44114709Y-74001107D01*
X44400857Y-74036745D01*
X44402835Y-74037168D01*
X44757984Y-74145936D01*
X44764891Y-74151635D01*
X44765745Y-74160549D01*
X44765372Y-74161589D01*
X44447562Y-74931214D01*
X44441237Y-74937553D01*
X44441214Y-74937562D01*
X43671589Y-75255372D01*
X43662634Y-75255363D01*
X43656309Y-75249024D01*
X43655936Y-75247984D01*
X43547168Y-74892835D01*
X43546745Y-74890855D01*
X43511107Y-74604709D01*
X43481242Y-74357870D01*
X43481241Y-74357868D01*
X43481241Y-74357863D01*
X43386104Y-74110379D01*
X43161080Y-73829484D01*
X43158583Y-73820886D01*
X43161938Y-73813898D01*
X43323898Y-73651938D01*
X43332170Y-73648512D01*
X43339484Y-73651080D01*
G37*
G04 #@! TD.AperFunction*
G04 #@! TA.AperFunction,Conductor*
G36*
X142777964Y-62588481D02*
G01*
X142973702Y-62717717D01*
X143177405Y-62826712D01*
X143322817Y-62886314D01*
X143381096Y-62910203D01*
X143381100Y-62910204D01*
X143381109Y-62910208D01*
X143584812Y-62968203D01*
X143766737Y-62997224D01*
X143772017Y-62998067D01*
X143779647Y-63002754D01*
X143781728Y-63011464D01*
X143780401Y-63015303D01*
X143512693Y-63497131D01*
X143506927Y-63502265D01*
X142971953Y-63722887D01*
X142962998Y-63722873D01*
X142956676Y-63716532D01*
X142956285Y-63715432D01*
X142886644Y-63483253D01*
X142813288Y-63264189D01*
X142739935Y-63070630D01*
X142666577Y-62902561D01*
X142597127Y-62767588D01*
X142596389Y-62758664D01*
X142599256Y-62753964D01*
X142763248Y-62589972D01*
X142771520Y-62586546D01*
X142777964Y-62588481D01*
G37*
G04 #@! TD.AperFunction*
G04 #@! TA.AperFunction,Conductor*
G36*
X43126917Y-99467860D02*
G01*
X43373174Y-99644526D01*
X43447862Y-99653924D01*
X43597237Y-99672721D01*
X43597237Y-99672720D01*
X43597239Y-99672721D01*
X43826756Y-99611982D01*
X44096435Y-99527945D01*
X44098478Y-99527505D01*
X44431887Y-99486608D01*
X44440514Y-99489002D01*
X44444923Y-99496797D01*
X44445010Y-99498211D01*
X44445702Y-100330846D01*
X44442282Y-100339122D01*
X44442265Y-100339139D01*
X43852872Y-100927148D01*
X43844595Y-100930565D01*
X43836326Y-100927128D01*
X43835743Y-100926499D01*
X43589962Y-100641041D01*
X43588770Y-100639384D01*
X43446185Y-100399208D01*
X43445946Y-100398760D01*
X43339970Y-100175895D01*
X43196738Y-99934627D01*
X43196735Y-99934623D01*
X43196733Y-99934620D01*
X42949156Y-99647076D01*
X42946354Y-99638571D01*
X42949748Y-99631170D01*
X43111825Y-99469093D01*
X43120097Y-99465667D01*
X43126917Y-99467860D01*
G37*
G04 #@! TD.AperFunction*
G04 #@! TA.AperFunction,Conductor*
G36*
X37160640Y-76695262D02*
G01*
X37161639Y-76695734D01*
X37489676Y-76869951D01*
X37491375Y-76871052D01*
X37718911Y-77048188D01*
X37914574Y-77201615D01*
X37914575Y-77201615D01*
X37914576Y-77201616D01*
X38156846Y-77309342D01*
X38514585Y-77348849D01*
X38522431Y-77353163D01*
X38525000Y-77360478D01*
X38525000Y-77589521D01*
X38521573Y-77597794D01*
X38514584Y-77601150D01*
X38156847Y-77640656D01*
X37914574Y-77748383D01*
X37718911Y-77901811D01*
X37491375Y-78078945D01*
X37489676Y-78080046D01*
X37161639Y-78254265D01*
X37152725Y-78255119D01*
X37145818Y-78249420D01*
X37145346Y-78248421D01*
X37075388Y-78080046D01*
X36825864Y-77479488D01*
X36825856Y-77470534D01*
X36825865Y-77470511D01*
X36871582Y-77360478D01*
X37145347Y-76701576D01*
X37151685Y-76695253D01*
X37160640Y-76695262D01*
G37*
G04 #@! TD.AperFunction*
G04 #@! TA.AperFunction,Conductor*
G36*
X41584181Y-74160579D02*
G01*
X41584653Y-74161578D01*
X41904134Y-74930511D01*
X41904143Y-74939466D01*
X41904134Y-74939489D01*
X41584653Y-75708421D01*
X41578314Y-75714746D01*
X41569359Y-75714737D01*
X41568360Y-75714265D01*
X41240321Y-75540046D01*
X41238622Y-75538945D01*
X41011087Y-75361811D01*
X40815423Y-75208383D01*
X40677065Y-75146862D01*
X40573153Y-75100657D01*
X40573152Y-75100656D01*
X40215416Y-75061150D01*
X40207569Y-75056836D01*
X40205000Y-75049521D01*
X40205000Y-74820478D01*
X40208427Y-74812205D01*
X40215414Y-74808849D01*
X40573153Y-74769342D01*
X40815422Y-74661616D01*
X41011087Y-74508188D01*
X41238628Y-74331047D01*
X41240315Y-74329954D01*
X41568361Y-74155733D01*
X41577274Y-74154880D01*
X41584181Y-74160579D01*
G37*
G04 #@! TD.AperFunction*
G04 #@! TA.AperFunction,Conductor*
G36*
X143514957Y-71136019D02*
G01*
X143520598Y-71141660D01*
X144035870Y-72243404D01*
X144036271Y-72252350D01*
X144034161Y-72255968D01*
X143958263Y-72344652D01*
X143958245Y-72344676D01*
X143877438Y-72463857D01*
X143877438Y-72463858D01*
X143796627Y-72607805D01*
X143796626Y-72607805D01*
X143715808Y-72776533D01*
X143715808Y-72776534D01*
X143638004Y-72962809D01*
X143631653Y-72969123D01*
X143627208Y-72970000D01*
X143392792Y-72970000D01*
X143384519Y-72966573D01*
X143381996Y-72962809D01*
X143304191Y-72776534D01*
X143304191Y-72776533D01*
X143223373Y-72607805D01*
X143223372Y-72607805D01*
X143142561Y-72463858D01*
X143142561Y-72463857D01*
X143061753Y-72344676D01*
X143061746Y-72344665D01*
X143061735Y-72344652D01*
X142985838Y-72255968D01*
X142983062Y-72247455D01*
X142984129Y-72243404D01*
X143499402Y-71141660D01*
X143506011Y-71135618D01*
X143514957Y-71136019D01*
G37*
G04 #@! TD.AperFunction*
G04 #@! TA.AperFunction,Conductor*
G36*
X76742759Y-72088751D02*
G01*
X77466212Y-72387437D01*
X77472551Y-72393762D01*
X77472562Y-72393787D01*
X77771248Y-73117240D01*
X77771237Y-73126195D01*
X77764898Y-73132520D01*
X77763880Y-73132886D01*
X77431346Y-73235419D01*
X77429414Y-73235840D01*
X77161278Y-73270847D01*
X76930118Y-73300744D01*
X76698255Y-73391635D01*
X76435199Y-73603179D01*
X76426604Y-73605693D01*
X76419594Y-73602334D01*
X76257665Y-73440405D01*
X76254238Y-73432132D01*
X76256818Y-73424803D01*
X76468362Y-73161743D01*
X76559254Y-72929879D01*
X76589151Y-72698721D01*
X76624159Y-72430573D01*
X76624576Y-72428661D01*
X76727114Y-72096117D01*
X76732826Y-72089222D01*
X76741741Y-72088385D01*
X76742759Y-72088751D01*
G37*
G04 #@! TD.AperFunction*
G04 #@! TA.AperFunction,Conductor*
G36*
X43339484Y-71111080D02*
G01*
X43620379Y-71336104D01*
X43867863Y-71431241D01*
X43867868Y-71431241D01*
X43867870Y-71431242D01*
X44114709Y-71461106D01*
X44114709Y-71461107D01*
X44400857Y-71496745D01*
X44402835Y-71497168D01*
X44757984Y-71605936D01*
X44764891Y-71611635D01*
X44765745Y-71620549D01*
X44765372Y-71621589D01*
X44447562Y-72391214D01*
X44441237Y-72397553D01*
X44441214Y-72397562D01*
X43671589Y-72715372D01*
X43662634Y-72715363D01*
X43656309Y-72709024D01*
X43655936Y-72707984D01*
X43547168Y-72352835D01*
X43546745Y-72350855D01*
X43511107Y-72064709D01*
X43481242Y-71817870D01*
X43481241Y-71817868D01*
X43481241Y-71817863D01*
X43386104Y-71570379D01*
X43161080Y-71289484D01*
X43158583Y-71280886D01*
X43161938Y-71273898D01*
X43323898Y-71111938D01*
X43332170Y-71108512D01*
X43339484Y-71111080D01*
G37*
G04 #@! TD.AperFunction*
G04 #@! TA.AperFunction,Conductor*
G36*
X37160640Y-84315262D02*
G01*
X37161639Y-84315734D01*
X37489676Y-84489951D01*
X37491375Y-84491052D01*
X37718911Y-84668188D01*
X37914574Y-84821615D01*
X37914575Y-84821615D01*
X37914576Y-84821616D01*
X38156846Y-84929342D01*
X38514585Y-84968849D01*
X38522431Y-84973163D01*
X38525000Y-84980478D01*
X38525000Y-85209521D01*
X38521573Y-85217794D01*
X38514584Y-85221150D01*
X38156847Y-85260656D01*
X37914574Y-85368383D01*
X37718911Y-85521811D01*
X37491375Y-85698945D01*
X37489676Y-85700046D01*
X37161639Y-85874265D01*
X37152725Y-85875119D01*
X37145818Y-85869420D01*
X37145346Y-85868421D01*
X37075388Y-85700046D01*
X36825864Y-85099488D01*
X36825856Y-85090534D01*
X36825865Y-85090511D01*
X36871582Y-84980478D01*
X37145347Y-84321576D01*
X37151685Y-84315253D01*
X37160640Y-84315262D01*
G37*
G04 #@! TD.AperFunction*
G04 #@! TA.AperFunction,Conductor*
G36*
X89207585Y-102593458D02*
G01*
X89210969Y-102600728D01*
X89238005Y-102914793D01*
X89314080Y-103134291D01*
X89314081Y-103134294D01*
X89426578Y-103314649D01*
X89563604Y-103521693D01*
X89563958Y-103522305D01*
X89708432Y-103811204D01*
X89709068Y-103820136D01*
X89703201Y-103826901D01*
X89702458Y-103827241D01*
X89014538Y-104113164D01*
X89005584Y-104113175D01*
X89005558Y-104113164D01*
X88317637Y-103827241D01*
X88311312Y-103820901D01*
X88311323Y-103811947D01*
X88311653Y-103811225D01*
X88456143Y-103522292D01*
X88456490Y-103521693D01*
X88593517Y-103314649D01*
X88706013Y-103134294D01*
X88782089Y-102914796D01*
X88809127Y-102600726D01*
X88813251Y-102592779D01*
X88820784Y-102590031D01*
X89199312Y-102590031D01*
X89207585Y-102593458D01*
G37*
G04 #@! TD.AperFunction*
G04 #@! TA.AperFunction,Conductor*
G36*
X66075992Y-67167614D02*
G01*
X66339050Y-67379157D01*
X66570914Y-67470049D01*
X66802073Y-67499946D01*
X67070216Y-67534954D01*
X67072134Y-67535372D01*
X67404676Y-67637908D01*
X67411572Y-67643621D01*
X67412409Y-67652536D01*
X67412043Y-67653554D01*
X67113357Y-68377007D01*
X67107032Y-68383346D01*
X67107007Y-68383357D01*
X66383554Y-68682043D01*
X66374599Y-68682032D01*
X66368274Y-68675693D01*
X66367912Y-68674686D01*
X66265372Y-68342134D01*
X66264954Y-68340216D01*
X66229946Y-68072073D01*
X66200049Y-67840914D01*
X66109157Y-67609050D01*
X65897614Y-67345992D01*
X65895101Y-67337399D01*
X65898459Y-67330390D01*
X66060390Y-67168459D01*
X66068662Y-67165033D01*
X66075992Y-67167614D01*
G37*
G04 #@! TD.AperFunction*
G04 #@! TA.AperFunction,Conductor*
G36*
X41584181Y-99560579D02*
G01*
X41584653Y-99561578D01*
X41904134Y-100330511D01*
X41904143Y-100339466D01*
X41904134Y-100339489D01*
X41584653Y-101108421D01*
X41578314Y-101114746D01*
X41569359Y-101114737D01*
X41568360Y-101114265D01*
X41240321Y-100940046D01*
X41238622Y-100938945D01*
X41011087Y-100761811D01*
X40815423Y-100608383D01*
X40677065Y-100546862D01*
X40573153Y-100500657D01*
X40573152Y-100500656D01*
X40215416Y-100461150D01*
X40207569Y-100456836D01*
X40205000Y-100449521D01*
X40205000Y-100220478D01*
X40208427Y-100212205D01*
X40215414Y-100208849D01*
X40573153Y-100169342D01*
X40815422Y-100061616D01*
X41011087Y-99908188D01*
X41238628Y-99731047D01*
X41240315Y-99729954D01*
X41568361Y-99555733D01*
X41577274Y-99554880D01*
X41584181Y-99560579D01*
G37*
G04 #@! TD.AperFunction*
G04 #@! TA.AperFunction,Conductor*
G36*
X87894639Y-58877244D02*
G01*
X87900964Y-58883584D01*
X87901324Y-58884582D01*
X87999120Y-59199938D01*
X87999539Y-59201831D01*
X88034066Y-59456279D01*
X88063984Y-59675515D01*
X88151649Y-59895501D01*
X88151650Y-59895502D01*
X88151651Y-59895504D01*
X88352948Y-60145007D01*
X88355476Y-60153597D01*
X88352115Y-60160626D01*
X88190210Y-60322531D01*
X88181937Y-60325958D01*
X88174591Y-60323364D01*
X87925088Y-60122067D01*
X87925086Y-60122066D01*
X87925085Y-60122065D01*
X87705099Y-60034400D01*
X87485863Y-60004482D01*
X87231415Y-59969955D01*
X87229522Y-59969536D01*
X86914166Y-59871740D01*
X86907280Y-59866016D01*
X86906457Y-59857099D01*
X86906817Y-59856101D01*
X86981363Y-59675513D01*
X87190970Y-59167736D01*
X87197294Y-59161397D01*
X87885685Y-58877233D01*
X87894639Y-58877244D01*
G37*
G04 #@! TD.AperFunction*
G04 #@! TA.AperFunction,Conductor*
G36*
X54461428Y-99971248D02*
G01*
X54461495Y-99971405D01*
X54609123Y-100325498D01*
X54609144Y-100334452D01*
X54609123Y-100334502D01*
X54461495Y-100688594D01*
X54455148Y-100694912D01*
X54446194Y-100694891D01*
X54446037Y-100694824D01*
X54303116Y-100632780D01*
X54192063Y-100584592D01*
X54192046Y-100584586D01*
X54093198Y-100552827D01*
X53976035Y-100535349D01*
X53976020Y-100535347D01*
X53821323Y-100530364D01*
X53813165Y-100526672D01*
X53810000Y-100518670D01*
X53810000Y-100141329D01*
X53813427Y-100133056D01*
X53821322Y-100129635D01*
X53976027Y-100124651D01*
X54093200Y-100107171D01*
X54192052Y-100075410D01*
X54303116Y-100027219D01*
X54446038Y-99965174D01*
X54454990Y-99965024D01*
X54461428Y-99971248D01*
G37*
G04 #@! TD.AperFunction*
G04 #@! TA.AperFunction,Conductor*
G36*
X83334755Y-101624854D02*
G01*
X83335207Y-101625815D01*
X83621028Y-102313490D01*
X83621039Y-102322444D01*
X83621028Y-102322470D01*
X83335207Y-103010144D01*
X83328867Y-103016469D01*
X83319913Y-103016458D01*
X83318958Y-103016009D01*
X83026807Y-102862167D01*
X83025173Y-102861126D01*
X82820837Y-102705617D01*
X82644659Y-102571750D01*
X82427114Y-102478184D01*
X82108351Y-102444098D01*
X82100489Y-102439811D01*
X82097895Y-102432464D01*
X82097895Y-102203495D01*
X82101322Y-102195222D01*
X82108348Y-102191862D01*
X82427113Y-102157775D01*
X82644660Y-102064207D01*
X82820837Y-101930342D01*
X83025183Y-101774825D01*
X83026798Y-101773796D01*
X83318955Y-101619952D01*
X83327869Y-101619130D01*
X83334755Y-101624854D01*
G37*
G04 #@! TD.AperFunction*
G04 #@! TA.AperFunction,Conductor*
G36*
X62352794Y-99268427D02*
G01*
X62356150Y-99275416D01*
X62395656Y-99633151D01*
X62503383Y-99875423D01*
X62656811Y-100071087D01*
X62833945Y-100298622D01*
X62835046Y-100300321D01*
X63009265Y-100628360D01*
X63010119Y-100637274D01*
X63004420Y-100644181D01*
X63003421Y-100644653D01*
X62234488Y-100964134D01*
X62225533Y-100964143D01*
X62225510Y-100964134D01*
X61456578Y-100644653D01*
X61450253Y-100638314D01*
X61450262Y-100629359D01*
X61450729Y-100628370D01*
X61624954Y-100300315D01*
X61626047Y-100298628D01*
X61803188Y-100071087D01*
X61956616Y-99875422D01*
X62064342Y-99633153D01*
X62103849Y-99275416D01*
X62108164Y-99267569D01*
X62115479Y-99265000D01*
X62344521Y-99265000D01*
X62352794Y-99268427D01*
G37*
G04 #@! TD.AperFunction*
G04 #@! TA.AperFunction,Conductor*
G36*
X120326971Y-72807969D02*
G01*
X120549281Y-72900368D01*
X121015058Y-73093961D01*
X121021383Y-73100301D01*
X121021372Y-73109255D01*
X121021107Y-73109846D01*
X120882874Y-73396571D01*
X120882626Y-73397031D01*
X120792232Y-73548354D01*
X120758109Y-73605478D01*
X120758104Y-73605487D01*
X120758104Y-73605486D01*
X120659911Y-73788344D01*
X120595571Y-74009011D01*
X120573261Y-74320240D01*
X120569251Y-74328247D01*
X120561591Y-74331103D01*
X120083373Y-74331103D01*
X120075100Y-74327676D01*
X120071703Y-74320240D01*
X120049391Y-74009011D01*
X119985050Y-73788344D01*
X119985049Y-73788343D01*
X119985049Y-73788341D01*
X119939431Y-73703390D01*
X119886859Y-73605486D01*
X119886859Y-73605487D01*
X119886854Y-73605478D01*
X119762334Y-73397030D01*
X119762087Y-73396571D01*
X119623856Y-73109846D01*
X119623350Y-73100905D01*
X119629314Y-73094226D01*
X119629878Y-73093972D01*
X120317992Y-72807968D01*
X120326945Y-72807958D01*
X120326971Y-72807969D01*
G37*
G04 #@! TD.AperFunction*
G04 #@! TA.AperFunction,Conductor*
G36*
X142787001Y-62007125D02*
G01*
X142793323Y-62013466D01*
X142793714Y-62014566D01*
X142863355Y-62246745D01*
X142936711Y-62465809D01*
X143010064Y-62659369D01*
X143083422Y-62827438D01*
X143152872Y-62962411D01*
X143153610Y-62971335D01*
X143150741Y-62976037D01*
X142986752Y-63140026D01*
X142978479Y-63143453D01*
X142972033Y-63141517D01*
X142776297Y-63012282D01*
X142776289Y-63012277D01*
X142776285Y-63012275D01*
X142645762Y-62942437D01*
X142572593Y-62903286D01*
X142531852Y-62886587D01*
X142368901Y-62819795D01*
X142368889Y-62819791D01*
X142165185Y-62761795D01*
X142165175Y-62761793D01*
X141977980Y-62731931D01*
X141970350Y-62727244D01*
X141968269Y-62718534D01*
X141969594Y-62714698D01*
X142237307Y-62232866D01*
X142243070Y-62227735D01*
X142778047Y-62007111D01*
X142787001Y-62007125D01*
G37*
G04 #@! TD.AperFunction*
G04 #@! TA.AperFunction,Conductor*
G36*
X142365481Y-60383427D02*
G01*
X142368004Y-60387191D01*
X142445808Y-60573465D01*
X142445808Y-60573466D01*
X142526626Y-60742194D01*
X142526627Y-60742194D01*
X142607440Y-60886145D01*
X142688253Y-61005334D01*
X142688255Y-61005336D01*
X142688263Y-61005346D01*
X142764161Y-61094031D01*
X142766937Y-61102544D01*
X142765870Y-61106595D01*
X142250598Y-62208339D01*
X142243989Y-62214381D01*
X142235043Y-62213980D01*
X142229402Y-62208339D01*
X141951983Y-61615169D01*
X141714127Y-61106593D01*
X141713727Y-61097648D01*
X141715831Y-61094037D01*
X141791746Y-61005334D01*
X141872559Y-60886145D01*
X141953372Y-60742194D01*
X141953373Y-60742194D01*
X142034191Y-60573466D01*
X142034191Y-60573465D01*
X142111996Y-60387191D01*
X142118347Y-60380877D01*
X142122792Y-60380000D01*
X142357208Y-60380000D01*
X142365481Y-60383427D01*
G37*
G04 #@! TD.AperFunction*
G04 #@! TA.AperFunction,Conductor*
G36*
X43339484Y-88891080D02*
G01*
X43620379Y-89116104D01*
X43867863Y-89211241D01*
X43867868Y-89211241D01*
X43867870Y-89211242D01*
X44114709Y-89241106D01*
X44114709Y-89241107D01*
X44400857Y-89276745D01*
X44402835Y-89277168D01*
X44757984Y-89385936D01*
X44764891Y-89391635D01*
X44765745Y-89400549D01*
X44765372Y-89401589D01*
X44447562Y-90171214D01*
X44441237Y-90177553D01*
X44441214Y-90177562D01*
X43671589Y-90495372D01*
X43662634Y-90495363D01*
X43656309Y-90489024D01*
X43655936Y-90487984D01*
X43547168Y-90132835D01*
X43546745Y-90130855D01*
X43511107Y-89844709D01*
X43481242Y-89597870D01*
X43481241Y-89597868D01*
X43481241Y-89597863D01*
X43386104Y-89350379D01*
X43161080Y-89069484D01*
X43158583Y-89060886D01*
X43161938Y-89053898D01*
X43323898Y-88891938D01*
X43332170Y-88888512D01*
X43339484Y-88891080D01*
G37*
G04 #@! TD.AperFunction*
G04 #@! TA.AperFunction,Conductor*
G36*
X86098834Y-64265295D02*
G01*
X86105159Y-64271635D01*
X86105444Y-64272400D01*
X86207569Y-64578844D01*
X86207751Y-64579527D01*
X86257260Y-64822817D01*
X86305242Y-65029893D01*
X86305243Y-65029894D01*
X86406658Y-65238897D01*
X86510405Y-65362189D01*
X86609620Y-65480096D01*
X86612325Y-65488633D01*
X86608941Y-65495902D01*
X86341282Y-65763561D01*
X86333009Y-65766988D01*
X86325476Y-65764240D01*
X86231394Y-65685073D01*
X86084277Y-65561278D01*
X85949546Y-65495902D01*
X85875275Y-65459863D01*
X85875273Y-65459862D01*
X85668197Y-65411880D01*
X85424907Y-65362371D01*
X85424224Y-65362189D01*
X85117780Y-65260064D01*
X85111015Y-65254197D01*
X85110379Y-65245265D01*
X85110658Y-65244514D01*
X85394919Y-64555889D01*
X85401243Y-64549550D01*
X86089881Y-64265284D01*
X86098834Y-64265295D01*
G37*
G04 #@! TD.AperFunction*
G04 #@! TA.AperFunction,Conductor*
G36*
X43339484Y-63491080D02*
G01*
X43620379Y-63716104D01*
X43867863Y-63811241D01*
X43867868Y-63811241D01*
X43867870Y-63811242D01*
X44114709Y-63841106D01*
X44114709Y-63841107D01*
X44400857Y-63876745D01*
X44402835Y-63877168D01*
X44757984Y-63985936D01*
X44764891Y-63991635D01*
X44765745Y-64000549D01*
X44765372Y-64001589D01*
X44447562Y-64771214D01*
X44441237Y-64777553D01*
X44441214Y-64777562D01*
X43671589Y-65095372D01*
X43662634Y-65095363D01*
X43656309Y-65089024D01*
X43655936Y-65087984D01*
X43547168Y-64732835D01*
X43546745Y-64730855D01*
X43511107Y-64444709D01*
X43481242Y-64197870D01*
X43481241Y-64197868D01*
X43481241Y-64197863D01*
X43386104Y-63950379D01*
X43161080Y-63669484D01*
X43158583Y-63660886D01*
X43161938Y-63653898D01*
X43323898Y-63491938D01*
X43332170Y-63488512D01*
X43339484Y-63491080D01*
G37*
G04 #@! TD.AperFunction*
G04 #@! TA.AperFunction,Conductor*
G36*
X35406102Y-68571939D02*
G01*
X35568060Y-68733897D01*
X35571487Y-68742170D01*
X35568918Y-68749485D01*
X35343893Y-69030379D01*
X35248758Y-69277861D01*
X35248756Y-69277870D01*
X35218891Y-69524709D01*
X35183252Y-69810855D01*
X35182829Y-69812835D01*
X35074063Y-70167984D01*
X35068364Y-70174891D01*
X35059450Y-70175745D01*
X35058410Y-70175372D01*
X34288785Y-69857562D01*
X34282447Y-69851238D01*
X33964627Y-69081587D01*
X33964636Y-69072634D01*
X33970975Y-69066309D01*
X33972010Y-69065937D01*
X34327167Y-68957167D01*
X34329139Y-68956745D01*
X34615289Y-68921107D01*
X34862135Y-68891241D01*
X35109619Y-68796104D01*
X35390516Y-68571080D01*
X35399113Y-68568583D01*
X35406102Y-68571939D01*
G37*
G04 #@! TD.AperFunction*
G04 #@! TA.AperFunction,Conductor*
G36*
X43339484Y-68571080D02*
G01*
X43620379Y-68796104D01*
X43867863Y-68891241D01*
X43867868Y-68891241D01*
X43867870Y-68891242D01*
X44114709Y-68921106D01*
X44114709Y-68921107D01*
X44400857Y-68956745D01*
X44402835Y-68957168D01*
X44757984Y-69065936D01*
X44764891Y-69071635D01*
X44765745Y-69080549D01*
X44765372Y-69081589D01*
X44447562Y-69851214D01*
X44441237Y-69857553D01*
X44441214Y-69857562D01*
X43671589Y-70175372D01*
X43662634Y-70175363D01*
X43656309Y-70169024D01*
X43655936Y-70167984D01*
X43547168Y-69812835D01*
X43546745Y-69810855D01*
X43511107Y-69524709D01*
X43481242Y-69277870D01*
X43481241Y-69277868D01*
X43481241Y-69277863D01*
X43386104Y-69030379D01*
X43161080Y-68749484D01*
X43158583Y-68740886D01*
X43161938Y-68733898D01*
X43323898Y-68571938D01*
X43332170Y-68568512D01*
X43339484Y-68571080D01*
G37*
G04 #@! TD.AperFunction*
G04 #@! TA.AperFunction,Conductor*
G36*
X54461428Y-97431248D02*
G01*
X54461495Y-97431405D01*
X54609123Y-97785498D01*
X54609144Y-97794452D01*
X54609123Y-97794502D01*
X54461495Y-98148594D01*
X54455148Y-98154912D01*
X54446194Y-98154891D01*
X54446037Y-98154824D01*
X54303116Y-98092780D01*
X54192063Y-98044592D01*
X54192046Y-98044586D01*
X54093198Y-98012827D01*
X53976035Y-97995349D01*
X53976020Y-97995347D01*
X53821323Y-97990364D01*
X53813165Y-97986672D01*
X53810000Y-97978670D01*
X53810000Y-97601329D01*
X53813427Y-97593056D01*
X53821322Y-97589635D01*
X53976027Y-97584651D01*
X54093200Y-97567171D01*
X54192052Y-97535410D01*
X54303116Y-97487219D01*
X54446038Y-97425174D01*
X54454990Y-97425024D01*
X54461428Y-97431248D01*
G37*
G04 #@! TD.AperFunction*
G04 #@! TA.AperFunction,Conductor*
G36*
X37682312Y-63934232D02*
G01*
X37683162Y-63935181D01*
X37845004Y-64137037D01*
X37845004Y-64137036D01*
X38014999Y-64315547D01*
X38185000Y-64460547D01*
X38355000Y-64572031D01*
X38518178Y-64646871D01*
X38524269Y-64653435D01*
X38525000Y-64657506D01*
X38525000Y-64892493D01*
X38521573Y-64900766D01*
X38518178Y-64903128D01*
X38355000Y-64977968D01*
X38354997Y-64977969D01*
X38184999Y-65089452D01*
X38014997Y-65234454D01*
X37845004Y-65412963D01*
X37845004Y-65412962D01*
X37683162Y-65614818D01*
X37675314Y-65619129D01*
X37666715Y-65616627D01*
X37665766Y-65615777D01*
X37664806Y-65614818D01*
X36832286Y-64783276D01*
X36828855Y-64775007D01*
X36832276Y-64766733D01*
X37665767Y-63934221D01*
X37674041Y-63930800D01*
X37682312Y-63934232D01*
G37*
G04 #@! TD.AperFunction*
G04 #@! TA.AperFunction,Conductor*
G36*
X37160640Y-74155262D02*
G01*
X37161639Y-74155734D01*
X37489676Y-74329951D01*
X37491375Y-74331052D01*
X37718911Y-74508188D01*
X37914574Y-74661615D01*
X37914575Y-74661615D01*
X37914576Y-74661616D01*
X38156846Y-74769342D01*
X38514585Y-74808849D01*
X38522431Y-74813163D01*
X38525000Y-74820478D01*
X38525000Y-75049521D01*
X38521573Y-75057794D01*
X38514584Y-75061150D01*
X38156847Y-75100656D01*
X37914574Y-75208383D01*
X37718911Y-75361811D01*
X37491375Y-75538945D01*
X37489676Y-75540046D01*
X37161639Y-75714265D01*
X37152725Y-75715119D01*
X37145818Y-75709420D01*
X37145346Y-75708421D01*
X37075388Y-75540046D01*
X36825864Y-74939488D01*
X36825856Y-74930534D01*
X36825865Y-74930511D01*
X36871582Y-74820478D01*
X37145347Y-74161576D01*
X37151685Y-74155253D01*
X37160640Y-74155262D01*
G37*
G04 #@! TD.AperFunction*
G04 #@! TA.AperFunction,Conductor*
G36*
X35406102Y-99051939D02*
G01*
X35568060Y-99213897D01*
X35571487Y-99222170D01*
X35568918Y-99229485D01*
X35343893Y-99510379D01*
X35248758Y-99757861D01*
X35248756Y-99757870D01*
X35218891Y-100004709D01*
X35183252Y-100290855D01*
X35182829Y-100292835D01*
X35074063Y-100647984D01*
X35068364Y-100654891D01*
X35059450Y-100655745D01*
X35058410Y-100655372D01*
X34288785Y-100337562D01*
X34282447Y-100331238D01*
X33964627Y-99561587D01*
X33964636Y-99552634D01*
X33970975Y-99546309D01*
X33972010Y-99545937D01*
X34327167Y-99437167D01*
X34329139Y-99436745D01*
X34615289Y-99401107D01*
X34862135Y-99371241D01*
X35109619Y-99276104D01*
X35390516Y-99051080D01*
X35399113Y-99048583D01*
X35406102Y-99051939D01*
G37*
G04 #@! TD.AperFunction*
G04 #@! TA.AperFunction,Conductor*
G36*
X55960596Y-86670544D02*
G01*
X55966925Y-86676879D01*
X55966920Y-86685834D01*
X55965673Y-86688096D01*
X55780037Y-86951219D01*
X55777670Y-86953702D01*
X55527997Y-87148333D01*
X55310416Y-87306730D01*
X55215735Y-87471324D01*
X55329162Y-87677916D01*
X55330140Y-87686817D01*
X55327179Y-87691820D01*
X55165228Y-87853771D01*
X55156955Y-87857198D01*
X55148682Y-87853771D01*
X55148370Y-87853446D01*
X54928759Y-87615176D01*
X54928265Y-87614560D01*
X54828541Y-87471324D01*
X54792052Y-87418914D01*
X54791050Y-87417170D01*
X54702552Y-87226638D01*
X54702364Y-87226184D01*
X54618291Y-86994288D01*
X54499986Y-86686778D01*
X54500214Y-86677827D01*
X54506413Y-86671776D01*
X55229807Y-86371156D01*
X55238760Y-86371146D01*
X55960596Y-86670544D01*
G37*
G04 #@! TD.AperFunction*
G04 #@! TA.AperFunction,Conductor*
G36*
X73260197Y-88321819D02*
G01*
X73523255Y-88533362D01*
X73755119Y-88624254D01*
X73986278Y-88654151D01*
X74254421Y-88689159D01*
X74256339Y-88689577D01*
X74588881Y-88792113D01*
X74595777Y-88797826D01*
X74596614Y-88806741D01*
X74596248Y-88807759D01*
X74297562Y-89531212D01*
X74291237Y-89537551D01*
X74291212Y-89537562D01*
X73567759Y-89836248D01*
X73558804Y-89836237D01*
X73552479Y-89829898D01*
X73552117Y-89828891D01*
X73449577Y-89496339D01*
X73449159Y-89494421D01*
X73414151Y-89226278D01*
X73384254Y-88995119D01*
X73293362Y-88763255D01*
X73081819Y-88500197D01*
X73079306Y-88491604D01*
X73082664Y-88484595D01*
X73244595Y-88322664D01*
X73252867Y-88319238D01*
X73260197Y-88321819D01*
G37*
G04 #@! TD.AperFunction*
G04 #@! TA.AperFunction,Conductor*
G36*
X72170405Y-77527665D02*
G01*
X72332334Y-77689594D01*
X72335761Y-77697867D01*
X72333179Y-77705199D01*
X72121635Y-77968255D01*
X72030744Y-78200118D01*
X72000847Y-78431278D01*
X71965840Y-78699414D01*
X71965419Y-78701346D01*
X71862886Y-79033880D01*
X71857173Y-79040777D01*
X71848258Y-79041614D01*
X71847240Y-79041248D01*
X71123787Y-78742562D01*
X71117448Y-78736237D01*
X71117437Y-78736212D01*
X71102650Y-78700397D01*
X70818750Y-78012759D01*
X70818762Y-78003804D01*
X70825101Y-77997479D01*
X70826102Y-77997119D01*
X71158661Y-77894576D01*
X71160573Y-77894159D01*
X71428721Y-77859151D01*
X71659879Y-77829254D01*
X71891743Y-77738362D01*
X72154803Y-77526819D01*
X72163395Y-77524306D01*
X72170405Y-77527665D01*
G37*
G04 #@! TD.AperFunction*
G04 #@! TA.AperFunction,Conductor*
G36*
X58511235Y-86068745D02*
G01*
X58517560Y-86075084D01*
X58517914Y-86076064D01*
X58620923Y-86406219D01*
X58621339Y-86408069D01*
X58658831Y-86673664D01*
X58691771Y-86902279D01*
X58762362Y-87076393D01*
X58784818Y-87131782D01*
X58784819Y-87131784D01*
X58996140Y-87392806D01*
X58998683Y-87401392D01*
X58995320Y-87408441D01*
X58833387Y-87570374D01*
X58825114Y-87573801D01*
X58817818Y-87571247D01*
X58553594Y-87360472D01*
X58553593Y-87360471D01*
X58319999Y-87272624D01*
X58320001Y-87272624D01*
X58086891Y-87246558D01*
X57816986Y-87214729D01*
X57814953Y-87214304D01*
X57481182Y-87112851D01*
X57474263Y-87107167D01*
X57473391Y-87098254D01*
X57473763Y-87097210D01*
X57772438Y-86373785D01*
X57778762Y-86367448D01*
X57778764Y-86367446D01*
X58502281Y-86068734D01*
X58511235Y-86068745D01*
G37*
G04 #@! TD.AperFunction*
G04 #@! TA.AperFunction,Conductor*
G36*
X129027419Y-58258427D02*
G01*
X129030813Y-58265823D01*
X129042728Y-58424396D01*
X129042729Y-58424402D01*
X129077967Y-58540088D01*
X129077969Y-58540093D01*
X129131301Y-58635784D01*
X129198156Y-58744924D01*
X129198428Y-58745421D01*
X129269130Y-58890779D01*
X129269667Y-58899718D01*
X129263727Y-58906418D01*
X129263111Y-58906696D01*
X128909502Y-59054123D01*
X128900548Y-59054144D01*
X128900498Y-59054123D01*
X128546888Y-58906696D01*
X128540570Y-58900349D01*
X128540591Y-58891395D01*
X128540859Y-58890801D01*
X128611572Y-58745416D01*
X128611839Y-58744928D01*
X128611842Y-58744924D01*
X128678697Y-58635784D01*
X128732029Y-58540094D01*
X128767270Y-58424398D01*
X128779186Y-58265823D01*
X128783224Y-58257830D01*
X128790854Y-58255000D01*
X129019146Y-58255000D01*
X129027419Y-58258427D01*
G37*
G04 #@! TD.AperFunction*
G04 #@! TA.AperFunction,Conductor*
G36*
X35406102Y-73651939D02*
G01*
X35568060Y-73813897D01*
X35571487Y-73822170D01*
X35568918Y-73829485D01*
X35343893Y-74110379D01*
X35248758Y-74357861D01*
X35248756Y-74357870D01*
X35218891Y-74604709D01*
X35183252Y-74890855D01*
X35182829Y-74892835D01*
X35074063Y-75247984D01*
X35068364Y-75254891D01*
X35059450Y-75255745D01*
X35058410Y-75255372D01*
X34288785Y-74937562D01*
X34282447Y-74931238D01*
X33964627Y-74161587D01*
X33964636Y-74152634D01*
X33970975Y-74146309D01*
X33972010Y-74145937D01*
X34327167Y-74037167D01*
X34329139Y-74036745D01*
X34615289Y-74001107D01*
X34862135Y-73971241D01*
X35109619Y-73876104D01*
X35390516Y-73651080D01*
X35399113Y-73648583D01*
X35406102Y-73651939D01*
G37*
G04 #@! TD.AperFunction*
G04 #@! TA.AperFunction,Conductor*
G36*
X41584181Y-69080579D02*
G01*
X41584653Y-69081578D01*
X41904134Y-69850511D01*
X41904143Y-69859466D01*
X41904134Y-69859489D01*
X41584653Y-70628421D01*
X41578314Y-70634746D01*
X41569359Y-70634737D01*
X41568360Y-70634265D01*
X41240321Y-70460046D01*
X41238622Y-70458945D01*
X41011087Y-70281811D01*
X40815423Y-70128383D01*
X40677065Y-70066862D01*
X40573153Y-70020657D01*
X40573152Y-70020656D01*
X40215416Y-69981150D01*
X40207569Y-69976836D01*
X40205000Y-69969521D01*
X40205000Y-69740478D01*
X40208427Y-69732205D01*
X40215414Y-69728849D01*
X40573153Y-69689342D01*
X40815422Y-69581616D01*
X41011087Y-69428188D01*
X41238628Y-69251047D01*
X41240315Y-69249954D01*
X41568361Y-69075733D01*
X41577274Y-69074880D01*
X41584181Y-69080579D01*
G37*
G04 #@! TD.AperFunction*
G04 #@! TA.AperFunction,Conductor*
G36*
X62234484Y-64135863D02*
G01*
X63003421Y-64455346D01*
X63009746Y-64461685D01*
X63009737Y-64470640D01*
X63009265Y-64471639D01*
X62835046Y-64799676D01*
X62833945Y-64801375D01*
X62656811Y-65028911D01*
X62503383Y-65224574D01*
X62395656Y-65466847D01*
X62356150Y-65824584D01*
X62351836Y-65832431D01*
X62344521Y-65835000D01*
X62115479Y-65835000D01*
X62107206Y-65831573D01*
X62103850Y-65824584D01*
X62064342Y-65466847D01*
X61956615Y-65224574D01*
X61803188Y-65028911D01*
X61626052Y-64801375D01*
X61624951Y-64799676D01*
X61450734Y-64471639D01*
X61449880Y-64462725D01*
X61455579Y-64455818D01*
X61456566Y-64455351D01*
X62225511Y-64135864D01*
X62234466Y-64135856D01*
X62234484Y-64135863D01*
G37*
G04 #@! TD.AperFunction*
G04 #@! TA.AperFunction,Conductor*
G36*
X37160640Y-69075262D02*
G01*
X37161639Y-69075734D01*
X37489676Y-69249951D01*
X37491375Y-69251052D01*
X37718911Y-69428188D01*
X37914574Y-69581615D01*
X37914575Y-69581615D01*
X37914576Y-69581616D01*
X38156846Y-69689342D01*
X38514585Y-69728849D01*
X38522431Y-69733163D01*
X38525000Y-69740478D01*
X38525000Y-69969521D01*
X38521573Y-69977794D01*
X38514584Y-69981150D01*
X38156847Y-70020656D01*
X37914574Y-70128383D01*
X37718911Y-70281811D01*
X37491375Y-70458945D01*
X37489676Y-70460046D01*
X37161639Y-70634265D01*
X37152725Y-70635119D01*
X37145818Y-70629420D01*
X37145346Y-70628421D01*
X37075388Y-70460046D01*
X36825864Y-69859488D01*
X36825856Y-69850534D01*
X36825865Y-69850511D01*
X36871582Y-69740478D01*
X37145347Y-69081576D01*
X37151685Y-69075253D01*
X37160640Y-69075262D01*
G37*
G04 #@! TD.AperFunction*
G04 #@! TA.AperFunction,Conductor*
G36*
X145338227Y-96612180D02*
G01*
X145439999Y-96701000D01*
X145549999Y-96779000D01*
X145550001Y-96779001D01*
X145659995Y-96838998D01*
X145660007Y-96839003D01*
X145769999Y-96881000D01*
X145769998Y-96881000D01*
X145821468Y-96892229D01*
X145870794Y-96902991D01*
X145878146Y-96908102D01*
X145880000Y-96914422D01*
X145880000Y-97394694D01*
X145876573Y-97402967D01*
X145869777Y-97406300D01*
X145770012Y-97418996D01*
X145769996Y-97418999D01*
X145660002Y-97450997D01*
X145660001Y-97450998D01*
X145550007Y-97500996D01*
X145550003Y-97500997D01*
X145549999Y-97501000D01*
X145549990Y-97501005D01*
X145549991Y-97501005D01*
X145440011Y-97568991D01*
X145439989Y-97569007D01*
X145337766Y-97648927D01*
X145329138Y-97651323D01*
X145322698Y-97648374D01*
X144788102Y-97163260D01*
X144784279Y-97155164D01*
X144787301Y-97146735D01*
X144787684Y-97146331D01*
X145322271Y-96612714D01*
X145330547Y-96609296D01*
X145338227Y-96612180D01*
G37*
G04 #@! TD.AperFunction*
G04 #@! TA.AperFunction,Conductor*
G36*
X84469487Y-63339963D02*
G01*
X84710686Y-63542925D01*
X84919686Y-63644338D01*
X84919688Y-63644339D01*
X85126765Y-63692322D01*
X85370054Y-63741830D01*
X85370732Y-63742010D01*
X85581274Y-63812176D01*
X85677183Y-63844139D01*
X85683948Y-63850006D01*
X85684584Y-63858938D01*
X85684299Y-63859703D01*
X85400044Y-64548313D01*
X85393719Y-64554653D01*
X85393693Y-64554664D01*
X84705083Y-64838919D01*
X84696129Y-64838908D01*
X84689804Y-64832568D01*
X84689519Y-64831803D01*
X84597159Y-64554664D01*
X84587390Y-64525352D01*
X84587210Y-64524674D01*
X84537702Y-64281385D01*
X84489719Y-64074308D01*
X84489718Y-64074306D01*
X84388305Y-63865306D01*
X84185343Y-63624107D01*
X84182638Y-63615570D01*
X84186021Y-63608302D01*
X84453682Y-63340641D01*
X84461954Y-63337215D01*
X84469487Y-63339963D01*
G37*
G04 #@! TD.AperFunction*
G04 #@! TA.AperFunction,Conductor*
G36*
X127165929Y-58408002D02*
G01*
X127286486Y-58511707D01*
X127393214Y-58568598D01*
X127498588Y-58598549D01*
X127623049Y-58628453D01*
X127623558Y-58628601D01*
X127776358Y-58681400D01*
X127783057Y-58687339D01*
X127783594Y-58696278D01*
X127783356Y-58696909D01*
X127637563Y-59051195D01*
X127631245Y-59057542D01*
X127631195Y-59057563D01*
X127276909Y-59203356D01*
X127267955Y-59203335D01*
X127261637Y-59196988D01*
X127261406Y-59196378D01*
X127208601Y-59043558D01*
X127208453Y-59043049D01*
X127178549Y-58918588D01*
X127148598Y-58813214D01*
X127091707Y-58706486D01*
X126988002Y-58585929D01*
X126985206Y-58577424D01*
X126988599Y-58570029D01*
X127150029Y-58408599D01*
X127158301Y-58405173D01*
X127165929Y-58408002D01*
G37*
G04 #@! TD.AperFunction*
G04 #@! TA.AperFunction,Conductor*
G36*
X55409484Y-111111080D02*
G01*
X55690379Y-111336104D01*
X55937863Y-111431241D01*
X55937868Y-111431241D01*
X55937870Y-111431242D01*
X56184709Y-111461106D01*
X56184709Y-111461107D01*
X56470857Y-111496745D01*
X56472835Y-111497168D01*
X56827984Y-111605936D01*
X56834891Y-111611635D01*
X56835745Y-111620549D01*
X56835372Y-111621589D01*
X56517562Y-112391214D01*
X56511237Y-112397553D01*
X56511214Y-112397562D01*
X55741589Y-112715372D01*
X55732634Y-112715363D01*
X55726309Y-112709024D01*
X55725936Y-112707984D01*
X55617168Y-112352835D01*
X55616745Y-112350855D01*
X55581107Y-112064709D01*
X55551242Y-111817870D01*
X55551241Y-111817868D01*
X55551241Y-111817863D01*
X55456104Y-111570379D01*
X55231080Y-111289484D01*
X55228583Y-111280886D01*
X55231938Y-111273898D01*
X55393898Y-111111938D01*
X55402170Y-111108512D01*
X55409484Y-111111080D01*
G37*
G04 #@! TD.AperFunction*
G04 #@! TA.AperFunction,Conductor*
G36*
X145338227Y-83277180D02*
G01*
X145439999Y-83366000D01*
X145549999Y-83444000D01*
X145550001Y-83444001D01*
X145659995Y-83503998D01*
X145660007Y-83504003D01*
X145769999Y-83546000D01*
X145769998Y-83546000D01*
X145821468Y-83557229D01*
X145870794Y-83567991D01*
X145878146Y-83573102D01*
X145880000Y-83579422D01*
X145880000Y-84059694D01*
X145876573Y-84067967D01*
X145869777Y-84071300D01*
X145770012Y-84083996D01*
X145769996Y-84083999D01*
X145660002Y-84115997D01*
X145660001Y-84115998D01*
X145550007Y-84165996D01*
X145550003Y-84165997D01*
X145549999Y-84166000D01*
X145549990Y-84166005D01*
X145549991Y-84166005D01*
X145440011Y-84233991D01*
X145439989Y-84234007D01*
X145337766Y-84313927D01*
X145329138Y-84316323D01*
X145322698Y-84313374D01*
X144788102Y-83828260D01*
X144784279Y-83820164D01*
X144787301Y-83811735D01*
X144787684Y-83811331D01*
X145322271Y-83277714D01*
X145330547Y-83274296D01*
X145338227Y-83277180D01*
G37*
G04 #@! TD.AperFunction*
G04 #@! TA.AperFunction,Conductor*
G36*
X143635481Y-84043427D02*
G01*
X143638004Y-84047191D01*
X143715808Y-84233465D01*
X143715808Y-84233466D01*
X143796626Y-84402194D01*
X143796627Y-84402194D01*
X143877440Y-84546145D01*
X143958253Y-84665334D01*
X143994416Y-84707589D01*
X144030236Y-84749444D01*
X144033012Y-84757957D01*
X144028954Y-84765940D01*
X144027556Y-84766968D01*
X143516209Y-85087112D01*
X143507378Y-85088597D01*
X143503791Y-85087112D01*
X142992443Y-84766968D01*
X142987250Y-84759673D01*
X142988735Y-84750842D01*
X142989763Y-84749444D01*
X143061746Y-84665334D01*
X143142559Y-84546145D01*
X143223372Y-84402194D01*
X143223373Y-84402194D01*
X143304191Y-84233466D01*
X143304191Y-84233465D01*
X143381996Y-84047191D01*
X143388347Y-84040877D01*
X143392792Y-84040000D01*
X143627208Y-84040000D01*
X143635481Y-84043427D01*
G37*
G04 #@! TD.AperFunction*
G04 #@! TA.AperFunction,Conductor*
G36*
X44780731Y-97015042D02*
G01*
X44781538Y-97015414D01*
X45106219Y-97180176D01*
X45106888Y-97180574D01*
X45337192Y-97339230D01*
X45537143Y-97471311D01*
X45781415Y-97561574D01*
X46134372Y-97594023D01*
X46142296Y-97598192D01*
X46145000Y-97605673D01*
X46145000Y-97984326D01*
X46141573Y-97992599D01*
X46134371Y-97995977D01*
X45781416Y-98028424D01*
X45537143Y-98118688D01*
X45537141Y-98118689D01*
X45337192Y-98250768D01*
X45106888Y-98409424D01*
X45106215Y-98409824D01*
X44781537Y-98574585D01*
X44772608Y-98575273D01*
X44765809Y-98569447D01*
X44765443Y-98568655D01*
X44445864Y-97799488D01*
X44445856Y-97790534D01*
X44445865Y-97790511D01*
X44527097Y-97595000D01*
X44765438Y-97021356D01*
X44771776Y-97015033D01*
X44780731Y-97015042D01*
G37*
G04 #@! TD.AperFunction*
G04 #@! TA.AperFunction,Conductor*
G36*
X62900992Y-70342614D02*
G01*
X63164050Y-70554157D01*
X63395914Y-70645049D01*
X63627073Y-70674946D01*
X63895216Y-70709954D01*
X63897134Y-70710372D01*
X64229676Y-70812908D01*
X64236572Y-70818621D01*
X64237409Y-70827536D01*
X64237043Y-70828554D01*
X63938357Y-71552007D01*
X63932032Y-71558346D01*
X63932007Y-71558357D01*
X63208554Y-71857043D01*
X63199599Y-71857032D01*
X63193274Y-71850693D01*
X63192912Y-71849686D01*
X63090372Y-71517134D01*
X63089954Y-71515216D01*
X63054946Y-71247073D01*
X63025049Y-71015914D01*
X62934157Y-70784050D01*
X62722614Y-70520992D01*
X62720101Y-70512399D01*
X62723459Y-70505390D01*
X62885390Y-70343459D01*
X62893662Y-70340033D01*
X62900992Y-70342614D01*
G37*
G04 #@! TD.AperFunction*
G04 #@! TA.AperFunction,Conductor*
G36*
X55441944Y-92548427D02*
G01*
X55445365Y-92556323D01*
X55450347Y-92711020D01*
X55450349Y-92711035D01*
X55467827Y-92828197D01*
X55467827Y-92828199D01*
X55499586Y-92927046D01*
X55499592Y-92927063D01*
X55547780Y-93038116D01*
X55609824Y-93181037D01*
X55609975Y-93189990D01*
X55603751Y-93196428D01*
X55603594Y-93196495D01*
X55249502Y-93344123D01*
X55240548Y-93344144D01*
X55240498Y-93344123D01*
X54886405Y-93196495D01*
X54880087Y-93190148D01*
X54880108Y-93181194D01*
X54880175Y-93181037D01*
X54942219Y-93038116D01*
X54990405Y-92927063D01*
X54990410Y-92927052D01*
X55022171Y-92828200D01*
X55039651Y-92711027D01*
X55044635Y-92556322D01*
X55048327Y-92548165D01*
X55056329Y-92545000D01*
X55433671Y-92545000D01*
X55441944Y-92548427D01*
G37*
G04 #@! TD.AperFunction*
G04 #@! TA.AperFunction,Conductor*
G36*
X41584181Y-71620579D02*
G01*
X41584653Y-71621578D01*
X41904134Y-72390511D01*
X41904143Y-72399466D01*
X41904134Y-72399489D01*
X41584653Y-73168421D01*
X41578314Y-73174746D01*
X41569359Y-73174737D01*
X41568360Y-73174265D01*
X41240321Y-73000046D01*
X41238622Y-72998945D01*
X41011087Y-72821811D01*
X40815423Y-72668383D01*
X40677065Y-72606862D01*
X40573153Y-72560657D01*
X40573152Y-72560656D01*
X40215416Y-72521150D01*
X40207569Y-72516836D01*
X40205000Y-72509521D01*
X40205000Y-72280478D01*
X40208427Y-72272205D01*
X40215414Y-72268849D01*
X40573153Y-72229342D01*
X40815422Y-72121616D01*
X41011087Y-71968188D01*
X41238628Y-71791047D01*
X41240315Y-71789954D01*
X41568361Y-71615733D01*
X41577274Y-71614880D01*
X41584181Y-71620579D01*
G37*
G04 #@! TD.AperFunction*
G04 #@! TA.AperFunction,Conductor*
G36*
X42513694Y-97202850D02*
G01*
X42514259Y-97203457D01*
X42759419Y-97486788D01*
X42760583Y-97488390D01*
X42904230Y-97725925D01*
X42904479Y-97726382D01*
X43012087Y-97946442D01*
X43156385Y-98185055D01*
X43156388Y-98185060D01*
X43403294Y-98470408D01*
X43406116Y-98478907D01*
X43402719Y-98486337D01*
X43240639Y-98648417D01*
X43232366Y-98651844D01*
X43225578Y-98649674D01*
X42978849Y-98473944D01*
X42754355Y-98448813D01*
X42754346Y-98448813D01*
X42524385Y-98513375D01*
X42254234Y-98600647D01*
X42252104Y-98601122D01*
X41918155Y-98643336D01*
X41909518Y-98640973D01*
X41905080Y-98633195D01*
X41904988Y-98631753D01*
X41904297Y-97799152D01*
X41907717Y-97790877D01*
X41907734Y-97790860D01*
X41972822Y-97725925D01*
X42497149Y-97202829D01*
X42505425Y-97199413D01*
X42513694Y-97202850D01*
G37*
G04 #@! TD.AperFunction*
G04 #@! TA.AperFunction,Conductor*
G36*
X63208554Y-93242956D02*
G01*
X63932007Y-93541642D01*
X63938346Y-93547967D01*
X63938357Y-93547992D01*
X64237043Y-94271445D01*
X64237032Y-94280400D01*
X64230693Y-94286725D01*
X64229675Y-94287091D01*
X63897141Y-94389624D01*
X63895209Y-94390045D01*
X63627073Y-94425052D01*
X63395913Y-94454949D01*
X63164050Y-94545840D01*
X62900994Y-94757384D01*
X62892399Y-94759898D01*
X62885389Y-94756539D01*
X62723460Y-94594610D01*
X62720033Y-94586337D01*
X62722613Y-94579008D01*
X62934157Y-94315948D01*
X63025049Y-94084084D01*
X63054946Y-93852926D01*
X63089954Y-93584778D01*
X63090371Y-93582866D01*
X63192909Y-93250322D01*
X63198621Y-93243427D01*
X63207536Y-93242590D01*
X63208554Y-93242956D01*
G37*
G04 #@! TD.AperFunction*
G04 #@! TA.AperFunction,Conductor*
G36*
X41584181Y-89400579D02*
G01*
X41584653Y-89401578D01*
X41904134Y-90170511D01*
X41904143Y-90179466D01*
X41904134Y-90179489D01*
X41584653Y-90948421D01*
X41578314Y-90954746D01*
X41569359Y-90954737D01*
X41568360Y-90954265D01*
X41240321Y-90780046D01*
X41238622Y-90778945D01*
X41011087Y-90601811D01*
X40815423Y-90448383D01*
X40677065Y-90386862D01*
X40573153Y-90340657D01*
X40573152Y-90340656D01*
X40215416Y-90301150D01*
X40207569Y-90296836D01*
X40205000Y-90289521D01*
X40205000Y-90060478D01*
X40208427Y-90052205D01*
X40215414Y-90048849D01*
X40573153Y-90009342D01*
X40815422Y-89901616D01*
X41011087Y-89748188D01*
X41238628Y-89571047D01*
X41240315Y-89569954D01*
X41568361Y-89395733D01*
X41577274Y-89394880D01*
X41584181Y-89400579D01*
G37*
G04 #@! TD.AperFunction*
G04 #@! TA.AperFunction,Conductor*
G36*
X41584181Y-97020579D02*
G01*
X41584653Y-97021578D01*
X41904134Y-97790511D01*
X41904143Y-97799466D01*
X41904134Y-97799489D01*
X41584653Y-98568421D01*
X41578314Y-98574746D01*
X41569359Y-98574737D01*
X41568360Y-98574265D01*
X41240321Y-98400046D01*
X41238622Y-98398945D01*
X41011087Y-98221811D01*
X40815423Y-98068383D01*
X40677065Y-98006862D01*
X40573153Y-97960657D01*
X40573152Y-97960656D01*
X40215416Y-97921150D01*
X40207569Y-97916836D01*
X40205000Y-97909521D01*
X40205000Y-97680478D01*
X40208427Y-97672205D01*
X40215414Y-97668849D01*
X40573153Y-97629342D01*
X40815422Y-97521616D01*
X41011087Y-97368188D01*
X41238628Y-97191047D01*
X41240315Y-97189954D01*
X41568361Y-97015733D01*
X41577274Y-97014880D01*
X41584181Y-97020579D01*
G37*
G04 #@! TD.AperFunction*
G04 #@! TA.AperFunction,Conductor*
G36*
X70392759Y-86058751D02*
G01*
X71116212Y-86357437D01*
X71122551Y-86363762D01*
X71122562Y-86363787D01*
X71421248Y-87087240D01*
X71421237Y-87096195D01*
X71414898Y-87102520D01*
X71413880Y-87102886D01*
X71081346Y-87205419D01*
X71079414Y-87205840D01*
X70811278Y-87240847D01*
X70580118Y-87270744D01*
X70348255Y-87361635D01*
X70085199Y-87573179D01*
X70076604Y-87575693D01*
X70069594Y-87572334D01*
X69907665Y-87410405D01*
X69904238Y-87402132D01*
X69906818Y-87394803D01*
X70118362Y-87131743D01*
X70209254Y-86899879D01*
X70239151Y-86668721D01*
X70274159Y-86400573D01*
X70274576Y-86398661D01*
X70377114Y-86066117D01*
X70382826Y-86059222D01*
X70391741Y-86058385D01*
X70392759Y-86058751D01*
G37*
G04 #@! TD.AperFunction*
G04 #@! TA.AperFunction,Conductor*
G36*
X75031195Y-89233762D02*
G01*
X75037520Y-89240101D01*
X75037886Y-89241119D01*
X75140419Y-89573651D01*
X75140840Y-89575583D01*
X75175847Y-89843721D01*
X75205744Y-90074879D01*
X75296635Y-90306742D01*
X75296636Y-90306743D01*
X75508179Y-90569801D01*
X75510693Y-90578395D01*
X75507334Y-90585405D01*
X75345405Y-90747334D01*
X75337132Y-90750761D01*
X75329801Y-90748179D01*
X75066743Y-90536636D01*
X75066742Y-90536635D01*
X74834879Y-90445744D01*
X74603721Y-90415847D01*
X74335583Y-90380840D01*
X74333651Y-90380419D01*
X74001119Y-90277886D01*
X73994222Y-90272173D01*
X73993385Y-90263258D01*
X73993751Y-90262240D01*
X74071105Y-90074879D01*
X74292438Y-89538785D01*
X74298762Y-89532448D01*
X74298764Y-89532446D01*
X75022240Y-89233751D01*
X75031195Y-89233762D01*
G37*
G04 #@! TD.AperFunction*
G04 #@! TA.AperFunction,Conductor*
G36*
X45566102Y-66031939D02*
G01*
X45728060Y-66193897D01*
X45731487Y-66202170D01*
X45728918Y-66209485D01*
X45503893Y-66490379D01*
X45408758Y-66737861D01*
X45408756Y-66737870D01*
X45378891Y-66984709D01*
X45343252Y-67270855D01*
X45342829Y-67272835D01*
X45234063Y-67627984D01*
X45228364Y-67634891D01*
X45219450Y-67635745D01*
X45218410Y-67635372D01*
X44448785Y-67317562D01*
X44442447Y-67311238D01*
X44124627Y-66541587D01*
X44124636Y-66532634D01*
X44130975Y-66526309D01*
X44132010Y-66525937D01*
X44487167Y-66417167D01*
X44489139Y-66416745D01*
X44775289Y-66381107D01*
X45022135Y-66351241D01*
X45269619Y-66256104D01*
X45550516Y-66031080D01*
X45559113Y-66028583D01*
X45566102Y-66031939D01*
G37*
G04 #@! TD.AperFunction*
G04 #@! TA.AperFunction,Conductor*
G36*
X67404829Y-102603484D02*
G01*
X67407638Y-102605557D01*
X67571762Y-102769681D01*
X67575189Y-102777954D01*
X67572368Y-102785574D01*
X67454608Y-102922789D01*
X67441543Y-102938013D01*
X67303657Y-103140849D01*
X67165771Y-103385857D01*
X67108227Y-103505707D01*
X67027882Y-103673044D01*
X66895157Y-103990068D01*
X66888801Y-103996376D01*
X66879847Y-103996342D01*
X66878466Y-103995654D01*
X66868898Y-103990068D01*
X66788953Y-103943392D01*
X66043492Y-103508158D01*
X66038075Y-103501027D01*
X66038068Y-103501001D01*
X65829170Y-102698456D01*
X65822773Y-102673878D01*
X65824006Y-102665010D01*
X65831149Y-102659609D01*
X65836827Y-102659555D01*
X66134817Y-102731114D01*
X66451776Y-102763728D01*
X66768734Y-102752842D01*
X66768739Y-102752841D01*
X66768743Y-102752841D01*
X66895364Y-102731114D01*
X67085693Y-102698456D01*
X67395915Y-102602651D01*
X67404829Y-102603484D01*
G37*
G04 #@! TD.AperFunction*
G04 #@! TA.AperFunction,Conductor*
G36*
X143514957Y-85106019D02*
G01*
X143520598Y-85111660D01*
X144035870Y-86213404D01*
X144036271Y-86222350D01*
X144034161Y-86225968D01*
X143958263Y-86314652D01*
X143958245Y-86314676D01*
X143877438Y-86433857D01*
X143877438Y-86433858D01*
X143796627Y-86577805D01*
X143796626Y-86577805D01*
X143715808Y-86746533D01*
X143715808Y-86746534D01*
X143638004Y-86932809D01*
X143631653Y-86939123D01*
X143627208Y-86940000D01*
X143392792Y-86940000D01*
X143384519Y-86936573D01*
X143381996Y-86932809D01*
X143304191Y-86746534D01*
X143304191Y-86746533D01*
X143223373Y-86577805D01*
X143223372Y-86577805D01*
X143142561Y-86433858D01*
X143142561Y-86433857D01*
X143061753Y-86314676D01*
X143061746Y-86314665D01*
X143061735Y-86314652D01*
X142985838Y-86225968D01*
X142983062Y-86217455D01*
X142984129Y-86213404D01*
X143499402Y-85111660D01*
X143506011Y-85105618D01*
X143514957Y-85106019D01*
G37*
G04 #@! TD.AperFunction*
G04 #@! TA.AperFunction,Conductor*
G36*
X77168318Y-99165975D02*
G01*
X77168778Y-99166953D01*
X77469134Y-99889715D01*
X77469144Y-99898668D01*
X77469135Y-99898690D01*
X77469134Y-99898695D01*
X77168778Y-100621456D01*
X77162439Y-100627781D01*
X77153484Y-100627770D01*
X77152506Y-100627310D01*
X76984405Y-100538443D01*
X76844863Y-100464674D01*
X76843202Y-100463607D01*
X76628846Y-100298759D01*
X76444252Y-100156446D01*
X76444248Y-100156444D01*
X76216027Y-100056763D01*
X75880437Y-100020337D01*
X75872582Y-100016037D01*
X75870000Y-100008705D01*
X75870000Y-99779704D01*
X75873427Y-99771431D01*
X75880436Y-99768072D01*
X76216029Y-99731645D01*
X76444252Y-99631963D01*
X76628846Y-99489650D01*
X76843202Y-99324802D01*
X76844863Y-99323734D01*
X77152507Y-99161098D01*
X77161421Y-99160262D01*
X77168318Y-99165975D01*
G37*
G04 #@! TD.AperFunction*
G04 #@! TA.AperFunction,Conductor*
G36*
X66162794Y-99268427D02*
G01*
X66166150Y-99275416D01*
X66205656Y-99633151D01*
X66313383Y-99875423D01*
X66466811Y-100071087D01*
X66643945Y-100298622D01*
X66645046Y-100300321D01*
X66819265Y-100628360D01*
X66820119Y-100637274D01*
X66814420Y-100644181D01*
X66813421Y-100644653D01*
X66044488Y-100964134D01*
X66035533Y-100964143D01*
X66035510Y-100964134D01*
X65266578Y-100644653D01*
X65260253Y-100638314D01*
X65260262Y-100629359D01*
X65260729Y-100628370D01*
X65434954Y-100300315D01*
X65436047Y-100298628D01*
X65613188Y-100071087D01*
X65766616Y-99875422D01*
X65874342Y-99633153D01*
X65913849Y-99275416D01*
X65918164Y-99267569D01*
X65925479Y-99265000D01*
X66154521Y-99265000D01*
X66162794Y-99268427D01*
G37*
G04 #@! TD.AperFunction*
G04 #@! TA.AperFunction,Conductor*
G36*
X70818318Y-78011770D02*
G01*
X70818778Y-78012748D01*
X71119134Y-78735510D01*
X71119144Y-78744463D01*
X71119135Y-78744485D01*
X71119134Y-78744490D01*
X70818778Y-79467251D01*
X70812439Y-79473576D01*
X70803484Y-79473565D01*
X70802506Y-79473105D01*
X70634405Y-79384238D01*
X70494863Y-79310469D01*
X70493202Y-79309402D01*
X70278846Y-79144554D01*
X70094252Y-79002241D01*
X70094248Y-79002239D01*
X69866027Y-78902558D01*
X69530437Y-78866132D01*
X69522582Y-78861832D01*
X69520000Y-78854500D01*
X69520000Y-78625499D01*
X69523427Y-78617226D01*
X69530436Y-78613867D01*
X69866029Y-78577440D01*
X70094252Y-78477758D01*
X70278846Y-78335445D01*
X70493202Y-78170597D01*
X70494863Y-78169529D01*
X70802507Y-78006893D01*
X70811421Y-78006057D01*
X70818318Y-78011770D01*
G37*
G04 #@! TD.AperFunction*
G04 #@! TA.AperFunction,Conductor*
G36*
X43339484Y-81271080D02*
G01*
X43620379Y-81496104D01*
X43867863Y-81591241D01*
X43867868Y-81591241D01*
X43867870Y-81591242D01*
X44114709Y-81621106D01*
X44114709Y-81621107D01*
X44400857Y-81656745D01*
X44402835Y-81657168D01*
X44757984Y-81765936D01*
X44764891Y-81771635D01*
X44765745Y-81780549D01*
X44765372Y-81781589D01*
X44447562Y-82551214D01*
X44441237Y-82557553D01*
X44441214Y-82557562D01*
X43671589Y-82875372D01*
X43662634Y-82875363D01*
X43656309Y-82869024D01*
X43655936Y-82867984D01*
X43547168Y-82512835D01*
X43546745Y-82510855D01*
X43511107Y-82224709D01*
X43481242Y-81977870D01*
X43481241Y-81977868D01*
X43481241Y-81977863D01*
X43386104Y-81730379D01*
X43161080Y-81449484D01*
X43158583Y-81440886D01*
X43161938Y-81433898D01*
X43323898Y-81271938D01*
X43332170Y-81268512D01*
X43339484Y-81271080D01*
G37*
G04 #@! TD.AperFunction*
G04 #@! TA.AperFunction,Conductor*
G36*
X76435197Y-91496819D02*
G01*
X76698255Y-91708362D01*
X76930119Y-91799254D01*
X77161278Y-91829151D01*
X77429421Y-91864159D01*
X77431339Y-91864577D01*
X77763881Y-91967113D01*
X77770777Y-91972826D01*
X77771614Y-91981741D01*
X77771248Y-91982759D01*
X77472562Y-92706212D01*
X77466237Y-92712551D01*
X77466212Y-92712562D01*
X76742759Y-93011248D01*
X76733804Y-93011237D01*
X76727479Y-93004898D01*
X76727117Y-93003891D01*
X76624577Y-92671339D01*
X76624159Y-92669421D01*
X76589151Y-92401278D01*
X76559254Y-92170119D01*
X76468362Y-91938255D01*
X76256819Y-91675197D01*
X76254306Y-91666604D01*
X76257664Y-91659595D01*
X76419595Y-91497664D01*
X76427867Y-91494238D01*
X76435197Y-91496819D01*
G37*
G04 #@! TD.AperFunction*
G04 #@! TA.AperFunction,Conductor*
G36*
X37160640Y-79235262D02*
G01*
X37161639Y-79235734D01*
X37489676Y-79409951D01*
X37491375Y-79411052D01*
X37718911Y-79588188D01*
X37914574Y-79741615D01*
X37914575Y-79741615D01*
X37914576Y-79741616D01*
X38156846Y-79849342D01*
X38514585Y-79888849D01*
X38522431Y-79893163D01*
X38525000Y-79900478D01*
X38525000Y-80129521D01*
X38521573Y-80137794D01*
X38514584Y-80141150D01*
X38156847Y-80180656D01*
X37914574Y-80288383D01*
X37718911Y-80441811D01*
X37491375Y-80618945D01*
X37489676Y-80620046D01*
X37161639Y-80794265D01*
X37152725Y-80795119D01*
X37145818Y-80789420D01*
X37145346Y-80788421D01*
X37075388Y-80620046D01*
X36825864Y-80019488D01*
X36825856Y-80010534D01*
X36825865Y-80010511D01*
X36871582Y-79900478D01*
X37145347Y-79241576D01*
X37151685Y-79235253D01*
X37160640Y-79235262D01*
G37*
G04 #@! TD.AperFunction*
G04 #@! TA.AperFunction,Conductor*
G36*
X148923318Y-62771770D02*
G01*
X148923778Y-62772748D01*
X149224134Y-63495510D01*
X149224144Y-63504463D01*
X149224135Y-63504485D01*
X149224134Y-63504490D01*
X148923778Y-64227251D01*
X148917439Y-64233576D01*
X148908484Y-64233565D01*
X148907506Y-64233105D01*
X148739405Y-64144238D01*
X148599863Y-64070469D01*
X148598202Y-64069402D01*
X148383846Y-63904554D01*
X148199252Y-63762241D01*
X148199248Y-63762239D01*
X147971027Y-63662558D01*
X147635437Y-63626132D01*
X147627582Y-63621832D01*
X147625000Y-63614500D01*
X147625000Y-63385499D01*
X147628427Y-63377226D01*
X147635436Y-63373867D01*
X147971029Y-63337440D01*
X148199252Y-63237758D01*
X148383846Y-63095445D01*
X148598202Y-62930597D01*
X148599863Y-62929529D01*
X148907507Y-62766893D01*
X148916421Y-62766057D01*
X148923318Y-62771770D01*
G37*
G04 #@! TD.AperFunction*
G04 #@! TA.AperFunction,Conductor*
G36*
X148288332Y-69121728D02*
G01*
X148288615Y-69122356D01*
X148589133Y-69845511D01*
X148589144Y-69854466D01*
X148589133Y-69854491D01*
X148288615Y-70577645D01*
X148282276Y-70583970D01*
X148273321Y-70583959D01*
X148272693Y-70583676D01*
X147970579Y-70436728D01*
X147970082Y-70436456D01*
X147751567Y-70302603D01*
X147560187Y-70195939D01*
X147560182Y-70195937D01*
X147328801Y-70125458D01*
X147328795Y-70125457D01*
X147000823Y-70100813D01*
X146992830Y-70096776D01*
X146990000Y-70089146D01*
X146990000Y-69850001D01*
X146990000Y-69610851D01*
X146993427Y-69602581D01*
X147000820Y-69599187D01*
X147328797Y-69574542D01*
X147328799Y-69574541D01*
X147328801Y-69574541D01*
X147560183Y-69504062D01*
X147560184Y-69504061D01*
X147560189Y-69504060D01*
X147751568Y-69397397D01*
X147970094Y-69263535D01*
X147970580Y-69263271D01*
X148272693Y-69116325D01*
X148281632Y-69115788D01*
X148288332Y-69121728D01*
G37*
G04 #@! TD.AperFunction*
G04 #@! TA.AperFunction,Conductor*
G36*
X66382110Y-96417359D02*
G01*
X66909343Y-96635033D01*
X67106304Y-96716351D01*
X67112643Y-96722676D01*
X67112651Y-96722694D01*
X67411561Y-97445301D01*
X67411556Y-97454256D01*
X67405221Y-97460585D01*
X67403169Y-97461220D01*
X67054035Y-97535039D01*
X67051234Y-97535286D01*
X66712906Y-97524269D01*
X66430115Y-97516429D01*
X66236678Y-97603124D01*
X66167294Y-97866943D01*
X66161876Y-97874072D01*
X66155979Y-97875667D01*
X65927314Y-97875667D01*
X65919041Y-97872240D01*
X65915614Y-97863967D01*
X65915629Y-97863369D01*
X65916806Y-97840350D01*
X65934302Y-97498248D01*
X65934548Y-97496393D01*
X65991090Y-97234764D01*
X65991737Y-97232715D01*
X66084202Y-97013206D01*
X66084375Y-97012837D01*
X66211612Y-96763419D01*
X66233117Y-96716351D01*
X66367005Y-96423312D01*
X66373560Y-96417212D01*
X66382110Y-96417359D01*
G37*
G04 #@! TD.AperFunction*
G04 #@! TA.AperFunction,Conductor*
G36*
X116941353Y-94360991D02*
G01*
X116944750Y-94368427D01*
X116967060Y-94679654D01*
X117031400Y-94900320D01*
X117129593Y-95083180D01*
X117129593Y-95083179D01*
X117254115Y-95291633D01*
X117254363Y-95292093D01*
X117392596Y-95578820D01*
X117393102Y-95587760D01*
X117387138Y-95594440D01*
X117386547Y-95594705D01*
X116698460Y-95880697D01*
X116689506Y-95880708D01*
X116689480Y-95880697D01*
X116001394Y-95594705D01*
X115995069Y-95588365D01*
X115995080Y-95579411D01*
X115995345Y-95578820D01*
X116133582Y-95292081D01*
X116133818Y-95291643D01*
X116258343Y-95083188D01*
X116258348Y-95083179D01*
X116258348Y-95083180D01*
X116295678Y-95013659D01*
X116356538Y-94900324D01*
X116420880Y-94679655D01*
X116443192Y-94368426D01*
X116447202Y-94360420D01*
X116454862Y-94357564D01*
X116933080Y-94357564D01*
X116941353Y-94360991D01*
G37*
G04 #@! TD.AperFunction*
G04 #@! TA.AperFunction,Conductor*
G36*
X60875306Y-101970790D02*
G01*
X61072183Y-102099890D01*
X61210294Y-102190456D01*
X61210299Y-102190458D01*
X61210306Y-102190463D01*
X61553222Y-102371832D01*
X61553241Y-102371842D01*
X61553250Y-102371845D01*
X61553255Y-102371848D01*
X61896174Y-102509723D01*
X61896178Y-102509724D01*
X61896188Y-102509728D01*
X62239135Y-102604114D01*
X62567268Y-102652802D01*
X62574948Y-102657405D01*
X62577123Y-102666091D01*
X62576364Y-102668841D01*
X62232562Y-103501215D01*
X62226236Y-103507553D01*
X62226215Y-103507562D01*
X61391731Y-103852235D01*
X61382776Y-103852226D01*
X61376450Y-103845888D01*
X61376128Y-103845008D01*
X61242114Y-103427134D01*
X61104228Y-103040687D01*
X60966342Y-102697741D01*
X60966341Y-102697738D01*
X60966341Y-102697737D01*
X60828458Y-102398298D01*
X60814209Y-102371848D01*
X60694699Y-102150012D01*
X60693793Y-102141104D01*
X60696725Y-102136193D01*
X60860618Y-101972300D01*
X60868890Y-101968874D01*
X60875306Y-101970790D01*
G37*
G04 #@! TD.AperFunction*
G04 #@! TA.AperFunction,Conductor*
G36*
X43339484Y-76191080D02*
G01*
X43620379Y-76416104D01*
X43867863Y-76511241D01*
X43867868Y-76511241D01*
X43867870Y-76511242D01*
X44114708Y-76541106D01*
X44114709Y-76541107D01*
X44400857Y-76576745D01*
X44402835Y-76577168D01*
X44757984Y-76685936D01*
X44764891Y-76691635D01*
X44765745Y-76700549D01*
X44765372Y-76701589D01*
X44447562Y-77471214D01*
X44441237Y-77477553D01*
X44441214Y-77477562D01*
X43671589Y-77795372D01*
X43662634Y-77795363D01*
X43656309Y-77789024D01*
X43655936Y-77787984D01*
X43547168Y-77432835D01*
X43546745Y-77430855D01*
X43511107Y-77144709D01*
X43481242Y-76897870D01*
X43481241Y-76897868D01*
X43481241Y-76897863D01*
X43386104Y-76650379D01*
X43161080Y-76369484D01*
X43158583Y-76360886D01*
X43161938Y-76353898D01*
X43323898Y-76191938D01*
X43332170Y-76188512D01*
X43339484Y-76191080D01*
G37*
G04 #@! TD.AperFunction*
G04 #@! TA.AperFunction,Conductor*
G36*
X130297419Y-58258427D02*
G01*
X130300813Y-58265823D01*
X130312728Y-58424396D01*
X130312729Y-58424402D01*
X130347967Y-58540088D01*
X130347969Y-58540093D01*
X130401301Y-58635784D01*
X130468156Y-58744924D01*
X130468428Y-58745421D01*
X130539130Y-58890779D01*
X130539667Y-58899718D01*
X130533727Y-58906418D01*
X130533111Y-58906696D01*
X130179502Y-59054123D01*
X130170548Y-59054144D01*
X130170498Y-59054123D01*
X129816888Y-58906696D01*
X129810570Y-58900349D01*
X129810591Y-58891395D01*
X129810859Y-58890801D01*
X129881572Y-58745416D01*
X129881839Y-58744928D01*
X129881842Y-58744924D01*
X129948697Y-58635784D01*
X130002029Y-58540094D01*
X130037270Y-58424398D01*
X130049186Y-58265823D01*
X130053224Y-58257830D01*
X130060854Y-58255000D01*
X130289146Y-58255000D01*
X130297419Y-58258427D01*
G37*
G04 #@! TD.AperFunction*
G04 #@! TA.AperFunction,Conductor*
G36*
X137306465Y-80290471D02*
G01*
X137477864Y-80446063D01*
X137622156Y-80541049D01*
X137763164Y-80600609D01*
X137763164Y-80600610D01*
X137870013Y-80636358D01*
X137932966Y-80657420D01*
X138152334Y-80739900D01*
X138158871Y-80746019D01*
X138159167Y-80754969D01*
X138159033Y-80755311D01*
X137944242Y-81276205D01*
X137937920Y-81282547D01*
X137937885Y-81282562D01*
X137416991Y-81497353D01*
X137408036Y-81497338D01*
X137401714Y-81490996D01*
X137401593Y-81490688D01*
X137319100Y-81271286D01*
X137262290Y-81101485D01*
X137202729Y-80960476D01*
X137107743Y-80816184D01*
X136952151Y-80644785D01*
X136949129Y-80636358D01*
X136952541Y-80628651D01*
X137290331Y-80290861D01*
X137298603Y-80287435D01*
X137306465Y-80290471D01*
G37*
G04 #@! TD.AperFunction*
G04 #@! TA.AperFunction,Conductor*
G36*
X41063284Y-63933372D02*
G01*
X41064231Y-63934220D01*
X41369048Y-64238679D01*
X41897712Y-64766722D01*
X41901144Y-64774993D01*
X41897722Y-64783268D01*
X41897712Y-64783278D01*
X41064233Y-65615777D01*
X41055958Y-65619199D01*
X41047687Y-65615767D01*
X41046837Y-65614818D01*
X40884995Y-65412962D01*
X40884995Y-65412963D01*
X40715000Y-65234452D01*
X40544999Y-65089452D01*
X40374999Y-64977968D01*
X40316849Y-64951298D01*
X40211822Y-64903128D01*
X40205731Y-64896564D01*
X40205000Y-64892493D01*
X40205000Y-64657506D01*
X40208427Y-64649233D01*
X40211822Y-64646871D01*
X40374999Y-64572031D01*
X40544999Y-64460547D01*
X40715000Y-64315547D01*
X40884995Y-64137036D01*
X40884995Y-64137037D01*
X41046837Y-63935181D01*
X41054685Y-63930870D01*
X41063284Y-63933372D01*
G37*
G04 #@! TD.AperFunction*
G04 #@! TA.AperFunction,Conductor*
G36*
X63662407Y-77959137D02*
G01*
X63663182Y-77959993D01*
X63814999Y-78145416D01*
X63974995Y-78309621D01*
X63975002Y-78309628D01*
X64134992Y-78442621D01*
X64134996Y-78442623D01*
X64134999Y-78442626D01*
X64294999Y-78544417D01*
X64448023Y-78611922D01*
X64454208Y-78618396D01*
X64455000Y-78622626D01*
X64455000Y-78857478D01*
X64451573Y-78865751D01*
X64448157Y-78868122D01*
X64294996Y-78938005D01*
X64135002Y-79042505D01*
X63974995Y-79178514D01*
X63814999Y-79346012D01*
X63663139Y-79534887D01*
X63655285Y-79539188D01*
X63646690Y-79536674D01*
X63645779Y-79535860D01*
X63454500Y-79346011D01*
X62862339Y-78758277D01*
X62858882Y-78750018D01*
X62862278Y-78741732D01*
X62862314Y-78741696D01*
X62981533Y-78622626D01*
X63645862Y-77959126D01*
X63654136Y-77955705D01*
X63662407Y-77959137D01*
G37*
G04 #@! TD.AperFunction*
G04 #@! TA.AperFunction,Conductor*
G36*
X63087312Y-60754232D02*
G01*
X63088162Y-60755181D01*
X63250004Y-60957037D01*
X63250004Y-60957036D01*
X63419999Y-61135547D01*
X63590000Y-61280547D01*
X63760000Y-61392031D01*
X63923178Y-61466871D01*
X63929269Y-61473435D01*
X63930000Y-61477506D01*
X63930000Y-61712493D01*
X63926573Y-61720766D01*
X63923178Y-61723128D01*
X63760000Y-61797968D01*
X63759997Y-61797969D01*
X63589999Y-61909452D01*
X63419997Y-62054454D01*
X63250004Y-62232963D01*
X63250004Y-62232962D01*
X63088162Y-62434818D01*
X63080314Y-62439129D01*
X63071715Y-62436627D01*
X63070766Y-62435777D01*
X62867713Y-62232963D01*
X62237287Y-61603277D01*
X62233855Y-61595006D01*
X62237275Y-61586733D01*
X63070767Y-60754221D01*
X63079041Y-60750800D01*
X63087312Y-60754232D01*
G37*
G04 #@! TD.AperFunction*
G04 #@! TA.AperFunction,Conductor*
G36*
X118792174Y-93386621D02*
G01*
X118792765Y-93386886D01*
X119079490Y-93525117D01*
X119079949Y-93525364D01*
X119288397Y-93649884D01*
X119288406Y-93649889D01*
X119288405Y-93649889D01*
X119386309Y-93702461D01*
X119471260Y-93748079D01*
X119691930Y-93812421D01*
X120003159Y-93834733D01*
X120011166Y-93838743D01*
X120014022Y-93846403D01*
X120014022Y-94324620D01*
X120010595Y-94332893D01*
X120003159Y-94336290D01*
X119691930Y-94358601D01*
X119471263Y-94422941D01*
X119288405Y-94521134D01*
X119288406Y-94521134D01*
X119288397Y-94521139D01*
X119231273Y-94555262D01*
X119079950Y-94645656D01*
X119079490Y-94645904D01*
X118792765Y-94784137D01*
X118783825Y-94784643D01*
X118777145Y-94778679D01*
X118776880Y-94778088D01*
X118721893Y-94645792D01*
X118490888Y-94090001D01*
X118490877Y-94081048D01*
X118776881Y-93392933D01*
X118783220Y-93386610D01*
X118792174Y-93386621D01*
G37*
G04 #@! TD.AperFunction*
M02*
