M48
; DRILL file {KiCad 7.0.6} date Fri Oct 13 18:47:02 2023
; FORMAT={-:-/ absolute / metric / decimal}
; #@! TF.CreationDate,2023-10-13T18:47:02+03:00
; #@! TF.GenerationSoftware,Kicad,Pcbnew,7.0.6
; #@! TF.FileFunction,Plated,1,4,PTH
FMAT,2
METRIC
; #@! TA.AperFunction,Plated,PTH,ViaDrill
T1C0.400
; #@! TA.AperFunction,Plated,PTH,ComponentDrill
T2C0.750
; #@! TA.AperFunction,Plated,PTH,ComponentDrill
T3C0.760
; #@! TA.AperFunction,Plated,PTH,ComponentDrill
T4C0.762
; #@! TA.AperFunction,Plated,PTH,ComponentDrill
T5C0.800
; #@! TA.AperFunction,Plated,PTH,ComponentDrill
T6C1.000
; #@! TA.AperFunction,Plated,PTH,ComponentDrill
T7C3.000
%
G90
G05
T1
X33.02Y-61.468
X33.02Y-103.632
X39.624Y-61.468
X40.005Y-116.205
X40.132Y-103.632
X45.72Y-115.57
X50.165Y-51.435
X50.165Y-71.755
X51.308Y-89.408
X52.07Y-103.505
X52.705Y-115.57
X54.61Y-97.79
X54.61Y-100.33
X55.245Y-93.345
X57.785Y-72.39
X57.912Y-64.008
X58.42Y-89.535
X58.752Y-113.22
X58.928Y-80.772
X59.055Y-51.435
X59.145Y-103.505
X59.436Y-84.328
X62.484Y-89.408
X64.135Y-67.945
X64.516Y-97.028
X69.85Y-51.435
X70.104Y-74.676
X73.025Y-57.785
X74.168Y-103.124
X75.184Y-66.548
X77.724Y-96.012
X78.74Y-51.435
X85.852Y-70.612
X85.852Y-94.615
X89.535Y-51.435
X90.335Y-115.57
X91.44Y-82.496
X98.425Y-51.435
X103.632Y-110.744
X105.664Y-74.676
X105.664Y-90.424
X113.665Y-117.475
X114.3Y-101.6
X114.808Y-76.2
X114.808Y-88.9
X117.856Y-51.816
X119.38Y-64.516
X122.428Y-75.692
X123.19Y-107.95
X126.492Y-67.056
X126.492Y-73.66
X127.508Y-79.756
X127.508Y-85.852
X127.508Y-91.44
X127.635Y-59.055
X128.905Y-59.055
X130.048Y-97.536
X130.175Y-59.055
X132.08Y-79.756
X132.588Y-62.484
X132.588Y-104.648
X139.7Y-67.564
X140.208Y-81.28
X140.208Y-94.488
X142.24Y-102.108
X149.86Y-81.788
T2
X142.24Y-62.23
X142.24Y-69.85
X142.24Y-83.82
X142.24Y-97.155
X143.51Y-63.5
X143.51Y-71.12
X143.51Y-85.09
X143.51Y-98.425
X144.78Y-62.23
X144.78Y-69.85
X144.78Y-83.82
X144.78Y-97.155
T3
X130.002Y-73.66
X130.002Y-76.2
X130.002Y-78.74
X130.002Y-81.28
X130.002Y-83.82
X130.002Y-86.36
X130.002Y-88.9
X130.002Y-91.44
X137.942Y-73.66
X137.942Y-76.2
X137.942Y-78.74
X137.942Y-81.28
X137.942Y-83.82
X137.942Y-86.36
X137.942Y-88.9
X137.942Y-91.44
T4
X83.601Y-62.756
X83.622Y-102.318
X85.397Y-60.96
X85.397Y-64.552
X85.418Y-100.522
X85.418Y-104.114
X87.194Y-59.164
X87.194Y-62.756
X87.214Y-102.318
X87.214Y-105.91
X88.99Y-60.96
X89.01Y-104.114
X116.694Y-95.882
X116.73Y-69.215
X118.49Y-94.086
X118.49Y-97.678
X118.526Y-67.419
X118.526Y-71.011
X120.286Y-92.289
X120.286Y-95.882
X120.322Y-69.215
X120.322Y-72.807
X122.082Y-94.086
X122.119Y-71.011
T5
X35.549Y-108.322
X39.049Y-108.322
X45.767Y-108.322
X49.267Y-108.322
X51.435Y-80.05
X51.435Y-85.05
X55.235Y-78.75
X55.235Y-86.37
X57.775Y-78.75
X57.775Y-86.37
X60.315Y-78.75
X60.315Y-86.37
X62.855Y-78.75
X62.855Y-86.37
X63.936Y-71.556
X63.936Y-93.544
X66.675Y-80.05
X66.675Y-85.05
X67.111Y-68.381
X67.111Y-96.719
X70.286Y-65.206
X70.286Y-99.894
X71.12Y-78.74
X71.12Y-86.36
X74.295Y-75.565
X74.295Y-89.535
X77.47Y-65.206
X77.47Y-72.39
X77.47Y-92.71
X77.47Y-99.894
X81.006Y-68.741
X81.006Y-96.359
X122.172Y-62.865
X122.555Y-101.6
X125.672Y-62.865
X126.055Y-101.6
X130.81Y-52.07
X131.472Y-70.485
X131.472Y-94.615
X136.472Y-70.485
X136.472Y-94.615
X139.065Y-55.245
X139.065Y-65.405
X140.97Y-52.07
X148.59Y-69.85
X148.59Y-80.01
X148.59Y-83.82
X148.59Y-93.98
X148.59Y-97.155
X148.59Y-107.315
X149.225Y-58.5
X149.225Y-63.5
T6
X34.285Y-64.775
X34.285Y-67.315
X34.285Y-69.855
X34.285Y-72.395
X34.285Y-74.935
X34.285Y-77.475
X34.285Y-80.015
X34.285Y-82.555
X34.285Y-85.095
X34.285Y-87.635
X34.285Y-90.175
X34.285Y-92.715
X34.285Y-95.255
X34.285Y-97.795
X34.285Y-100.335
X36.825Y-64.775
X36.825Y-67.315
X36.825Y-69.855
X36.825Y-72.395
X36.825Y-74.935
X36.825Y-77.475
X36.825Y-80.015
X36.825Y-82.555
X36.825Y-85.095
X36.825Y-87.635
X36.825Y-90.175
X36.825Y-92.715
X36.825Y-95.255
X36.825Y-97.795
X36.825Y-100.335
X41.905Y-64.775
X41.905Y-67.315
X41.905Y-69.855
X41.905Y-72.395
X41.905Y-74.935
X41.905Y-77.475
X41.905Y-80.015
X41.905Y-82.555
X41.905Y-85.095
X41.905Y-87.635
X41.905Y-90.175
X41.905Y-92.715
X41.905Y-95.255
X41.905Y-97.795
X41.905Y-100.335
X44.445Y-64.775
X44.445Y-67.315
X44.445Y-69.855
X44.445Y-72.395
X44.445Y-74.935
X44.445Y-77.475
X44.445Y-80.015
X44.445Y-82.555
X44.445Y-85.095
X44.445Y-87.635
X44.445Y-90.175
X44.445Y-92.715
X44.445Y-95.255
X44.445Y-97.795
X44.445Y-100.335
X56.515Y-109.855
X56.515Y-112.395
X56.515Y-114.935
X60.96Y-109.855
X60.96Y-112.395
X60.96Y-114.935
X62.23Y-61.595
X62.23Y-64.135
X62.23Y-100.965
X62.23Y-103.505
X65.841Y-61.595
X65.841Y-64.135
X66.04Y-100.965
X66.04Y-103.505
X75.565Y-106.68
X75.565Y-109.22
X75.565Y-111.76
X139.065Y-104.775
X139.065Y-107.315
X139.065Y-109.855
T7
X78.412Y-82.55
X99.06Y-61.902
X99.06Y-103.198
X119.708Y-82.55
X146.05Y-52.07
X146.05Y-113.03
T0
M30
