%TF.GenerationSoftware,KiCad,Pcbnew,7.0.6*%
%TF.CreationDate,2023-10-13T18:31:17+03:00*%
%TF.ProjectId,colorimeter-2,636f6c6f-7269-46d6-9574-65722d322e6b,rev?*%
%TF.SameCoordinates,Original*%
%TF.FileFunction,Drillmap*%
%TF.FilePolarity,Positive*%
%FSLAX45Y45*%
G04 Gerber Fmt 4.5, Leading zero omitted, Abs format (unit mm)*
G04 Created by KiCad (PCBNEW 7.0.6) date 2023-10-13 18:31:17*
%MOMM*%
%LPD*%
G01*
G04 APERTURE LIST*
%ADD10C,1.000000*%
%ADD11C,0.200000*%
%ADD12C,0.040000*%
%ADD13C,0.075000*%
%ADD14C,0.076000*%
%ADD15C,0.076200*%
%ADD16C,0.080000*%
%ADD17C,0.100000*%
%ADD18C,0.300000*%
G04 APERTURE END LIST*
D10*
X3111500Y-4636000D02*
X15176000Y-4636000D01*
X15176000Y-11874500D01*
X3111500Y-11874500D01*
X3111500Y-4636000D01*
D11*
D12*
X3282000Y-6126800D02*
X3322000Y-6166800D01*
X3322000Y-6126800D02*
X3282000Y-6166800D01*
X3282000Y-10343200D02*
X3322000Y-10383200D01*
X3322000Y-10343200D02*
X3282000Y-10383200D01*
X3942400Y-6126800D02*
X3982400Y-6166800D01*
X3982400Y-6126800D02*
X3942400Y-6166800D01*
X3980500Y-11600500D02*
X4020500Y-11640500D01*
X4020500Y-11600500D02*
X3980500Y-11640500D01*
X3993200Y-10343200D02*
X4033200Y-10383200D01*
X4033200Y-10343200D02*
X3993200Y-10383200D01*
X4552000Y-11537000D02*
X4592000Y-11577000D01*
X4592000Y-11537000D02*
X4552000Y-11577000D01*
X4996500Y-5123500D02*
X5036500Y-5163500D01*
X5036500Y-5123500D02*
X4996500Y-5163500D01*
X4996500Y-7155500D02*
X5036500Y-7195500D01*
X5036500Y-7155500D02*
X4996500Y-7195500D01*
X5110800Y-8920800D02*
X5150800Y-8960800D01*
X5150800Y-8920800D02*
X5110800Y-8960800D01*
X5187000Y-10330500D02*
X5227000Y-10370500D01*
X5227000Y-10330500D02*
X5187000Y-10370500D01*
X5250500Y-11537000D02*
X5290500Y-11577000D01*
X5290500Y-11537000D02*
X5250500Y-11577000D01*
X5441000Y-9759000D02*
X5481000Y-9799000D01*
X5481000Y-9759000D02*
X5441000Y-9799000D01*
X5441000Y-10013000D02*
X5481000Y-10053000D01*
X5481000Y-10013000D02*
X5441000Y-10053000D01*
X5504500Y-9314500D02*
X5544500Y-9354500D01*
X5544500Y-9314500D02*
X5504500Y-9354500D01*
X5758500Y-7219000D02*
X5798500Y-7259000D01*
X5798500Y-7219000D02*
X5758500Y-7259000D01*
X5771200Y-6380800D02*
X5811200Y-6420800D01*
X5811200Y-6380800D02*
X5771200Y-6420800D01*
X5822000Y-8933500D02*
X5862000Y-8973500D01*
X5862000Y-8933500D02*
X5822000Y-8973500D01*
X5855207Y-11302021D02*
X5895207Y-11342021D01*
X5895207Y-11302021D02*
X5855207Y-11342021D01*
X5872800Y-8057200D02*
X5912800Y-8097200D01*
X5912800Y-8057200D02*
X5872800Y-8097200D01*
X5885500Y-5123500D02*
X5925500Y-5163500D01*
X5925500Y-5123500D02*
X5885500Y-5163500D01*
X5894500Y-10330500D02*
X5934500Y-10370500D01*
X5934500Y-10330500D02*
X5894500Y-10370500D01*
X5923600Y-8412800D02*
X5963600Y-8452800D01*
X5963600Y-8412800D02*
X5923600Y-8452800D01*
X6228400Y-8920800D02*
X6268400Y-8960800D01*
X6268400Y-8920800D02*
X6228400Y-8960800D01*
X6393500Y-6774500D02*
X6433500Y-6814500D01*
X6433500Y-6774500D02*
X6393500Y-6814500D01*
X6431600Y-9682800D02*
X6471600Y-9722800D01*
X6471600Y-9682800D02*
X6431600Y-9722800D01*
X6965000Y-5123500D02*
X7005000Y-5163500D01*
X7005000Y-5123500D02*
X6965000Y-5163500D01*
X6990400Y-7447600D02*
X7030400Y-7487600D01*
X7030400Y-7447600D02*
X6990400Y-7487600D01*
X7282500Y-5758500D02*
X7322500Y-5798500D01*
X7322500Y-5758500D02*
X7282500Y-5798500D01*
X7396800Y-10292400D02*
X7436800Y-10332400D01*
X7436800Y-10292400D02*
X7396800Y-10332400D01*
X7498400Y-6634800D02*
X7538400Y-6674800D01*
X7538400Y-6634800D02*
X7498400Y-6674800D01*
X7752400Y-9581200D02*
X7792400Y-9621200D01*
X7792400Y-9581200D02*
X7752400Y-9621200D01*
X7854000Y-5123500D02*
X7894000Y-5163500D01*
X7894000Y-5123500D02*
X7854000Y-5163500D01*
X8565200Y-7041200D02*
X8605200Y-7081200D01*
X8605200Y-7041200D02*
X8565200Y-7081200D01*
X8565200Y-9441500D02*
X8605200Y-9481500D01*
X8605200Y-9441500D02*
X8565200Y-9481500D01*
X8933500Y-5123500D02*
X8973500Y-5163500D01*
X8973500Y-5123500D02*
X8933500Y-5163500D01*
X9013500Y-11537000D02*
X9053500Y-11577000D01*
X9053500Y-11537000D02*
X9013500Y-11577000D01*
X9124000Y-8229591D02*
X9164000Y-8269591D01*
X9164000Y-8229591D02*
X9124000Y-8269591D01*
X9822500Y-5123500D02*
X9862500Y-5163500D01*
X9862500Y-5123500D02*
X9822500Y-5163500D01*
X10343200Y-11054400D02*
X10383200Y-11094400D01*
X10383200Y-11054400D02*
X10343200Y-11094400D01*
X10546400Y-7447600D02*
X10586400Y-7487600D01*
X10586400Y-7447600D02*
X10546400Y-7487600D01*
X10546400Y-9022400D02*
X10586400Y-9062400D01*
X10586400Y-9022400D02*
X10546400Y-9062400D01*
X11346500Y-11727500D02*
X11386500Y-11767500D01*
X11386500Y-11727500D02*
X11346500Y-11767500D01*
X11410000Y-10140000D02*
X11450000Y-10180000D01*
X11450000Y-10140000D02*
X11410000Y-10180000D01*
X11460800Y-7600000D02*
X11500800Y-7640000D01*
X11500800Y-7600000D02*
X11460800Y-7640000D01*
X11460800Y-8870000D02*
X11500800Y-8910000D01*
X11500800Y-8870000D02*
X11460800Y-8910000D01*
X11765600Y-5161600D02*
X11805600Y-5201600D01*
X11805600Y-5161600D02*
X11765600Y-5201600D01*
X11918000Y-6431600D02*
X11958000Y-6471600D01*
X11958000Y-6431600D02*
X11918000Y-6471600D01*
X12222800Y-7549200D02*
X12262800Y-7589200D01*
X12262800Y-7549200D02*
X12222800Y-7589200D01*
X12299000Y-10775000D02*
X12339000Y-10815000D01*
X12339000Y-10775000D02*
X12299000Y-10815000D01*
X12629200Y-6685600D02*
X12669200Y-6725600D01*
X12669200Y-6685600D02*
X12629200Y-6725600D01*
X12629200Y-7346000D02*
X12669200Y-7386000D01*
X12669200Y-7346000D02*
X12629200Y-7386000D01*
X12730800Y-7955600D02*
X12770800Y-7995600D01*
X12770800Y-7955600D02*
X12730800Y-7995600D01*
X12730800Y-8565200D02*
X12770800Y-8605200D01*
X12770800Y-8565200D02*
X12730800Y-8605200D01*
X12730800Y-9124000D02*
X12770800Y-9164000D01*
X12770800Y-9124000D02*
X12730800Y-9164000D01*
X12743500Y-5885500D02*
X12783500Y-5925500D01*
X12783500Y-5885500D02*
X12743500Y-5925500D01*
X12870500Y-5885500D02*
X12910500Y-5925500D01*
X12910500Y-5885500D02*
X12870500Y-5925500D01*
X12984800Y-9733600D02*
X13024800Y-9773600D01*
X13024800Y-9733600D02*
X12984800Y-9773600D01*
X12997500Y-5885500D02*
X13037500Y-5925500D01*
X13037500Y-5885500D02*
X12997500Y-5925500D01*
X13188000Y-7955600D02*
X13228000Y-7995600D01*
X13228000Y-7955600D02*
X13188000Y-7995600D01*
X13238800Y-6228400D02*
X13278800Y-6268400D01*
X13278800Y-6228400D02*
X13238800Y-6268400D01*
X13238800Y-10444800D02*
X13278800Y-10484800D01*
X13278800Y-10444800D02*
X13238800Y-10484800D01*
X13950000Y-6736400D02*
X13990000Y-6776400D01*
X13990000Y-6736400D02*
X13950000Y-6776400D01*
X14000800Y-8108000D02*
X14040800Y-8148000D01*
X14040800Y-8108000D02*
X14000800Y-8148000D01*
X14000800Y-9428800D02*
X14040800Y-9468800D01*
X14040800Y-9428800D02*
X14000800Y-9468800D01*
X14204000Y-10190800D02*
X14244000Y-10230800D01*
X14244000Y-10190800D02*
X14204000Y-10230800D01*
X14966000Y-8158800D02*
X15006000Y-8198800D01*
X15006000Y-8158800D02*
X14966000Y-8198800D01*
D13*
X14261500Y-6223000D02*
G75*
G03*
X14261500Y-6223000I-37500J0D01*
G01*
X14261500Y-6985000D02*
G75*
G03*
X14261500Y-6985000I-37500J0D01*
G01*
X14261500Y-8382000D02*
G75*
G03*
X14261500Y-8382000I-37500J0D01*
G01*
X14261500Y-9715500D02*
G75*
G03*
X14261500Y-9715500I-37500J0D01*
G01*
X14388500Y-6350000D02*
G75*
G03*
X14388500Y-6350000I-37500J0D01*
G01*
X14388500Y-7112000D02*
G75*
G03*
X14388500Y-7112000I-37500J0D01*
G01*
X14388500Y-8509000D02*
G75*
G03*
X14388500Y-8509000I-37500J0D01*
G01*
X14388500Y-9842500D02*
G75*
G03*
X14388500Y-9842500I-37500J0D01*
G01*
X14515500Y-6223000D02*
G75*
G03*
X14515500Y-6223000I-37500J0D01*
G01*
X14515500Y-6985000D02*
G75*
G03*
X14515500Y-6985000I-37500J0D01*
G01*
X14515500Y-8382000D02*
G75*
G03*
X14515500Y-8382000I-37500J0D01*
G01*
X14515500Y-9715500D02*
G75*
G03*
X14515500Y-9715500I-37500J0D01*
G01*
D14*
X13000168Y-7328000D02*
X13000168Y-7404000D01*
X12962168Y-7366000D02*
X13038168Y-7366000D01*
X13000168Y-7582000D02*
X13000168Y-7658000D01*
X12962168Y-7620000D02*
X13038168Y-7620000D01*
X13000168Y-7836000D02*
X13000168Y-7912000D01*
X12962168Y-7874000D02*
X13038168Y-7874000D01*
X13000168Y-8090000D02*
X13000168Y-8166000D01*
X12962168Y-8128000D02*
X13038168Y-8128000D01*
X13000168Y-8344000D02*
X13000168Y-8420000D01*
X12962168Y-8382000D02*
X13038168Y-8382000D01*
X13000168Y-8598000D02*
X13000168Y-8674000D01*
X12962168Y-8636000D02*
X13038168Y-8636000D01*
X13000168Y-8852000D02*
X13000168Y-8928000D01*
X12962168Y-8890000D02*
X13038168Y-8890000D01*
X13000168Y-9106000D02*
X13000168Y-9182000D01*
X12962168Y-9144000D02*
X13038168Y-9144000D01*
X13794168Y-7328000D02*
X13794168Y-7404000D01*
X13756168Y-7366000D02*
X13832168Y-7366000D01*
X13794168Y-7582000D02*
X13794168Y-7658000D01*
X13756168Y-7620000D02*
X13832168Y-7620000D01*
X13794168Y-7836000D02*
X13794168Y-7912000D01*
X13756168Y-7874000D02*
X13832168Y-7874000D01*
X13794168Y-8090000D02*
X13794168Y-8166000D01*
X13756168Y-8128000D02*
X13832168Y-8128000D01*
X13794168Y-8344000D02*
X13794168Y-8420000D01*
X13756168Y-8382000D02*
X13832168Y-8382000D01*
X13794168Y-8598000D02*
X13794168Y-8674000D01*
X13756168Y-8636000D02*
X13832168Y-8636000D01*
X13794168Y-8852000D02*
X13794168Y-8928000D01*
X13756168Y-8890000D02*
X13832168Y-8890000D01*
X13794168Y-9106000D02*
X13794168Y-9182000D01*
X13756168Y-9144000D02*
X13832168Y-9144000D01*
D15*
X8387084Y-6302546D02*
X8387084Y-6248664D01*
X8333202Y-6248664D01*
X8333202Y-6302546D01*
X8387084Y-6302546D01*
X8389131Y-10258739D02*
X8389131Y-10204857D01*
X8335248Y-10204857D01*
X8335248Y-10258739D01*
X8389131Y-10258739D01*
X8566689Y-6122941D02*
X8566689Y-6069059D01*
X8512807Y-6069059D01*
X8512807Y-6122941D01*
X8566689Y-6122941D01*
X8566689Y-6482151D02*
X8566689Y-6428269D01*
X8512807Y-6428269D01*
X8512807Y-6482151D01*
X8566689Y-6482151D01*
X8568736Y-10079134D02*
X8568736Y-10025252D01*
X8514854Y-10025252D01*
X8514854Y-10079134D01*
X8568736Y-10079134D01*
X8568736Y-10438344D02*
X8568736Y-10384462D01*
X8514854Y-10384462D01*
X8514854Y-10438344D01*
X8568736Y-10438344D01*
X8746294Y-5943336D02*
X8746294Y-5889454D01*
X8692412Y-5889454D01*
X8692412Y-5943336D01*
X8746294Y-5943336D01*
X8746294Y-6302546D02*
X8746294Y-6248664D01*
X8692412Y-6248664D01*
X8692412Y-6302546D01*
X8746294Y-6302546D01*
X8748341Y-10258739D02*
X8748341Y-10204857D01*
X8694459Y-10204857D01*
X8694459Y-10258739D01*
X8748341Y-10258739D01*
X8748341Y-10617949D02*
X8748341Y-10564067D01*
X8694459Y-10564067D01*
X8694459Y-10617949D01*
X8748341Y-10617949D01*
X8925899Y-6122941D02*
X8925899Y-6069059D01*
X8872017Y-6069059D01*
X8872017Y-6122941D01*
X8925899Y-6122941D01*
X8927946Y-10438344D02*
X8927946Y-10384462D01*
X8874064Y-10384462D01*
X8874064Y-10438344D01*
X8927946Y-10438344D01*
X11696338Y-9615097D02*
X11696338Y-9561215D01*
X11642456Y-9561215D01*
X11642456Y-9615097D01*
X11696338Y-9615097D01*
X11699979Y-6948441D02*
X11699979Y-6894559D01*
X11646097Y-6894559D01*
X11646097Y-6948441D01*
X11699979Y-6948441D01*
X11875943Y-9435492D02*
X11875943Y-9381610D01*
X11822061Y-9381610D01*
X11822061Y-9435492D01*
X11875943Y-9435492D01*
X11875943Y-9794703D02*
X11875943Y-9740821D01*
X11822061Y-9740821D01*
X11822061Y-9794703D01*
X11875943Y-9794703D01*
X11879584Y-6768836D02*
X11879584Y-6714954D01*
X11825702Y-6714954D01*
X11825702Y-6768836D01*
X11879584Y-6768836D01*
X11879584Y-7128046D02*
X11879584Y-7074164D01*
X11825702Y-7074164D01*
X11825702Y-7128046D01*
X11879584Y-7128046D01*
X12055548Y-9255887D02*
X12055548Y-9202005D01*
X12001666Y-9202005D01*
X12001666Y-9255887D01*
X12055548Y-9255887D01*
X12055548Y-9615097D02*
X12055548Y-9561215D01*
X12001666Y-9561215D01*
X12001666Y-9615097D01*
X12055548Y-9615097D01*
X12059189Y-6948441D02*
X12059189Y-6894559D01*
X12005307Y-6894559D01*
X12005307Y-6948441D01*
X12059189Y-6948441D01*
X12059189Y-7307651D02*
X12059189Y-7253769D01*
X12005307Y-7253769D01*
X12005307Y-7307651D01*
X12059189Y-7307651D01*
X12235153Y-9435492D02*
X12235153Y-9381610D01*
X12181271Y-9381610D01*
X12181271Y-9435492D01*
X12235153Y-9435492D01*
X12238794Y-7128046D02*
X12238794Y-7074164D01*
X12184912Y-7074164D01*
X12184912Y-7128046D01*
X12238794Y-7128046D01*
D16*
X3554932Y-10872197D02*
X3594932Y-10832197D01*
X3554932Y-10792197D01*
X3514932Y-10832197D01*
X3554932Y-10872197D01*
X3904932Y-10872197D02*
X3944932Y-10832197D01*
X3904932Y-10792197D01*
X3864932Y-10832197D01*
X3904932Y-10872197D01*
X4576697Y-10872197D02*
X4616697Y-10832197D01*
X4576697Y-10792197D01*
X4536697Y-10832197D01*
X4576697Y-10872197D01*
X4926697Y-10872197D02*
X4966697Y-10832197D01*
X4926697Y-10792197D01*
X4886697Y-10832197D01*
X4926697Y-10872197D01*
X5143500Y-8045000D02*
X5183500Y-8005000D01*
X5143500Y-7965000D01*
X5103500Y-8005000D01*
X5143500Y-8045000D01*
X5143500Y-8545000D02*
X5183500Y-8505000D01*
X5143500Y-8465000D01*
X5103500Y-8505000D01*
X5143500Y-8545000D01*
X5523500Y-7915000D02*
X5563500Y-7875000D01*
X5523500Y-7835000D01*
X5483500Y-7875000D01*
X5523500Y-7915000D01*
X5523500Y-8677000D02*
X5563500Y-8637000D01*
X5523500Y-8597000D01*
X5483500Y-8637000D01*
X5523500Y-8677000D01*
X5777500Y-7915000D02*
X5817500Y-7875000D01*
X5777500Y-7835000D01*
X5737500Y-7875000D01*
X5777500Y-7915000D01*
X5777500Y-8677000D02*
X5817500Y-8637000D01*
X5777500Y-8597000D01*
X5737500Y-8637000D01*
X5777500Y-8677000D01*
X6031500Y-7915000D02*
X6071500Y-7875000D01*
X6031500Y-7835000D01*
X5991500Y-7875000D01*
X6031500Y-7915000D01*
X6031500Y-8677000D02*
X6071500Y-8637000D01*
X6031500Y-8597000D01*
X5991500Y-8637000D01*
X6031500Y-8677000D01*
X6285500Y-7915000D02*
X6325500Y-7875000D01*
X6285500Y-7835000D01*
X6245500Y-7875000D01*
X6285500Y-7915000D01*
X6285500Y-8677000D02*
X6325500Y-8637000D01*
X6285500Y-8597000D01*
X6245500Y-8637000D01*
X6285500Y-8677000D01*
X6393579Y-7195579D02*
X6433579Y-7155579D01*
X6393579Y-7115579D01*
X6353579Y-7155579D01*
X6393579Y-7195579D01*
X6393579Y-9394421D02*
X6433579Y-9354421D01*
X6393579Y-9314421D01*
X6353579Y-9354421D01*
X6393579Y-9394421D01*
X6667500Y-8045000D02*
X6707500Y-8005000D01*
X6667500Y-7965000D01*
X6627500Y-8005000D01*
X6667500Y-8045000D01*
X6667500Y-8545000D02*
X6707500Y-8505000D01*
X6667500Y-8465000D01*
X6627500Y-8505000D01*
X6667500Y-8545000D01*
X6711079Y-6878079D02*
X6751079Y-6838079D01*
X6711079Y-6798079D01*
X6671079Y-6838079D01*
X6711079Y-6878079D01*
X6711079Y-9711921D02*
X6751079Y-9671921D01*
X6711079Y-9631921D01*
X6671079Y-9671921D01*
X6711079Y-9711921D01*
X7028579Y-6560579D02*
X7068579Y-6520579D01*
X7028579Y-6480579D01*
X6988579Y-6520579D01*
X7028579Y-6560579D01*
X7028579Y-10029421D02*
X7068579Y-9989421D01*
X7028579Y-9949421D01*
X6988579Y-9989421D01*
X7028579Y-10029421D01*
X7112000Y-7914000D02*
X7152000Y-7874000D01*
X7112000Y-7834000D01*
X7072000Y-7874000D01*
X7112000Y-7914000D01*
X7112000Y-8676000D02*
X7152000Y-8636000D01*
X7112000Y-8596000D01*
X7072000Y-8636000D01*
X7112000Y-8676000D01*
X7429500Y-7596500D02*
X7469500Y-7556500D01*
X7429500Y-7516500D01*
X7389500Y-7556500D01*
X7429500Y-7596500D01*
X7429500Y-8993500D02*
X7469500Y-8953500D01*
X7429500Y-8913500D01*
X7389500Y-8953500D01*
X7429500Y-8993500D01*
X7747000Y-6560579D02*
X7787000Y-6520579D01*
X7747000Y-6480579D01*
X7707000Y-6520579D01*
X7747000Y-6560579D01*
X7747000Y-7279000D02*
X7787000Y-7239000D01*
X7747000Y-7199000D01*
X7707000Y-7239000D01*
X7747000Y-7279000D01*
X7747000Y-9311000D02*
X7787000Y-9271000D01*
X7747000Y-9231000D01*
X7707000Y-9271000D01*
X7747000Y-9311000D01*
X7747000Y-10029421D02*
X7787000Y-9989421D01*
X7747000Y-9949421D01*
X7707000Y-9989421D01*
X7747000Y-10029421D01*
X8100553Y-6914133D02*
X8140553Y-6874133D01*
X8100553Y-6834133D01*
X8060553Y-6874133D01*
X8100553Y-6914133D01*
X8100553Y-9675867D02*
X8140553Y-9635867D01*
X8100553Y-9595867D01*
X8060553Y-9635867D01*
X8100553Y-9675867D01*
X12217235Y-6326500D02*
X12257235Y-6286500D01*
X12217235Y-6246500D01*
X12177235Y-6286500D01*
X12217235Y-6326500D01*
X12255500Y-10200000D02*
X12295500Y-10160000D01*
X12255500Y-10120000D01*
X12215500Y-10160000D01*
X12255500Y-10200000D01*
X12567235Y-6326500D02*
X12607235Y-6286500D01*
X12567235Y-6246500D01*
X12527235Y-6286500D01*
X12567235Y-6326500D01*
X12605500Y-10200000D02*
X12645500Y-10160000D01*
X12605500Y-10120000D01*
X12565500Y-10160000D01*
X12605500Y-10200000D01*
X13081000Y-5247000D02*
X13121000Y-5207000D01*
X13081000Y-5167000D01*
X13041000Y-5207000D01*
X13081000Y-5247000D01*
X13147168Y-7088500D02*
X13187168Y-7048500D01*
X13147168Y-7008500D01*
X13107168Y-7048500D01*
X13147168Y-7088500D01*
X13147168Y-9501500D02*
X13187168Y-9461500D01*
X13147168Y-9421500D01*
X13107168Y-9461500D01*
X13147168Y-9501500D01*
X13647168Y-7088500D02*
X13687168Y-7048500D01*
X13647168Y-7008500D01*
X13607168Y-7048500D01*
X13647168Y-7088500D01*
X13647168Y-9501500D02*
X13687168Y-9461500D01*
X13647168Y-9421500D01*
X13607168Y-9461500D01*
X13647168Y-9501500D01*
X13906500Y-5564500D02*
X13946500Y-5524500D01*
X13906500Y-5484500D01*
X13866500Y-5524500D01*
X13906500Y-5564500D01*
X13906500Y-6580500D02*
X13946500Y-6540500D01*
X13906500Y-6500500D01*
X13866500Y-6540500D01*
X13906500Y-6580500D01*
X14097000Y-5247000D02*
X14137000Y-5207000D01*
X14097000Y-5167000D01*
X14057000Y-5207000D01*
X14097000Y-5247000D01*
X14859000Y-7025000D02*
X14899000Y-6985000D01*
X14859000Y-6945000D01*
X14819000Y-6985000D01*
X14859000Y-7025000D01*
X14859000Y-8041000D02*
X14899000Y-8001000D01*
X14859000Y-7961000D01*
X14819000Y-8001000D01*
X14859000Y-8041000D01*
X14859000Y-8422000D02*
X14899000Y-8382000D01*
X14859000Y-8342000D01*
X14819000Y-8382000D01*
X14859000Y-8422000D01*
X14859000Y-9438000D02*
X14899000Y-9398000D01*
X14859000Y-9358000D01*
X14819000Y-9398000D01*
X14859000Y-9438000D01*
X14859000Y-9755500D02*
X14899000Y-9715500D01*
X14859000Y-9675500D01*
X14819000Y-9715500D01*
X14859000Y-9755500D01*
X14859000Y-10771500D02*
X14899000Y-10731500D01*
X14859000Y-10691500D01*
X14819000Y-10731500D01*
X14859000Y-10771500D01*
X14922500Y-5890000D02*
X14962500Y-5850000D01*
X14922500Y-5810000D01*
X14882500Y-5850000D01*
X14922500Y-5890000D01*
X14922500Y-6390000D02*
X14962500Y-6350000D01*
X14922500Y-6310000D01*
X14882500Y-6350000D01*
X14922500Y-6390000D01*
D17*
X3378500Y-6427500D02*
X3478500Y-6527500D01*
X3478500Y-6427500D02*
X3378500Y-6527500D01*
X3478500Y-6477500D02*
G75*
G03*
X3478500Y-6477500I-50000J0D01*
G01*
X3378500Y-6681500D02*
X3478500Y-6781500D01*
X3478500Y-6681500D02*
X3378500Y-6781500D01*
X3478500Y-6731500D02*
G75*
G03*
X3478500Y-6731500I-50000J0D01*
G01*
X3378500Y-6935500D02*
X3478500Y-7035500D01*
X3478500Y-6935500D02*
X3378500Y-7035500D01*
X3478500Y-6985500D02*
G75*
G03*
X3478500Y-6985500I-50000J0D01*
G01*
X3378500Y-7189500D02*
X3478500Y-7289500D01*
X3478500Y-7189500D02*
X3378500Y-7289500D01*
X3478500Y-7239500D02*
G75*
G03*
X3478500Y-7239500I-50000J0D01*
G01*
X3378500Y-7443500D02*
X3478500Y-7543500D01*
X3478500Y-7443500D02*
X3378500Y-7543500D01*
X3478500Y-7493500D02*
G75*
G03*
X3478500Y-7493500I-50000J0D01*
G01*
X3378500Y-7697500D02*
X3478500Y-7797500D01*
X3478500Y-7697500D02*
X3378500Y-7797500D01*
X3478500Y-7747500D02*
G75*
G03*
X3478500Y-7747500I-50000J0D01*
G01*
X3378500Y-7951500D02*
X3478500Y-8051500D01*
X3478500Y-7951500D02*
X3378500Y-8051500D01*
X3478500Y-8001500D02*
G75*
G03*
X3478500Y-8001500I-50000J0D01*
G01*
X3378500Y-8205500D02*
X3478500Y-8305500D01*
X3478500Y-8205500D02*
X3378500Y-8305500D01*
X3478500Y-8255500D02*
G75*
G03*
X3478500Y-8255500I-50000J0D01*
G01*
X3378500Y-8459500D02*
X3478500Y-8559500D01*
X3478500Y-8459500D02*
X3378500Y-8559500D01*
X3478500Y-8509500D02*
G75*
G03*
X3478500Y-8509500I-50000J0D01*
G01*
X3378500Y-8713500D02*
X3478500Y-8813500D01*
X3478500Y-8713500D02*
X3378500Y-8813500D01*
X3478500Y-8763500D02*
G75*
G03*
X3478500Y-8763500I-50000J0D01*
G01*
X3378500Y-8967500D02*
X3478500Y-9067500D01*
X3478500Y-8967500D02*
X3378500Y-9067500D01*
X3478500Y-9017500D02*
G75*
G03*
X3478500Y-9017500I-50000J0D01*
G01*
X3378500Y-9221500D02*
X3478500Y-9321500D01*
X3478500Y-9221500D02*
X3378500Y-9321500D01*
X3478500Y-9271500D02*
G75*
G03*
X3478500Y-9271500I-50000J0D01*
G01*
X3378500Y-9475500D02*
X3478500Y-9575500D01*
X3478500Y-9475500D02*
X3378500Y-9575500D01*
X3478500Y-9525500D02*
G75*
G03*
X3478500Y-9525500I-50000J0D01*
G01*
X3378500Y-9729500D02*
X3478500Y-9829500D01*
X3478500Y-9729500D02*
X3378500Y-9829500D01*
X3478500Y-9779500D02*
G75*
G03*
X3478500Y-9779500I-50000J0D01*
G01*
X3378500Y-9983500D02*
X3478500Y-10083500D01*
X3478500Y-9983500D02*
X3378500Y-10083500D01*
X3478500Y-10033500D02*
G75*
G03*
X3478500Y-10033500I-50000J0D01*
G01*
X3632500Y-6427500D02*
X3732500Y-6527500D01*
X3732500Y-6427500D02*
X3632500Y-6527500D01*
X3732500Y-6477500D02*
G75*
G03*
X3732500Y-6477500I-50000J0D01*
G01*
X3632500Y-6681500D02*
X3732500Y-6781500D01*
X3732500Y-6681500D02*
X3632500Y-6781500D01*
X3732500Y-6731500D02*
G75*
G03*
X3732500Y-6731500I-50000J0D01*
G01*
X3632500Y-6935500D02*
X3732500Y-7035500D01*
X3732500Y-6935500D02*
X3632500Y-7035500D01*
X3732500Y-6985500D02*
G75*
G03*
X3732500Y-6985500I-50000J0D01*
G01*
X3632500Y-7189500D02*
X3732500Y-7289500D01*
X3732500Y-7189500D02*
X3632500Y-7289500D01*
X3732500Y-7239500D02*
G75*
G03*
X3732500Y-7239500I-50000J0D01*
G01*
X3632500Y-7443500D02*
X3732500Y-7543500D01*
X3732500Y-7443500D02*
X3632500Y-7543500D01*
X3732500Y-7493500D02*
G75*
G03*
X3732500Y-7493500I-50000J0D01*
G01*
X3632500Y-7697500D02*
X3732500Y-7797500D01*
X3732500Y-7697500D02*
X3632500Y-7797500D01*
X3732500Y-7747500D02*
G75*
G03*
X3732500Y-7747500I-50000J0D01*
G01*
X3632500Y-7951500D02*
X3732500Y-8051500D01*
X3732500Y-7951500D02*
X3632500Y-8051500D01*
X3732500Y-8001500D02*
G75*
G03*
X3732500Y-8001500I-50000J0D01*
G01*
X3632500Y-8205500D02*
X3732500Y-8305500D01*
X3732500Y-8205500D02*
X3632500Y-8305500D01*
X3732500Y-8255500D02*
G75*
G03*
X3732500Y-8255500I-50000J0D01*
G01*
X3632500Y-8459500D02*
X3732500Y-8559500D01*
X3732500Y-8459500D02*
X3632500Y-8559500D01*
X3732500Y-8509500D02*
G75*
G03*
X3732500Y-8509500I-50000J0D01*
G01*
X3632500Y-8713500D02*
X3732500Y-8813500D01*
X3732500Y-8713500D02*
X3632500Y-8813500D01*
X3732500Y-8763500D02*
G75*
G03*
X3732500Y-8763500I-50000J0D01*
G01*
X3632500Y-8967500D02*
X3732500Y-9067500D01*
X3732500Y-8967500D02*
X3632500Y-9067500D01*
X3732500Y-9017500D02*
G75*
G03*
X3732500Y-9017500I-50000J0D01*
G01*
X3632500Y-9221500D02*
X3732500Y-9321500D01*
X3732500Y-9221500D02*
X3632500Y-9321500D01*
X3732500Y-9271500D02*
G75*
G03*
X3732500Y-9271500I-50000J0D01*
G01*
X3632500Y-9475500D02*
X3732500Y-9575500D01*
X3732500Y-9475500D02*
X3632500Y-9575500D01*
X3732500Y-9525500D02*
G75*
G03*
X3732500Y-9525500I-50000J0D01*
G01*
X3632500Y-9729500D02*
X3732500Y-9829500D01*
X3732500Y-9729500D02*
X3632500Y-9829500D01*
X3732500Y-9779500D02*
G75*
G03*
X3732500Y-9779500I-50000J0D01*
G01*
X3632500Y-9983500D02*
X3732500Y-10083500D01*
X3732500Y-9983500D02*
X3632500Y-10083500D01*
X3732500Y-10033500D02*
G75*
G03*
X3732500Y-10033500I-50000J0D01*
G01*
X4140500Y-6427500D02*
X4240500Y-6527500D01*
X4240500Y-6427500D02*
X4140500Y-6527500D01*
X4240500Y-6477500D02*
G75*
G03*
X4240500Y-6477500I-50000J0D01*
G01*
X4140500Y-6681500D02*
X4240500Y-6781500D01*
X4240500Y-6681500D02*
X4140500Y-6781500D01*
X4240500Y-6731500D02*
G75*
G03*
X4240500Y-6731500I-50000J0D01*
G01*
X4140500Y-6935500D02*
X4240500Y-7035500D01*
X4240500Y-6935500D02*
X4140500Y-7035500D01*
X4240500Y-6985500D02*
G75*
G03*
X4240500Y-6985500I-50000J0D01*
G01*
X4140500Y-7189500D02*
X4240500Y-7289500D01*
X4240500Y-7189500D02*
X4140500Y-7289500D01*
X4240500Y-7239500D02*
G75*
G03*
X4240500Y-7239500I-50000J0D01*
G01*
X4140500Y-7443500D02*
X4240500Y-7543500D01*
X4240500Y-7443500D02*
X4140500Y-7543500D01*
X4240500Y-7493500D02*
G75*
G03*
X4240500Y-7493500I-50000J0D01*
G01*
X4140500Y-7697500D02*
X4240500Y-7797500D01*
X4240500Y-7697500D02*
X4140500Y-7797500D01*
X4240500Y-7747500D02*
G75*
G03*
X4240500Y-7747500I-50000J0D01*
G01*
X4140500Y-7951500D02*
X4240500Y-8051500D01*
X4240500Y-7951500D02*
X4140500Y-8051500D01*
X4240500Y-8001500D02*
G75*
G03*
X4240500Y-8001500I-50000J0D01*
G01*
X4140500Y-8205500D02*
X4240500Y-8305500D01*
X4240500Y-8205500D02*
X4140500Y-8305500D01*
X4240500Y-8255500D02*
G75*
G03*
X4240500Y-8255500I-50000J0D01*
G01*
X4140500Y-8459500D02*
X4240500Y-8559500D01*
X4240500Y-8459500D02*
X4140500Y-8559500D01*
X4240500Y-8509500D02*
G75*
G03*
X4240500Y-8509500I-50000J0D01*
G01*
X4140500Y-8713500D02*
X4240500Y-8813500D01*
X4240500Y-8713500D02*
X4140500Y-8813500D01*
X4240500Y-8763500D02*
G75*
G03*
X4240500Y-8763500I-50000J0D01*
G01*
X4140500Y-8967500D02*
X4240500Y-9067500D01*
X4240500Y-8967500D02*
X4140500Y-9067500D01*
X4240500Y-9017500D02*
G75*
G03*
X4240500Y-9017500I-50000J0D01*
G01*
X4140500Y-9221500D02*
X4240500Y-9321500D01*
X4240500Y-9221500D02*
X4140500Y-9321500D01*
X4240500Y-9271500D02*
G75*
G03*
X4240500Y-9271500I-50000J0D01*
G01*
X4140500Y-9475500D02*
X4240500Y-9575500D01*
X4240500Y-9475500D02*
X4140500Y-9575500D01*
X4240500Y-9525500D02*
G75*
G03*
X4240500Y-9525500I-50000J0D01*
G01*
X4140500Y-9729500D02*
X4240500Y-9829500D01*
X4240500Y-9729500D02*
X4140500Y-9829500D01*
X4240500Y-9779500D02*
G75*
G03*
X4240500Y-9779500I-50000J0D01*
G01*
X4140500Y-9983500D02*
X4240500Y-10083500D01*
X4240500Y-9983500D02*
X4140500Y-10083500D01*
X4240500Y-10033500D02*
G75*
G03*
X4240500Y-10033500I-50000J0D01*
G01*
X4394500Y-6427500D02*
X4494500Y-6527500D01*
X4494500Y-6427500D02*
X4394500Y-6527500D01*
X4494500Y-6477500D02*
G75*
G03*
X4494500Y-6477500I-50000J0D01*
G01*
X4394500Y-6681500D02*
X4494500Y-6781500D01*
X4494500Y-6681500D02*
X4394500Y-6781500D01*
X4494500Y-6731500D02*
G75*
G03*
X4494500Y-6731500I-50000J0D01*
G01*
X4394500Y-6935500D02*
X4494500Y-7035500D01*
X4494500Y-6935500D02*
X4394500Y-7035500D01*
X4494500Y-6985500D02*
G75*
G03*
X4494500Y-6985500I-50000J0D01*
G01*
X4394500Y-7189500D02*
X4494500Y-7289500D01*
X4494500Y-7189500D02*
X4394500Y-7289500D01*
X4494500Y-7239500D02*
G75*
G03*
X4494500Y-7239500I-50000J0D01*
G01*
X4394500Y-7443500D02*
X4494500Y-7543500D01*
X4494500Y-7443500D02*
X4394500Y-7543500D01*
X4494500Y-7493500D02*
G75*
G03*
X4494500Y-7493500I-50000J0D01*
G01*
X4394500Y-7697500D02*
X4494500Y-7797500D01*
X4494500Y-7697500D02*
X4394500Y-7797500D01*
X4494500Y-7747500D02*
G75*
G03*
X4494500Y-7747500I-50000J0D01*
G01*
X4394500Y-7951500D02*
X4494500Y-8051500D01*
X4494500Y-7951500D02*
X4394500Y-8051500D01*
X4494500Y-8001500D02*
G75*
G03*
X4494500Y-8001500I-50000J0D01*
G01*
X4394500Y-8205500D02*
X4494500Y-8305500D01*
X4494500Y-8205500D02*
X4394500Y-8305500D01*
X4494500Y-8255500D02*
G75*
G03*
X4494500Y-8255500I-50000J0D01*
G01*
X4394500Y-8459500D02*
X4494500Y-8559500D01*
X4494500Y-8459500D02*
X4394500Y-8559500D01*
X4494500Y-8509500D02*
G75*
G03*
X4494500Y-8509500I-50000J0D01*
G01*
X4394500Y-8713500D02*
X4494500Y-8813500D01*
X4494500Y-8713500D02*
X4394500Y-8813500D01*
X4494500Y-8763500D02*
G75*
G03*
X4494500Y-8763500I-50000J0D01*
G01*
X4394500Y-8967500D02*
X4494500Y-9067500D01*
X4494500Y-8967500D02*
X4394500Y-9067500D01*
X4494500Y-9017500D02*
G75*
G03*
X4494500Y-9017500I-50000J0D01*
G01*
X4394500Y-9221500D02*
X4494500Y-9321500D01*
X4494500Y-9221500D02*
X4394500Y-9321500D01*
X4494500Y-9271500D02*
G75*
G03*
X4494500Y-9271500I-50000J0D01*
G01*
X4394500Y-9475500D02*
X4494500Y-9575500D01*
X4494500Y-9475500D02*
X4394500Y-9575500D01*
X4494500Y-9525500D02*
G75*
G03*
X4494500Y-9525500I-50000J0D01*
G01*
X4394500Y-9729500D02*
X4494500Y-9829500D01*
X4494500Y-9729500D02*
X4394500Y-9829500D01*
X4494500Y-9779500D02*
G75*
G03*
X4494500Y-9779500I-50000J0D01*
G01*
X4394500Y-9983500D02*
X4494500Y-10083500D01*
X4494500Y-9983500D02*
X4394500Y-10083500D01*
X4494500Y-10033500D02*
G75*
G03*
X4494500Y-10033500I-50000J0D01*
G01*
X5601500Y-10935500D02*
X5701500Y-11035500D01*
X5701500Y-10935500D02*
X5601500Y-11035500D01*
X5701500Y-10985500D02*
G75*
G03*
X5701500Y-10985500I-50000J0D01*
G01*
X5601500Y-11189500D02*
X5701500Y-11289500D01*
X5701500Y-11189500D02*
X5601500Y-11289500D01*
X5701500Y-11239500D02*
G75*
G03*
X5701500Y-11239500I-50000J0D01*
G01*
X5601500Y-11443500D02*
X5701500Y-11543500D01*
X5701500Y-11443500D02*
X5601500Y-11543500D01*
X5701500Y-11493500D02*
G75*
G03*
X5701500Y-11493500I-50000J0D01*
G01*
X6046000Y-10935500D02*
X6146000Y-11035500D01*
X6146000Y-10935500D02*
X6046000Y-11035500D01*
X6146000Y-10985500D02*
G75*
G03*
X6146000Y-10985500I-50000J0D01*
G01*
X6046000Y-11189500D02*
X6146000Y-11289500D01*
X6146000Y-11189500D02*
X6046000Y-11289500D01*
X6146000Y-11239500D02*
G75*
G03*
X6146000Y-11239500I-50000J0D01*
G01*
X6046000Y-11443500D02*
X6146000Y-11543500D01*
X6146000Y-11443500D02*
X6046000Y-11543500D01*
X6146000Y-11493500D02*
G75*
G03*
X6146000Y-11493500I-50000J0D01*
G01*
X6173000Y-6109500D02*
X6273000Y-6209500D01*
X6273000Y-6109500D02*
X6173000Y-6209500D01*
X6273000Y-6159500D02*
G75*
G03*
X6273000Y-6159500I-50000J0D01*
G01*
X6173000Y-6363500D02*
X6273000Y-6463500D01*
X6273000Y-6363500D02*
X6173000Y-6463500D01*
X6273000Y-6413500D02*
G75*
G03*
X6273000Y-6413500I-50000J0D01*
G01*
X6173000Y-10046500D02*
X6273000Y-10146500D01*
X6273000Y-10046500D02*
X6173000Y-10146500D01*
X6273000Y-10096500D02*
G75*
G03*
X6273000Y-10096500I-50000J0D01*
G01*
X6173000Y-10300500D02*
X6273000Y-10400500D01*
X6273000Y-10300500D02*
X6173000Y-10400500D01*
X6273000Y-10350500D02*
G75*
G03*
X6273000Y-10350500I-50000J0D01*
G01*
X6534079Y-6109500D02*
X6634079Y-6209500D01*
X6634079Y-6109500D02*
X6534079Y-6209500D01*
X6634079Y-6159500D02*
G75*
G03*
X6634079Y-6159500I-50000J0D01*
G01*
X6534079Y-6363500D02*
X6634079Y-6463500D01*
X6634079Y-6363500D02*
X6534079Y-6463500D01*
X6634079Y-6413500D02*
G75*
G03*
X6634079Y-6413500I-50000J0D01*
G01*
X6554000Y-10046500D02*
X6654000Y-10146500D01*
X6654000Y-10046500D02*
X6554000Y-10146500D01*
X6654000Y-10096500D02*
G75*
G03*
X6654000Y-10096500I-50000J0D01*
G01*
X6554000Y-10300500D02*
X6654000Y-10400500D01*
X6654000Y-10300500D02*
X6554000Y-10400500D01*
X6654000Y-10350500D02*
G75*
G03*
X6654000Y-10350500I-50000J0D01*
G01*
X7506500Y-10618000D02*
X7606500Y-10718000D01*
X7606500Y-10618000D02*
X7506500Y-10718000D01*
X7606500Y-10668000D02*
G75*
G03*
X7606500Y-10668000I-50000J0D01*
G01*
X7506500Y-10872000D02*
X7606500Y-10972000D01*
X7606500Y-10872000D02*
X7506500Y-10972000D01*
X7606500Y-10922000D02*
G75*
G03*
X7606500Y-10922000I-50000J0D01*
G01*
X7506500Y-11126000D02*
X7606500Y-11226000D01*
X7606500Y-11126000D02*
X7506500Y-11226000D01*
X7606500Y-11176000D02*
G75*
G03*
X7606500Y-11176000I-50000J0D01*
G01*
X13856500Y-10427500D02*
X13956500Y-10527500D01*
X13956500Y-10427500D02*
X13856500Y-10527500D01*
X13956500Y-10477500D02*
G75*
G03*
X13956500Y-10477500I-50000J0D01*
G01*
X13856500Y-10681500D02*
X13956500Y-10781500D01*
X13956500Y-10681500D02*
X13856500Y-10781500D01*
X13956500Y-10731500D02*
G75*
G03*
X13956500Y-10731500I-50000J0D01*
G01*
X13856500Y-10935500D02*
X13956500Y-11035500D01*
X13956500Y-10935500D02*
X13856500Y-11035500D01*
X13956500Y-10985500D02*
G75*
G03*
X13956500Y-10985500I-50000J0D01*
G01*
D18*
X7691248Y-8105000D02*
X7991248Y-8405000D01*
X7991248Y-8105000D02*
X7691248Y-8405000D01*
X7841248Y-8105000D02*
X7841248Y-8405000D01*
X7691248Y-8255000D02*
X7991248Y-8255000D01*
X9756000Y-6040248D02*
X10056000Y-6340248D01*
X10056000Y-6040248D02*
X9756000Y-6340248D01*
X9906000Y-6040248D02*
X9906000Y-6340248D01*
X9756000Y-6190248D02*
X10056000Y-6190248D01*
X9756000Y-10169752D02*
X10056000Y-10469752D01*
X10056000Y-10169752D02*
X9756000Y-10469752D01*
X9906000Y-10169752D02*
X9906000Y-10469752D01*
X9756000Y-10319752D02*
X10056000Y-10319752D01*
X11820752Y-8105000D02*
X12120752Y-8405000D01*
X12120752Y-8105000D02*
X11820752Y-8405000D01*
X11970752Y-8105000D02*
X11970752Y-8405000D01*
X11820752Y-8255000D02*
X12120752Y-8255000D01*
X14455000Y-5057000D02*
X14755000Y-5357000D01*
X14755000Y-5057000D02*
X14455000Y-5357000D01*
X14605000Y-5057000D02*
X14605000Y-5357000D01*
X14455000Y-5207000D02*
X14755000Y-5207000D01*
X14455000Y-11153000D02*
X14755000Y-11453000D01*
X14755000Y-11153000D02*
X14455000Y-11453000D01*
X14605000Y-11153000D02*
X14605000Y-11453000D01*
X14455000Y-11303000D02*
X14755000Y-11303000D01*
D11*
X3322277Y-12235984D02*
X3322277Y-12035984D01*
X3322277Y-12035984D02*
X3369896Y-12035984D01*
X3369896Y-12035984D02*
X3398467Y-12045508D01*
X3398467Y-12045508D02*
X3417515Y-12064555D01*
X3417515Y-12064555D02*
X3427039Y-12083603D01*
X3427039Y-12083603D02*
X3436562Y-12121698D01*
X3436562Y-12121698D02*
X3436562Y-12150269D01*
X3436562Y-12150269D02*
X3427039Y-12188365D01*
X3427039Y-12188365D02*
X3417515Y-12207412D01*
X3417515Y-12207412D02*
X3398467Y-12226460D01*
X3398467Y-12226460D02*
X3369896Y-12235984D01*
X3369896Y-12235984D02*
X3322277Y-12235984D01*
X3522277Y-12235984D02*
X3522277Y-12102650D01*
X3522277Y-12140746D02*
X3531801Y-12121698D01*
X3531801Y-12121698D02*
X3541324Y-12112174D01*
X3541324Y-12112174D02*
X3560372Y-12102650D01*
X3560372Y-12102650D02*
X3579420Y-12102650D01*
X3646086Y-12235984D02*
X3646086Y-12102650D01*
X3646086Y-12035984D02*
X3636562Y-12045508D01*
X3636562Y-12045508D02*
X3646086Y-12055031D01*
X3646086Y-12055031D02*
X3655610Y-12045508D01*
X3655610Y-12045508D02*
X3646086Y-12035984D01*
X3646086Y-12035984D02*
X3646086Y-12055031D01*
X3769896Y-12235984D02*
X3750848Y-12226460D01*
X3750848Y-12226460D02*
X3741324Y-12207412D01*
X3741324Y-12207412D02*
X3741324Y-12035984D01*
X3874658Y-12235984D02*
X3855610Y-12226460D01*
X3855610Y-12226460D02*
X3846086Y-12207412D01*
X3846086Y-12207412D02*
X3846086Y-12035984D01*
X4103229Y-12235984D02*
X4103229Y-12035984D01*
X4103229Y-12035984D02*
X4169896Y-12178841D01*
X4169896Y-12178841D02*
X4236563Y-12035984D01*
X4236563Y-12035984D02*
X4236563Y-12235984D01*
X4417515Y-12235984D02*
X4417515Y-12131222D01*
X4417515Y-12131222D02*
X4407991Y-12112174D01*
X4407991Y-12112174D02*
X4388944Y-12102650D01*
X4388944Y-12102650D02*
X4350848Y-12102650D01*
X4350848Y-12102650D02*
X4331801Y-12112174D01*
X4417515Y-12226460D02*
X4398467Y-12235984D01*
X4398467Y-12235984D02*
X4350848Y-12235984D01*
X4350848Y-12235984D02*
X4331801Y-12226460D01*
X4331801Y-12226460D02*
X4322277Y-12207412D01*
X4322277Y-12207412D02*
X4322277Y-12188365D01*
X4322277Y-12188365D02*
X4331801Y-12169317D01*
X4331801Y-12169317D02*
X4350848Y-12159793D01*
X4350848Y-12159793D02*
X4398467Y-12159793D01*
X4398467Y-12159793D02*
X4417515Y-12150269D01*
X4512753Y-12102650D02*
X4512753Y-12302650D01*
X4512753Y-12112174D02*
X4531801Y-12102650D01*
X4531801Y-12102650D02*
X4569896Y-12102650D01*
X4569896Y-12102650D02*
X4588944Y-12112174D01*
X4588944Y-12112174D02*
X4598467Y-12121698D01*
X4598467Y-12121698D02*
X4607991Y-12140746D01*
X4607991Y-12140746D02*
X4607991Y-12197888D01*
X4607991Y-12197888D02*
X4598467Y-12216936D01*
X4598467Y-12216936D02*
X4588944Y-12226460D01*
X4588944Y-12226460D02*
X4569896Y-12235984D01*
X4569896Y-12235984D02*
X4531801Y-12235984D01*
X4531801Y-12235984D02*
X4512753Y-12226460D01*
X4693705Y-12216936D02*
X4703229Y-12226460D01*
X4703229Y-12226460D02*
X4693705Y-12235984D01*
X4693705Y-12235984D02*
X4684182Y-12226460D01*
X4684182Y-12226460D02*
X4693705Y-12216936D01*
X4693705Y-12216936D02*
X4693705Y-12235984D01*
X4693705Y-12112174D02*
X4703229Y-12121698D01*
X4703229Y-12121698D02*
X4693705Y-12131222D01*
X4693705Y-12131222D02*
X4684182Y-12121698D01*
X4684182Y-12121698D02*
X4693705Y-12112174D01*
X4693705Y-12112174D02*
X4693705Y-12131222D01*
D12*
X3021500Y-12544500D02*
X3061500Y-12584500D01*
X3061500Y-12544500D02*
X3021500Y-12584500D01*
D11*
X3360372Y-12455984D02*
X3379420Y-12455984D01*
X3379420Y-12455984D02*
X3398467Y-12465508D01*
X3398467Y-12465508D02*
X3407991Y-12475031D01*
X3407991Y-12475031D02*
X3417515Y-12494079D01*
X3417515Y-12494079D02*
X3427039Y-12532174D01*
X3427039Y-12532174D02*
X3427039Y-12579793D01*
X3427039Y-12579793D02*
X3417515Y-12617888D01*
X3417515Y-12617888D02*
X3407991Y-12636936D01*
X3407991Y-12636936D02*
X3398467Y-12646460D01*
X3398467Y-12646460D02*
X3379420Y-12655984D01*
X3379420Y-12655984D02*
X3360372Y-12655984D01*
X3360372Y-12655984D02*
X3341324Y-12646460D01*
X3341324Y-12646460D02*
X3331801Y-12636936D01*
X3331801Y-12636936D02*
X3322277Y-12617888D01*
X3322277Y-12617888D02*
X3312753Y-12579793D01*
X3312753Y-12579793D02*
X3312753Y-12532174D01*
X3312753Y-12532174D02*
X3322277Y-12494079D01*
X3322277Y-12494079D02*
X3331801Y-12475031D01*
X3331801Y-12475031D02*
X3341324Y-12465508D01*
X3341324Y-12465508D02*
X3360372Y-12455984D01*
X3512753Y-12636936D02*
X3522277Y-12646460D01*
X3522277Y-12646460D02*
X3512753Y-12655984D01*
X3512753Y-12655984D02*
X3503229Y-12646460D01*
X3503229Y-12646460D02*
X3512753Y-12636936D01*
X3512753Y-12636936D02*
X3512753Y-12655984D01*
X3693705Y-12522650D02*
X3693705Y-12655984D01*
X3646086Y-12446460D02*
X3598467Y-12589317D01*
X3598467Y-12589317D02*
X3722277Y-12589317D01*
X3836562Y-12455984D02*
X3855610Y-12455984D01*
X3855610Y-12455984D02*
X3874658Y-12465508D01*
X3874658Y-12465508D02*
X3884182Y-12475031D01*
X3884182Y-12475031D02*
X3893705Y-12494079D01*
X3893705Y-12494079D02*
X3903229Y-12532174D01*
X3903229Y-12532174D02*
X3903229Y-12579793D01*
X3903229Y-12579793D02*
X3893705Y-12617888D01*
X3893705Y-12617888D02*
X3884182Y-12636936D01*
X3884182Y-12636936D02*
X3874658Y-12646460D01*
X3874658Y-12646460D02*
X3855610Y-12655984D01*
X3855610Y-12655984D02*
X3836562Y-12655984D01*
X3836562Y-12655984D02*
X3817515Y-12646460D01*
X3817515Y-12646460D02*
X3807991Y-12636936D01*
X3807991Y-12636936D02*
X3798467Y-12617888D01*
X3798467Y-12617888D02*
X3788943Y-12579793D01*
X3788943Y-12579793D02*
X3788943Y-12532174D01*
X3788943Y-12532174D02*
X3798467Y-12494079D01*
X3798467Y-12494079D02*
X3807991Y-12475031D01*
X3807991Y-12475031D02*
X3817515Y-12465508D01*
X3817515Y-12465508D02*
X3836562Y-12455984D01*
X4027039Y-12455984D02*
X4046086Y-12455984D01*
X4046086Y-12455984D02*
X4065134Y-12465508D01*
X4065134Y-12465508D02*
X4074658Y-12475031D01*
X4074658Y-12475031D02*
X4084182Y-12494079D01*
X4084182Y-12494079D02*
X4093705Y-12532174D01*
X4093705Y-12532174D02*
X4093705Y-12579793D01*
X4093705Y-12579793D02*
X4084182Y-12617888D01*
X4084182Y-12617888D02*
X4074658Y-12636936D01*
X4074658Y-12636936D02*
X4065134Y-12646460D01*
X4065134Y-12646460D02*
X4046086Y-12655984D01*
X4046086Y-12655984D02*
X4027039Y-12655984D01*
X4027039Y-12655984D02*
X4007991Y-12646460D01*
X4007991Y-12646460D02*
X3998467Y-12636936D01*
X3998467Y-12636936D02*
X3988943Y-12617888D01*
X3988943Y-12617888D02*
X3979420Y-12579793D01*
X3979420Y-12579793D02*
X3979420Y-12532174D01*
X3979420Y-12532174D02*
X3988943Y-12494079D01*
X3988943Y-12494079D02*
X3998467Y-12475031D01*
X3998467Y-12475031D02*
X4007991Y-12465508D01*
X4007991Y-12465508D02*
X4027039Y-12455984D01*
X4179420Y-12655984D02*
X4179420Y-12522650D01*
X4179420Y-12541698D02*
X4188943Y-12532174D01*
X4188943Y-12532174D02*
X4207991Y-12522650D01*
X4207991Y-12522650D02*
X4236563Y-12522650D01*
X4236563Y-12522650D02*
X4255610Y-12532174D01*
X4255610Y-12532174D02*
X4265134Y-12551222D01*
X4265134Y-12551222D02*
X4265134Y-12655984D01*
X4265134Y-12551222D02*
X4274658Y-12532174D01*
X4274658Y-12532174D02*
X4293705Y-12522650D01*
X4293705Y-12522650D02*
X4322277Y-12522650D01*
X4322277Y-12522650D02*
X4341325Y-12532174D01*
X4341325Y-12532174D02*
X4350848Y-12551222D01*
X4350848Y-12551222D02*
X4350848Y-12655984D01*
X4446086Y-12655984D02*
X4446086Y-12522650D01*
X4446086Y-12541698D02*
X4455610Y-12532174D01*
X4455610Y-12532174D02*
X4474658Y-12522650D01*
X4474658Y-12522650D02*
X4503229Y-12522650D01*
X4503229Y-12522650D02*
X4522277Y-12532174D01*
X4522277Y-12532174D02*
X4531801Y-12551222D01*
X4531801Y-12551222D02*
X4531801Y-12655984D01*
X4531801Y-12551222D02*
X4541325Y-12532174D01*
X4541325Y-12532174D02*
X4560372Y-12522650D01*
X4560372Y-12522650D02*
X4588944Y-12522650D01*
X4588944Y-12522650D02*
X4607991Y-12532174D01*
X4607991Y-12532174D02*
X4617515Y-12551222D01*
X4617515Y-12551222D02*
X4617515Y-12655984D01*
X5007991Y-12446460D02*
X4836563Y-12703603D01*
X5265134Y-12455984D02*
X5284182Y-12455984D01*
X5284182Y-12455984D02*
X5303229Y-12465508D01*
X5303229Y-12465508D02*
X5312753Y-12475031D01*
X5312753Y-12475031D02*
X5322277Y-12494079D01*
X5322277Y-12494079D02*
X5331801Y-12532174D01*
X5331801Y-12532174D02*
X5331801Y-12579793D01*
X5331801Y-12579793D02*
X5322277Y-12617888D01*
X5322277Y-12617888D02*
X5312753Y-12636936D01*
X5312753Y-12636936D02*
X5303229Y-12646460D01*
X5303229Y-12646460D02*
X5284182Y-12655984D01*
X5284182Y-12655984D02*
X5265134Y-12655984D01*
X5265134Y-12655984D02*
X5246087Y-12646460D01*
X5246087Y-12646460D02*
X5236563Y-12636936D01*
X5236563Y-12636936D02*
X5227039Y-12617888D01*
X5227039Y-12617888D02*
X5217515Y-12579793D01*
X5217515Y-12579793D02*
X5217515Y-12532174D01*
X5217515Y-12532174D02*
X5227039Y-12494079D01*
X5227039Y-12494079D02*
X5236563Y-12475031D01*
X5236563Y-12475031D02*
X5246087Y-12465508D01*
X5246087Y-12465508D02*
X5265134Y-12455984D01*
X5417515Y-12636936D02*
X5427039Y-12646460D01*
X5427039Y-12646460D02*
X5417515Y-12655984D01*
X5417515Y-12655984D02*
X5407991Y-12646460D01*
X5407991Y-12646460D02*
X5417515Y-12636936D01*
X5417515Y-12636936D02*
X5417515Y-12655984D01*
X5550848Y-12455984D02*
X5569896Y-12455984D01*
X5569896Y-12455984D02*
X5588944Y-12465508D01*
X5588944Y-12465508D02*
X5598467Y-12475031D01*
X5598467Y-12475031D02*
X5607991Y-12494079D01*
X5607991Y-12494079D02*
X5617515Y-12532174D01*
X5617515Y-12532174D02*
X5617515Y-12579793D01*
X5617515Y-12579793D02*
X5607991Y-12617888D01*
X5607991Y-12617888D02*
X5598467Y-12636936D01*
X5598467Y-12636936D02*
X5588944Y-12646460D01*
X5588944Y-12646460D02*
X5569896Y-12655984D01*
X5569896Y-12655984D02*
X5550848Y-12655984D01*
X5550848Y-12655984D02*
X5531801Y-12646460D01*
X5531801Y-12646460D02*
X5522277Y-12636936D01*
X5522277Y-12636936D02*
X5512753Y-12617888D01*
X5512753Y-12617888D02*
X5503229Y-12579793D01*
X5503229Y-12579793D02*
X5503229Y-12532174D01*
X5503229Y-12532174D02*
X5512753Y-12494079D01*
X5512753Y-12494079D02*
X5522277Y-12475031D01*
X5522277Y-12475031D02*
X5531801Y-12465508D01*
X5531801Y-12465508D02*
X5550848Y-12455984D01*
X5807991Y-12655984D02*
X5693706Y-12655984D01*
X5750848Y-12655984D02*
X5750848Y-12455984D01*
X5750848Y-12455984D02*
X5731801Y-12484555D01*
X5731801Y-12484555D02*
X5712753Y-12503603D01*
X5712753Y-12503603D02*
X5693706Y-12513127D01*
X5988944Y-12455984D02*
X5893706Y-12455984D01*
X5893706Y-12455984D02*
X5884182Y-12551222D01*
X5884182Y-12551222D02*
X5893706Y-12541698D01*
X5893706Y-12541698D02*
X5912753Y-12532174D01*
X5912753Y-12532174D02*
X5960372Y-12532174D01*
X5960372Y-12532174D02*
X5979420Y-12541698D01*
X5979420Y-12541698D02*
X5988944Y-12551222D01*
X5988944Y-12551222D02*
X5998467Y-12570269D01*
X5998467Y-12570269D02*
X5998467Y-12617888D01*
X5998467Y-12617888D02*
X5988944Y-12636936D01*
X5988944Y-12636936D02*
X5979420Y-12646460D01*
X5979420Y-12646460D02*
X5960372Y-12655984D01*
X5960372Y-12655984D02*
X5912753Y-12655984D01*
X5912753Y-12655984D02*
X5893706Y-12646460D01*
X5893706Y-12646460D02*
X5884182Y-12636936D01*
X6065134Y-12455984D02*
X6198467Y-12455984D01*
X6198467Y-12455984D02*
X6112753Y-12655984D01*
X6265134Y-12455984D02*
X6265134Y-12494079D01*
X6341325Y-12455984D02*
X6341325Y-12494079D01*
X6636563Y-12732174D02*
X6627039Y-12722650D01*
X6627039Y-12722650D02*
X6607991Y-12694079D01*
X6607991Y-12694079D02*
X6598468Y-12675031D01*
X6598468Y-12675031D02*
X6588944Y-12646460D01*
X6588944Y-12646460D02*
X6579420Y-12598841D01*
X6579420Y-12598841D02*
X6579420Y-12560746D01*
X6579420Y-12560746D02*
X6588944Y-12513127D01*
X6588944Y-12513127D02*
X6598468Y-12484555D01*
X6598468Y-12484555D02*
X6607991Y-12465508D01*
X6607991Y-12465508D02*
X6627039Y-12436936D01*
X6627039Y-12436936D02*
X6636563Y-12427412D01*
X6798468Y-12455984D02*
X6760372Y-12455984D01*
X6760372Y-12455984D02*
X6741325Y-12465508D01*
X6741325Y-12465508D02*
X6731801Y-12475031D01*
X6731801Y-12475031D02*
X6712753Y-12503603D01*
X6712753Y-12503603D02*
X6703229Y-12541698D01*
X6703229Y-12541698D02*
X6703229Y-12617888D01*
X6703229Y-12617888D02*
X6712753Y-12636936D01*
X6712753Y-12636936D02*
X6722277Y-12646460D01*
X6722277Y-12646460D02*
X6741325Y-12655984D01*
X6741325Y-12655984D02*
X6779420Y-12655984D01*
X6779420Y-12655984D02*
X6798468Y-12646460D01*
X6798468Y-12646460D02*
X6807991Y-12636936D01*
X6807991Y-12636936D02*
X6817515Y-12617888D01*
X6817515Y-12617888D02*
X6817515Y-12570269D01*
X6817515Y-12570269D02*
X6807991Y-12551222D01*
X6807991Y-12551222D02*
X6798468Y-12541698D01*
X6798468Y-12541698D02*
X6779420Y-12532174D01*
X6779420Y-12532174D02*
X6741325Y-12532174D01*
X6741325Y-12532174D02*
X6722277Y-12541698D01*
X6722277Y-12541698D02*
X6712753Y-12551222D01*
X6712753Y-12551222D02*
X6703229Y-12570269D01*
X6988944Y-12455984D02*
X6950848Y-12455984D01*
X6950848Y-12455984D02*
X6931801Y-12465508D01*
X6931801Y-12465508D02*
X6922277Y-12475031D01*
X6922277Y-12475031D02*
X6903229Y-12503603D01*
X6903229Y-12503603D02*
X6893706Y-12541698D01*
X6893706Y-12541698D02*
X6893706Y-12617888D01*
X6893706Y-12617888D02*
X6903229Y-12636936D01*
X6903229Y-12636936D02*
X6912753Y-12646460D01*
X6912753Y-12646460D02*
X6931801Y-12655984D01*
X6931801Y-12655984D02*
X6969896Y-12655984D01*
X6969896Y-12655984D02*
X6988944Y-12646460D01*
X6988944Y-12646460D02*
X6998468Y-12636936D01*
X6998468Y-12636936D02*
X7007991Y-12617888D01*
X7007991Y-12617888D02*
X7007991Y-12570269D01*
X7007991Y-12570269D02*
X6998468Y-12551222D01*
X6998468Y-12551222D02*
X6988944Y-12541698D01*
X6988944Y-12541698D02*
X6969896Y-12532174D01*
X6969896Y-12532174D02*
X6931801Y-12532174D01*
X6931801Y-12532174D02*
X6912753Y-12541698D01*
X6912753Y-12541698D02*
X6903229Y-12551222D01*
X6903229Y-12551222D02*
X6893706Y-12570269D01*
X7246087Y-12655984D02*
X7246087Y-12455984D01*
X7331801Y-12655984D02*
X7331801Y-12551222D01*
X7331801Y-12551222D02*
X7322277Y-12532174D01*
X7322277Y-12532174D02*
X7303230Y-12522650D01*
X7303230Y-12522650D02*
X7274658Y-12522650D01*
X7274658Y-12522650D02*
X7255610Y-12532174D01*
X7255610Y-12532174D02*
X7246087Y-12541698D01*
X7455610Y-12655984D02*
X7436563Y-12646460D01*
X7436563Y-12646460D02*
X7427039Y-12636936D01*
X7427039Y-12636936D02*
X7417515Y-12617888D01*
X7417515Y-12617888D02*
X7417515Y-12560746D01*
X7417515Y-12560746D02*
X7427039Y-12541698D01*
X7427039Y-12541698D02*
X7436563Y-12532174D01*
X7436563Y-12532174D02*
X7455610Y-12522650D01*
X7455610Y-12522650D02*
X7484182Y-12522650D01*
X7484182Y-12522650D02*
X7503230Y-12532174D01*
X7503230Y-12532174D02*
X7512753Y-12541698D01*
X7512753Y-12541698D02*
X7522277Y-12560746D01*
X7522277Y-12560746D02*
X7522277Y-12617888D01*
X7522277Y-12617888D02*
X7512753Y-12636936D01*
X7512753Y-12636936D02*
X7503230Y-12646460D01*
X7503230Y-12646460D02*
X7484182Y-12655984D01*
X7484182Y-12655984D02*
X7455610Y-12655984D01*
X7636563Y-12655984D02*
X7617515Y-12646460D01*
X7617515Y-12646460D02*
X7607991Y-12627412D01*
X7607991Y-12627412D02*
X7607991Y-12455984D01*
X7788944Y-12646460D02*
X7769896Y-12655984D01*
X7769896Y-12655984D02*
X7731801Y-12655984D01*
X7731801Y-12655984D02*
X7712753Y-12646460D01*
X7712753Y-12646460D02*
X7703230Y-12627412D01*
X7703230Y-12627412D02*
X7703230Y-12551222D01*
X7703230Y-12551222D02*
X7712753Y-12532174D01*
X7712753Y-12532174D02*
X7731801Y-12522650D01*
X7731801Y-12522650D02*
X7769896Y-12522650D01*
X7769896Y-12522650D02*
X7788944Y-12532174D01*
X7788944Y-12532174D02*
X7798468Y-12551222D01*
X7798468Y-12551222D02*
X7798468Y-12570269D01*
X7798468Y-12570269D02*
X7703230Y-12589317D01*
X7874658Y-12646460D02*
X7893706Y-12655984D01*
X7893706Y-12655984D02*
X7931801Y-12655984D01*
X7931801Y-12655984D02*
X7950849Y-12646460D01*
X7950849Y-12646460D02*
X7960372Y-12627412D01*
X7960372Y-12627412D02*
X7960372Y-12617888D01*
X7960372Y-12617888D02*
X7950849Y-12598841D01*
X7950849Y-12598841D02*
X7931801Y-12589317D01*
X7931801Y-12589317D02*
X7903230Y-12589317D01*
X7903230Y-12589317D02*
X7884182Y-12579793D01*
X7884182Y-12579793D02*
X7874658Y-12560746D01*
X7874658Y-12560746D02*
X7874658Y-12551222D01*
X7874658Y-12551222D02*
X7884182Y-12532174D01*
X7884182Y-12532174D02*
X7903230Y-12522650D01*
X7903230Y-12522650D02*
X7931801Y-12522650D01*
X7931801Y-12522650D02*
X7950849Y-12532174D01*
X8027039Y-12732174D02*
X8036563Y-12722650D01*
X8036563Y-12722650D02*
X8055611Y-12694079D01*
X8055611Y-12694079D02*
X8065134Y-12675031D01*
X8065134Y-12675031D02*
X8074658Y-12646460D01*
X8074658Y-12646460D02*
X8084182Y-12598841D01*
X8084182Y-12598841D02*
X8084182Y-12560746D01*
X8084182Y-12560746D02*
X8074658Y-12513127D01*
X8074658Y-12513127D02*
X8065134Y-12484555D01*
X8065134Y-12484555D02*
X8055611Y-12465508D01*
X8055611Y-12465508D02*
X8036563Y-12436936D01*
X8036563Y-12436936D02*
X8027039Y-12427412D01*
D13*
X3061500Y-12828500D02*
G75*
G03*
X3061500Y-12828500I-37500J0D01*
G01*
D11*
X3360372Y-12719984D02*
X3379420Y-12719984D01*
X3379420Y-12719984D02*
X3398467Y-12729508D01*
X3398467Y-12729508D02*
X3407991Y-12739031D01*
X3407991Y-12739031D02*
X3417515Y-12758079D01*
X3417515Y-12758079D02*
X3427039Y-12796174D01*
X3427039Y-12796174D02*
X3427039Y-12843793D01*
X3427039Y-12843793D02*
X3417515Y-12881888D01*
X3417515Y-12881888D02*
X3407991Y-12900936D01*
X3407991Y-12900936D02*
X3398467Y-12910460D01*
X3398467Y-12910460D02*
X3379420Y-12919984D01*
X3379420Y-12919984D02*
X3360372Y-12919984D01*
X3360372Y-12919984D02*
X3341324Y-12910460D01*
X3341324Y-12910460D02*
X3331801Y-12900936D01*
X3331801Y-12900936D02*
X3322277Y-12881888D01*
X3322277Y-12881888D02*
X3312753Y-12843793D01*
X3312753Y-12843793D02*
X3312753Y-12796174D01*
X3312753Y-12796174D02*
X3322277Y-12758079D01*
X3322277Y-12758079D02*
X3331801Y-12739031D01*
X3331801Y-12739031D02*
X3341324Y-12729508D01*
X3341324Y-12729508D02*
X3360372Y-12719984D01*
X3512753Y-12900936D02*
X3522277Y-12910460D01*
X3522277Y-12910460D02*
X3512753Y-12919984D01*
X3512753Y-12919984D02*
X3503229Y-12910460D01*
X3503229Y-12910460D02*
X3512753Y-12900936D01*
X3512753Y-12900936D02*
X3512753Y-12919984D01*
X3588943Y-12719984D02*
X3722277Y-12719984D01*
X3722277Y-12719984D02*
X3636562Y-12919984D01*
X3893705Y-12719984D02*
X3798467Y-12719984D01*
X3798467Y-12719984D02*
X3788943Y-12815222D01*
X3788943Y-12815222D02*
X3798467Y-12805698D01*
X3798467Y-12805698D02*
X3817515Y-12796174D01*
X3817515Y-12796174D02*
X3865134Y-12796174D01*
X3865134Y-12796174D02*
X3884182Y-12805698D01*
X3884182Y-12805698D02*
X3893705Y-12815222D01*
X3893705Y-12815222D02*
X3903229Y-12834269D01*
X3903229Y-12834269D02*
X3903229Y-12881888D01*
X3903229Y-12881888D02*
X3893705Y-12900936D01*
X3893705Y-12900936D02*
X3884182Y-12910460D01*
X3884182Y-12910460D02*
X3865134Y-12919984D01*
X3865134Y-12919984D02*
X3817515Y-12919984D01*
X3817515Y-12919984D02*
X3798467Y-12910460D01*
X3798467Y-12910460D02*
X3788943Y-12900936D01*
X4027039Y-12719984D02*
X4046086Y-12719984D01*
X4046086Y-12719984D02*
X4065134Y-12729508D01*
X4065134Y-12729508D02*
X4074658Y-12739031D01*
X4074658Y-12739031D02*
X4084182Y-12758079D01*
X4084182Y-12758079D02*
X4093705Y-12796174D01*
X4093705Y-12796174D02*
X4093705Y-12843793D01*
X4093705Y-12843793D02*
X4084182Y-12881888D01*
X4084182Y-12881888D02*
X4074658Y-12900936D01*
X4074658Y-12900936D02*
X4065134Y-12910460D01*
X4065134Y-12910460D02*
X4046086Y-12919984D01*
X4046086Y-12919984D02*
X4027039Y-12919984D01*
X4027039Y-12919984D02*
X4007991Y-12910460D01*
X4007991Y-12910460D02*
X3998467Y-12900936D01*
X3998467Y-12900936D02*
X3988943Y-12881888D01*
X3988943Y-12881888D02*
X3979420Y-12843793D01*
X3979420Y-12843793D02*
X3979420Y-12796174D01*
X3979420Y-12796174D02*
X3988943Y-12758079D01*
X3988943Y-12758079D02*
X3998467Y-12739031D01*
X3998467Y-12739031D02*
X4007991Y-12729508D01*
X4007991Y-12729508D02*
X4027039Y-12719984D01*
X4179420Y-12919984D02*
X4179420Y-12786650D01*
X4179420Y-12805698D02*
X4188943Y-12796174D01*
X4188943Y-12796174D02*
X4207991Y-12786650D01*
X4207991Y-12786650D02*
X4236563Y-12786650D01*
X4236563Y-12786650D02*
X4255610Y-12796174D01*
X4255610Y-12796174D02*
X4265134Y-12815222D01*
X4265134Y-12815222D02*
X4265134Y-12919984D01*
X4265134Y-12815222D02*
X4274658Y-12796174D01*
X4274658Y-12796174D02*
X4293705Y-12786650D01*
X4293705Y-12786650D02*
X4322277Y-12786650D01*
X4322277Y-12786650D02*
X4341325Y-12796174D01*
X4341325Y-12796174D02*
X4350848Y-12815222D01*
X4350848Y-12815222D02*
X4350848Y-12919984D01*
X4446086Y-12919984D02*
X4446086Y-12786650D01*
X4446086Y-12805698D02*
X4455610Y-12796174D01*
X4455610Y-12796174D02*
X4474658Y-12786650D01*
X4474658Y-12786650D02*
X4503229Y-12786650D01*
X4503229Y-12786650D02*
X4522277Y-12796174D01*
X4522277Y-12796174D02*
X4531801Y-12815222D01*
X4531801Y-12815222D02*
X4531801Y-12919984D01*
X4531801Y-12815222D02*
X4541325Y-12796174D01*
X4541325Y-12796174D02*
X4560372Y-12786650D01*
X4560372Y-12786650D02*
X4588944Y-12786650D01*
X4588944Y-12786650D02*
X4607991Y-12796174D01*
X4607991Y-12796174D02*
X4617515Y-12815222D01*
X4617515Y-12815222D02*
X4617515Y-12919984D01*
X5007991Y-12710460D02*
X4836563Y-12967603D01*
X5265134Y-12719984D02*
X5284182Y-12719984D01*
X5284182Y-12719984D02*
X5303229Y-12729508D01*
X5303229Y-12729508D02*
X5312753Y-12739031D01*
X5312753Y-12739031D02*
X5322277Y-12758079D01*
X5322277Y-12758079D02*
X5331801Y-12796174D01*
X5331801Y-12796174D02*
X5331801Y-12843793D01*
X5331801Y-12843793D02*
X5322277Y-12881888D01*
X5322277Y-12881888D02*
X5312753Y-12900936D01*
X5312753Y-12900936D02*
X5303229Y-12910460D01*
X5303229Y-12910460D02*
X5284182Y-12919984D01*
X5284182Y-12919984D02*
X5265134Y-12919984D01*
X5265134Y-12919984D02*
X5246087Y-12910460D01*
X5246087Y-12910460D02*
X5236563Y-12900936D01*
X5236563Y-12900936D02*
X5227039Y-12881888D01*
X5227039Y-12881888D02*
X5217515Y-12843793D01*
X5217515Y-12843793D02*
X5217515Y-12796174D01*
X5217515Y-12796174D02*
X5227039Y-12758079D01*
X5227039Y-12758079D02*
X5236563Y-12739031D01*
X5236563Y-12739031D02*
X5246087Y-12729508D01*
X5246087Y-12729508D02*
X5265134Y-12719984D01*
X5417515Y-12900936D02*
X5427039Y-12910460D01*
X5427039Y-12910460D02*
X5417515Y-12919984D01*
X5417515Y-12919984D02*
X5407991Y-12910460D01*
X5407991Y-12910460D02*
X5417515Y-12900936D01*
X5417515Y-12900936D02*
X5417515Y-12919984D01*
X5550848Y-12719984D02*
X5569896Y-12719984D01*
X5569896Y-12719984D02*
X5588944Y-12729508D01*
X5588944Y-12729508D02*
X5598467Y-12739031D01*
X5598467Y-12739031D02*
X5607991Y-12758079D01*
X5607991Y-12758079D02*
X5617515Y-12796174D01*
X5617515Y-12796174D02*
X5617515Y-12843793D01*
X5617515Y-12843793D02*
X5607991Y-12881888D01*
X5607991Y-12881888D02*
X5598467Y-12900936D01*
X5598467Y-12900936D02*
X5588944Y-12910460D01*
X5588944Y-12910460D02*
X5569896Y-12919984D01*
X5569896Y-12919984D02*
X5550848Y-12919984D01*
X5550848Y-12919984D02*
X5531801Y-12910460D01*
X5531801Y-12910460D02*
X5522277Y-12900936D01*
X5522277Y-12900936D02*
X5512753Y-12881888D01*
X5512753Y-12881888D02*
X5503229Y-12843793D01*
X5503229Y-12843793D02*
X5503229Y-12796174D01*
X5503229Y-12796174D02*
X5512753Y-12758079D01*
X5512753Y-12758079D02*
X5522277Y-12739031D01*
X5522277Y-12739031D02*
X5531801Y-12729508D01*
X5531801Y-12729508D02*
X5550848Y-12719984D01*
X5693706Y-12739031D02*
X5703229Y-12729508D01*
X5703229Y-12729508D02*
X5722277Y-12719984D01*
X5722277Y-12719984D02*
X5769896Y-12719984D01*
X5769896Y-12719984D02*
X5788944Y-12729508D01*
X5788944Y-12729508D02*
X5798467Y-12739031D01*
X5798467Y-12739031D02*
X5807991Y-12758079D01*
X5807991Y-12758079D02*
X5807991Y-12777127D01*
X5807991Y-12777127D02*
X5798467Y-12805698D01*
X5798467Y-12805698D02*
X5684182Y-12919984D01*
X5684182Y-12919984D02*
X5807991Y-12919984D01*
X5903229Y-12919984D02*
X5941325Y-12919984D01*
X5941325Y-12919984D02*
X5960372Y-12910460D01*
X5960372Y-12910460D02*
X5969896Y-12900936D01*
X5969896Y-12900936D02*
X5988944Y-12872365D01*
X5988944Y-12872365D02*
X5998467Y-12834269D01*
X5998467Y-12834269D02*
X5998467Y-12758079D01*
X5998467Y-12758079D02*
X5988944Y-12739031D01*
X5988944Y-12739031D02*
X5979420Y-12729508D01*
X5979420Y-12729508D02*
X5960372Y-12719984D01*
X5960372Y-12719984D02*
X5922277Y-12719984D01*
X5922277Y-12719984D02*
X5903229Y-12729508D01*
X5903229Y-12729508D02*
X5893706Y-12739031D01*
X5893706Y-12739031D02*
X5884182Y-12758079D01*
X5884182Y-12758079D02*
X5884182Y-12805698D01*
X5884182Y-12805698D02*
X5893706Y-12824746D01*
X5893706Y-12824746D02*
X5903229Y-12834269D01*
X5903229Y-12834269D02*
X5922277Y-12843793D01*
X5922277Y-12843793D02*
X5960372Y-12843793D01*
X5960372Y-12843793D02*
X5979420Y-12834269D01*
X5979420Y-12834269D02*
X5988944Y-12824746D01*
X5988944Y-12824746D02*
X5998467Y-12805698D01*
X6179420Y-12719984D02*
X6084182Y-12719984D01*
X6084182Y-12719984D02*
X6074658Y-12815222D01*
X6074658Y-12815222D02*
X6084182Y-12805698D01*
X6084182Y-12805698D02*
X6103229Y-12796174D01*
X6103229Y-12796174D02*
X6150848Y-12796174D01*
X6150848Y-12796174D02*
X6169896Y-12805698D01*
X6169896Y-12805698D02*
X6179420Y-12815222D01*
X6179420Y-12815222D02*
X6188944Y-12834269D01*
X6188944Y-12834269D02*
X6188944Y-12881888D01*
X6188944Y-12881888D02*
X6179420Y-12900936D01*
X6179420Y-12900936D02*
X6169896Y-12910460D01*
X6169896Y-12910460D02*
X6150848Y-12919984D01*
X6150848Y-12919984D02*
X6103229Y-12919984D01*
X6103229Y-12919984D02*
X6084182Y-12910460D01*
X6084182Y-12910460D02*
X6074658Y-12900936D01*
X6265134Y-12719984D02*
X6265134Y-12758079D01*
X6341325Y-12719984D02*
X6341325Y-12758079D01*
X6636563Y-12996174D02*
X6627039Y-12986650D01*
X6627039Y-12986650D02*
X6607991Y-12958079D01*
X6607991Y-12958079D02*
X6598468Y-12939031D01*
X6598468Y-12939031D02*
X6588944Y-12910460D01*
X6588944Y-12910460D02*
X6579420Y-12862841D01*
X6579420Y-12862841D02*
X6579420Y-12824746D01*
X6579420Y-12824746D02*
X6588944Y-12777127D01*
X6588944Y-12777127D02*
X6598468Y-12748555D01*
X6598468Y-12748555D02*
X6607991Y-12729508D01*
X6607991Y-12729508D02*
X6627039Y-12700936D01*
X6627039Y-12700936D02*
X6636563Y-12691412D01*
X6817515Y-12919984D02*
X6703229Y-12919984D01*
X6760372Y-12919984D02*
X6760372Y-12719984D01*
X6760372Y-12719984D02*
X6741325Y-12748555D01*
X6741325Y-12748555D02*
X6722277Y-12767603D01*
X6722277Y-12767603D02*
X6703229Y-12777127D01*
X6893706Y-12739031D02*
X6903229Y-12729508D01*
X6903229Y-12729508D02*
X6922277Y-12719984D01*
X6922277Y-12719984D02*
X6969896Y-12719984D01*
X6969896Y-12719984D02*
X6988944Y-12729508D01*
X6988944Y-12729508D02*
X6998468Y-12739031D01*
X6998468Y-12739031D02*
X7007991Y-12758079D01*
X7007991Y-12758079D02*
X7007991Y-12777127D01*
X7007991Y-12777127D02*
X6998468Y-12805698D01*
X6998468Y-12805698D02*
X6884182Y-12919984D01*
X6884182Y-12919984D02*
X7007991Y-12919984D01*
X7246087Y-12919984D02*
X7246087Y-12719984D01*
X7331801Y-12919984D02*
X7331801Y-12815222D01*
X7331801Y-12815222D02*
X7322277Y-12796174D01*
X7322277Y-12796174D02*
X7303230Y-12786650D01*
X7303230Y-12786650D02*
X7274658Y-12786650D01*
X7274658Y-12786650D02*
X7255610Y-12796174D01*
X7255610Y-12796174D02*
X7246087Y-12805698D01*
X7455610Y-12919984D02*
X7436563Y-12910460D01*
X7436563Y-12910460D02*
X7427039Y-12900936D01*
X7427039Y-12900936D02*
X7417515Y-12881888D01*
X7417515Y-12881888D02*
X7417515Y-12824746D01*
X7417515Y-12824746D02*
X7427039Y-12805698D01*
X7427039Y-12805698D02*
X7436563Y-12796174D01*
X7436563Y-12796174D02*
X7455610Y-12786650D01*
X7455610Y-12786650D02*
X7484182Y-12786650D01*
X7484182Y-12786650D02*
X7503230Y-12796174D01*
X7503230Y-12796174D02*
X7512753Y-12805698D01*
X7512753Y-12805698D02*
X7522277Y-12824746D01*
X7522277Y-12824746D02*
X7522277Y-12881888D01*
X7522277Y-12881888D02*
X7512753Y-12900936D01*
X7512753Y-12900936D02*
X7503230Y-12910460D01*
X7503230Y-12910460D02*
X7484182Y-12919984D01*
X7484182Y-12919984D02*
X7455610Y-12919984D01*
X7636563Y-12919984D02*
X7617515Y-12910460D01*
X7617515Y-12910460D02*
X7607991Y-12891412D01*
X7607991Y-12891412D02*
X7607991Y-12719984D01*
X7788944Y-12910460D02*
X7769896Y-12919984D01*
X7769896Y-12919984D02*
X7731801Y-12919984D01*
X7731801Y-12919984D02*
X7712753Y-12910460D01*
X7712753Y-12910460D02*
X7703230Y-12891412D01*
X7703230Y-12891412D02*
X7703230Y-12815222D01*
X7703230Y-12815222D02*
X7712753Y-12796174D01*
X7712753Y-12796174D02*
X7731801Y-12786650D01*
X7731801Y-12786650D02*
X7769896Y-12786650D01*
X7769896Y-12786650D02*
X7788944Y-12796174D01*
X7788944Y-12796174D02*
X7798468Y-12815222D01*
X7798468Y-12815222D02*
X7798468Y-12834269D01*
X7798468Y-12834269D02*
X7703230Y-12853317D01*
X7874658Y-12910460D02*
X7893706Y-12919984D01*
X7893706Y-12919984D02*
X7931801Y-12919984D01*
X7931801Y-12919984D02*
X7950849Y-12910460D01*
X7950849Y-12910460D02*
X7960372Y-12891412D01*
X7960372Y-12891412D02*
X7960372Y-12881888D01*
X7960372Y-12881888D02*
X7950849Y-12862841D01*
X7950849Y-12862841D02*
X7931801Y-12853317D01*
X7931801Y-12853317D02*
X7903230Y-12853317D01*
X7903230Y-12853317D02*
X7884182Y-12843793D01*
X7884182Y-12843793D02*
X7874658Y-12824746D01*
X7874658Y-12824746D02*
X7874658Y-12815222D01*
X7874658Y-12815222D02*
X7884182Y-12796174D01*
X7884182Y-12796174D02*
X7903230Y-12786650D01*
X7903230Y-12786650D02*
X7931801Y-12786650D01*
X7931801Y-12786650D02*
X7950849Y-12796174D01*
X8027039Y-12996174D02*
X8036563Y-12986650D01*
X8036563Y-12986650D02*
X8055611Y-12958079D01*
X8055611Y-12958079D02*
X8065134Y-12939031D01*
X8065134Y-12939031D02*
X8074658Y-12910460D01*
X8074658Y-12910460D02*
X8084182Y-12862841D01*
X8084182Y-12862841D02*
X8084182Y-12824746D01*
X8084182Y-12824746D02*
X8074658Y-12777127D01*
X8074658Y-12777127D02*
X8065134Y-12748555D01*
X8065134Y-12748555D02*
X8055611Y-12729508D01*
X8055611Y-12729508D02*
X8036563Y-12700936D01*
X8036563Y-12700936D02*
X8027039Y-12691412D01*
D14*
X3023500Y-13054500D02*
X3023500Y-13130500D01*
X2985500Y-13092500D02*
X3061500Y-13092500D01*
D11*
X3360372Y-12983984D02*
X3379420Y-12983984D01*
X3379420Y-12983984D02*
X3398467Y-12993508D01*
X3398467Y-12993508D02*
X3407991Y-13003031D01*
X3407991Y-13003031D02*
X3417515Y-13022079D01*
X3417515Y-13022079D02*
X3427039Y-13060174D01*
X3427039Y-13060174D02*
X3427039Y-13107793D01*
X3427039Y-13107793D02*
X3417515Y-13145888D01*
X3417515Y-13145888D02*
X3407991Y-13164936D01*
X3407991Y-13164936D02*
X3398467Y-13174460D01*
X3398467Y-13174460D02*
X3379420Y-13183984D01*
X3379420Y-13183984D02*
X3360372Y-13183984D01*
X3360372Y-13183984D02*
X3341324Y-13174460D01*
X3341324Y-13174460D02*
X3331801Y-13164936D01*
X3331801Y-13164936D02*
X3322277Y-13145888D01*
X3322277Y-13145888D02*
X3312753Y-13107793D01*
X3312753Y-13107793D02*
X3312753Y-13060174D01*
X3312753Y-13060174D02*
X3322277Y-13022079D01*
X3322277Y-13022079D02*
X3331801Y-13003031D01*
X3331801Y-13003031D02*
X3341324Y-12993508D01*
X3341324Y-12993508D02*
X3360372Y-12983984D01*
X3512753Y-13164936D02*
X3522277Y-13174460D01*
X3522277Y-13174460D02*
X3512753Y-13183984D01*
X3512753Y-13183984D02*
X3503229Y-13174460D01*
X3503229Y-13174460D02*
X3512753Y-13164936D01*
X3512753Y-13164936D02*
X3512753Y-13183984D01*
X3588943Y-12983984D02*
X3722277Y-12983984D01*
X3722277Y-12983984D02*
X3636562Y-13183984D01*
X3884182Y-12983984D02*
X3846086Y-12983984D01*
X3846086Y-12983984D02*
X3827039Y-12993508D01*
X3827039Y-12993508D02*
X3817515Y-13003031D01*
X3817515Y-13003031D02*
X3798467Y-13031603D01*
X3798467Y-13031603D02*
X3788943Y-13069698D01*
X3788943Y-13069698D02*
X3788943Y-13145888D01*
X3788943Y-13145888D02*
X3798467Y-13164936D01*
X3798467Y-13164936D02*
X3807991Y-13174460D01*
X3807991Y-13174460D02*
X3827039Y-13183984D01*
X3827039Y-13183984D02*
X3865134Y-13183984D01*
X3865134Y-13183984D02*
X3884182Y-13174460D01*
X3884182Y-13174460D02*
X3893705Y-13164936D01*
X3893705Y-13164936D02*
X3903229Y-13145888D01*
X3903229Y-13145888D02*
X3903229Y-13098269D01*
X3903229Y-13098269D02*
X3893705Y-13079222D01*
X3893705Y-13079222D02*
X3884182Y-13069698D01*
X3884182Y-13069698D02*
X3865134Y-13060174D01*
X3865134Y-13060174D02*
X3827039Y-13060174D01*
X3827039Y-13060174D02*
X3807991Y-13069698D01*
X3807991Y-13069698D02*
X3798467Y-13079222D01*
X3798467Y-13079222D02*
X3788943Y-13098269D01*
X4027039Y-12983984D02*
X4046086Y-12983984D01*
X4046086Y-12983984D02*
X4065134Y-12993508D01*
X4065134Y-12993508D02*
X4074658Y-13003031D01*
X4074658Y-13003031D02*
X4084182Y-13022079D01*
X4084182Y-13022079D02*
X4093705Y-13060174D01*
X4093705Y-13060174D02*
X4093705Y-13107793D01*
X4093705Y-13107793D02*
X4084182Y-13145888D01*
X4084182Y-13145888D02*
X4074658Y-13164936D01*
X4074658Y-13164936D02*
X4065134Y-13174460D01*
X4065134Y-13174460D02*
X4046086Y-13183984D01*
X4046086Y-13183984D02*
X4027039Y-13183984D01*
X4027039Y-13183984D02*
X4007991Y-13174460D01*
X4007991Y-13174460D02*
X3998467Y-13164936D01*
X3998467Y-13164936D02*
X3988943Y-13145888D01*
X3988943Y-13145888D02*
X3979420Y-13107793D01*
X3979420Y-13107793D02*
X3979420Y-13060174D01*
X3979420Y-13060174D02*
X3988943Y-13022079D01*
X3988943Y-13022079D02*
X3998467Y-13003031D01*
X3998467Y-13003031D02*
X4007991Y-12993508D01*
X4007991Y-12993508D02*
X4027039Y-12983984D01*
X4179420Y-13183984D02*
X4179420Y-13050650D01*
X4179420Y-13069698D02*
X4188943Y-13060174D01*
X4188943Y-13060174D02*
X4207991Y-13050650D01*
X4207991Y-13050650D02*
X4236563Y-13050650D01*
X4236563Y-13050650D02*
X4255610Y-13060174D01*
X4255610Y-13060174D02*
X4265134Y-13079222D01*
X4265134Y-13079222D02*
X4265134Y-13183984D01*
X4265134Y-13079222D02*
X4274658Y-13060174D01*
X4274658Y-13060174D02*
X4293705Y-13050650D01*
X4293705Y-13050650D02*
X4322277Y-13050650D01*
X4322277Y-13050650D02*
X4341325Y-13060174D01*
X4341325Y-13060174D02*
X4350848Y-13079222D01*
X4350848Y-13079222D02*
X4350848Y-13183984D01*
X4446086Y-13183984D02*
X4446086Y-13050650D01*
X4446086Y-13069698D02*
X4455610Y-13060174D01*
X4455610Y-13060174D02*
X4474658Y-13050650D01*
X4474658Y-13050650D02*
X4503229Y-13050650D01*
X4503229Y-13050650D02*
X4522277Y-13060174D01*
X4522277Y-13060174D02*
X4531801Y-13079222D01*
X4531801Y-13079222D02*
X4531801Y-13183984D01*
X4531801Y-13079222D02*
X4541325Y-13060174D01*
X4541325Y-13060174D02*
X4560372Y-13050650D01*
X4560372Y-13050650D02*
X4588944Y-13050650D01*
X4588944Y-13050650D02*
X4607991Y-13060174D01*
X4607991Y-13060174D02*
X4617515Y-13079222D01*
X4617515Y-13079222D02*
X4617515Y-13183984D01*
X5007991Y-12974460D02*
X4836563Y-13231603D01*
X5265134Y-12983984D02*
X5284182Y-12983984D01*
X5284182Y-12983984D02*
X5303229Y-12993508D01*
X5303229Y-12993508D02*
X5312753Y-13003031D01*
X5312753Y-13003031D02*
X5322277Y-13022079D01*
X5322277Y-13022079D02*
X5331801Y-13060174D01*
X5331801Y-13060174D02*
X5331801Y-13107793D01*
X5331801Y-13107793D02*
X5322277Y-13145888D01*
X5322277Y-13145888D02*
X5312753Y-13164936D01*
X5312753Y-13164936D02*
X5303229Y-13174460D01*
X5303229Y-13174460D02*
X5284182Y-13183984D01*
X5284182Y-13183984D02*
X5265134Y-13183984D01*
X5265134Y-13183984D02*
X5246087Y-13174460D01*
X5246087Y-13174460D02*
X5236563Y-13164936D01*
X5236563Y-13164936D02*
X5227039Y-13145888D01*
X5227039Y-13145888D02*
X5217515Y-13107793D01*
X5217515Y-13107793D02*
X5217515Y-13060174D01*
X5217515Y-13060174D02*
X5227039Y-13022079D01*
X5227039Y-13022079D02*
X5236563Y-13003031D01*
X5236563Y-13003031D02*
X5246087Y-12993508D01*
X5246087Y-12993508D02*
X5265134Y-12983984D01*
X5417515Y-13164936D02*
X5427039Y-13174460D01*
X5427039Y-13174460D02*
X5417515Y-13183984D01*
X5417515Y-13183984D02*
X5407991Y-13174460D01*
X5407991Y-13174460D02*
X5417515Y-13164936D01*
X5417515Y-13164936D02*
X5417515Y-13183984D01*
X5550848Y-12983984D02*
X5569896Y-12983984D01*
X5569896Y-12983984D02*
X5588944Y-12993508D01*
X5588944Y-12993508D02*
X5598467Y-13003031D01*
X5598467Y-13003031D02*
X5607991Y-13022079D01*
X5607991Y-13022079D02*
X5617515Y-13060174D01*
X5617515Y-13060174D02*
X5617515Y-13107793D01*
X5617515Y-13107793D02*
X5607991Y-13145888D01*
X5607991Y-13145888D02*
X5598467Y-13164936D01*
X5598467Y-13164936D02*
X5588944Y-13174460D01*
X5588944Y-13174460D02*
X5569896Y-13183984D01*
X5569896Y-13183984D02*
X5550848Y-13183984D01*
X5550848Y-13183984D02*
X5531801Y-13174460D01*
X5531801Y-13174460D02*
X5522277Y-13164936D01*
X5522277Y-13164936D02*
X5512753Y-13145888D01*
X5512753Y-13145888D02*
X5503229Y-13107793D01*
X5503229Y-13107793D02*
X5503229Y-13060174D01*
X5503229Y-13060174D02*
X5512753Y-13022079D01*
X5512753Y-13022079D02*
X5522277Y-13003031D01*
X5522277Y-13003031D02*
X5531801Y-12993508D01*
X5531801Y-12993508D02*
X5550848Y-12983984D01*
X5693706Y-13003031D02*
X5703229Y-12993508D01*
X5703229Y-12993508D02*
X5722277Y-12983984D01*
X5722277Y-12983984D02*
X5769896Y-12983984D01*
X5769896Y-12983984D02*
X5788944Y-12993508D01*
X5788944Y-12993508D02*
X5798467Y-13003031D01*
X5798467Y-13003031D02*
X5807991Y-13022079D01*
X5807991Y-13022079D02*
X5807991Y-13041127D01*
X5807991Y-13041127D02*
X5798467Y-13069698D01*
X5798467Y-13069698D02*
X5684182Y-13183984D01*
X5684182Y-13183984D02*
X5807991Y-13183984D01*
X5903229Y-13183984D02*
X5941325Y-13183984D01*
X5941325Y-13183984D02*
X5960372Y-13174460D01*
X5960372Y-13174460D02*
X5969896Y-13164936D01*
X5969896Y-13164936D02*
X5988944Y-13136365D01*
X5988944Y-13136365D02*
X5998467Y-13098269D01*
X5998467Y-13098269D02*
X5998467Y-13022079D01*
X5998467Y-13022079D02*
X5988944Y-13003031D01*
X5988944Y-13003031D02*
X5979420Y-12993508D01*
X5979420Y-12993508D02*
X5960372Y-12983984D01*
X5960372Y-12983984D02*
X5922277Y-12983984D01*
X5922277Y-12983984D02*
X5903229Y-12993508D01*
X5903229Y-12993508D02*
X5893706Y-13003031D01*
X5893706Y-13003031D02*
X5884182Y-13022079D01*
X5884182Y-13022079D02*
X5884182Y-13069698D01*
X5884182Y-13069698D02*
X5893706Y-13088746D01*
X5893706Y-13088746D02*
X5903229Y-13098269D01*
X5903229Y-13098269D02*
X5922277Y-13107793D01*
X5922277Y-13107793D02*
X5960372Y-13107793D01*
X5960372Y-13107793D02*
X5979420Y-13098269D01*
X5979420Y-13098269D02*
X5988944Y-13088746D01*
X5988944Y-13088746D02*
X5998467Y-13069698D01*
X6093706Y-13183984D02*
X6131801Y-13183984D01*
X6131801Y-13183984D02*
X6150848Y-13174460D01*
X6150848Y-13174460D02*
X6160372Y-13164936D01*
X6160372Y-13164936D02*
X6179420Y-13136365D01*
X6179420Y-13136365D02*
X6188944Y-13098269D01*
X6188944Y-13098269D02*
X6188944Y-13022079D01*
X6188944Y-13022079D02*
X6179420Y-13003031D01*
X6179420Y-13003031D02*
X6169896Y-12993508D01*
X6169896Y-12993508D02*
X6150848Y-12983984D01*
X6150848Y-12983984D02*
X6112753Y-12983984D01*
X6112753Y-12983984D02*
X6093706Y-12993508D01*
X6093706Y-12993508D02*
X6084182Y-13003031D01*
X6084182Y-13003031D02*
X6074658Y-13022079D01*
X6074658Y-13022079D02*
X6074658Y-13069698D01*
X6074658Y-13069698D02*
X6084182Y-13088746D01*
X6084182Y-13088746D02*
X6093706Y-13098269D01*
X6093706Y-13098269D02*
X6112753Y-13107793D01*
X6112753Y-13107793D02*
X6150848Y-13107793D01*
X6150848Y-13107793D02*
X6169896Y-13098269D01*
X6169896Y-13098269D02*
X6179420Y-13088746D01*
X6179420Y-13088746D02*
X6188944Y-13069698D01*
X6265134Y-12983984D02*
X6265134Y-13022079D01*
X6341325Y-12983984D02*
X6341325Y-13022079D01*
X6636563Y-13260174D02*
X6627039Y-13250650D01*
X6627039Y-13250650D02*
X6607991Y-13222079D01*
X6607991Y-13222079D02*
X6598468Y-13203031D01*
X6598468Y-13203031D02*
X6588944Y-13174460D01*
X6588944Y-13174460D02*
X6579420Y-13126841D01*
X6579420Y-13126841D02*
X6579420Y-13088746D01*
X6579420Y-13088746D02*
X6588944Y-13041127D01*
X6588944Y-13041127D02*
X6598468Y-13012555D01*
X6598468Y-13012555D02*
X6607991Y-12993508D01*
X6607991Y-12993508D02*
X6627039Y-12964936D01*
X6627039Y-12964936D02*
X6636563Y-12955412D01*
X6817515Y-13183984D02*
X6703229Y-13183984D01*
X6760372Y-13183984D02*
X6760372Y-12983984D01*
X6760372Y-12983984D02*
X6741325Y-13012555D01*
X6741325Y-13012555D02*
X6722277Y-13031603D01*
X6722277Y-13031603D02*
X6703229Y-13041127D01*
X6988944Y-12983984D02*
X6950848Y-12983984D01*
X6950848Y-12983984D02*
X6931801Y-12993508D01*
X6931801Y-12993508D02*
X6922277Y-13003031D01*
X6922277Y-13003031D02*
X6903229Y-13031603D01*
X6903229Y-13031603D02*
X6893706Y-13069698D01*
X6893706Y-13069698D02*
X6893706Y-13145888D01*
X6893706Y-13145888D02*
X6903229Y-13164936D01*
X6903229Y-13164936D02*
X6912753Y-13174460D01*
X6912753Y-13174460D02*
X6931801Y-13183984D01*
X6931801Y-13183984D02*
X6969896Y-13183984D01*
X6969896Y-13183984D02*
X6988944Y-13174460D01*
X6988944Y-13174460D02*
X6998468Y-13164936D01*
X6998468Y-13164936D02*
X7007991Y-13145888D01*
X7007991Y-13145888D02*
X7007991Y-13098269D01*
X7007991Y-13098269D02*
X6998468Y-13079222D01*
X6998468Y-13079222D02*
X6988944Y-13069698D01*
X6988944Y-13069698D02*
X6969896Y-13060174D01*
X6969896Y-13060174D02*
X6931801Y-13060174D01*
X6931801Y-13060174D02*
X6912753Y-13069698D01*
X6912753Y-13069698D02*
X6903229Y-13079222D01*
X6903229Y-13079222D02*
X6893706Y-13098269D01*
X7246087Y-13183984D02*
X7246087Y-12983984D01*
X7331801Y-13183984D02*
X7331801Y-13079222D01*
X7331801Y-13079222D02*
X7322277Y-13060174D01*
X7322277Y-13060174D02*
X7303230Y-13050650D01*
X7303230Y-13050650D02*
X7274658Y-13050650D01*
X7274658Y-13050650D02*
X7255610Y-13060174D01*
X7255610Y-13060174D02*
X7246087Y-13069698D01*
X7455610Y-13183984D02*
X7436563Y-13174460D01*
X7436563Y-13174460D02*
X7427039Y-13164936D01*
X7427039Y-13164936D02*
X7417515Y-13145888D01*
X7417515Y-13145888D02*
X7417515Y-13088746D01*
X7417515Y-13088746D02*
X7427039Y-13069698D01*
X7427039Y-13069698D02*
X7436563Y-13060174D01*
X7436563Y-13060174D02*
X7455610Y-13050650D01*
X7455610Y-13050650D02*
X7484182Y-13050650D01*
X7484182Y-13050650D02*
X7503230Y-13060174D01*
X7503230Y-13060174D02*
X7512753Y-13069698D01*
X7512753Y-13069698D02*
X7522277Y-13088746D01*
X7522277Y-13088746D02*
X7522277Y-13145888D01*
X7522277Y-13145888D02*
X7512753Y-13164936D01*
X7512753Y-13164936D02*
X7503230Y-13174460D01*
X7503230Y-13174460D02*
X7484182Y-13183984D01*
X7484182Y-13183984D02*
X7455610Y-13183984D01*
X7636563Y-13183984D02*
X7617515Y-13174460D01*
X7617515Y-13174460D02*
X7607991Y-13155412D01*
X7607991Y-13155412D02*
X7607991Y-12983984D01*
X7788944Y-13174460D02*
X7769896Y-13183984D01*
X7769896Y-13183984D02*
X7731801Y-13183984D01*
X7731801Y-13183984D02*
X7712753Y-13174460D01*
X7712753Y-13174460D02*
X7703230Y-13155412D01*
X7703230Y-13155412D02*
X7703230Y-13079222D01*
X7703230Y-13079222D02*
X7712753Y-13060174D01*
X7712753Y-13060174D02*
X7731801Y-13050650D01*
X7731801Y-13050650D02*
X7769896Y-13050650D01*
X7769896Y-13050650D02*
X7788944Y-13060174D01*
X7788944Y-13060174D02*
X7798468Y-13079222D01*
X7798468Y-13079222D02*
X7798468Y-13098269D01*
X7798468Y-13098269D02*
X7703230Y-13117317D01*
X7874658Y-13174460D02*
X7893706Y-13183984D01*
X7893706Y-13183984D02*
X7931801Y-13183984D01*
X7931801Y-13183984D02*
X7950849Y-13174460D01*
X7950849Y-13174460D02*
X7960372Y-13155412D01*
X7960372Y-13155412D02*
X7960372Y-13145888D01*
X7960372Y-13145888D02*
X7950849Y-13126841D01*
X7950849Y-13126841D02*
X7931801Y-13117317D01*
X7931801Y-13117317D02*
X7903230Y-13117317D01*
X7903230Y-13117317D02*
X7884182Y-13107793D01*
X7884182Y-13107793D02*
X7874658Y-13088746D01*
X7874658Y-13088746D02*
X7874658Y-13079222D01*
X7874658Y-13079222D02*
X7884182Y-13060174D01*
X7884182Y-13060174D02*
X7903230Y-13050650D01*
X7903230Y-13050650D02*
X7931801Y-13050650D01*
X7931801Y-13050650D02*
X7950849Y-13060174D01*
X8027039Y-13260174D02*
X8036563Y-13250650D01*
X8036563Y-13250650D02*
X8055611Y-13222079D01*
X8055611Y-13222079D02*
X8065134Y-13203031D01*
X8065134Y-13203031D02*
X8074658Y-13174460D01*
X8074658Y-13174460D02*
X8084182Y-13126841D01*
X8084182Y-13126841D02*
X8084182Y-13088746D01*
X8084182Y-13088746D02*
X8074658Y-13041127D01*
X8074658Y-13041127D02*
X8065134Y-13012555D01*
X8065134Y-13012555D02*
X8055611Y-12993508D01*
X8055611Y-12993508D02*
X8036563Y-12964936D01*
X8036563Y-12964936D02*
X8027039Y-12955412D01*
D15*
X3050341Y-13383441D02*
X3050341Y-13329559D01*
X2996459Y-13329559D01*
X2996459Y-13383441D01*
X3050341Y-13383441D01*
D11*
X3360372Y-13247984D02*
X3379420Y-13247984D01*
X3379420Y-13247984D02*
X3398467Y-13257508D01*
X3398467Y-13257508D02*
X3407991Y-13267031D01*
X3407991Y-13267031D02*
X3417515Y-13286079D01*
X3417515Y-13286079D02*
X3427039Y-13324174D01*
X3427039Y-13324174D02*
X3427039Y-13371793D01*
X3427039Y-13371793D02*
X3417515Y-13409888D01*
X3417515Y-13409888D02*
X3407991Y-13428936D01*
X3407991Y-13428936D02*
X3398467Y-13438460D01*
X3398467Y-13438460D02*
X3379420Y-13447984D01*
X3379420Y-13447984D02*
X3360372Y-13447984D01*
X3360372Y-13447984D02*
X3341324Y-13438460D01*
X3341324Y-13438460D02*
X3331801Y-13428936D01*
X3331801Y-13428936D02*
X3322277Y-13409888D01*
X3322277Y-13409888D02*
X3312753Y-13371793D01*
X3312753Y-13371793D02*
X3312753Y-13324174D01*
X3312753Y-13324174D02*
X3322277Y-13286079D01*
X3322277Y-13286079D02*
X3331801Y-13267031D01*
X3331801Y-13267031D02*
X3341324Y-13257508D01*
X3341324Y-13257508D02*
X3360372Y-13247984D01*
X3512753Y-13428936D02*
X3522277Y-13438460D01*
X3522277Y-13438460D02*
X3512753Y-13447984D01*
X3512753Y-13447984D02*
X3503229Y-13438460D01*
X3503229Y-13438460D02*
X3512753Y-13428936D01*
X3512753Y-13428936D02*
X3512753Y-13447984D01*
X3588943Y-13247984D02*
X3722277Y-13247984D01*
X3722277Y-13247984D02*
X3636562Y-13447984D01*
X3884182Y-13247984D02*
X3846086Y-13247984D01*
X3846086Y-13247984D02*
X3827039Y-13257508D01*
X3827039Y-13257508D02*
X3817515Y-13267031D01*
X3817515Y-13267031D02*
X3798467Y-13295603D01*
X3798467Y-13295603D02*
X3788943Y-13333698D01*
X3788943Y-13333698D02*
X3788943Y-13409888D01*
X3788943Y-13409888D02*
X3798467Y-13428936D01*
X3798467Y-13428936D02*
X3807991Y-13438460D01*
X3807991Y-13438460D02*
X3827039Y-13447984D01*
X3827039Y-13447984D02*
X3865134Y-13447984D01*
X3865134Y-13447984D02*
X3884182Y-13438460D01*
X3884182Y-13438460D02*
X3893705Y-13428936D01*
X3893705Y-13428936D02*
X3903229Y-13409888D01*
X3903229Y-13409888D02*
X3903229Y-13362269D01*
X3903229Y-13362269D02*
X3893705Y-13343222D01*
X3893705Y-13343222D02*
X3884182Y-13333698D01*
X3884182Y-13333698D02*
X3865134Y-13324174D01*
X3865134Y-13324174D02*
X3827039Y-13324174D01*
X3827039Y-13324174D02*
X3807991Y-13333698D01*
X3807991Y-13333698D02*
X3798467Y-13343222D01*
X3798467Y-13343222D02*
X3788943Y-13362269D01*
X3979420Y-13267031D02*
X3988943Y-13257508D01*
X3988943Y-13257508D02*
X4007991Y-13247984D01*
X4007991Y-13247984D02*
X4055610Y-13247984D01*
X4055610Y-13247984D02*
X4074658Y-13257508D01*
X4074658Y-13257508D02*
X4084182Y-13267031D01*
X4084182Y-13267031D02*
X4093705Y-13286079D01*
X4093705Y-13286079D02*
X4093705Y-13305127D01*
X4093705Y-13305127D02*
X4084182Y-13333698D01*
X4084182Y-13333698D02*
X3969896Y-13447984D01*
X3969896Y-13447984D02*
X4093705Y-13447984D01*
X4179420Y-13447984D02*
X4179420Y-13314650D01*
X4179420Y-13333698D02*
X4188943Y-13324174D01*
X4188943Y-13324174D02*
X4207991Y-13314650D01*
X4207991Y-13314650D02*
X4236563Y-13314650D01*
X4236563Y-13314650D02*
X4255610Y-13324174D01*
X4255610Y-13324174D02*
X4265134Y-13343222D01*
X4265134Y-13343222D02*
X4265134Y-13447984D01*
X4265134Y-13343222D02*
X4274658Y-13324174D01*
X4274658Y-13324174D02*
X4293705Y-13314650D01*
X4293705Y-13314650D02*
X4322277Y-13314650D01*
X4322277Y-13314650D02*
X4341325Y-13324174D01*
X4341325Y-13324174D02*
X4350848Y-13343222D01*
X4350848Y-13343222D02*
X4350848Y-13447984D01*
X4446086Y-13447984D02*
X4446086Y-13314650D01*
X4446086Y-13333698D02*
X4455610Y-13324174D01*
X4455610Y-13324174D02*
X4474658Y-13314650D01*
X4474658Y-13314650D02*
X4503229Y-13314650D01*
X4503229Y-13314650D02*
X4522277Y-13324174D01*
X4522277Y-13324174D02*
X4531801Y-13343222D01*
X4531801Y-13343222D02*
X4531801Y-13447984D01*
X4531801Y-13343222D02*
X4541325Y-13324174D01*
X4541325Y-13324174D02*
X4560372Y-13314650D01*
X4560372Y-13314650D02*
X4588944Y-13314650D01*
X4588944Y-13314650D02*
X4607991Y-13324174D01*
X4607991Y-13324174D02*
X4617515Y-13343222D01*
X4617515Y-13343222D02*
X4617515Y-13447984D01*
X5007991Y-13238460D02*
X4836563Y-13495603D01*
X5265134Y-13247984D02*
X5284182Y-13247984D01*
X5284182Y-13247984D02*
X5303229Y-13257508D01*
X5303229Y-13257508D02*
X5312753Y-13267031D01*
X5312753Y-13267031D02*
X5322277Y-13286079D01*
X5322277Y-13286079D02*
X5331801Y-13324174D01*
X5331801Y-13324174D02*
X5331801Y-13371793D01*
X5331801Y-13371793D02*
X5322277Y-13409888D01*
X5322277Y-13409888D02*
X5312753Y-13428936D01*
X5312753Y-13428936D02*
X5303229Y-13438460D01*
X5303229Y-13438460D02*
X5284182Y-13447984D01*
X5284182Y-13447984D02*
X5265134Y-13447984D01*
X5265134Y-13447984D02*
X5246087Y-13438460D01*
X5246087Y-13438460D02*
X5236563Y-13428936D01*
X5236563Y-13428936D02*
X5227039Y-13409888D01*
X5227039Y-13409888D02*
X5217515Y-13371793D01*
X5217515Y-13371793D02*
X5217515Y-13324174D01*
X5217515Y-13324174D02*
X5227039Y-13286079D01*
X5227039Y-13286079D02*
X5236563Y-13267031D01*
X5236563Y-13267031D02*
X5246087Y-13257508D01*
X5246087Y-13257508D02*
X5265134Y-13247984D01*
X5417515Y-13428936D02*
X5427039Y-13438460D01*
X5427039Y-13438460D02*
X5417515Y-13447984D01*
X5417515Y-13447984D02*
X5407991Y-13438460D01*
X5407991Y-13438460D02*
X5417515Y-13428936D01*
X5417515Y-13428936D02*
X5417515Y-13447984D01*
X5550848Y-13247984D02*
X5569896Y-13247984D01*
X5569896Y-13247984D02*
X5588944Y-13257508D01*
X5588944Y-13257508D02*
X5598467Y-13267031D01*
X5598467Y-13267031D02*
X5607991Y-13286079D01*
X5607991Y-13286079D02*
X5617515Y-13324174D01*
X5617515Y-13324174D02*
X5617515Y-13371793D01*
X5617515Y-13371793D02*
X5607991Y-13409888D01*
X5607991Y-13409888D02*
X5598467Y-13428936D01*
X5598467Y-13428936D02*
X5588944Y-13438460D01*
X5588944Y-13438460D02*
X5569896Y-13447984D01*
X5569896Y-13447984D02*
X5550848Y-13447984D01*
X5550848Y-13447984D02*
X5531801Y-13438460D01*
X5531801Y-13438460D02*
X5522277Y-13428936D01*
X5522277Y-13428936D02*
X5512753Y-13409888D01*
X5512753Y-13409888D02*
X5503229Y-13371793D01*
X5503229Y-13371793D02*
X5503229Y-13324174D01*
X5503229Y-13324174D02*
X5512753Y-13286079D01*
X5512753Y-13286079D02*
X5522277Y-13267031D01*
X5522277Y-13267031D02*
X5531801Y-13257508D01*
X5531801Y-13257508D02*
X5550848Y-13247984D01*
X5684182Y-13247984D02*
X5807991Y-13247984D01*
X5807991Y-13247984D02*
X5741325Y-13324174D01*
X5741325Y-13324174D02*
X5769896Y-13324174D01*
X5769896Y-13324174D02*
X5788944Y-13333698D01*
X5788944Y-13333698D02*
X5798467Y-13343222D01*
X5798467Y-13343222D02*
X5807991Y-13362269D01*
X5807991Y-13362269D02*
X5807991Y-13409888D01*
X5807991Y-13409888D02*
X5798467Y-13428936D01*
X5798467Y-13428936D02*
X5788944Y-13438460D01*
X5788944Y-13438460D02*
X5769896Y-13447984D01*
X5769896Y-13447984D02*
X5712753Y-13447984D01*
X5712753Y-13447984D02*
X5693706Y-13438460D01*
X5693706Y-13438460D02*
X5684182Y-13428936D01*
X5931801Y-13247984D02*
X5950848Y-13247984D01*
X5950848Y-13247984D02*
X5969896Y-13257508D01*
X5969896Y-13257508D02*
X5979420Y-13267031D01*
X5979420Y-13267031D02*
X5988944Y-13286079D01*
X5988944Y-13286079D02*
X5998467Y-13324174D01*
X5998467Y-13324174D02*
X5998467Y-13371793D01*
X5998467Y-13371793D02*
X5988944Y-13409888D01*
X5988944Y-13409888D02*
X5979420Y-13428936D01*
X5979420Y-13428936D02*
X5969896Y-13438460D01*
X5969896Y-13438460D02*
X5950848Y-13447984D01*
X5950848Y-13447984D02*
X5931801Y-13447984D01*
X5931801Y-13447984D02*
X5912753Y-13438460D01*
X5912753Y-13438460D02*
X5903229Y-13428936D01*
X5903229Y-13428936D02*
X5893706Y-13409888D01*
X5893706Y-13409888D02*
X5884182Y-13371793D01*
X5884182Y-13371793D02*
X5884182Y-13324174D01*
X5884182Y-13324174D02*
X5893706Y-13286079D01*
X5893706Y-13286079D02*
X5903229Y-13267031D01*
X5903229Y-13267031D02*
X5912753Y-13257508D01*
X5912753Y-13257508D02*
X5931801Y-13247984D01*
X6122277Y-13247984D02*
X6141325Y-13247984D01*
X6141325Y-13247984D02*
X6160372Y-13257508D01*
X6160372Y-13257508D02*
X6169896Y-13267031D01*
X6169896Y-13267031D02*
X6179420Y-13286079D01*
X6179420Y-13286079D02*
X6188944Y-13324174D01*
X6188944Y-13324174D02*
X6188944Y-13371793D01*
X6188944Y-13371793D02*
X6179420Y-13409888D01*
X6179420Y-13409888D02*
X6169896Y-13428936D01*
X6169896Y-13428936D02*
X6160372Y-13438460D01*
X6160372Y-13438460D02*
X6141325Y-13447984D01*
X6141325Y-13447984D02*
X6122277Y-13447984D01*
X6122277Y-13447984D02*
X6103229Y-13438460D01*
X6103229Y-13438460D02*
X6093706Y-13428936D01*
X6093706Y-13428936D02*
X6084182Y-13409888D01*
X6084182Y-13409888D02*
X6074658Y-13371793D01*
X6074658Y-13371793D02*
X6074658Y-13324174D01*
X6074658Y-13324174D02*
X6084182Y-13286079D01*
X6084182Y-13286079D02*
X6093706Y-13267031D01*
X6093706Y-13267031D02*
X6103229Y-13257508D01*
X6103229Y-13257508D02*
X6122277Y-13247984D01*
X6265134Y-13247984D02*
X6265134Y-13286079D01*
X6341325Y-13247984D02*
X6341325Y-13286079D01*
X6636563Y-13524174D02*
X6627039Y-13514650D01*
X6627039Y-13514650D02*
X6607991Y-13486079D01*
X6607991Y-13486079D02*
X6598468Y-13467031D01*
X6598468Y-13467031D02*
X6588944Y-13438460D01*
X6588944Y-13438460D02*
X6579420Y-13390841D01*
X6579420Y-13390841D02*
X6579420Y-13352746D01*
X6579420Y-13352746D02*
X6588944Y-13305127D01*
X6588944Y-13305127D02*
X6598468Y-13276555D01*
X6598468Y-13276555D02*
X6607991Y-13257508D01*
X6607991Y-13257508D02*
X6627039Y-13228936D01*
X6627039Y-13228936D02*
X6636563Y-13219412D01*
X6703229Y-13267031D02*
X6712753Y-13257508D01*
X6712753Y-13257508D02*
X6731801Y-13247984D01*
X6731801Y-13247984D02*
X6779420Y-13247984D01*
X6779420Y-13247984D02*
X6798468Y-13257508D01*
X6798468Y-13257508D02*
X6807991Y-13267031D01*
X6807991Y-13267031D02*
X6817515Y-13286079D01*
X6817515Y-13286079D02*
X6817515Y-13305127D01*
X6817515Y-13305127D02*
X6807991Y-13333698D01*
X6807991Y-13333698D02*
X6693706Y-13447984D01*
X6693706Y-13447984D02*
X6817515Y-13447984D01*
X6988944Y-13314650D02*
X6988944Y-13447984D01*
X6941325Y-13238460D02*
X6893706Y-13381317D01*
X6893706Y-13381317D02*
X7017515Y-13381317D01*
X7246087Y-13447984D02*
X7246087Y-13247984D01*
X7331801Y-13447984D02*
X7331801Y-13343222D01*
X7331801Y-13343222D02*
X7322277Y-13324174D01*
X7322277Y-13324174D02*
X7303230Y-13314650D01*
X7303230Y-13314650D02*
X7274658Y-13314650D01*
X7274658Y-13314650D02*
X7255610Y-13324174D01*
X7255610Y-13324174D02*
X7246087Y-13333698D01*
X7455610Y-13447984D02*
X7436563Y-13438460D01*
X7436563Y-13438460D02*
X7427039Y-13428936D01*
X7427039Y-13428936D02*
X7417515Y-13409888D01*
X7417515Y-13409888D02*
X7417515Y-13352746D01*
X7417515Y-13352746D02*
X7427039Y-13333698D01*
X7427039Y-13333698D02*
X7436563Y-13324174D01*
X7436563Y-13324174D02*
X7455610Y-13314650D01*
X7455610Y-13314650D02*
X7484182Y-13314650D01*
X7484182Y-13314650D02*
X7503230Y-13324174D01*
X7503230Y-13324174D02*
X7512753Y-13333698D01*
X7512753Y-13333698D02*
X7522277Y-13352746D01*
X7522277Y-13352746D02*
X7522277Y-13409888D01*
X7522277Y-13409888D02*
X7512753Y-13428936D01*
X7512753Y-13428936D02*
X7503230Y-13438460D01*
X7503230Y-13438460D02*
X7484182Y-13447984D01*
X7484182Y-13447984D02*
X7455610Y-13447984D01*
X7636563Y-13447984D02*
X7617515Y-13438460D01*
X7617515Y-13438460D02*
X7607991Y-13419412D01*
X7607991Y-13419412D02*
X7607991Y-13247984D01*
X7788944Y-13438460D02*
X7769896Y-13447984D01*
X7769896Y-13447984D02*
X7731801Y-13447984D01*
X7731801Y-13447984D02*
X7712753Y-13438460D01*
X7712753Y-13438460D02*
X7703230Y-13419412D01*
X7703230Y-13419412D02*
X7703230Y-13343222D01*
X7703230Y-13343222D02*
X7712753Y-13324174D01*
X7712753Y-13324174D02*
X7731801Y-13314650D01*
X7731801Y-13314650D02*
X7769896Y-13314650D01*
X7769896Y-13314650D02*
X7788944Y-13324174D01*
X7788944Y-13324174D02*
X7798468Y-13343222D01*
X7798468Y-13343222D02*
X7798468Y-13362269D01*
X7798468Y-13362269D02*
X7703230Y-13381317D01*
X7874658Y-13438460D02*
X7893706Y-13447984D01*
X7893706Y-13447984D02*
X7931801Y-13447984D01*
X7931801Y-13447984D02*
X7950849Y-13438460D01*
X7950849Y-13438460D02*
X7960372Y-13419412D01*
X7960372Y-13419412D02*
X7960372Y-13409888D01*
X7960372Y-13409888D02*
X7950849Y-13390841D01*
X7950849Y-13390841D02*
X7931801Y-13381317D01*
X7931801Y-13381317D02*
X7903230Y-13381317D01*
X7903230Y-13381317D02*
X7884182Y-13371793D01*
X7884182Y-13371793D02*
X7874658Y-13352746D01*
X7874658Y-13352746D02*
X7874658Y-13343222D01*
X7874658Y-13343222D02*
X7884182Y-13324174D01*
X7884182Y-13324174D02*
X7903230Y-13314650D01*
X7903230Y-13314650D02*
X7931801Y-13314650D01*
X7931801Y-13314650D02*
X7950849Y-13324174D01*
X8027039Y-13524174D02*
X8036563Y-13514650D01*
X8036563Y-13514650D02*
X8055611Y-13486079D01*
X8055611Y-13486079D02*
X8065134Y-13467031D01*
X8065134Y-13467031D02*
X8074658Y-13438460D01*
X8074658Y-13438460D02*
X8084182Y-13390841D01*
X8084182Y-13390841D02*
X8084182Y-13352746D01*
X8084182Y-13352746D02*
X8074658Y-13305127D01*
X8074658Y-13305127D02*
X8065134Y-13276555D01*
X8065134Y-13276555D02*
X8055611Y-13257508D01*
X8055611Y-13257508D02*
X8036563Y-13228936D01*
X8036563Y-13228936D02*
X8027039Y-13219412D01*
D16*
X3021500Y-13660500D02*
X3061500Y-13620500D01*
X3021500Y-13580500D01*
X2981500Y-13620500D01*
X3021500Y-13660500D01*
D11*
X3360372Y-13511984D02*
X3379420Y-13511984D01*
X3379420Y-13511984D02*
X3398467Y-13521508D01*
X3398467Y-13521508D02*
X3407991Y-13531031D01*
X3407991Y-13531031D02*
X3417515Y-13550079D01*
X3417515Y-13550079D02*
X3427039Y-13588174D01*
X3427039Y-13588174D02*
X3427039Y-13635793D01*
X3427039Y-13635793D02*
X3417515Y-13673888D01*
X3417515Y-13673888D02*
X3407991Y-13692936D01*
X3407991Y-13692936D02*
X3398467Y-13702460D01*
X3398467Y-13702460D02*
X3379420Y-13711984D01*
X3379420Y-13711984D02*
X3360372Y-13711984D01*
X3360372Y-13711984D02*
X3341324Y-13702460D01*
X3341324Y-13702460D02*
X3331801Y-13692936D01*
X3331801Y-13692936D02*
X3322277Y-13673888D01*
X3322277Y-13673888D02*
X3312753Y-13635793D01*
X3312753Y-13635793D02*
X3312753Y-13588174D01*
X3312753Y-13588174D02*
X3322277Y-13550079D01*
X3322277Y-13550079D02*
X3331801Y-13531031D01*
X3331801Y-13531031D02*
X3341324Y-13521508D01*
X3341324Y-13521508D02*
X3360372Y-13511984D01*
X3512753Y-13692936D02*
X3522277Y-13702460D01*
X3522277Y-13702460D02*
X3512753Y-13711984D01*
X3512753Y-13711984D02*
X3503229Y-13702460D01*
X3503229Y-13702460D02*
X3512753Y-13692936D01*
X3512753Y-13692936D02*
X3512753Y-13711984D01*
X3636562Y-13597698D02*
X3617515Y-13588174D01*
X3617515Y-13588174D02*
X3607991Y-13578650D01*
X3607991Y-13578650D02*
X3598467Y-13559603D01*
X3598467Y-13559603D02*
X3598467Y-13550079D01*
X3598467Y-13550079D02*
X3607991Y-13531031D01*
X3607991Y-13531031D02*
X3617515Y-13521508D01*
X3617515Y-13521508D02*
X3636562Y-13511984D01*
X3636562Y-13511984D02*
X3674658Y-13511984D01*
X3674658Y-13511984D02*
X3693705Y-13521508D01*
X3693705Y-13521508D02*
X3703229Y-13531031D01*
X3703229Y-13531031D02*
X3712753Y-13550079D01*
X3712753Y-13550079D02*
X3712753Y-13559603D01*
X3712753Y-13559603D02*
X3703229Y-13578650D01*
X3703229Y-13578650D02*
X3693705Y-13588174D01*
X3693705Y-13588174D02*
X3674658Y-13597698D01*
X3674658Y-13597698D02*
X3636562Y-13597698D01*
X3636562Y-13597698D02*
X3617515Y-13607222D01*
X3617515Y-13607222D02*
X3607991Y-13616746D01*
X3607991Y-13616746D02*
X3598467Y-13635793D01*
X3598467Y-13635793D02*
X3598467Y-13673888D01*
X3598467Y-13673888D02*
X3607991Y-13692936D01*
X3607991Y-13692936D02*
X3617515Y-13702460D01*
X3617515Y-13702460D02*
X3636562Y-13711984D01*
X3636562Y-13711984D02*
X3674658Y-13711984D01*
X3674658Y-13711984D02*
X3693705Y-13702460D01*
X3693705Y-13702460D02*
X3703229Y-13692936D01*
X3703229Y-13692936D02*
X3712753Y-13673888D01*
X3712753Y-13673888D02*
X3712753Y-13635793D01*
X3712753Y-13635793D02*
X3703229Y-13616746D01*
X3703229Y-13616746D02*
X3693705Y-13607222D01*
X3693705Y-13607222D02*
X3674658Y-13597698D01*
X3836562Y-13511984D02*
X3855610Y-13511984D01*
X3855610Y-13511984D02*
X3874658Y-13521508D01*
X3874658Y-13521508D02*
X3884182Y-13531031D01*
X3884182Y-13531031D02*
X3893705Y-13550079D01*
X3893705Y-13550079D02*
X3903229Y-13588174D01*
X3903229Y-13588174D02*
X3903229Y-13635793D01*
X3903229Y-13635793D02*
X3893705Y-13673888D01*
X3893705Y-13673888D02*
X3884182Y-13692936D01*
X3884182Y-13692936D02*
X3874658Y-13702460D01*
X3874658Y-13702460D02*
X3855610Y-13711984D01*
X3855610Y-13711984D02*
X3836562Y-13711984D01*
X3836562Y-13711984D02*
X3817515Y-13702460D01*
X3817515Y-13702460D02*
X3807991Y-13692936D01*
X3807991Y-13692936D02*
X3798467Y-13673888D01*
X3798467Y-13673888D02*
X3788943Y-13635793D01*
X3788943Y-13635793D02*
X3788943Y-13588174D01*
X3788943Y-13588174D02*
X3798467Y-13550079D01*
X3798467Y-13550079D02*
X3807991Y-13531031D01*
X3807991Y-13531031D02*
X3817515Y-13521508D01*
X3817515Y-13521508D02*
X3836562Y-13511984D01*
X4027039Y-13511984D02*
X4046086Y-13511984D01*
X4046086Y-13511984D02*
X4065134Y-13521508D01*
X4065134Y-13521508D02*
X4074658Y-13531031D01*
X4074658Y-13531031D02*
X4084182Y-13550079D01*
X4084182Y-13550079D02*
X4093705Y-13588174D01*
X4093705Y-13588174D02*
X4093705Y-13635793D01*
X4093705Y-13635793D02*
X4084182Y-13673888D01*
X4084182Y-13673888D02*
X4074658Y-13692936D01*
X4074658Y-13692936D02*
X4065134Y-13702460D01*
X4065134Y-13702460D02*
X4046086Y-13711984D01*
X4046086Y-13711984D02*
X4027039Y-13711984D01*
X4027039Y-13711984D02*
X4007991Y-13702460D01*
X4007991Y-13702460D02*
X3998467Y-13692936D01*
X3998467Y-13692936D02*
X3988943Y-13673888D01*
X3988943Y-13673888D02*
X3979420Y-13635793D01*
X3979420Y-13635793D02*
X3979420Y-13588174D01*
X3979420Y-13588174D02*
X3988943Y-13550079D01*
X3988943Y-13550079D02*
X3998467Y-13531031D01*
X3998467Y-13531031D02*
X4007991Y-13521508D01*
X4007991Y-13521508D02*
X4027039Y-13511984D01*
X4179420Y-13711984D02*
X4179420Y-13578650D01*
X4179420Y-13597698D02*
X4188943Y-13588174D01*
X4188943Y-13588174D02*
X4207991Y-13578650D01*
X4207991Y-13578650D02*
X4236563Y-13578650D01*
X4236563Y-13578650D02*
X4255610Y-13588174D01*
X4255610Y-13588174D02*
X4265134Y-13607222D01*
X4265134Y-13607222D02*
X4265134Y-13711984D01*
X4265134Y-13607222D02*
X4274658Y-13588174D01*
X4274658Y-13588174D02*
X4293705Y-13578650D01*
X4293705Y-13578650D02*
X4322277Y-13578650D01*
X4322277Y-13578650D02*
X4341325Y-13588174D01*
X4341325Y-13588174D02*
X4350848Y-13607222D01*
X4350848Y-13607222D02*
X4350848Y-13711984D01*
X4446086Y-13711984D02*
X4446086Y-13578650D01*
X4446086Y-13597698D02*
X4455610Y-13588174D01*
X4455610Y-13588174D02*
X4474658Y-13578650D01*
X4474658Y-13578650D02*
X4503229Y-13578650D01*
X4503229Y-13578650D02*
X4522277Y-13588174D01*
X4522277Y-13588174D02*
X4531801Y-13607222D01*
X4531801Y-13607222D02*
X4531801Y-13711984D01*
X4531801Y-13607222D02*
X4541325Y-13588174D01*
X4541325Y-13588174D02*
X4560372Y-13578650D01*
X4560372Y-13578650D02*
X4588944Y-13578650D01*
X4588944Y-13578650D02*
X4607991Y-13588174D01*
X4607991Y-13588174D02*
X4617515Y-13607222D01*
X4617515Y-13607222D02*
X4617515Y-13711984D01*
X5007991Y-13502460D02*
X4836563Y-13759603D01*
X5265134Y-13511984D02*
X5284182Y-13511984D01*
X5284182Y-13511984D02*
X5303229Y-13521508D01*
X5303229Y-13521508D02*
X5312753Y-13531031D01*
X5312753Y-13531031D02*
X5322277Y-13550079D01*
X5322277Y-13550079D02*
X5331801Y-13588174D01*
X5331801Y-13588174D02*
X5331801Y-13635793D01*
X5331801Y-13635793D02*
X5322277Y-13673888D01*
X5322277Y-13673888D02*
X5312753Y-13692936D01*
X5312753Y-13692936D02*
X5303229Y-13702460D01*
X5303229Y-13702460D02*
X5284182Y-13711984D01*
X5284182Y-13711984D02*
X5265134Y-13711984D01*
X5265134Y-13711984D02*
X5246087Y-13702460D01*
X5246087Y-13702460D02*
X5236563Y-13692936D01*
X5236563Y-13692936D02*
X5227039Y-13673888D01*
X5227039Y-13673888D02*
X5217515Y-13635793D01*
X5217515Y-13635793D02*
X5217515Y-13588174D01*
X5217515Y-13588174D02*
X5227039Y-13550079D01*
X5227039Y-13550079D02*
X5236563Y-13531031D01*
X5236563Y-13531031D02*
X5246087Y-13521508D01*
X5246087Y-13521508D02*
X5265134Y-13511984D01*
X5417515Y-13692936D02*
X5427039Y-13702460D01*
X5427039Y-13702460D02*
X5417515Y-13711984D01*
X5417515Y-13711984D02*
X5407991Y-13702460D01*
X5407991Y-13702460D02*
X5417515Y-13692936D01*
X5417515Y-13692936D02*
X5417515Y-13711984D01*
X5550848Y-13511984D02*
X5569896Y-13511984D01*
X5569896Y-13511984D02*
X5588944Y-13521508D01*
X5588944Y-13521508D02*
X5598467Y-13531031D01*
X5598467Y-13531031D02*
X5607991Y-13550079D01*
X5607991Y-13550079D02*
X5617515Y-13588174D01*
X5617515Y-13588174D02*
X5617515Y-13635793D01*
X5617515Y-13635793D02*
X5607991Y-13673888D01*
X5607991Y-13673888D02*
X5598467Y-13692936D01*
X5598467Y-13692936D02*
X5588944Y-13702460D01*
X5588944Y-13702460D02*
X5569896Y-13711984D01*
X5569896Y-13711984D02*
X5550848Y-13711984D01*
X5550848Y-13711984D02*
X5531801Y-13702460D01*
X5531801Y-13702460D02*
X5522277Y-13692936D01*
X5522277Y-13692936D02*
X5512753Y-13673888D01*
X5512753Y-13673888D02*
X5503229Y-13635793D01*
X5503229Y-13635793D02*
X5503229Y-13588174D01*
X5503229Y-13588174D02*
X5512753Y-13550079D01*
X5512753Y-13550079D02*
X5522277Y-13531031D01*
X5522277Y-13531031D02*
X5531801Y-13521508D01*
X5531801Y-13521508D02*
X5550848Y-13511984D01*
X5684182Y-13511984D02*
X5807991Y-13511984D01*
X5807991Y-13511984D02*
X5741325Y-13588174D01*
X5741325Y-13588174D02*
X5769896Y-13588174D01*
X5769896Y-13588174D02*
X5788944Y-13597698D01*
X5788944Y-13597698D02*
X5798467Y-13607222D01*
X5798467Y-13607222D02*
X5807991Y-13626269D01*
X5807991Y-13626269D02*
X5807991Y-13673888D01*
X5807991Y-13673888D02*
X5798467Y-13692936D01*
X5798467Y-13692936D02*
X5788944Y-13702460D01*
X5788944Y-13702460D02*
X5769896Y-13711984D01*
X5769896Y-13711984D02*
X5712753Y-13711984D01*
X5712753Y-13711984D02*
X5693706Y-13702460D01*
X5693706Y-13702460D02*
X5684182Y-13692936D01*
X5998467Y-13711984D02*
X5884182Y-13711984D01*
X5941325Y-13711984D02*
X5941325Y-13511984D01*
X5941325Y-13511984D02*
X5922277Y-13540555D01*
X5922277Y-13540555D02*
X5903229Y-13559603D01*
X5903229Y-13559603D02*
X5884182Y-13569127D01*
X6179420Y-13511984D02*
X6084182Y-13511984D01*
X6084182Y-13511984D02*
X6074658Y-13607222D01*
X6074658Y-13607222D02*
X6084182Y-13597698D01*
X6084182Y-13597698D02*
X6103229Y-13588174D01*
X6103229Y-13588174D02*
X6150848Y-13588174D01*
X6150848Y-13588174D02*
X6169896Y-13597698D01*
X6169896Y-13597698D02*
X6179420Y-13607222D01*
X6179420Y-13607222D02*
X6188944Y-13626269D01*
X6188944Y-13626269D02*
X6188944Y-13673888D01*
X6188944Y-13673888D02*
X6179420Y-13692936D01*
X6179420Y-13692936D02*
X6169896Y-13702460D01*
X6169896Y-13702460D02*
X6150848Y-13711984D01*
X6150848Y-13711984D02*
X6103229Y-13711984D01*
X6103229Y-13711984D02*
X6084182Y-13702460D01*
X6084182Y-13702460D02*
X6074658Y-13692936D01*
X6265134Y-13511984D02*
X6265134Y-13550079D01*
X6341325Y-13511984D02*
X6341325Y-13550079D01*
X6636563Y-13788174D02*
X6627039Y-13778650D01*
X6627039Y-13778650D02*
X6607991Y-13750079D01*
X6607991Y-13750079D02*
X6598468Y-13731031D01*
X6598468Y-13731031D02*
X6588944Y-13702460D01*
X6588944Y-13702460D02*
X6579420Y-13654841D01*
X6579420Y-13654841D02*
X6579420Y-13616746D01*
X6579420Y-13616746D02*
X6588944Y-13569127D01*
X6588944Y-13569127D02*
X6598468Y-13540555D01*
X6598468Y-13540555D02*
X6607991Y-13521508D01*
X6607991Y-13521508D02*
X6627039Y-13492936D01*
X6627039Y-13492936D02*
X6636563Y-13483412D01*
X6807991Y-13511984D02*
X6712753Y-13511984D01*
X6712753Y-13511984D02*
X6703229Y-13607222D01*
X6703229Y-13607222D02*
X6712753Y-13597698D01*
X6712753Y-13597698D02*
X6731801Y-13588174D01*
X6731801Y-13588174D02*
X6779420Y-13588174D01*
X6779420Y-13588174D02*
X6798468Y-13597698D01*
X6798468Y-13597698D02*
X6807991Y-13607222D01*
X6807991Y-13607222D02*
X6817515Y-13626269D01*
X6817515Y-13626269D02*
X6817515Y-13673888D01*
X6817515Y-13673888D02*
X6807991Y-13692936D01*
X6807991Y-13692936D02*
X6798468Y-13702460D01*
X6798468Y-13702460D02*
X6779420Y-13711984D01*
X6779420Y-13711984D02*
X6731801Y-13711984D01*
X6731801Y-13711984D02*
X6712753Y-13702460D01*
X6712753Y-13702460D02*
X6703229Y-13692936D01*
X6893706Y-13531031D02*
X6903229Y-13521508D01*
X6903229Y-13521508D02*
X6922277Y-13511984D01*
X6922277Y-13511984D02*
X6969896Y-13511984D01*
X6969896Y-13511984D02*
X6988944Y-13521508D01*
X6988944Y-13521508D02*
X6998468Y-13531031D01*
X6998468Y-13531031D02*
X7007991Y-13550079D01*
X7007991Y-13550079D02*
X7007991Y-13569127D01*
X7007991Y-13569127D02*
X6998468Y-13597698D01*
X6998468Y-13597698D02*
X6884182Y-13711984D01*
X6884182Y-13711984D02*
X7007991Y-13711984D01*
X7246087Y-13711984D02*
X7246087Y-13511984D01*
X7331801Y-13711984D02*
X7331801Y-13607222D01*
X7331801Y-13607222D02*
X7322277Y-13588174D01*
X7322277Y-13588174D02*
X7303230Y-13578650D01*
X7303230Y-13578650D02*
X7274658Y-13578650D01*
X7274658Y-13578650D02*
X7255610Y-13588174D01*
X7255610Y-13588174D02*
X7246087Y-13597698D01*
X7455610Y-13711984D02*
X7436563Y-13702460D01*
X7436563Y-13702460D02*
X7427039Y-13692936D01*
X7427039Y-13692936D02*
X7417515Y-13673888D01*
X7417515Y-13673888D02*
X7417515Y-13616746D01*
X7417515Y-13616746D02*
X7427039Y-13597698D01*
X7427039Y-13597698D02*
X7436563Y-13588174D01*
X7436563Y-13588174D02*
X7455610Y-13578650D01*
X7455610Y-13578650D02*
X7484182Y-13578650D01*
X7484182Y-13578650D02*
X7503230Y-13588174D01*
X7503230Y-13588174D02*
X7512753Y-13597698D01*
X7512753Y-13597698D02*
X7522277Y-13616746D01*
X7522277Y-13616746D02*
X7522277Y-13673888D01*
X7522277Y-13673888D02*
X7512753Y-13692936D01*
X7512753Y-13692936D02*
X7503230Y-13702460D01*
X7503230Y-13702460D02*
X7484182Y-13711984D01*
X7484182Y-13711984D02*
X7455610Y-13711984D01*
X7636563Y-13711984D02*
X7617515Y-13702460D01*
X7617515Y-13702460D02*
X7607991Y-13683412D01*
X7607991Y-13683412D02*
X7607991Y-13511984D01*
X7788944Y-13702460D02*
X7769896Y-13711984D01*
X7769896Y-13711984D02*
X7731801Y-13711984D01*
X7731801Y-13711984D02*
X7712753Y-13702460D01*
X7712753Y-13702460D02*
X7703230Y-13683412D01*
X7703230Y-13683412D02*
X7703230Y-13607222D01*
X7703230Y-13607222D02*
X7712753Y-13588174D01*
X7712753Y-13588174D02*
X7731801Y-13578650D01*
X7731801Y-13578650D02*
X7769896Y-13578650D01*
X7769896Y-13578650D02*
X7788944Y-13588174D01*
X7788944Y-13588174D02*
X7798468Y-13607222D01*
X7798468Y-13607222D02*
X7798468Y-13626269D01*
X7798468Y-13626269D02*
X7703230Y-13645317D01*
X7874658Y-13702460D02*
X7893706Y-13711984D01*
X7893706Y-13711984D02*
X7931801Y-13711984D01*
X7931801Y-13711984D02*
X7950849Y-13702460D01*
X7950849Y-13702460D02*
X7960372Y-13683412D01*
X7960372Y-13683412D02*
X7960372Y-13673888D01*
X7960372Y-13673888D02*
X7950849Y-13654841D01*
X7950849Y-13654841D02*
X7931801Y-13645317D01*
X7931801Y-13645317D02*
X7903230Y-13645317D01*
X7903230Y-13645317D02*
X7884182Y-13635793D01*
X7884182Y-13635793D02*
X7874658Y-13616746D01*
X7874658Y-13616746D02*
X7874658Y-13607222D01*
X7874658Y-13607222D02*
X7884182Y-13588174D01*
X7884182Y-13588174D02*
X7903230Y-13578650D01*
X7903230Y-13578650D02*
X7931801Y-13578650D01*
X7931801Y-13578650D02*
X7950849Y-13588174D01*
X8027039Y-13788174D02*
X8036563Y-13778650D01*
X8036563Y-13778650D02*
X8055611Y-13750079D01*
X8055611Y-13750079D02*
X8065134Y-13731031D01*
X8065134Y-13731031D02*
X8074658Y-13702460D01*
X8074658Y-13702460D02*
X8084182Y-13654841D01*
X8084182Y-13654841D02*
X8084182Y-13616746D01*
X8084182Y-13616746D02*
X8074658Y-13569127D01*
X8074658Y-13569127D02*
X8065134Y-13540555D01*
X8065134Y-13540555D02*
X8055611Y-13521508D01*
X8055611Y-13521508D02*
X8036563Y-13492936D01*
X8036563Y-13492936D02*
X8027039Y-13483412D01*
D17*
X2961500Y-13834500D02*
X3061500Y-13934500D01*
X3061500Y-13834500D02*
X2961500Y-13934500D01*
X3061500Y-13884500D02*
G75*
G03*
X3061500Y-13884500I-50000J0D01*
G01*
D11*
X3427039Y-13975984D02*
X3312753Y-13975984D01*
X3369896Y-13975984D02*
X3369896Y-13775984D01*
X3369896Y-13775984D02*
X3350848Y-13804555D01*
X3350848Y-13804555D02*
X3331801Y-13823603D01*
X3331801Y-13823603D02*
X3312753Y-13833127D01*
X3512753Y-13956936D02*
X3522277Y-13966460D01*
X3522277Y-13966460D02*
X3512753Y-13975984D01*
X3512753Y-13975984D02*
X3503229Y-13966460D01*
X3503229Y-13966460D02*
X3512753Y-13956936D01*
X3512753Y-13956936D02*
X3512753Y-13975984D01*
X3646086Y-13775984D02*
X3665134Y-13775984D01*
X3665134Y-13775984D02*
X3684182Y-13785508D01*
X3684182Y-13785508D02*
X3693705Y-13795031D01*
X3693705Y-13795031D02*
X3703229Y-13814079D01*
X3703229Y-13814079D02*
X3712753Y-13852174D01*
X3712753Y-13852174D02*
X3712753Y-13899793D01*
X3712753Y-13899793D02*
X3703229Y-13937888D01*
X3703229Y-13937888D02*
X3693705Y-13956936D01*
X3693705Y-13956936D02*
X3684182Y-13966460D01*
X3684182Y-13966460D02*
X3665134Y-13975984D01*
X3665134Y-13975984D02*
X3646086Y-13975984D01*
X3646086Y-13975984D02*
X3627039Y-13966460D01*
X3627039Y-13966460D02*
X3617515Y-13956936D01*
X3617515Y-13956936D02*
X3607991Y-13937888D01*
X3607991Y-13937888D02*
X3598467Y-13899793D01*
X3598467Y-13899793D02*
X3598467Y-13852174D01*
X3598467Y-13852174D02*
X3607991Y-13814079D01*
X3607991Y-13814079D02*
X3617515Y-13795031D01*
X3617515Y-13795031D02*
X3627039Y-13785508D01*
X3627039Y-13785508D02*
X3646086Y-13775984D01*
X3836562Y-13775984D02*
X3855610Y-13775984D01*
X3855610Y-13775984D02*
X3874658Y-13785508D01*
X3874658Y-13785508D02*
X3884182Y-13795031D01*
X3884182Y-13795031D02*
X3893705Y-13814079D01*
X3893705Y-13814079D02*
X3903229Y-13852174D01*
X3903229Y-13852174D02*
X3903229Y-13899793D01*
X3903229Y-13899793D02*
X3893705Y-13937888D01*
X3893705Y-13937888D02*
X3884182Y-13956936D01*
X3884182Y-13956936D02*
X3874658Y-13966460D01*
X3874658Y-13966460D02*
X3855610Y-13975984D01*
X3855610Y-13975984D02*
X3836562Y-13975984D01*
X3836562Y-13975984D02*
X3817515Y-13966460D01*
X3817515Y-13966460D02*
X3807991Y-13956936D01*
X3807991Y-13956936D02*
X3798467Y-13937888D01*
X3798467Y-13937888D02*
X3788943Y-13899793D01*
X3788943Y-13899793D02*
X3788943Y-13852174D01*
X3788943Y-13852174D02*
X3798467Y-13814079D01*
X3798467Y-13814079D02*
X3807991Y-13795031D01*
X3807991Y-13795031D02*
X3817515Y-13785508D01*
X3817515Y-13785508D02*
X3836562Y-13775984D01*
X4027039Y-13775984D02*
X4046086Y-13775984D01*
X4046086Y-13775984D02*
X4065134Y-13785508D01*
X4065134Y-13785508D02*
X4074658Y-13795031D01*
X4074658Y-13795031D02*
X4084182Y-13814079D01*
X4084182Y-13814079D02*
X4093705Y-13852174D01*
X4093705Y-13852174D02*
X4093705Y-13899793D01*
X4093705Y-13899793D02*
X4084182Y-13937888D01*
X4084182Y-13937888D02*
X4074658Y-13956936D01*
X4074658Y-13956936D02*
X4065134Y-13966460D01*
X4065134Y-13966460D02*
X4046086Y-13975984D01*
X4046086Y-13975984D02*
X4027039Y-13975984D01*
X4027039Y-13975984D02*
X4007991Y-13966460D01*
X4007991Y-13966460D02*
X3998467Y-13956936D01*
X3998467Y-13956936D02*
X3988943Y-13937888D01*
X3988943Y-13937888D02*
X3979420Y-13899793D01*
X3979420Y-13899793D02*
X3979420Y-13852174D01*
X3979420Y-13852174D02*
X3988943Y-13814079D01*
X3988943Y-13814079D02*
X3998467Y-13795031D01*
X3998467Y-13795031D02*
X4007991Y-13785508D01*
X4007991Y-13785508D02*
X4027039Y-13775984D01*
X4179420Y-13975984D02*
X4179420Y-13842650D01*
X4179420Y-13861698D02*
X4188943Y-13852174D01*
X4188943Y-13852174D02*
X4207991Y-13842650D01*
X4207991Y-13842650D02*
X4236563Y-13842650D01*
X4236563Y-13842650D02*
X4255610Y-13852174D01*
X4255610Y-13852174D02*
X4265134Y-13871222D01*
X4265134Y-13871222D02*
X4265134Y-13975984D01*
X4265134Y-13871222D02*
X4274658Y-13852174D01*
X4274658Y-13852174D02*
X4293705Y-13842650D01*
X4293705Y-13842650D02*
X4322277Y-13842650D01*
X4322277Y-13842650D02*
X4341325Y-13852174D01*
X4341325Y-13852174D02*
X4350848Y-13871222D01*
X4350848Y-13871222D02*
X4350848Y-13975984D01*
X4446086Y-13975984D02*
X4446086Y-13842650D01*
X4446086Y-13861698D02*
X4455610Y-13852174D01*
X4455610Y-13852174D02*
X4474658Y-13842650D01*
X4474658Y-13842650D02*
X4503229Y-13842650D01*
X4503229Y-13842650D02*
X4522277Y-13852174D01*
X4522277Y-13852174D02*
X4531801Y-13871222D01*
X4531801Y-13871222D02*
X4531801Y-13975984D01*
X4531801Y-13871222D02*
X4541325Y-13852174D01*
X4541325Y-13852174D02*
X4560372Y-13842650D01*
X4560372Y-13842650D02*
X4588944Y-13842650D01*
X4588944Y-13842650D02*
X4607991Y-13852174D01*
X4607991Y-13852174D02*
X4617515Y-13871222D01*
X4617515Y-13871222D02*
X4617515Y-13975984D01*
X5007991Y-13766460D02*
X4836563Y-14023603D01*
X5265134Y-13775984D02*
X5284182Y-13775984D01*
X5284182Y-13775984D02*
X5303229Y-13785508D01*
X5303229Y-13785508D02*
X5312753Y-13795031D01*
X5312753Y-13795031D02*
X5322277Y-13814079D01*
X5322277Y-13814079D02*
X5331801Y-13852174D01*
X5331801Y-13852174D02*
X5331801Y-13899793D01*
X5331801Y-13899793D02*
X5322277Y-13937888D01*
X5322277Y-13937888D02*
X5312753Y-13956936D01*
X5312753Y-13956936D02*
X5303229Y-13966460D01*
X5303229Y-13966460D02*
X5284182Y-13975984D01*
X5284182Y-13975984D02*
X5265134Y-13975984D01*
X5265134Y-13975984D02*
X5246087Y-13966460D01*
X5246087Y-13966460D02*
X5236563Y-13956936D01*
X5236563Y-13956936D02*
X5227039Y-13937888D01*
X5227039Y-13937888D02*
X5217515Y-13899793D01*
X5217515Y-13899793D02*
X5217515Y-13852174D01*
X5217515Y-13852174D02*
X5227039Y-13814079D01*
X5227039Y-13814079D02*
X5236563Y-13795031D01*
X5236563Y-13795031D02*
X5246087Y-13785508D01*
X5246087Y-13785508D02*
X5265134Y-13775984D01*
X5417515Y-13956936D02*
X5427039Y-13966460D01*
X5427039Y-13966460D02*
X5417515Y-13975984D01*
X5417515Y-13975984D02*
X5407991Y-13966460D01*
X5407991Y-13966460D02*
X5417515Y-13956936D01*
X5417515Y-13956936D02*
X5417515Y-13975984D01*
X5550848Y-13775984D02*
X5569896Y-13775984D01*
X5569896Y-13775984D02*
X5588944Y-13785508D01*
X5588944Y-13785508D02*
X5598467Y-13795031D01*
X5598467Y-13795031D02*
X5607991Y-13814079D01*
X5607991Y-13814079D02*
X5617515Y-13852174D01*
X5617515Y-13852174D02*
X5617515Y-13899793D01*
X5617515Y-13899793D02*
X5607991Y-13937888D01*
X5607991Y-13937888D02*
X5598467Y-13956936D01*
X5598467Y-13956936D02*
X5588944Y-13966460D01*
X5588944Y-13966460D02*
X5569896Y-13975984D01*
X5569896Y-13975984D02*
X5550848Y-13975984D01*
X5550848Y-13975984D02*
X5531801Y-13966460D01*
X5531801Y-13966460D02*
X5522277Y-13956936D01*
X5522277Y-13956936D02*
X5512753Y-13937888D01*
X5512753Y-13937888D02*
X5503229Y-13899793D01*
X5503229Y-13899793D02*
X5503229Y-13852174D01*
X5503229Y-13852174D02*
X5512753Y-13814079D01*
X5512753Y-13814079D02*
X5522277Y-13795031D01*
X5522277Y-13795031D02*
X5531801Y-13785508D01*
X5531801Y-13785508D02*
X5550848Y-13775984D01*
X5684182Y-13775984D02*
X5807991Y-13775984D01*
X5807991Y-13775984D02*
X5741325Y-13852174D01*
X5741325Y-13852174D02*
X5769896Y-13852174D01*
X5769896Y-13852174D02*
X5788944Y-13861698D01*
X5788944Y-13861698D02*
X5798467Y-13871222D01*
X5798467Y-13871222D02*
X5807991Y-13890269D01*
X5807991Y-13890269D02*
X5807991Y-13937888D01*
X5807991Y-13937888D02*
X5798467Y-13956936D01*
X5798467Y-13956936D02*
X5788944Y-13966460D01*
X5788944Y-13966460D02*
X5769896Y-13975984D01*
X5769896Y-13975984D02*
X5712753Y-13975984D01*
X5712753Y-13975984D02*
X5693706Y-13966460D01*
X5693706Y-13966460D02*
X5684182Y-13956936D01*
X5903229Y-13975984D02*
X5941325Y-13975984D01*
X5941325Y-13975984D02*
X5960372Y-13966460D01*
X5960372Y-13966460D02*
X5969896Y-13956936D01*
X5969896Y-13956936D02*
X5988944Y-13928365D01*
X5988944Y-13928365D02*
X5998467Y-13890269D01*
X5998467Y-13890269D02*
X5998467Y-13814079D01*
X5998467Y-13814079D02*
X5988944Y-13795031D01*
X5988944Y-13795031D02*
X5979420Y-13785508D01*
X5979420Y-13785508D02*
X5960372Y-13775984D01*
X5960372Y-13775984D02*
X5922277Y-13775984D01*
X5922277Y-13775984D02*
X5903229Y-13785508D01*
X5903229Y-13785508D02*
X5893706Y-13795031D01*
X5893706Y-13795031D02*
X5884182Y-13814079D01*
X5884182Y-13814079D02*
X5884182Y-13861698D01*
X5884182Y-13861698D02*
X5893706Y-13880746D01*
X5893706Y-13880746D02*
X5903229Y-13890269D01*
X5903229Y-13890269D02*
X5922277Y-13899793D01*
X5922277Y-13899793D02*
X5960372Y-13899793D01*
X5960372Y-13899793D02*
X5979420Y-13890269D01*
X5979420Y-13890269D02*
X5988944Y-13880746D01*
X5988944Y-13880746D02*
X5998467Y-13861698D01*
X6169896Y-13842650D02*
X6169896Y-13975984D01*
X6122277Y-13766460D02*
X6074658Y-13909317D01*
X6074658Y-13909317D02*
X6198467Y-13909317D01*
X6265134Y-13775984D02*
X6265134Y-13814079D01*
X6341325Y-13775984D02*
X6341325Y-13814079D01*
X6636563Y-14052174D02*
X6627039Y-14042650D01*
X6627039Y-14042650D02*
X6607991Y-14014079D01*
X6607991Y-14014079D02*
X6598468Y-13995031D01*
X6598468Y-13995031D02*
X6588944Y-13966460D01*
X6588944Y-13966460D02*
X6579420Y-13918841D01*
X6579420Y-13918841D02*
X6579420Y-13880746D01*
X6579420Y-13880746D02*
X6588944Y-13833127D01*
X6588944Y-13833127D02*
X6598468Y-13804555D01*
X6598468Y-13804555D02*
X6607991Y-13785508D01*
X6607991Y-13785508D02*
X6627039Y-13756936D01*
X6627039Y-13756936D02*
X6636563Y-13747412D01*
X6741325Y-13861698D02*
X6722277Y-13852174D01*
X6722277Y-13852174D02*
X6712753Y-13842650D01*
X6712753Y-13842650D02*
X6703229Y-13823603D01*
X6703229Y-13823603D02*
X6703229Y-13814079D01*
X6703229Y-13814079D02*
X6712753Y-13795031D01*
X6712753Y-13795031D02*
X6722277Y-13785508D01*
X6722277Y-13785508D02*
X6741325Y-13775984D01*
X6741325Y-13775984D02*
X6779420Y-13775984D01*
X6779420Y-13775984D02*
X6798468Y-13785508D01*
X6798468Y-13785508D02*
X6807991Y-13795031D01*
X6807991Y-13795031D02*
X6817515Y-13814079D01*
X6817515Y-13814079D02*
X6817515Y-13823603D01*
X6817515Y-13823603D02*
X6807991Y-13842650D01*
X6807991Y-13842650D02*
X6798468Y-13852174D01*
X6798468Y-13852174D02*
X6779420Y-13861698D01*
X6779420Y-13861698D02*
X6741325Y-13861698D01*
X6741325Y-13861698D02*
X6722277Y-13871222D01*
X6722277Y-13871222D02*
X6712753Y-13880746D01*
X6712753Y-13880746D02*
X6703229Y-13899793D01*
X6703229Y-13899793D02*
X6703229Y-13937888D01*
X6703229Y-13937888D02*
X6712753Y-13956936D01*
X6712753Y-13956936D02*
X6722277Y-13966460D01*
X6722277Y-13966460D02*
X6741325Y-13975984D01*
X6741325Y-13975984D02*
X6779420Y-13975984D01*
X6779420Y-13975984D02*
X6798468Y-13966460D01*
X6798468Y-13966460D02*
X6807991Y-13956936D01*
X6807991Y-13956936D02*
X6817515Y-13937888D01*
X6817515Y-13937888D02*
X6817515Y-13899793D01*
X6817515Y-13899793D02*
X6807991Y-13880746D01*
X6807991Y-13880746D02*
X6798468Y-13871222D01*
X6798468Y-13871222D02*
X6779420Y-13861698D01*
X6941325Y-13775984D02*
X6960372Y-13775984D01*
X6960372Y-13775984D02*
X6979420Y-13785508D01*
X6979420Y-13785508D02*
X6988944Y-13795031D01*
X6988944Y-13795031D02*
X6998468Y-13814079D01*
X6998468Y-13814079D02*
X7007991Y-13852174D01*
X7007991Y-13852174D02*
X7007991Y-13899793D01*
X7007991Y-13899793D02*
X6998468Y-13937888D01*
X6998468Y-13937888D02*
X6988944Y-13956936D01*
X6988944Y-13956936D02*
X6979420Y-13966460D01*
X6979420Y-13966460D02*
X6960372Y-13975984D01*
X6960372Y-13975984D02*
X6941325Y-13975984D01*
X6941325Y-13975984D02*
X6922277Y-13966460D01*
X6922277Y-13966460D02*
X6912753Y-13956936D01*
X6912753Y-13956936D02*
X6903229Y-13937888D01*
X6903229Y-13937888D02*
X6893706Y-13899793D01*
X6893706Y-13899793D02*
X6893706Y-13852174D01*
X6893706Y-13852174D02*
X6903229Y-13814079D01*
X6903229Y-13814079D02*
X6912753Y-13795031D01*
X6912753Y-13795031D02*
X6922277Y-13785508D01*
X6922277Y-13785508D02*
X6941325Y-13775984D01*
X7246087Y-13975984D02*
X7246087Y-13775984D01*
X7331801Y-13975984D02*
X7331801Y-13871222D01*
X7331801Y-13871222D02*
X7322277Y-13852174D01*
X7322277Y-13852174D02*
X7303230Y-13842650D01*
X7303230Y-13842650D02*
X7274658Y-13842650D01*
X7274658Y-13842650D02*
X7255610Y-13852174D01*
X7255610Y-13852174D02*
X7246087Y-13861698D01*
X7455610Y-13975984D02*
X7436563Y-13966460D01*
X7436563Y-13966460D02*
X7427039Y-13956936D01*
X7427039Y-13956936D02*
X7417515Y-13937888D01*
X7417515Y-13937888D02*
X7417515Y-13880746D01*
X7417515Y-13880746D02*
X7427039Y-13861698D01*
X7427039Y-13861698D02*
X7436563Y-13852174D01*
X7436563Y-13852174D02*
X7455610Y-13842650D01*
X7455610Y-13842650D02*
X7484182Y-13842650D01*
X7484182Y-13842650D02*
X7503230Y-13852174D01*
X7503230Y-13852174D02*
X7512753Y-13861698D01*
X7512753Y-13861698D02*
X7522277Y-13880746D01*
X7522277Y-13880746D02*
X7522277Y-13937888D01*
X7522277Y-13937888D02*
X7512753Y-13956936D01*
X7512753Y-13956936D02*
X7503230Y-13966460D01*
X7503230Y-13966460D02*
X7484182Y-13975984D01*
X7484182Y-13975984D02*
X7455610Y-13975984D01*
X7636563Y-13975984D02*
X7617515Y-13966460D01*
X7617515Y-13966460D02*
X7607991Y-13947412D01*
X7607991Y-13947412D02*
X7607991Y-13775984D01*
X7788944Y-13966460D02*
X7769896Y-13975984D01*
X7769896Y-13975984D02*
X7731801Y-13975984D01*
X7731801Y-13975984D02*
X7712753Y-13966460D01*
X7712753Y-13966460D02*
X7703230Y-13947412D01*
X7703230Y-13947412D02*
X7703230Y-13871222D01*
X7703230Y-13871222D02*
X7712753Y-13852174D01*
X7712753Y-13852174D02*
X7731801Y-13842650D01*
X7731801Y-13842650D02*
X7769896Y-13842650D01*
X7769896Y-13842650D02*
X7788944Y-13852174D01*
X7788944Y-13852174D02*
X7798468Y-13871222D01*
X7798468Y-13871222D02*
X7798468Y-13890269D01*
X7798468Y-13890269D02*
X7703230Y-13909317D01*
X7874658Y-13966460D02*
X7893706Y-13975984D01*
X7893706Y-13975984D02*
X7931801Y-13975984D01*
X7931801Y-13975984D02*
X7950849Y-13966460D01*
X7950849Y-13966460D02*
X7960372Y-13947412D01*
X7960372Y-13947412D02*
X7960372Y-13937888D01*
X7960372Y-13937888D02*
X7950849Y-13918841D01*
X7950849Y-13918841D02*
X7931801Y-13909317D01*
X7931801Y-13909317D02*
X7903230Y-13909317D01*
X7903230Y-13909317D02*
X7884182Y-13899793D01*
X7884182Y-13899793D02*
X7874658Y-13880746D01*
X7874658Y-13880746D02*
X7874658Y-13871222D01*
X7874658Y-13871222D02*
X7884182Y-13852174D01*
X7884182Y-13852174D02*
X7903230Y-13842650D01*
X7903230Y-13842650D02*
X7931801Y-13842650D01*
X7931801Y-13842650D02*
X7950849Y-13852174D01*
X8027039Y-14052174D02*
X8036563Y-14042650D01*
X8036563Y-14042650D02*
X8055611Y-14014079D01*
X8055611Y-14014079D02*
X8065134Y-13995031D01*
X8065134Y-13995031D02*
X8074658Y-13966460D01*
X8074658Y-13966460D02*
X8084182Y-13918841D01*
X8084182Y-13918841D02*
X8084182Y-13880746D01*
X8084182Y-13880746D02*
X8074658Y-13833127D01*
X8074658Y-13833127D02*
X8065134Y-13804555D01*
X8065134Y-13804555D02*
X8055611Y-13785508D01*
X8055611Y-13785508D02*
X8036563Y-13756936D01*
X8036563Y-13756936D02*
X8027039Y-13747412D01*
X2861500Y-14048500D02*
X3061500Y-14248500D01*
X3061500Y-14048500D02*
X2861500Y-14248500D01*
X2961500Y-14048500D02*
X2961500Y-14248500D01*
X2861500Y-14148500D02*
X3061500Y-14148500D01*
X3303229Y-14039984D02*
X3427039Y-14039984D01*
X3427039Y-14039984D02*
X3360372Y-14116174D01*
X3360372Y-14116174D02*
X3388943Y-14116174D01*
X3388943Y-14116174D02*
X3407991Y-14125698D01*
X3407991Y-14125698D02*
X3417515Y-14135222D01*
X3417515Y-14135222D02*
X3427039Y-14154269D01*
X3427039Y-14154269D02*
X3427039Y-14201888D01*
X3427039Y-14201888D02*
X3417515Y-14220936D01*
X3417515Y-14220936D02*
X3407991Y-14230460D01*
X3407991Y-14230460D02*
X3388943Y-14239984D01*
X3388943Y-14239984D02*
X3331801Y-14239984D01*
X3331801Y-14239984D02*
X3312753Y-14230460D01*
X3312753Y-14230460D02*
X3303229Y-14220936D01*
X3512753Y-14220936D02*
X3522277Y-14230460D01*
X3522277Y-14230460D02*
X3512753Y-14239984D01*
X3512753Y-14239984D02*
X3503229Y-14230460D01*
X3503229Y-14230460D02*
X3512753Y-14220936D01*
X3512753Y-14220936D02*
X3512753Y-14239984D01*
X3646086Y-14039984D02*
X3665134Y-14039984D01*
X3665134Y-14039984D02*
X3684182Y-14049508D01*
X3684182Y-14049508D02*
X3693705Y-14059031D01*
X3693705Y-14059031D02*
X3703229Y-14078079D01*
X3703229Y-14078079D02*
X3712753Y-14116174D01*
X3712753Y-14116174D02*
X3712753Y-14163793D01*
X3712753Y-14163793D02*
X3703229Y-14201888D01*
X3703229Y-14201888D02*
X3693705Y-14220936D01*
X3693705Y-14220936D02*
X3684182Y-14230460D01*
X3684182Y-14230460D02*
X3665134Y-14239984D01*
X3665134Y-14239984D02*
X3646086Y-14239984D01*
X3646086Y-14239984D02*
X3627039Y-14230460D01*
X3627039Y-14230460D02*
X3617515Y-14220936D01*
X3617515Y-14220936D02*
X3607991Y-14201888D01*
X3607991Y-14201888D02*
X3598467Y-14163793D01*
X3598467Y-14163793D02*
X3598467Y-14116174D01*
X3598467Y-14116174D02*
X3607991Y-14078079D01*
X3607991Y-14078079D02*
X3617515Y-14059031D01*
X3617515Y-14059031D02*
X3627039Y-14049508D01*
X3627039Y-14049508D02*
X3646086Y-14039984D01*
X3836562Y-14039984D02*
X3855610Y-14039984D01*
X3855610Y-14039984D02*
X3874658Y-14049508D01*
X3874658Y-14049508D02*
X3884182Y-14059031D01*
X3884182Y-14059031D02*
X3893705Y-14078079D01*
X3893705Y-14078079D02*
X3903229Y-14116174D01*
X3903229Y-14116174D02*
X3903229Y-14163793D01*
X3903229Y-14163793D02*
X3893705Y-14201888D01*
X3893705Y-14201888D02*
X3884182Y-14220936D01*
X3884182Y-14220936D02*
X3874658Y-14230460D01*
X3874658Y-14230460D02*
X3855610Y-14239984D01*
X3855610Y-14239984D02*
X3836562Y-14239984D01*
X3836562Y-14239984D02*
X3817515Y-14230460D01*
X3817515Y-14230460D02*
X3807991Y-14220936D01*
X3807991Y-14220936D02*
X3798467Y-14201888D01*
X3798467Y-14201888D02*
X3788943Y-14163793D01*
X3788943Y-14163793D02*
X3788943Y-14116174D01*
X3788943Y-14116174D02*
X3798467Y-14078079D01*
X3798467Y-14078079D02*
X3807991Y-14059031D01*
X3807991Y-14059031D02*
X3817515Y-14049508D01*
X3817515Y-14049508D02*
X3836562Y-14039984D01*
X4027039Y-14039984D02*
X4046086Y-14039984D01*
X4046086Y-14039984D02*
X4065134Y-14049508D01*
X4065134Y-14049508D02*
X4074658Y-14059031D01*
X4074658Y-14059031D02*
X4084182Y-14078079D01*
X4084182Y-14078079D02*
X4093705Y-14116174D01*
X4093705Y-14116174D02*
X4093705Y-14163793D01*
X4093705Y-14163793D02*
X4084182Y-14201888D01*
X4084182Y-14201888D02*
X4074658Y-14220936D01*
X4074658Y-14220936D02*
X4065134Y-14230460D01*
X4065134Y-14230460D02*
X4046086Y-14239984D01*
X4046086Y-14239984D02*
X4027039Y-14239984D01*
X4027039Y-14239984D02*
X4007991Y-14230460D01*
X4007991Y-14230460D02*
X3998467Y-14220936D01*
X3998467Y-14220936D02*
X3988943Y-14201888D01*
X3988943Y-14201888D02*
X3979420Y-14163793D01*
X3979420Y-14163793D02*
X3979420Y-14116174D01*
X3979420Y-14116174D02*
X3988943Y-14078079D01*
X3988943Y-14078079D02*
X3998467Y-14059031D01*
X3998467Y-14059031D02*
X4007991Y-14049508D01*
X4007991Y-14049508D02*
X4027039Y-14039984D01*
X4179420Y-14239984D02*
X4179420Y-14106650D01*
X4179420Y-14125698D02*
X4188943Y-14116174D01*
X4188943Y-14116174D02*
X4207991Y-14106650D01*
X4207991Y-14106650D02*
X4236563Y-14106650D01*
X4236563Y-14106650D02*
X4255610Y-14116174D01*
X4255610Y-14116174D02*
X4265134Y-14135222D01*
X4265134Y-14135222D02*
X4265134Y-14239984D01*
X4265134Y-14135222D02*
X4274658Y-14116174D01*
X4274658Y-14116174D02*
X4293705Y-14106650D01*
X4293705Y-14106650D02*
X4322277Y-14106650D01*
X4322277Y-14106650D02*
X4341325Y-14116174D01*
X4341325Y-14116174D02*
X4350848Y-14135222D01*
X4350848Y-14135222D02*
X4350848Y-14239984D01*
X4446086Y-14239984D02*
X4446086Y-14106650D01*
X4446086Y-14125698D02*
X4455610Y-14116174D01*
X4455610Y-14116174D02*
X4474658Y-14106650D01*
X4474658Y-14106650D02*
X4503229Y-14106650D01*
X4503229Y-14106650D02*
X4522277Y-14116174D01*
X4522277Y-14116174D02*
X4531801Y-14135222D01*
X4531801Y-14135222D02*
X4531801Y-14239984D01*
X4531801Y-14135222D02*
X4541325Y-14116174D01*
X4541325Y-14116174D02*
X4560372Y-14106650D01*
X4560372Y-14106650D02*
X4588944Y-14106650D01*
X4588944Y-14106650D02*
X4607991Y-14116174D01*
X4607991Y-14116174D02*
X4617515Y-14135222D01*
X4617515Y-14135222D02*
X4617515Y-14239984D01*
X5007991Y-14030460D02*
X4836563Y-14287603D01*
X5265134Y-14039984D02*
X5284182Y-14039984D01*
X5284182Y-14039984D02*
X5303229Y-14049508D01*
X5303229Y-14049508D02*
X5312753Y-14059031D01*
X5312753Y-14059031D02*
X5322277Y-14078079D01*
X5322277Y-14078079D02*
X5331801Y-14116174D01*
X5331801Y-14116174D02*
X5331801Y-14163793D01*
X5331801Y-14163793D02*
X5322277Y-14201888D01*
X5322277Y-14201888D02*
X5312753Y-14220936D01*
X5312753Y-14220936D02*
X5303229Y-14230460D01*
X5303229Y-14230460D02*
X5284182Y-14239984D01*
X5284182Y-14239984D02*
X5265134Y-14239984D01*
X5265134Y-14239984D02*
X5246087Y-14230460D01*
X5246087Y-14230460D02*
X5236563Y-14220936D01*
X5236563Y-14220936D02*
X5227039Y-14201888D01*
X5227039Y-14201888D02*
X5217515Y-14163793D01*
X5217515Y-14163793D02*
X5217515Y-14116174D01*
X5217515Y-14116174D02*
X5227039Y-14078079D01*
X5227039Y-14078079D02*
X5236563Y-14059031D01*
X5236563Y-14059031D02*
X5246087Y-14049508D01*
X5246087Y-14049508D02*
X5265134Y-14039984D01*
X5417515Y-14220936D02*
X5427039Y-14230460D01*
X5427039Y-14230460D02*
X5417515Y-14239984D01*
X5417515Y-14239984D02*
X5407991Y-14230460D01*
X5407991Y-14230460D02*
X5417515Y-14220936D01*
X5417515Y-14220936D02*
X5417515Y-14239984D01*
X5617515Y-14239984D02*
X5503229Y-14239984D01*
X5560372Y-14239984D02*
X5560372Y-14039984D01*
X5560372Y-14039984D02*
X5541325Y-14068555D01*
X5541325Y-14068555D02*
X5522277Y-14087603D01*
X5522277Y-14087603D02*
X5503229Y-14097127D01*
X5807991Y-14239984D02*
X5693706Y-14239984D01*
X5750848Y-14239984D02*
X5750848Y-14039984D01*
X5750848Y-14039984D02*
X5731801Y-14068555D01*
X5731801Y-14068555D02*
X5712753Y-14087603D01*
X5712753Y-14087603D02*
X5693706Y-14097127D01*
X5922277Y-14125698D02*
X5903229Y-14116174D01*
X5903229Y-14116174D02*
X5893706Y-14106650D01*
X5893706Y-14106650D02*
X5884182Y-14087603D01*
X5884182Y-14087603D02*
X5884182Y-14078079D01*
X5884182Y-14078079D02*
X5893706Y-14059031D01*
X5893706Y-14059031D02*
X5903229Y-14049508D01*
X5903229Y-14049508D02*
X5922277Y-14039984D01*
X5922277Y-14039984D02*
X5960372Y-14039984D01*
X5960372Y-14039984D02*
X5979420Y-14049508D01*
X5979420Y-14049508D02*
X5988944Y-14059031D01*
X5988944Y-14059031D02*
X5998467Y-14078079D01*
X5998467Y-14078079D02*
X5998467Y-14087603D01*
X5998467Y-14087603D02*
X5988944Y-14106650D01*
X5988944Y-14106650D02*
X5979420Y-14116174D01*
X5979420Y-14116174D02*
X5960372Y-14125698D01*
X5960372Y-14125698D02*
X5922277Y-14125698D01*
X5922277Y-14125698D02*
X5903229Y-14135222D01*
X5903229Y-14135222D02*
X5893706Y-14144746D01*
X5893706Y-14144746D02*
X5884182Y-14163793D01*
X5884182Y-14163793D02*
X5884182Y-14201888D01*
X5884182Y-14201888D02*
X5893706Y-14220936D01*
X5893706Y-14220936D02*
X5903229Y-14230460D01*
X5903229Y-14230460D02*
X5922277Y-14239984D01*
X5922277Y-14239984D02*
X5960372Y-14239984D01*
X5960372Y-14239984D02*
X5979420Y-14230460D01*
X5979420Y-14230460D02*
X5988944Y-14220936D01*
X5988944Y-14220936D02*
X5998467Y-14201888D01*
X5998467Y-14201888D02*
X5998467Y-14163793D01*
X5998467Y-14163793D02*
X5988944Y-14144746D01*
X5988944Y-14144746D02*
X5979420Y-14135222D01*
X5979420Y-14135222D02*
X5960372Y-14125698D01*
X6188944Y-14239984D02*
X6074658Y-14239984D01*
X6131801Y-14239984D02*
X6131801Y-14039984D01*
X6131801Y-14039984D02*
X6112753Y-14068555D01*
X6112753Y-14068555D02*
X6093706Y-14087603D01*
X6093706Y-14087603D02*
X6074658Y-14097127D01*
X6265134Y-14039984D02*
X6265134Y-14078079D01*
X6341325Y-14039984D02*
X6341325Y-14078079D01*
X6636563Y-14316174D02*
X6627039Y-14306650D01*
X6627039Y-14306650D02*
X6607991Y-14278079D01*
X6607991Y-14278079D02*
X6598468Y-14259031D01*
X6598468Y-14259031D02*
X6588944Y-14230460D01*
X6588944Y-14230460D02*
X6579420Y-14182841D01*
X6579420Y-14182841D02*
X6579420Y-14144746D01*
X6579420Y-14144746D02*
X6588944Y-14097127D01*
X6588944Y-14097127D02*
X6598468Y-14068555D01*
X6598468Y-14068555D02*
X6607991Y-14049508D01*
X6607991Y-14049508D02*
X6627039Y-14020936D01*
X6627039Y-14020936D02*
X6636563Y-14011412D01*
X6798468Y-14039984D02*
X6760372Y-14039984D01*
X6760372Y-14039984D02*
X6741325Y-14049508D01*
X6741325Y-14049508D02*
X6731801Y-14059031D01*
X6731801Y-14059031D02*
X6712753Y-14087603D01*
X6712753Y-14087603D02*
X6703229Y-14125698D01*
X6703229Y-14125698D02*
X6703229Y-14201888D01*
X6703229Y-14201888D02*
X6712753Y-14220936D01*
X6712753Y-14220936D02*
X6722277Y-14230460D01*
X6722277Y-14230460D02*
X6741325Y-14239984D01*
X6741325Y-14239984D02*
X6779420Y-14239984D01*
X6779420Y-14239984D02*
X6798468Y-14230460D01*
X6798468Y-14230460D02*
X6807991Y-14220936D01*
X6807991Y-14220936D02*
X6817515Y-14201888D01*
X6817515Y-14201888D02*
X6817515Y-14154269D01*
X6817515Y-14154269D02*
X6807991Y-14135222D01*
X6807991Y-14135222D02*
X6798468Y-14125698D01*
X6798468Y-14125698D02*
X6779420Y-14116174D01*
X6779420Y-14116174D02*
X6741325Y-14116174D01*
X6741325Y-14116174D02*
X6722277Y-14125698D01*
X6722277Y-14125698D02*
X6712753Y-14135222D01*
X6712753Y-14135222D02*
X6703229Y-14154269D01*
X7055610Y-14239984D02*
X7055610Y-14039984D01*
X7141325Y-14239984D02*
X7141325Y-14135222D01*
X7141325Y-14135222D02*
X7131801Y-14116174D01*
X7131801Y-14116174D02*
X7112753Y-14106650D01*
X7112753Y-14106650D02*
X7084182Y-14106650D01*
X7084182Y-14106650D02*
X7065134Y-14116174D01*
X7065134Y-14116174D02*
X7055610Y-14125698D01*
X7265134Y-14239984D02*
X7246087Y-14230460D01*
X7246087Y-14230460D02*
X7236563Y-14220936D01*
X7236563Y-14220936D02*
X7227039Y-14201888D01*
X7227039Y-14201888D02*
X7227039Y-14144746D01*
X7227039Y-14144746D02*
X7236563Y-14125698D01*
X7236563Y-14125698D02*
X7246087Y-14116174D01*
X7246087Y-14116174D02*
X7265134Y-14106650D01*
X7265134Y-14106650D02*
X7293706Y-14106650D01*
X7293706Y-14106650D02*
X7312753Y-14116174D01*
X7312753Y-14116174D02*
X7322277Y-14125698D01*
X7322277Y-14125698D02*
X7331801Y-14144746D01*
X7331801Y-14144746D02*
X7331801Y-14201888D01*
X7331801Y-14201888D02*
X7322277Y-14220936D01*
X7322277Y-14220936D02*
X7312753Y-14230460D01*
X7312753Y-14230460D02*
X7293706Y-14239984D01*
X7293706Y-14239984D02*
X7265134Y-14239984D01*
X7446087Y-14239984D02*
X7427039Y-14230460D01*
X7427039Y-14230460D02*
X7417515Y-14211412D01*
X7417515Y-14211412D02*
X7417515Y-14039984D01*
X7598468Y-14230460D02*
X7579420Y-14239984D01*
X7579420Y-14239984D02*
X7541325Y-14239984D01*
X7541325Y-14239984D02*
X7522277Y-14230460D01*
X7522277Y-14230460D02*
X7512753Y-14211412D01*
X7512753Y-14211412D02*
X7512753Y-14135222D01*
X7512753Y-14135222D02*
X7522277Y-14116174D01*
X7522277Y-14116174D02*
X7541325Y-14106650D01*
X7541325Y-14106650D02*
X7579420Y-14106650D01*
X7579420Y-14106650D02*
X7598468Y-14116174D01*
X7598468Y-14116174D02*
X7607991Y-14135222D01*
X7607991Y-14135222D02*
X7607991Y-14154269D01*
X7607991Y-14154269D02*
X7512753Y-14173317D01*
X7684182Y-14230460D02*
X7703230Y-14239984D01*
X7703230Y-14239984D02*
X7741325Y-14239984D01*
X7741325Y-14239984D02*
X7760372Y-14230460D01*
X7760372Y-14230460D02*
X7769896Y-14211412D01*
X7769896Y-14211412D02*
X7769896Y-14201888D01*
X7769896Y-14201888D02*
X7760372Y-14182841D01*
X7760372Y-14182841D02*
X7741325Y-14173317D01*
X7741325Y-14173317D02*
X7712753Y-14173317D01*
X7712753Y-14173317D02*
X7693706Y-14163793D01*
X7693706Y-14163793D02*
X7684182Y-14144746D01*
X7684182Y-14144746D02*
X7684182Y-14135222D01*
X7684182Y-14135222D02*
X7693706Y-14116174D01*
X7693706Y-14116174D02*
X7712753Y-14106650D01*
X7712753Y-14106650D02*
X7741325Y-14106650D01*
X7741325Y-14106650D02*
X7760372Y-14116174D01*
X7836563Y-14316174D02*
X7846087Y-14306650D01*
X7846087Y-14306650D02*
X7865134Y-14278079D01*
X7865134Y-14278079D02*
X7874658Y-14259031D01*
X7874658Y-14259031D02*
X7884182Y-14230460D01*
X7884182Y-14230460D02*
X7893706Y-14182841D01*
X7893706Y-14182841D02*
X7893706Y-14144746D01*
X7893706Y-14144746D02*
X7884182Y-14097127D01*
X7884182Y-14097127D02*
X7874658Y-14068555D01*
X7874658Y-14068555D02*
X7865134Y-14049508D01*
X7865134Y-14049508D02*
X7846087Y-14020936D01*
X7846087Y-14020936D02*
X7836563Y-14011412D01*
M02*
