G04 #@! TF.GenerationSoftware,KiCad,Pcbnew,7.0.6*
G04 #@! TF.CreationDate,2023-10-13T18:31:12+03:00*
G04 #@! TF.ProjectId,colorimeter-2,636f6c6f-7269-46d6-9574-65722d322e6b,rev?*
G04 #@! TF.SameCoordinates,Original*
G04 #@! TF.FileFunction,Copper,L4,Bot*
G04 #@! TF.FilePolarity,Positive*
%FSLAX46Y46*%
G04 Gerber Fmt 4.6, Leading zero omitted, Abs format (unit mm)*
G04 Created by KiCad (PCBNEW 7.0.6) date 2023-10-13 18:31:12*
%MOMM*%
%LPD*%
G01*
G04 APERTURE LIST*
G04 Aperture macros list*
%AMRoundRect*
0 Rectangle with rounded corners*
0 $1 Rounding radius*
0 $2 $3 $4 $5 $6 $7 $8 $9 X,Y pos of 4 corners*
0 Add a 4 corners polygon primitive as box body*
4,1,4,$2,$3,$4,$5,$6,$7,$8,$9,$2,$3,0*
0 Add four circle primitives for the rounded corners*
1,1,$1+$1,$2,$3*
1,1,$1+$1,$4,$5*
1,1,$1+$1,$6,$7*
1,1,$1+$1,$8,$9*
0 Add four rect primitives between the rounded corners*
20,1,$1+$1,$2,$3,$4,$5,0*
20,1,$1+$1,$4,$5,$6,$7,0*
20,1,$1+$1,$6,$7,$8,$9,0*
20,1,$1+$1,$8,$9,$2,$3,0*%
%AMHorizOval*
0 Thick line with rounded ends*
0 $1 width*
0 $2 $3 position (X,Y) of the first rounded end (center of the circle)*
0 $4 $5 position (X,Y) of the second rounded end (center of the circle)*
0 Add line between two ends*
20,1,$1,$2,$3,$4,$5,0*
0 Add two circle primitives to create the rounded ends*
1,1,$1,$2,$3*
1,1,$1,$4,$5*%
G04 Aperture macros list end*
G04 #@! TA.AperFunction,ComponentPad*
%ADD10R,1.600000X1.600000*%
G04 #@! TD*
G04 #@! TA.AperFunction,ComponentPad*
%ADD11C,1.600000*%
G04 #@! TD*
G04 #@! TA.AperFunction,ComponentPad*
%ADD12O,1.600000X1.600000*%
G04 #@! TD*
G04 #@! TA.AperFunction,ComponentPad*
%ADD13HorizOval,1.600000X0.000000X0.000000X0.000000X0.000000X0*%
G04 #@! TD*
G04 #@! TA.AperFunction,ComponentPad*
%ADD14R,1.700000X1.700000*%
G04 #@! TD*
G04 #@! TA.AperFunction,ComponentPad*
%ADD15O,1.700000X1.700000*%
G04 #@! TD*
G04 #@! TA.AperFunction,ComponentPad*
%ADD16C,1.524000*%
G04 #@! TD*
G04 #@! TA.AperFunction,ComponentPad*
%ADD17C,6.000000*%
G04 #@! TD*
G04 #@! TA.AperFunction,ComponentPad*
%ADD18R,1.160000X1.160000*%
G04 #@! TD*
G04 #@! TA.AperFunction,ComponentPad*
%ADD19C,1.160000*%
G04 #@! TD*
G04 #@! TA.AperFunction,ComponentPad*
%ADD20R,1.100000X1.800000*%
G04 #@! TD*
G04 #@! TA.AperFunction,ComponentPad*
%ADD21RoundRect,0.275000X0.275000X0.625000X-0.275000X0.625000X-0.275000X-0.625000X0.275000X-0.625000X0*%
G04 #@! TD*
G04 #@! TA.AperFunction,ComponentPad*
%ADD22C,4.000000*%
G04 #@! TD*
G04 #@! TA.AperFunction,ComponentPad*
%ADD23HorizOval,1.600000X0.000000X0.000000X0.000000X0.000000X0*%
G04 #@! TD*
G04 #@! TA.AperFunction,SMDPad,CuDef*
%ADD24R,1.500000X5.080000*%
G04 #@! TD*
G04 #@! TA.AperFunction,ViaPad*
%ADD25C,0.800000*%
G04 #@! TD*
G04 #@! TA.AperFunction,Conductor*
%ADD26C,0.250000*%
G04 #@! TD*
G04 #@! TA.AperFunction,Conductor*
%ADD27C,0.400000*%
G04 #@! TD*
G04 #@! TA.AperFunction,Conductor*
%ADD28C,1.000000*%
G04 #@! TD*
G04 #@! TA.AperFunction,Conductor*
%ADD29C,0.500000*%
G04 #@! TD*
G04 APERTURE END LIST*
D10*
X45766974Y-108321974D03*
D11*
X49266974Y-108321974D03*
D10*
X62855000Y-78750000D03*
D12*
X60315000Y-78750000D03*
X57775000Y-78750000D03*
X55235000Y-78750000D03*
X55235000Y-86370000D03*
X57775000Y-86370000D03*
X60315000Y-86370000D03*
X62855000Y-86370000D03*
D11*
X149225000Y-63500000D03*
X149225000Y-58500000D03*
X63935795Y-71555795D03*
D13*
X71120000Y-78740000D03*
D14*
X65840795Y-61595000D03*
D15*
X65840795Y-64135000D03*
D11*
X70285795Y-65205795D03*
D13*
X77470000Y-72390000D03*
D10*
X122172349Y-62865000D03*
D11*
X125672349Y-62865000D03*
D14*
X36825000Y-64775000D03*
D15*
X34285000Y-64775000D03*
X36825000Y-67315000D03*
X34285000Y-67315000D03*
X36825000Y-69855000D03*
X34285000Y-69855000D03*
X36825000Y-72395000D03*
X34285000Y-72395000D03*
X36825000Y-74935000D03*
X34285000Y-74935000D03*
X36825000Y-77475000D03*
X34285000Y-77475000D03*
X36825000Y-80015000D03*
X34285000Y-80015000D03*
X36825000Y-82555000D03*
X34285000Y-82555000D03*
X36825000Y-85095000D03*
X34285000Y-85095000D03*
X36825000Y-87635000D03*
X34285000Y-87635000D03*
X36825000Y-90175000D03*
X34285000Y-90175000D03*
X36825000Y-92715000D03*
X34285000Y-92715000D03*
X36825000Y-95255000D03*
X34285000Y-95255000D03*
X36825000Y-97795000D03*
X34285000Y-97795000D03*
X36825000Y-100335000D03*
X34285000Y-100335000D03*
D11*
X136471680Y-70485000D03*
X131471680Y-70485000D03*
X67110795Y-68380795D03*
D13*
X74295000Y-75565000D03*
D14*
X66040000Y-103505000D03*
D15*
X66040000Y-100965000D03*
D11*
X51435000Y-85050000D03*
X51435000Y-80050000D03*
D16*
X85417946Y-100521929D03*
X83621895Y-102317980D03*
X87213997Y-102317980D03*
X85417946Y-104114031D03*
X89010048Y-104114031D03*
X87213997Y-105910082D03*
D14*
X41905000Y-64775000D03*
D15*
X44445000Y-64775000D03*
X41905000Y-67315000D03*
X44445000Y-67315000D03*
X41905000Y-69855000D03*
X44445000Y-69855000D03*
X41905000Y-72395000D03*
X44445000Y-72395000D03*
X41905000Y-74935000D03*
X44445000Y-74935000D03*
X41905000Y-77475000D03*
X44445000Y-77475000D03*
X41905000Y-80015000D03*
X44445000Y-80015000D03*
X41905000Y-82555000D03*
X44445000Y-82555000D03*
X41905000Y-85095000D03*
X44445000Y-85095000D03*
X41905000Y-87635000D03*
X44445000Y-87635000D03*
X41905000Y-90175000D03*
X44445000Y-90175000D03*
X41905000Y-92715000D03*
X44445000Y-92715000D03*
X41905000Y-95255000D03*
X44445000Y-95255000D03*
X41905000Y-97795000D03*
X44445000Y-97795000D03*
X41905000Y-100335000D03*
X44445000Y-100335000D03*
D17*
X146050000Y-52070000D03*
D18*
X137941680Y-91440000D03*
D19*
X137941680Y-88900000D03*
X137941680Y-86360000D03*
X137941680Y-83820000D03*
X137941680Y-81280000D03*
X137941680Y-78740000D03*
X137941680Y-76200000D03*
X137941680Y-73660000D03*
X130001680Y-73660000D03*
X130001680Y-76200000D03*
X130001680Y-78740000D03*
X130001680Y-81280000D03*
X130001680Y-83820000D03*
X130001680Y-86360000D03*
X130001680Y-88900000D03*
X130001680Y-91440000D03*
D11*
X148590000Y-83820000D03*
D12*
X148590000Y-93980000D03*
D20*
X144780000Y-96755000D03*
D21*
X143510000Y-98825000D03*
X142240000Y-96755000D03*
D16*
X122118533Y-71011052D03*
X120322482Y-72807103D03*
X118526430Y-71011052D03*
X116730379Y-69215000D03*
X120322482Y-69215000D03*
X118526430Y-67418949D03*
D22*
X99060000Y-103197518D03*
X78412482Y-82550000D03*
X99060000Y-61902482D03*
X119707518Y-82550000D03*
D11*
X139065000Y-65405001D03*
D12*
X139065000Y-55245001D03*
D11*
X130810000Y-52070000D03*
D12*
X140970000Y-52070000D03*
D14*
X60960000Y-114934999D03*
D15*
X60960000Y-112394999D03*
X60960000Y-109854999D03*
D20*
X144780000Y-83420000D03*
D21*
X143510000Y-85490000D03*
X142240000Y-83420000D03*
D11*
X77470000Y-99894205D03*
X81005534Y-96358671D03*
D16*
X88989584Y-60960000D03*
X87193533Y-59163949D03*
X87193533Y-62756051D03*
X85397482Y-60960000D03*
X85397482Y-64552102D03*
X83601431Y-62756051D03*
D11*
X70285795Y-99894205D03*
D23*
X77470000Y-92710000D03*
D20*
X144780000Y-69450000D03*
D21*
X143510000Y-71520000D03*
X142240000Y-69450000D03*
D11*
X67110795Y-96719205D03*
D23*
X74295000Y-89535000D03*
D20*
X144780000Y-61830000D03*
D21*
X143510000Y-63900000D03*
X142240000Y-61830000D03*
D14*
X75565000Y-111760000D03*
D15*
X75565000Y-109220000D03*
X75565000Y-106680000D03*
D11*
X63935795Y-93544205D03*
D23*
X71120000Y-86360000D03*
D16*
X118490022Y-97677615D03*
X116693971Y-95881564D03*
X118490022Y-94085512D03*
X120286074Y-92289461D03*
X120286074Y-95881564D03*
X122082125Y-94085512D03*
D14*
X62230000Y-103505000D03*
D15*
X62230000Y-100965000D03*
D10*
X35549323Y-108321974D03*
D11*
X39049323Y-108321974D03*
X66675000Y-85050000D03*
X66675000Y-80050000D03*
X148590000Y-69850001D03*
D12*
X148590000Y-80010001D03*
D11*
X148590000Y-97155000D03*
D12*
X148590000Y-107315000D03*
D14*
X62230000Y-61595000D03*
D15*
X62230000Y-64135000D03*
D11*
X77470000Y-65205795D03*
X81005534Y-68741329D03*
D10*
X122555000Y-101600000D03*
D11*
X126055000Y-101600000D03*
D14*
X56515000Y-114935000D03*
D15*
X56515000Y-112395000D03*
X56515000Y-109855000D03*
D14*
X139065000Y-109855000D03*
D15*
X139065000Y-107315000D03*
X139065000Y-104775000D03*
D17*
X146050000Y-113030000D03*
D11*
X131471680Y-94614999D03*
X136471680Y-94614999D03*
D24*
X54610000Y-49177500D03*
X50360000Y-49177500D03*
X58860000Y-49177500D03*
X93980000Y-49177500D03*
X89730000Y-49177500D03*
X98230000Y-49177500D03*
X74295000Y-49177500D03*
X70045000Y-49177500D03*
X78545000Y-49177500D03*
D25*
X51308000Y-89408000D03*
X130175000Y-59055000D03*
X128905000Y-59055000D03*
X127635000Y-59055000D03*
X64516000Y-97028000D03*
X39624000Y-61468000D03*
X59055000Y-51435000D03*
X77724000Y-96012000D03*
X50165000Y-71755000D03*
X52070000Y-103505000D03*
X55245000Y-93345000D03*
X54610000Y-97790000D03*
X57912000Y-64008000D03*
X69850000Y-51435000D03*
X127508000Y-85852000D03*
X58752072Y-113220215D03*
X140208000Y-81280000D03*
X105664000Y-90424000D03*
X58420000Y-89535000D03*
X74168000Y-103124000D03*
X114808000Y-88900000D03*
X103632000Y-110744000D03*
X85852000Y-94615000D03*
X113665000Y-117475000D03*
X58928000Y-80772000D03*
X54610000Y-100330000D03*
X127508000Y-91440000D03*
X52705000Y-115570000D03*
X40005000Y-116205000D03*
X114300000Y-101600000D03*
X59436000Y-84328000D03*
X130048000Y-97536000D03*
X98425000Y-51435000D03*
X127508000Y-79756000D03*
X132080000Y-79756000D03*
X64135000Y-67945000D03*
X62484000Y-89408000D03*
X91440000Y-82495908D03*
X123190000Y-107950000D03*
X140208000Y-94488000D03*
X126492000Y-67056000D03*
X117856000Y-51816000D03*
X149860000Y-81788000D03*
X139700000Y-67564000D03*
X85852000Y-70612000D03*
X33020000Y-61468000D03*
X89535000Y-51435000D03*
X40132000Y-103632000D03*
X57785000Y-72390000D03*
X126492000Y-73660000D03*
X50165000Y-51435000D03*
X119380000Y-64516000D03*
X142240000Y-102108000D03*
X132588000Y-104648000D03*
X73025000Y-57785000D03*
X59145000Y-103505000D03*
X45720000Y-115570000D03*
X75184000Y-66548000D03*
X122428000Y-75692000D03*
X132588000Y-62484000D03*
X114808000Y-76200000D03*
X105664000Y-74676000D03*
X33020000Y-103632000D03*
X78740000Y-51435000D03*
X90335000Y-115570000D03*
X70104000Y-74676000D03*
D26*
X62855000Y-78750000D02*
X74295000Y-67310000D01*
X74295000Y-67310000D02*
X74295000Y-48542500D01*
X56515000Y-85090000D02*
X62855000Y-78750000D01*
X56515000Y-109220001D02*
X56515000Y-85090000D01*
D27*
X122172349Y-57532651D02*
X122172349Y-62865000D01*
X127635000Y-52070000D02*
X122172349Y-57532651D01*
D28*
X46355000Y-91440000D02*
X49276000Y-91440000D01*
X49276000Y-91440000D02*
X51308000Y-89408000D01*
D27*
X41905000Y-92715000D02*
X43180000Y-91440000D01*
X127635000Y-52070000D02*
X130810000Y-52070000D01*
X46355000Y-91440000D02*
X43180000Y-91440000D01*
D29*
X137941680Y-83820000D02*
X142240000Y-83820000D01*
X139700000Y-69850000D02*
X133898340Y-75651660D01*
X142240000Y-69850000D02*
X139700000Y-69850000D01*
X130001680Y-86360000D02*
X133898340Y-82463340D01*
X133898340Y-75651660D02*
X133898340Y-82463340D01*
X133985000Y-95885000D02*
X135128000Y-97028000D01*
X130001680Y-88900000D02*
X133985000Y-92883320D01*
X135128000Y-97028000D02*
X142113000Y-97028000D01*
X133985000Y-92883320D02*
X133985000Y-95885000D01*
D26*
X130001680Y-73660000D02*
X130175000Y-59055000D01*
X130175000Y-59055000D02*
X130001680Y-59055000D01*
X128905000Y-75103320D02*
X128905000Y-59055000D01*
X130001680Y-76200000D02*
X128905000Y-75103320D01*
X127635000Y-76373320D02*
X127635000Y-59055000D01*
X130001680Y-78740000D02*
X127635000Y-76373320D01*
X54610000Y-48542500D02*
X54610000Y-52070000D01*
X41905000Y-67315000D02*
X41905000Y-64775000D01*
X54610000Y-52070000D02*
X41905000Y-64775000D01*
X41905000Y-69855000D02*
X41905000Y-67315000D01*
X41905000Y-72395000D02*
X41905000Y-69855000D01*
X60960000Y-107950000D02*
X60325000Y-107315000D01*
X93980000Y-60960000D02*
X72390000Y-82550000D01*
X64135000Y-82550000D02*
X72390000Y-82550000D01*
X60960000Y-109854999D02*
X60960000Y-107950000D01*
X60325000Y-107315000D02*
X60325000Y-86380000D01*
X60315000Y-86370000D02*
X64135000Y-82550000D01*
X93980000Y-48542500D02*
X93980000Y-60960000D01*
X40005000Y-101600000D02*
X44450000Y-106045000D01*
X41905000Y-90175000D02*
X40005000Y-92075000D01*
X53975000Y-109855000D02*
X53975000Y-112395000D01*
X50165000Y-106045000D02*
X53975000Y-109855000D01*
X53975000Y-112395000D02*
X56515000Y-114935000D01*
X40005000Y-92075000D02*
X40005000Y-101600000D01*
X44450000Y-106045000D02*
X50165000Y-106045000D01*
X35560000Y-91450000D02*
X37729000Y-91450000D01*
X38735000Y-92456000D02*
X38735000Y-105537000D01*
X58546999Y-117348000D02*
X60960000Y-114934999D01*
X34285000Y-90175000D02*
X35560000Y-91450000D01*
X38735000Y-105537000D02*
X50546000Y-117348000D01*
X37729000Y-91450000D02*
X38735000Y-92456000D01*
X50546000Y-117348000D02*
X58546999Y-117348000D01*
D27*
X125672349Y-57950786D02*
X128378135Y-55245000D01*
X128378135Y-55245000D02*
X139065000Y-55245001D01*
X140715999Y-56896000D02*
X139065000Y-55245001D01*
X149225000Y-58500000D02*
X147621000Y-56896000D01*
X147621000Y-56896000D02*
X140715999Y-56896000D01*
X125672349Y-62865000D02*
X125672349Y-57950786D01*
G04 #@! TA.AperFunction,Conductor*
G36*
X130508326Y-51341742D02*
G01*
X130508680Y-51342513D01*
X130809134Y-52065509D01*
X130809145Y-52074464D01*
X130809134Y-52074489D01*
X130508680Y-52797486D01*
X130502341Y-52803811D01*
X130493386Y-52803800D01*
X130492615Y-52803446D01*
X130480777Y-52797486D01*
X130188266Y-52650214D01*
X130187631Y-52649842D01*
X129970542Y-52503477D01*
X129781722Y-52382524D01*
X129781721Y-52382523D01*
X129781720Y-52382523D01*
X129551522Y-52300319D01*
X129551521Y-52300318D01*
X129551519Y-52300318D01*
X129220665Y-52270946D01*
X129212728Y-52266801D01*
X129210000Y-52259292D01*
X129210000Y-51880707D01*
X129213427Y-51872434D01*
X129220664Y-51869053D01*
X129551522Y-51839680D01*
X129781720Y-51757476D01*
X129970542Y-51636522D01*
X130187638Y-51490150D01*
X130188254Y-51489789D01*
X130492617Y-51336552D01*
X130501545Y-51335893D01*
X130508326Y-51341742D01*
G37*
G04 #@! TD.AperFunction*
G04 #@! TA.AperFunction,Conductor*
G36*
X41913267Y-64782277D02*
G01*
X41913277Y-64782287D01*
X42745218Y-65615206D01*
X42748640Y-65623481D01*
X42745208Y-65631752D01*
X42743714Y-65633013D01*
X42610000Y-65727966D01*
X42465001Y-65864450D01*
X42464998Y-65864453D01*
X42319998Y-66034454D01*
X42175000Y-66237968D01*
X42033423Y-66469405D01*
X42026182Y-66474675D01*
X42023442Y-66475000D01*
X41786559Y-66475000D01*
X41778286Y-66471573D01*
X41776578Y-66469406D01*
X41634999Y-66237968D01*
X41490001Y-66034454D01*
X41452819Y-65990862D01*
X41345000Y-65864452D01*
X41200000Y-65727968D01*
X41199998Y-65727966D01*
X41066285Y-65633014D01*
X41061524Y-65625430D01*
X41063520Y-65616701D01*
X41064781Y-65615207D01*
X41064782Y-65615206D01*
X41896723Y-64782285D01*
X41904992Y-64778855D01*
X41913267Y-64782277D01*
G37*
G04 #@! TD.AperFunction*
G04 #@! TA.AperFunction,Conductor*
G36*
X125869915Y-61268427D02*
G01*
X125873296Y-61275665D01*
X125902667Y-61606519D01*
X125984873Y-61836722D01*
X126105826Y-62025542D01*
X126252191Y-62242631D01*
X126252566Y-62243271D01*
X126405795Y-62547615D01*
X126406455Y-62556545D01*
X126400606Y-62563326D01*
X126399835Y-62563680D01*
X125676838Y-62864134D01*
X125667885Y-62864144D01*
X125431489Y-62765906D01*
X124944862Y-62563680D01*
X124938537Y-62557341D01*
X124938548Y-62548386D01*
X124938891Y-62547636D01*
X125092138Y-62243254D01*
X125092499Y-62242638D01*
X125238871Y-62025542D01*
X125359825Y-61836720D01*
X125442029Y-61606522D01*
X125471402Y-61275664D01*
X125475547Y-61267728D01*
X125483056Y-61265000D01*
X125861642Y-61265000D01*
X125869915Y-61268427D01*
G37*
G04 #@! TD.AperFunction*
G04 #@! TA.AperFunction,Conductor*
G36*
X60121723Y-114587759D02*
G01*
X60956216Y-114932437D01*
X60962553Y-114938762D01*
X60962562Y-114938783D01*
X61306364Y-115771157D01*
X61306355Y-115780112D01*
X61300017Y-115786438D01*
X61297267Y-115787197D01*
X60969136Y-115835883D01*
X60683976Y-115914365D01*
X60626188Y-115930270D01*
X60626186Y-115930270D01*
X60626174Y-115930274D01*
X60283255Y-116068149D01*
X60283222Y-116068165D01*
X59940306Y-116249534D01*
X59940287Y-116249546D01*
X59605306Y-116469208D01*
X59596508Y-116470879D01*
X59590617Y-116467697D01*
X59426727Y-116303807D01*
X59423300Y-116295534D01*
X59424699Y-116289988D01*
X59558456Y-116041704D01*
X59653230Y-115835884D01*
X59696341Y-115742261D01*
X59696341Y-115742260D01*
X59834228Y-115399310D01*
X59972114Y-115012863D01*
X59995872Y-114938783D01*
X60106124Y-114595001D01*
X60111913Y-114588172D01*
X60120837Y-114587435D01*
X60121723Y-114587759D01*
G37*
G04 #@! TD.AperFunction*
G04 #@! TA.AperFunction,Conductor*
G36*
X139801429Y-54943666D02*
G01*
X139807754Y-54950005D01*
X139808049Y-54950801D01*
X139914903Y-55274353D01*
X139915091Y-55275071D01*
X139965100Y-55532071D01*
X140013088Y-55751115D01*
X140060664Y-55851543D01*
X140117737Y-55972017D01*
X140117738Y-55972018D01*
X140117740Y-55972022D01*
X140220682Y-56095022D01*
X140330919Y-56226739D01*
X140333601Y-56235282D01*
X140330220Y-56242520D01*
X140062519Y-56510221D01*
X140054246Y-56513648D01*
X140046738Y-56510920D01*
X139944784Y-56425593D01*
X139792021Y-56297741D01*
X139792017Y-56297739D01*
X139792016Y-56297738D01*
X139659477Y-56234950D01*
X139571114Y-56193089D01*
X139352070Y-56145101D01*
X139095070Y-56095092D01*
X139094352Y-56094904D01*
X138770800Y-55988050D01*
X138764019Y-55982201D01*
X138763359Y-55973271D01*
X138763648Y-55972488D01*
X139062438Y-55248786D01*
X139068762Y-55242449D01*
X139068764Y-55242447D01*
X139792475Y-54943655D01*
X139801429Y-54943666D01*
G37*
G04 #@! TD.AperFunction*
G04 #@! TA.AperFunction,Conductor*
G36*
X74305277Y-49212235D02*
G01*
X74306221Y-49214516D01*
X75042669Y-51709603D01*
X75041725Y-51718508D01*
X75038355Y-51722359D01*
X74919994Y-51808927D01*
X74795007Y-51929625D01*
X74794998Y-51929635D01*
X74697776Y-52046301D01*
X74669999Y-52079634D01*
X74544999Y-52258923D01*
X74423408Y-52461814D01*
X74416216Y-52467149D01*
X74413372Y-52467500D01*
X74176628Y-52467500D01*
X74168355Y-52464073D01*
X74166592Y-52461814D01*
X74045000Y-52258923D01*
X73920000Y-52079634D01*
X73794999Y-51929634D01*
X73794991Y-51929625D01*
X73670004Y-51808927D01*
X73551644Y-51722359D01*
X73546989Y-51714709D01*
X73547329Y-51709606D01*
X74283779Y-49214515D01*
X74289407Y-49207551D01*
X74298312Y-49206607D01*
X74305277Y-49212235D01*
G37*
G04 #@! TD.AperFunction*
G04 #@! TA.AperFunction,Conductor*
G36*
X55160306Y-113400790D02*
G01*
X55357183Y-113529890D01*
X55495294Y-113620456D01*
X55495299Y-113620458D01*
X55495306Y-113620463D01*
X55838222Y-113801832D01*
X55838241Y-113801842D01*
X55838250Y-113801845D01*
X55838255Y-113801848D01*
X56181174Y-113939723D01*
X56181178Y-113939724D01*
X56181188Y-113939728D01*
X56524135Y-114034114D01*
X56852268Y-114082802D01*
X56859948Y-114087405D01*
X56862123Y-114096091D01*
X56861364Y-114098841D01*
X56517562Y-114931215D01*
X56511236Y-114937553D01*
X56511215Y-114937562D01*
X55676731Y-115282236D01*
X55667776Y-115282227D01*
X55661450Y-115275889D01*
X55661128Y-115275009D01*
X55527114Y-114857135D01*
X55389228Y-114470688D01*
X55251342Y-114127741D01*
X55251341Y-114127738D01*
X55251341Y-114127737D01*
X55113458Y-113828298D01*
X55099209Y-113801848D01*
X54979699Y-113580012D01*
X54978793Y-113571104D01*
X54981725Y-113566193D01*
X55145618Y-113402300D01*
X55153890Y-113398874D01*
X55160306Y-113400790D01*
G37*
G04 #@! TD.AperFunction*
G04 #@! TA.AperFunction,Conductor*
G36*
X129263111Y-59203303D02*
G01*
X129269429Y-59209650D01*
X129269408Y-59218604D01*
X129269130Y-59219220D01*
X129198425Y-59364581D01*
X129198153Y-59365078D01*
X129131301Y-59474215D01*
X129077969Y-59569905D01*
X129077967Y-59569910D01*
X129042729Y-59685596D01*
X129042728Y-59685602D01*
X129030813Y-59844177D01*
X129026776Y-59852170D01*
X129019146Y-59855000D01*
X128790854Y-59855000D01*
X128782581Y-59851573D01*
X128779187Y-59844177D01*
X128767270Y-59685602D01*
X128767269Y-59685596D01*
X128732031Y-59569910D01*
X128732029Y-59569905D01*
X128678697Y-59474215D01*
X128611844Y-59365078D01*
X128611572Y-59364581D01*
X128609032Y-59359360D01*
X128540868Y-59219218D01*
X128540332Y-59210281D01*
X128546272Y-59203581D01*
X128546874Y-59203308D01*
X128900500Y-59055875D01*
X128909449Y-59055855D01*
X129263111Y-59203303D01*
G37*
G04 #@! TD.AperFunction*
G04 #@! TA.AperFunction,Conductor*
G36*
X141697217Y-96545879D02*
G01*
X141866870Y-96735917D01*
X142234430Y-97147641D01*
X142237383Y-97156095D01*
X142234857Y-97162718D01*
X141866817Y-97625200D01*
X141858984Y-97629540D01*
X141850673Y-97627298D01*
X141715809Y-97526853D01*
X141673503Y-97500634D01*
X141571864Y-97437644D01*
X141571855Y-97437639D01*
X141427909Y-97366428D01*
X141427908Y-97366427D01*
X141283947Y-97313211D01*
X141148920Y-97280181D01*
X141141698Y-97274886D01*
X141140000Y-97268816D01*
X141140000Y-96788489D01*
X141143427Y-96780216D01*
X141150425Y-96776858D01*
X141249999Y-96765959D01*
X141359999Y-96735918D01*
X141470000Y-96687876D01*
X141580000Y-96621835D01*
X141681387Y-96544374D01*
X141690041Y-96542075D01*
X141697217Y-96545879D01*
G37*
G04 #@! TD.AperFunction*
G04 #@! TA.AperFunction,Conductor*
G36*
X130653029Y-85370862D02*
G01*
X130990817Y-85708650D01*
X130994244Y-85716923D01*
X130991207Y-85724787D01*
X130835617Y-85896182D01*
X130740629Y-86040477D01*
X130710849Y-86110980D01*
X130681068Y-86181484D01*
X130624259Y-86351286D01*
X130541779Y-86570654D01*
X130535660Y-86577191D01*
X130526710Y-86577487D01*
X130526368Y-86577353D01*
X130005474Y-86362562D01*
X129999132Y-86356240D01*
X129999117Y-86356205D01*
X129784326Y-85835311D01*
X129784341Y-85826356D01*
X129790683Y-85820034D01*
X129790969Y-85819921D01*
X130010392Y-85737420D01*
X130072822Y-85716533D01*
X130180194Y-85680610D01*
X130180194Y-85680609D01*
X130321202Y-85621049D01*
X130465495Y-85526063D01*
X130636895Y-85370470D01*
X130645321Y-85367449D01*
X130653029Y-85370862D01*
G37*
G04 #@! TD.AperFunction*
G04 #@! TA.AperFunction,Conductor*
G36*
X122373677Y-61268427D02*
G01*
X122375673Y-61271095D01*
X122492349Y-61485000D01*
X122612349Y-61675000D01*
X122732349Y-61834999D01*
X122852349Y-61964999D01*
X122962513Y-62056803D01*
X122966675Y-62064732D01*
X122964011Y-62073281D01*
X122963301Y-62074059D01*
X122180627Y-62857711D01*
X122172356Y-62861143D01*
X122164081Y-62857721D01*
X122164071Y-62857711D01*
X121784018Y-62477184D01*
X121381395Y-62074057D01*
X121377974Y-62065784D01*
X121381406Y-62057513D01*
X121382170Y-62056815D01*
X121492349Y-61964999D01*
X121612349Y-61834999D01*
X121732349Y-61675000D01*
X121852349Y-61485000D01*
X121969023Y-61271096D01*
X121975993Y-61265475D01*
X121979294Y-61265000D01*
X122365404Y-61265000D01*
X122373677Y-61268427D01*
G37*
G04 #@! TD.AperFunction*
G04 #@! TA.AperFunction,Conductor*
G36*
X129278023Y-77838128D02*
G01*
X129278939Y-77838883D01*
X129462640Y-77990359D01*
X129625729Y-78062562D01*
X129625736Y-78062565D01*
X129787806Y-78092555D01*
X129976722Y-78124754D01*
X129978333Y-78125148D01*
X130211576Y-78200266D01*
X130218400Y-78206064D01*
X130219126Y-78214990D01*
X130218805Y-78215863D01*
X130004241Y-78736205D01*
X129997920Y-78742547D01*
X129997885Y-78742561D01*
X129477543Y-78957125D01*
X129468588Y-78957111D01*
X129462267Y-78950769D01*
X129461946Y-78949896D01*
X129386828Y-78716653D01*
X129386433Y-78715037D01*
X129354235Y-78526126D01*
X129324245Y-78364056D01*
X129324242Y-78364049D01*
X129252039Y-78200960D01*
X129189528Y-78125150D01*
X129099808Y-78016343D01*
X129097190Y-78007782D01*
X129100562Y-78000630D01*
X129262310Y-77838882D01*
X129270582Y-77835456D01*
X129278023Y-77838128D01*
G37*
G04 #@! TD.AperFunction*
G04 #@! TA.AperFunction,Conductor*
G36*
X130489683Y-59185196D02*
G01*
X130533075Y-59203288D01*
X130539393Y-59209635D01*
X130539372Y-59218589D01*
X130539078Y-59219237D01*
X130467563Y-59365112D01*
X130467264Y-59365649D01*
X130398827Y-59474618D01*
X130343391Y-59569916D01*
X130343387Y-59569924D01*
X130305736Y-59685497D01*
X130291473Y-59844729D01*
X130287322Y-59852663D01*
X130279681Y-59855384D01*
X130051402Y-59852675D01*
X130043170Y-59849150D01*
X130039863Y-59841691D01*
X130030242Y-59684238D01*
X129997340Y-59568789D01*
X129946075Y-59473052D01*
X129880828Y-59364088D01*
X129880579Y-59363627D01*
X129810825Y-59219204D01*
X129810312Y-59210263D01*
X129816271Y-59203580D01*
X129816858Y-59203316D01*
X129816925Y-59203288D01*
X130170511Y-59055876D01*
X130179460Y-59055856D01*
X130489683Y-59185196D01*
G37*
G04 #@! TD.AperFunction*
G04 #@! TA.AperFunction,Conductor*
G36*
X61082794Y-108158426D02*
G01*
X61086150Y-108165415D01*
X61125656Y-108523150D01*
X61233383Y-108765422D01*
X61386811Y-108961086D01*
X61563945Y-109188621D01*
X61565046Y-109190320D01*
X61739265Y-109518359D01*
X61740119Y-109527273D01*
X61734420Y-109534180D01*
X61733421Y-109534652D01*
X60964488Y-109854133D01*
X60955533Y-109854142D01*
X60955510Y-109854133D01*
X60186578Y-109534652D01*
X60180253Y-109528313D01*
X60180262Y-109519358D01*
X60180729Y-109518369D01*
X60354954Y-109190314D01*
X60356047Y-109188627D01*
X60533188Y-108961086D01*
X60686616Y-108765421D01*
X60794342Y-108523152D01*
X60833849Y-108165415D01*
X60838164Y-108157568D01*
X60845479Y-108154999D01*
X61074521Y-108154999D01*
X61082794Y-108158426D01*
G37*
G04 #@! TD.AperFunction*
G04 #@! TA.AperFunction,Conductor*
G36*
X148243259Y-57234079D02*
G01*
X148390235Y-57357085D01*
X148497975Y-57447256D01*
X148497979Y-57447258D01*
X148497983Y-57447262D01*
X148718884Y-57551909D01*
X148937928Y-57599898D01*
X149194933Y-57649908D01*
X149195642Y-57650094D01*
X149519199Y-57756950D01*
X149525980Y-57762799D01*
X149526640Y-57771729D01*
X149526345Y-57772525D01*
X149227562Y-58496212D01*
X149221237Y-58502551D01*
X149221212Y-58502562D01*
X148497525Y-58801345D01*
X148488570Y-58801334D01*
X148482245Y-58794995D01*
X148481950Y-58794199D01*
X148375094Y-58470642D01*
X148374907Y-58469928D01*
X148324898Y-58212928D01*
X148276909Y-57993884D01*
X148276908Y-57993884D01*
X148172262Y-57772983D01*
X148172258Y-57772978D01*
X148172256Y-57772975D01*
X148069257Y-57649907D01*
X147959079Y-57518260D01*
X147956398Y-57509718D01*
X147959778Y-57502481D01*
X148227481Y-57234778D01*
X148235753Y-57231352D01*
X148243259Y-57234079D01*
G37*
G04 #@! TD.AperFunction*
G04 #@! TA.AperFunction,Conductor*
G36*
X130535323Y-88682661D02*
G01*
X130541645Y-88689003D01*
X130541779Y-88689345D01*
X130624259Y-88908712D01*
X130681068Y-89078513D01*
X130740630Y-89219522D01*
X130835616Y-89363815D01*
X130991207Y-89535213D01*
X130994230Y-89543641D01*
X130990817Y-89551349D01*
X130653029Y-89889137D01*
X130644756Y-89892564D01*
X130636893Y-89889527D01*
X130465495Y-89733936D01*
X130321202Y-89638950D01*
X130180194Y-89579388D01*
X130010392Y-89522579D01*
X129791025Y-89440099D01*
X129784488Y-89433980D01*
X129784192Y-89425030D01*
X129784313Y-89424719D01*
X129999117Y-88903793D01*
X130005439Y-88897452D01*
X130005474Y-88897437D01*
X130526369Y-88682646D01*
X130535323Y-88682661D01*
G37*
G04 #@! TD.AperFunction*
G04 #@! TA.AperFunction,Conductor*
G36*
X129278023Y-75298128D02*
G01*
X129278939Y-75298883D01*
X129462640Y-75450359D01*
X129625729Y-75522562D01*
X129625736Y-75522565D01*
X129787806Y-75552555D01*
X129976722Y-75584754D01*
X129978333Y-75585148D01*
X130211576Y-75660266D01*
X130218400Y-75666064D01*
X130219126Y-75674990D01*
X130218805Y-75675863D01*
X130004241Y-76196205D01*
X129997920Y-76202547D01*
X129997885Y-76202561D01*
X129477543Y-76417125D01*
X129468588Y-76417111D01*
X129462267Y-76410769D01*
X129461946Y-76409896D01*
X129386828Y-76176653D01*
X129386433Y-76175037D01*
X129354235Y-75986126D01*
X129324245Y-75824056D01*
X129324242Y-75824049D01*
X129252039Y-75660960D01*
X129189528Y-75585150D01*
X129099808Y-75476343D01*
X129097190Y-75467782D01*
X129100562Y-75460630D01*
X129262310Y-75298882D01*
X129270582Y-75295456D01*
X129278023Y-75298128D01*
G37*
G04 #@! TD.AperFunction*
G04 #@! TA.AperFunction,Conductor*
G36*
X130129771Y-72502764D02*
G01*
X130138002Y-72506289D01*
X130141292Y-72513505D01*
X130160742Y-72750146D01*
X130221608Y-72916328D01*
X130221613Y-72916338D01*
X130312030Y-73052414D01*
X130420776Y-73209007D01*
X130421184Y-73209689D01*
X130531793Y-73426785D01*
X130532495Y-73435712D01*
X130526679Y-73442521D01*
X130525862Y-73442898D01*
X130006163Y-73659128D01*
X129997209Y-73659142D01*
X129997174Y-73659128D01*
X129477562Y-73442925D01*
X129471240Y-73436583D01*
X129471255Y-73427628D01*
X129471653Y-73426771D01*
X129584660Y-73208019D01*
X129585572Y-73206539D01*
X129698650Y-73050604D01*
X129795082Y-72915554D01*
X129862848Y-72749518D01*
X129889274Y-72510461D01*
X129893589Y-72502616D01*
X129901039Y-72500049D01*
X130129771Y-72502764D01*
G37*
G04 #@! TD.AperFunction*
G04 #@! TA.AperFunction,Conductor*
G36*
X127993111Y-59203303D02*
G01*
X127999429Y-59209650D01*
X127999408Y-59218604D01*
X127999130Y-59219220D01*
X127928425Y-59364581D01*
X127928153Y-59365078D01*
X127861301Y-59474215D01*
X127807969Y-59569905D01*
X127807967Y-59569910D01*
X127772729Y-59685596D01*
X127772728Y-59685602D01*
X127760813Y-59844177D01*
X127756776Y-59852170D01*
X127749146Y-59855000D01*
X127520854Y-59855000D01*
X127512581Y-59851573D01*
X127509187Y-59844177D01*
X127497270Y-59685602D01*
X127497269Y-59685596D01*
X127462031Y-59569910D01*
X127462029Y-59569905D01*
X127408697Y-59474215D01*
X127341844Y-59365078D01*
X127341572Y-59364581D01*
X127339032Y-59359360D01*
X127270868Y-59219218D01*
X127270332Y-59210281D01*
X127276272Y-59203581D01*
X127276874Y-59203308D01*
X127630500Y-59055875D01*
X127639449Y-59055855D01*
X127993111Y-59203303D01*
G37*
G04 #@! TD.AperFunction*
G04 #@! TA.AperFunction,Conductor*
G36*
X64139039Y-77302669D02*
G01*
X64302893Y-77466523D01*
X64306320Y-77474796D01*
X64304900Y-77480382D01*
X64290034Y-77507740D01*
X64196941Y-77679056D01*
X64178253Y-77713446D01*
X64047443Y-77994669D01*
X63916629Y-78316402D01*
X63785814Y-78678635D01*
X63658906Y-79069342D01*
X63653091Y-79076152D01*
X63644164Y-79076856D01*
X63643312Y-79076542D01*
X62858785Y-78752562D01*
X62852447Y-78746238D01*
X62529308Y-77963749D01*
X62529317Y-77954796D01*
X62535656Y-77948471D01*
X62538326Y-77947724D01*
X62845363Y-77900185D01*
X63167096Y-77809870D01*
X63488830Y-77679056D01*
X63810563Y-77507741D01*
X64124333Y-77301169D01*
X64133127Y-77299483D01*
X64139039Y-77302669D01*
G37*
G04 #@! TD.AperFunction*
G04 #@! TA.AperFunction,Conductor*
G36*
X42027794Y-70698427D02*
G01*
X42031150Y-70705416D01*
X42070656Y-71063151D01*
X42178383Y-71305423D01*
X42331811Y-71501087D01*
X42508945Y-71728622D01*
X42510046Y-71730321D01*
X42684265Y-72058360D01*
X42685119Y-72067274D01*
X42679420Y-72074181D01*
X42678421Y-72074653D01*
X41909488Y-72394134D01*
X41900533Y-72394143D01*
X41900510Y-72394134D01*
X41131578Y-72074653D01*
X41125253Y-72068314D01*
X41125262Y-72059359D01*
X41125729Y-72058370D01*
X41299954Y-71730315D01*
X41301047Y-71728628D01*
X41478188Y-71501087D01*
X41631616Y-71305422D01*
X41739342Y-71063153D01*
X41778849Y-70705416D01*
X41783164Y-70697569D01*
X41790479Y-70695000D01*
X42019521Y-70695000D01*
X42027794Y-70698427D01*
G37*
G04 #@! TD.AperFunction*
G04 #@! TA.AperFunction,Conductor*
G36*
X141697729Y-69307715D02*
G01*
X141990545Y-69600000D01*
X142233601Y-69842614D01*
X142237035Y-69850884D01*
X142234490Y-69858180D01*
X141865995Y-70321233D01*
X141858162Y-70325573D01*
X141851059Y-70324120D01*
X141715819Y-70247258D01*
X141715812Y-70247254D01*
X141715809Y-70247253D01*
X141681538Y-70232061D01*
X141571860Y-70183441D01*
X141427916Y-70137629D01*
X141427907Y-70137627D01*
X141427904Y-70137626D01*
X141283952Y-70109813D01*
X141283957Y-70109813D01*
X141150904Y-70100743D01*
X141142883Y-70096761D01*
X141140000Y-70089070D01*
X141140000Y-69609422D01*
X141143427Y-69601149D01*
X141149204Y-69597991D01*
X141214420Y-69583762D01*
X141250000Y-69576000D01*
X141359991Y-69534003D01*
X141359989Y-69534003D01*
X141359999Y-69534000D01*
X141470000Y-69474000D01*
X141580000Y-69396000D01*
X141681772Y-69307180D01*
X141690256Y-69304323D01*
X141697729Y-69307715D01*
G37*
G04 #@! TD.AperFunction*
G04 #@! TA.AperFunction,Conductor*
G36*
X42973207Y-91379044D02*
G01*
X43240955Y-91646792D01*
X43244382Y-91655065D01*
X43241678Y-91662546D01*
X43015043Y-91935070D01*
X42906144Y-92171618D01*
X42906144Y-92171619D01*
X42858152Y-92406400D01*
X42807489Y-92681442D01*
X42807299Y-92682190D01*
X42694218Y-93028283D01*
X42688392Y-93035082D01*
X42679463Y-93035770D01*
X42678631Y-93035463D01*
X41908785Y-92717562D01*
X41902447Y-92711238D01*
X41584536Y-91941367D01*
X41584545Y-91932413D01*
X41590884Y-91926088D01*
X41591689Y-91925790D01*
X41937819Y-91812696D01*
X41938549Y-91812510D01*
X42213598Y-91761846D01*
X42448379Y-91713854D01*
X42684931Y-91604954D01*
X42957454Y-91378320D01*
X42966005Y-91375666D01*
X42973207Y-91379044D01*
G37*
G04 #@! TD.AperFunction*
G04 #@! TA.AperFunction,Conductor*
G36*
X41909488Y-69855865D02*
G01*
X42316301Y-70024890D01*
X42678421Y-70175346D01*
X42684746Y-70181685D01*
X42684737Y-70190640D01*
X42684265Y-70191639D01*
X42510046Y-70519676D01*
X42508945Y-70521375D01*
X42331811Y-70748911D01*
X42178383Y-70944574D01*
X42070656Y-71186847D01*
X42031150Y-71544584D01*
X42026836Y-71552431D01*
X42019521Y-71555000D01*
X41790479Y-71555000D01*
X41782206Y-71551573D01*
X41778850Y-71544584D01*
X41739342Y-71186847D01*
X41631615Y-70944574D01*
X41478188Y-70748911D01*
X41301052Y-70521375D01*
X41299951Y-70519676D01*
X41125734Y-70191639D01*
X41124880Y-70182725D01*
X41130579Y-70175818D01*
X41131566Y-70175351D01*
X41900511Y-69855864D01*
X41909465Y-69855856D01*
X41909488Y-69855865D01*
G37*
G04 #@! TD.AperFunction*
G04 #@! TA.AperFunction,Conductor*
G36*
X93990277Y-49212235D02*
G01*
X93991221Y-49214516D01*
X94727669Y-51709603D01*
X94726725Y-51718508D01*
X94723355Y-51722359D01*
X94604994Y-51808927D01*
X94480007Y-51929625D01*
X94479998Y-51929635D01*
X94382776Y-52046301D01*
X94354999Y-52079634D01*
X94229999Y-52258923D01*
X94108408Y-52461814D01*
X94101216Y-52467149D01*
X94098372Y-52467500D01*
X93861628Y-52467500D01*
X93853355Y-52464073D01*
X93851592Y-52461814D01*
X93730000Y-52258923D01*
X93605000Y-52079634D01*
X93479999Y-51929634D01*
X93479991Y-51929625D01*
X93355004Y-51808927D01*
X93236644Y-51722359D01*
X93231989Y-51714709D01*
X93232329Y-51709606D01*
X93968779Y-49214515D01*
X93974407Y-49207551D01*
X93983312Y-49206607D01*
X93990277Y-49212235D01*
G37*
G04 #@! TD.AperFunction*
G04 #@! TA.AperFunction,Conductor*
G36*
X61042280Y-86671233D02*
G01*
X61048605Y-86677572D01*
X61048594Y-86686527D01*
X61048146Y-86687481D01*
X60886940Y-86994165D01*
X60885911Y-86995785D01*
X60723575Y-87210116D01*
X60584055Y-87394959D01*
X60486631Y-87623078D01*
X60451111Y-87957547D01*
X60446829Y-87965412D01*
X60439476Y-87968011D01*
X60210469Y-87968011D01*
X60202196Y-87964584D01*
X60198841Y-87957606D01*
X60161447Y-87621815D01*
X60059377Y-87394248D01*
X59914173Y-87210593D01*
X59746848Y-86996935D01*
X59745737Y-86995228D01*
X59581942Y-86687507D01*
X59581081Y-86678595D01*
X59586774Y-86671683D01*
X59587763Y-86671215D01*
X60310512Y-86370864D01*
X60319461Y-86370854D01*
X61042280Y-86671233D01*
G37*
G04 #@! TD.AperFunction*
G04 #@! TA.AperFunction,Conductor*
G36*
X42027794Y-68158427D02*
G01*
X42031150Y-68165416D01*
X42070656Y-68523151D01*
X42178383Y-68765423D01*
X42331811Y-68961087D01*
X42508945Y-69188622D01*
X42510046Y-69190321D01*
X42684265Y-69518360D01*
X42685119Y-69527274D01*
X42679420Y-69534181D01*
X42678421Y-69534653D01*
X41909488Y-69854134D01*
X41900533Y-69854143D01*
X41900510Y-69854134D01*
X41131578Y-69534653D01*
X41125253Y-69528314D01*
X41125262Y-69519359D01*
X41125729Y-69518370D01*
X41299954Y-69190315D01*
X41301047Y-69188628D01*
X41478188Y-68961087D01*
X41631616Y-68765422D01*
X41739342Y-68523153D01*
X41778849Y-68165416D01*
X41783164Y-68157569D01*
X41790479Y-68155000D01*
X42019521Y-68155000D01*
X42027794Y-68158427D01*
G37*
G04 #@! TD.AperFunction*
G04 #@! TA.AperFunction,Conductor*
G36*
X138174295Y-83288989D02*
G01*
X138174594Y-83289119D01*
X138388070Y-83385929D01*
X138388070Y-83385930D01*
X138548306Y-83465826D01*
X138548307Y-83465827D01*
X138605898Y-83489213D01*
X138690133Y-83523419D01*
X138796173Y-83545270D01*
X138859317Y-83558282D01*
X138859322Y-83558282D01*
X138859329Y-83558284D01*
X139090546Y-83569461D01*
X139098643Y-83573283D01*
X139101680Y-83581147D01*
X139101680Y-84058852D01*
X139098253Y-84067125D01*
X139090545Y-84070538D01*
X138859333Y-84081714D01*
X138859317Y-84081716D01*
X138690132Y-84116580D01*
X138548307Y-84174172D01*
X138548306Y-84174173D01*
X138388070Y-84254069D01*
X138174632Y-84350863D01*
X138165682Y-84351159D01*
X138159145Y-84345040D01*
X138158998Y-84344703D01*
X138064081Y-84116580D01*
X137942549Y-83824494D01*
X137942535Y-83815541D01*
X138158998Y-83295295D01*
X138165340Y-83288974D01*
X138174295Y-83288989D01*
G37*
G04 #@! TD.AperFunction*
G04 #@! TA.AperFunction,Conductor*
G36*
X54619000Y-49219207D02*
G01*
X54620178Y-49222419D01*
X55136397Y-51709216D01*
X55134723Y-51718013D01*
X55130788Y-51721728D01*
X54993960Y-51800678D01*
X54993957Y-51800680D01*
X54849791Y-51914470D01*
X54705634Y-52058861D01*
X54705628Y-52058867D01*
X54561471Y-52233862D01*
X54425313Y-52428053D01*
X54417757Y-52432860D01*
X54409016Y-52430916D01*
X54407460Y-52429609D01*
X54241841Y-52263990D01*
X54239696Y-52261041D01*
X54164429Y-52113757D01*
X54088318Y-51984768D01*
X54012217Y-51875741D01*
X53936114Y-51786653D01*
X53936112Y-51786651D01*
X53936107Y-51786645D01*
X53865432Y-51722435D01*
X53861613Y-51714335D01*
X53862080Y-51710460D01*
X53862448Y-51709216D01*
X54597503Y-49221480D01*
X54603132Y-49214519D01*
X54612037Y-49213577D01*
X54619000Y-49219207D01*
G37*
G04 #@! TD.AperFunction*
G04 #@! TA.AperFunction,Conductor*
G36*
X42027794Y-65618427D02*
G01*
X42031150Y-65625416D01*
X42070656Y-65983151D01*
X42178383Y-66225423D01*
X42331811Y-66421087D01*
X42508945Y-66648622D01*
X42510046Y-66650321D01*
X42684265Y-66978360D01*
X42685119Y-66987274D01*
X42679420Y-66994181D01*
X42678421Y-66994653D01*
X41909488Y-67314134D01*
X41900533Y-67314143D01*
X41900510Y-67314134D01*
X41131578Y-66994653D01*
X41125253Y-66988314D01*
X41125262Y-66979359D01*
X41125729Y-66978370D01*
X41299954Y-66650315D01*
X41301047Y-66648628D01*
X41478188Y-66421087D01*
X41631616Y-66225422D01*
X41739342Y-65983153D01*
X41778849Y-65625416D01*
X41783164Y-65617569D01*
X41790479Y-65615000D01*
X42019521Y-65615000D01*
X42027794Y-65618427D01*
G37*
G04 #@! TD.AperFunction*
G04 #@! TA.AperFunction,Conductor*
G36*
X61365405Y-85157665D02*
G01*
X61527334Y-85319594D01*
X61530761Y-85327867D01*
X61528179Y-85335199D01*
X61316635Y-85598255D01*
X61225744Y-85830118D01*
X61195847Y-86061278D01*
X61160840Y-86329414D01*
X61160419Y-86331346D01*
X61057886Y-86663880D01*
X61052173Y-86670777D01*
X61043258Y-86671614D01*
X61042240Y-86671248D01*
X60318787Y-86372562D01*
X60312448Y-86366237D01*
X60312437Y-86366212D01*
X60297650Y-86330397D01*
X60013750Y-85642759D01*
X60013762Y-85633804D01*
X60020101Y-85627479D01*
X60021102Y-85627119D01*
X60353661Y-85524576D01*
X60355573Y-85524159D01*
X60623721Y-85489151D01*
X60854879Y-85459254D01*
X61086743Y-85368362D01*
X61349803Y-85156819D01*
X61358395Y-85154306D01*
X61365405Y-85157665D01*
G37*
G04 #@! TD.AperFunction*
G04 #@! TA.AperFunction,Conductor*
G36*
X43274382Y-63242301D02*
G01*
X43438272Y-63406191D01*
X43441699Y-63414464D01*
X43440299Y-63420013D01*
X43306541Y-63668298D01*
X43168658Y-63967737D01*
X43168658Y-63967738D01*
X43030771Y-64310688D01*
X42892885Y-64697135D01*
X42758876Y-65114995D01*
X42753086Y-65121826D01*
X42744162Y-65122563D01*
X42743268Y-65122236D01*
X41908784Y-64777562D01*
X41902446Y-64771236D01*
X41570572Y-63967741D01*
X41558635Y-63938841D01*
X41558644Y-63929886D01*
X41564982Y-63923560D01*
X41567724Y-63922802D01*
X41895864Y-63874114D01*
X42238811Y-63779728D01*
X42238822Y-63779723D01*
X42238824Y-63779723D01*
X42581743Y-63641848D01*
X42581742Y-63641848D01*
X42581758Y-63641842D01*
X42924705Y-63460456D01*
X43259693Y-63240789D01*
X43268491Y-63239119D01*
X43274382Y-63242301D01*
G37*
G04 #@! TD.AperFunction*
G04 #@! TA.AperFunction,Conductor*
G36*
X141697729Y-83277715D02*
G01*
X141990545Y-83570000D01*
X142233601Y-83812614D01*
X142237035Y-83820884D01*
X142234490Y-83828180D01*
X141865995Y-84291233D01*
X141858162Y-84295573D01*
X141851059Y-84294120D01*
X141715819Y-84217258D01*
X141715812Y-84217254D01*
X141715809Y-84217253D01*
X141681538Y-84202061D01*
X141571860Y-84153441D01*
X141427916Y-84107629D01*
X141427907Y-84107627D01*
X141427904Y-84107626D01*
X141283952Y-84079813D01*
X141283957Y-84079813D01*
X141150904Y-84070743D01*
X141142883Y-84066761D01*
X141140000Y-84059070D01*
X141140000Y-83579422D01*
X141143427Y-83571149D01*
X141149204Y-83567991D01*
X141214420Y-83553762D01*
X141250000Y-83546000D01*
X141359991Y-83504003D01*
X141359989Y-83504003D01*
X141359999Y-83504000D01*
X141470000Y-83444000D01*
X141580000Y-83366000D01*
X141681772Y-83277180D01*
X141690256Y-83274323D01*
X141697729Y-83277715D01*
G37*
G04 #@! TD.AperFunction*
G04 #@! TA.AperFunction,Conductor*
G36*
X41131577Y-89854622D02*
G01*
X41901215Y-90172438D01*
X41907552Y-90178761D01*
X41907562Y-90178785D01*
X42225372Y-90948410D01*
X42225363Y-90957365D01*
X42219024Y-90963690D01*
X42217984Y-90964063D01*
X41862835Y-91072829D01*
X41860855Y-91073252D01*
X41574709Y-91108891D01*
X41327870Y-91138756D01*
X41327861Y-91138758D01*
X41080379Y-91233893D01*
X40799485Y-91458918D01*
X40790886Y-91461416D01*
X40783897Y-91458060D01*
X40621939Y-91296102D01*
X40618512Y-91287829D01*
X40621080Y-91280516D01*
X40846104Y-90999619D01*
X40941241Y-90752135D01*
X40971107Y-90505289D01*
X41006745Y-90219139D01*
X41007168Y-90217163D01*
X41020298Y-90174293D01*
X41115936Y-89862014D01*
X41121635Y-89855108D01*
X41130549Y-89854254D01*
X41131577Y-89854622D01*
G37*
G04 #@! TD.AperFunction*
G04 #@! TA.AperFunction,Conductor*
G36*
X56637794Y-108158427D02*
G01*
X56641150Y-108165416D01*
X56680656Y-108523151D01*
X56788383Y-108765423D01*
X56941811Y-108961087D01*
X57118945Y-109188622D01*
X57120046Y-109190321D01*
X57294265Y-109518360D01*
X57295119Y-109527274D01*
X57289420Y-109534181D01*
X57288421Y-109534653D01*
X56519489Y-109854134D01*
X56510534Y-109854143D01*
X56510511Y-109854134D01*
X55741578Y-109534653D01*
X55735253Y-109528314D01*
X55735262Y-109519359D01*
X55735729Y-109518370D01*
X55909954Y-109190315D01*
X55911047Y-109188628D01*
X56088188Y-108961087D01*
X56241616Y-108765422D01*
X56349342Y-108523153D01*
X56388849Y-108165416D01*
X56393164Y-108157569D01*
X56400479Y-108155000D01*
X56629521Y-108155000D01*
X56637794Y-108158427D01*
G37*
G04 #@! TD.AperFunction*
G04 #@! TA.AperFunction,Conductor*
G36*
X62066680Y-78423453D02*
G01*
X62851214Y-78747437D01*
X62857553Y-78753762D01*
X62857562Y-78753785D01*
X63180691Y-79536248D01*
X63180682Y-79545203D01*
X63174343Y-79551528D01*
X63171667Y-79552276D01*
X62864638Y-79599813D01*
X62864627Y-79599816D01*
X62542902Y-79690129D01*
X62221172Y-79820941D01*
X62221167Y-79820943D01*
X61899436Y-79992258D01*
X61899424Y-79992265D01*
X61585667Y-80198829D01*
X61576872Y-80200516D01*
X61570960Y-80197330D01*
X61407106Y-80033476D01*
X61403679Y-80025203D01*
X61405097Y-80019621D01*
X61531741Y-79786563D01*
X61618608Y-79599813D01*
X61662556Y-79505330D01*
X61793370Y-79183596D01*
X61924185Y-78821363D01*
X61924184Y-78821362D01*
X62051094Y-78430654D01*
X62056908Y-78423846D01*
X62065835Y-78423142D01*
X62066680Y-78423453D01*
G37*
G04 #@! TD.AperFunction*
G04 #@! TA.AperFunction,Conductor*
G36*
X35067365Y-89854636D02*
G01*
X35073690Y-89860975D01*
X35074063Y-89862015D01*
X35182829Y-90217163D01*
X35183252Y-90219143D01*
X35218891Y-90505289D01*
X35248756Y-90752127D01*
X35248758Y-90752136D01*
X35343893Y-90999618D01*
X35568918Y-91280514D01*
X35571416Y-91289113D01*
X35568060Y-91296102D01*
X35406102Y-91458060D01*
X35397829Y-91461487D01*
X35390514Y-91458918D01*
X35109618Y-91233893D01*
X34862136Y-91138758D01*
X34862127Y-91138756D01*
X34615289Y-91108891D01*
X34329143Y-91073252D01*
X34327163Y-91072829D01*
X33972015Y-90964063D01*
X33965108Y-90958364D01*
X33964254Y-90949450D01*
X33964620Y-90948429D01*
X34282438Y-90178783D01*
X34288759Y-90172448D01*
X35058412Y-89854627D01*
X35067365Y-89854636D01*
G37*
G04 #@! TD.AperFunction*
G04 #@! TA.AperFunction,Conductor*
G36*
X138763326Y-54516743D02*
G01*
X138763680Y-54517514D01*
X139064133Y-55240511D01*
X139064144Y-55249466D01*
X139064133Y-55249491D01*
X138763680Y-55972487D01*
X138757341Y-55978812D01*
X138748386Y-55978801D01*
X138747615Y-55978447D01*
X138735777Y-55972487D01*
X138443266Y-55825215D01*
X138442631Y-55824843D01*
X138225542Y-55678478D01*
X138036722Y-55557524D01*
X138036721Y-55557523D01*
X138036720Y-55557523D01*
X137806522Y-55475319D01*
X137806521Y-55475318D01*
X137806519Y-55475318D01*
X137475665Y-55445946D01*
X137467728Y-55441801D01*
X137465000Y-55434292D01*
X137465000Y-55245001D01*
X137465000Y-55055705D01*
X137468427Y-55047435D01*
X137475664Y-55044054D01*
X137806523Y-55014681D01*
X138036721Y-54932477D01*
X138225542Y-54811523D01*
X138442638Y-54665151D01*
X138443254Y-54664790D01*
X138747617Y-54511553D01*
X138756545Y-54510894D01*
X138763326Y-54516743D01*
G37*
G04 #@! TD.AperFunction*
G04 #@! TA.AperFunction,Conductor*
G36*
X46168151Y-90988873D02*
G01*
X46168331Y-90989284D01*
X46354127Y-91435503D01*
X46354144Y-91444457D01*
X46354127Y-91444497D01*
X46168331Y-91890715D01*
X46161987Y-91897036D01*
X46153033Y-91897019D01*
X46152622Y-91896839D01*
X45969718Y-91812307D01*
X45969440Y-91812169D01*
X45831784Y-91739474D01*
X45710164Y-91685359D01*
X45564610Y-91651627D01*
X45366052Y-91640613D01*
X45357981Y-91636733D01*
X45355000Y-91628931D01*
X45355000Y-91251068D01*
X45358427Y-91242795D01*
X45366049Y-91239387D01*
X45564609Y-91228372D01*
X45710166Y-91194638D01*
X45831784Y-91140525D01*
X45969451Y-91067823D01*
X45969693Y-91067703D01*
X46152623Y-90983159D01*
X46161569Y-90982800D01*
X46168151Y-90988873D01*
G37*
G04 #@! TD.AperFunction*
G04 #@! TA.AperFunction,Conductor*
G36*
X41909488Y-67315865D02*
G01*
X42316301Y-67484890D01*
X42678421Y-67635346D01*
X42684746Y-67641685D01*
X42684737Y-67650640D01*
X42684265Y-67651639D01*
X42510046Y-67979676D01*
X42508945Y-67981375D01*
X42331811Y-68208911D01*
X42178383Y-68404574D01*
X42070656Y-68646847D01*
X42031150Y-69004584D01*
X42026836Y-69012431D01*
X42019521Y-69015000D01*
X41790479Y-69015000D01*
X41782206Y-69011573D01*
X41778850Y-69004584D01*
X41739342Y-68646847D01*
X41631615Y-68404574D01*
X41478188Y-68208911D01*
X41301052Y-67981375D01*
X41299951Y-67979676D01*
X41125734Y-67651639D01*
X41124880Y-67642725D01*
X41130579Y-67635818D01*
X41131566Y-67635351D01*
X41900511Y-67315864D01*
X41909465Y-67315856D01*
X41909488Y-67315865D01*
G37*
G04 #@! TD.AperFunction*
M02*
