G04 #@! TF.GenerationSoftware,KiCad,Pcbnew,7.0.6*
G04 #@! TF.CreationDate,2023-10-13T18:19:28+03:00*
G04 #@! TF.ProjectId,colorimeter-photodiode,636f6c6f-7269-46d6-9574-65722d70686f,rev?*
G04 #@! TF.SameCoordinates,Original*
G04 #@! TF.FileFunction,Copper,L1,Top*
G04 #@! TF.FilePolarity,Positive*
%FSLAX46Y46*%
G04 Gerber Fmt 4.6, Leading zero omitted, Abs format (unit mm)*
G04 Created by KiCad (PCBNEW 7.0.6) date 2023-10-13 18:19:28*
%MOMM*%
%LPD*%
G01*
G04 APERTURE LIST*
G04 #@! TA.AperFunction,ComponentPad*
%ADD10R,1.800000X1.800000*%
G04 #@! TD*
G04 #@! TA.AperFunction,ComponentPad*
%ADD11C,1.800000*%
G04 #@! TD*
G04 #@! TA.AperFunction,ComponentPad*
%ADD12O,1.700000X1.700000*%
G04 #@! TD*
G04 #@! TA.AperFunction,ComponentPad*
%ADD13R,1.700000X1.700000*%
G04 #@! TD*
G04 #@! TA.AperFunction,Conductor*
%ADD14C,0.400000*%
G04 #@! TD*
G04 APERTURE END LIST*
D10*
X102870000Y-79380000D03*
D11*
X102870000Y-76840000D03*
D12*
X92620000Y-75580000D03*
D13*
X95160000Y-75580000D03*
D12*
X92620000Y-78120000D03*
X95160000Y-78120000D03*
X92620000Y-80660000D03*
X95160000Y-80660000D03*
D14*
X95160000Y-80660000D02*
X92620000Y-80660000D01*
X98410000Y-80660000D02*
X95160000Y-80660000D01*
X99690000Y-79380000D02*
X102870000Y-79380000D01*
X98410000Y-80660000D02*
X99690000Y-79380000D01*
X95160000Y-75580000D02*
X92620000Y-75580000D01*
X102870000Y-76840000D02*
X99700000Y-76840000D01*
X99700000Y-76840000D02*
X98440000Y-75580000D01*
X98440000Y-75580000D02*
X95160000Y-75580000D01*
G04 #@! TA.AperFunction,Conductor*
G36*
X92955731Y-79880042D02*
G01*
X92956538Y-79880414D01*
X93281219Y-80045176D01*
X93281888Y-80045574D01*
X93512192Y-80204230D01*
X93712143Y-80336311D01*
X93956415Y-80426574D01*
X94309372Y-80459023D01*
X94317296Y-80463192D01*
X94320000Y-80470673D01*
X94320000Y-80849326D01*
X94316573Y-80857599D01*
X94309371Y-80860977D01*
X93956416Y-80893424D01*
X93712143Y-80983688D01*
X93712141Y-80983689D01*
X93512192Y-81115768D01*
X93281888Y-81274424D01*
X93281215Y-81274824D01*
X92956537Y-81439585D01*
X92947608Y-81440273D01*
X92940809Y-81434447D01*
X92940443Y-81433655D01*
X92701100Y-80857599D01*
X92620865Y-80664488D01*
X92620856Y-80655533D01*
X92620856Y-80655532D01*
X92940438Y-79886356D01*
X92946776Y-79880033D01*
X92955731Y-79880042D01*
G37*
G04 #@! TD.AperFunction*
G04 #@! TA.AperFunction,Conductor*
G36*
X92955731Y-74800042D02*
G01*
X92956538Y-74800414D01*
X93281219Y-74965176D01*
X93281888Y-74965574D01*
X93512192Y-75124230D01*
X93712143Y-75256311D01*
X93956415Y-75346574D01*
X94309372Y-75379023D01*
X94317296Y-75383192D01*
X94320000Y-75390673D01*
X94320000Y-75769326D01*
X94316573Y-75777599D01*
X94309371Y-75780977D01*
X93956416Y-75813424D01*
X93712143Y-75903688D01*
X93712141Y-75903689D01*
X93512192Y-76035768D01*
X93281888Y-76194424D01*
X93281215Y-76194824D01*
X92956537Y-76359585D01*
X92947608Y-76360273D01*
X92940809Y-76354447D01*
X92940443Y-76353655D01*
X92620864Y-75584488D01*
X92620856Y-75575534D01*
X92620865Y-75575511D01*
X92702097Y-75380000D01*
X92940438Y-74806356D01*
X92946776Y-74800033D01*
X92955731Y-74800042D01*
G37*
G04 #@! TD.AperFunction*
G04 #@! TA.AperFunction,Conductor*
G36*
X94839190Y-79885552D02*
G01*
X94839562Y-79886358D01*
X95159134Y-80655511D01*
X95159143Y-80664466D01*
X95159134Y-80664489D01*
X94839562Y-81433641D01*
X94833223Y-81439966D01*
X94824268Y-81439957D01*
X94823462Y-81439585D01*
X94498783Y-81274824D01*
X94498110Y-81274424D01*
X94267806Y-81115768D01*
X94267806Y-81115767D01*
X94067855Y-80983688D01*
X93924687Y-80930784D01*
X93823582Y-80893424D01*
X93470629Y-80860977D01*
X93462704Y-80856807D01*
X93460000Y-80849326D01*
X93460000Y-80470673D01*
X93463427Y-80462400D01*
X93470626Y-80459023D01*
X93823584Y-80426574D01*
X94067855Y-80336311D01*
X94267806Y-80204230D01*
X94498121Y-80045566D01*
X94498766Y-80045183D01*
X94823463Y-79880413D01*
X94832391Y-79879726D01*
X94839190Y-79885552D01*
G37*
G04 #@! TD.AperFunction*
G04 #@! TA.AperFunction,Conductor*
G36*
X101978279Y-78488313D02*
G01*
X101978900Y-78488890D01*
X102862712Y-79371722D01*
X102866143Y-79379994D01*
X102862721Y-79388269D01*
X102862712Y-79388278D01*
X101978900Y-80271109D01*
X101970625Y-80274531D01*
X101962353Y-80271100D01*
X101961788Y-80270492D01*
X101790000Y-80071590D01*
X101789995Y-80071584D01*
X101610001Y-79897385D01*
X101609996Y-79897381D01*
X101430000Y-79757384D01*
X101429995Y-79757380D01*
X101250003Y-79651591D01*
X101250004Y-79651591D01*
X101250000Y-79651589D01*
X101147962Y-79611006D01*
X101077376Y-79582933D01*
X101070955Y-79576691D01*
X101070000Y-79572061D01*
X101070000Y-79187938D01*
X101073427Y-79179665D01*
X101077374Y-79177067D01*
X101250000Y-79108410D01*
X101430000Y-79002615D01*
X101610000Y-78862615D01*
X101790000Y-78688409D01*
X101961779Y-78489518D01*
X101969777Y-78485499D01*
X101978279Y-78488313D01*
G37*
G04 #@! TD.AperFunction*
G04 #@! TA.AperFunction,Conductor*
G36*
X96017704Y-74738840D02*
G01*
X96018230Y-74739402D01*
X96179999Y-74924202D01*
X96349999Y-75086303D01*
X96350003Y-75086306D01*
X96519998Y-75216302D01*
X96520000Y-75216303D01*
X96690000Y-75314202D01*
X96852523Y-75377106D01*
X96859002Y-75383288D01*
X96860000Y-75388017D01*
X96860000Y-75771982D01*
X96856573Y-75780255D01*
X96852523Y-75782893D01*
X96690002Y-75845796D01*
X96689995Y-75845799D01*
X96519998Y-75943696D01*
X96350003Y-76073692D01*
X96180001Y-76235794D01*
X96179996Y-76235800D01*
X96018230Y-76420597D01*
X96010202Y-76424565D01*
X96001720Y-76421695D01*
X96001167Y-76421178D01*
X95167286Y-75588276D01*
X95163855Y-75580007D01*
X95167276Y-75571733D01*
X96001160Y-74738828D01*
X96009433Y-74735408D01*
X96017704Y-74738840D01*
G37*
G04 #@! TD.AperFunction*
G04 #@! TA.AperFunction,Conductor*
G36*
X102530055Y-76019363D02*
G01*
X102530441Y-76020199D01*
X102869135Y-76835511D01*
X102869144Y-76844465D01*
X102869135Y-76844487D01*
X102530441Y-77659800D01*
X102524102Y-77666126D01*
X102515148Y-77666117D01*
X102514312Y-77665731D01*
X102169273Y-77489419D01*
X102168579Y-77489001D01*
X101925066Y-77318053D01*
X101713997Y-77174849D01*
X101713998Y-77174849D01*
X101713996Y-77174848D01*
X101553976Y-77113947D01*
X101455657Y-77076529D01*
X101455658Y-77076529D01*
X101080597Y-77041003D01*
X101072684Y-77036811D01*
X101070000Y-77029355D01*
X101070000Y-76650644D01*
X101073427Y-76642371D01*
X101080596Y-76638996D01*
X101455657Y-76603469D01*
X101713997Y-76505150D01*
X101925066Y-76361946D01*
X102168589Y-76190989D01*
X102169261Y-76190584D01*
X102514312Y-76014267D01*
X102523239Y-76013555D01*
X102530055Y-76019363D01*
G37*
G04 #@! TD.AperFunction*
G04 #@! TA.AperFunction,Conductor*
G36*
X94318279Y-74738304D02*
G01*
X94318831Y-74738820D01*
X94666722Y-75086303D01*
X95152712Y-75571722D01*
X95156144Y-75579993D01*
X95152722Y-75588268D01*
X95152712Y-75588278D01*
X94318841Y-76421169D01*
X94310566Y-76424591D01*
X94302295Y-76421159D01*
X94301769Y-76420597D01*
X94274083Y-76388970D01*
X94140000Y-76235797D01*
X93970000Y-76073696D01*
X93969995Y-76073692D01*
X93800000Y-75943696D01*
X93630003Y-75845799D01*
X93630000Y-75845798D01*
X93629999Y-75845797D01*
X93592478Y-75831274D01*
X93467476Y-75782893D01*
X93460997Y-75776711D01*
X93460000Y-75771986D01*
X93460000Y-75388014D01*
X93463426Y-75379744D01*
X93467474Y-75377107D01*
X93629999Y-75314202D01*
X93799999Y-75216303D01*
X93970000Y-75086303D01*
X94140000Y-74924202D01*
X94301770Y-74739401D01*
X94309797Y-74735434D01*
X94318279Y-74738304D01*
G37*
G04 #@! TD.AperFunction*
G04 #@! TA.AperFunction,Conductor*
G36*
X95495731Y-79880042D02*
G01*
X95496538Y-79880414D01*
X95821219Y-80045176D01*
X95821888Y-80045574D01*
X96052192Y-80204230D01*
X96252143Y-80336311D01*
X96496415Y-80426574D01*
X96849372Y-80459023D01*
X96857296Y-80463192D01*
X96860000Y-80470673D01*
X96860000Y-80849326D01*
X96856573Y-80857599D01*
X96849371Y-80860977D01*
X96496416Y-80893424D01*
X96252143Y-80983688D01*
X96252141Y-80983689D01*
X96052192Y-81115768D01*
X95821888Y-81274424D01*
X95821215Y-81274824D01*
X95496537Y-81439585D01*
X95487608Y-81440273D01*
X95480809Y-81434447D01*
X95480443Y-81433655D01*
X95160864Y-80664488D01*
X95160856Y-80655534D01*
X95160865Y-80655511D01*
X95242097Y-80460000D01*
X95480438Y-79886356D01*
X95486776Y-79880033D01*
X95495731Y-79880042D01*
G37*
G04 #@! TD.AperFunction*
G04 #@! TA.AperFunction,Conductor*
G36*
X105352539Y-73680185D02*
G01*
X105398294Y-73732989D01*
X105409500Y-73784500D01*
X105409500Y-82425500D01*
X105389815Y-82492539D01*
X105337011Y-82538294D01*
X105285500Y-82549500D01*
X82674500Y-82549500D01*
X82607461Y-82529815D01*
X82561706Y-82477011D01*
X82550500Y-82425500D01*
X82550500Y-80660000D01*
X91264341Y-80660000D01*
X91284936Y-80895403D01*
X91284938Y-80895413D01*
X91346094Y-81123655D01*
X91346096Y-81123659D01*
X91346097Y-81123663D01*
X91393107Y-81224476D01*
X91445965Y-81337830D01*
X91445967Y-81337834D01*
X91521369Y-81445518D01*
X91581505Y-81531401D01*
X91748599Y-81698495D01*
X91781871Y-81721792D01*
X91942165Y-81834032D01*
X91942167Y-81834033D01*
X91942170Y-81834035D01*
X92156337Y-81933903D01*
X92384592Y-81995063D01*
X92572918Y-82011539D01*
X92619999Y-82015659D01*
X92620000Y-82015659D01*
X92620001Y-82015659D01*
X92659234Y-82012226D01*
X92855408Y-81995063D01*
X93083663Y-81933903D01*
X93151978Y-81902046D01*
X93158245Y-81899531D01*
X93185290Y-81890365D01*
X93248302Y-81858387D01*
X93278882Y-81842870D01*
X93285198Y-81839924D01*
X93297830Y-81834035D01*
X93297836Y-81834030D01*
X93302526Y-81831324D01*
X93302616Y-81831481D01*
X93309700Y-81827230D01*
X93517481Y-81721791D01*
X93532244Y-81713670D01*
X93532246Y-81713669D01*
X93547437Y-81704640D01*
X93561693Y-81695508D01*
X93794914Y-81534842D01*
X93802244Y-81529999D01*
X93821653Y-81517178D01*
X93888437Y-81496651D01*
X93955719Y-81515489D01*
X93958287Y-81517139D01*
X93985084Y-81534840D01*
X94101694Y-81615173D01*
X94218304Y-81695507D01*
X94232558Y-81704639D01*
X94241197Y-81709773D01*
X94247754Y-81713670D01*
X94262518Y-81721792D01*
X94470312Y-81827238D01*
X94477390Y-81831484D01*
X94477481Y-81831328D01*
X94482164Y-81834032D01*
X94482169Y-81834034D01*
X94482170Y-81834035D01*
X94501105Y-81842864D01*
X94603093Y-81894619D01*
X94612434Y-81898930D01*
X94656092Y-81915338D01*
X94660478Y-81917181D01*
X94696337Y-81933903D01*
X94924592Y-81995063D01*
X95112918Y-82011539D01*
X95159999Y-82015659D01*
X95160000Y-82015659D01*
X95160001Y-82015659D01*
X95199234Y-82012226D01*
X95395408Y-81995063D01*
X95623663Y-81933903D01*
X95691978Y-81902046D01*
X95698245Y-81899531D01*
X95725290Y-81890365D01*
X95788302Y-81858387D01*
X95818882Y-81842870D01*
X95825198Y-81839924D01*
X95837830Y-81834035D01*
X95837836Y-81834030D01*
X95842526Y-81831324D01*
X95842616Y-81831481D01*
X95849700Y-81827230D01*
X96057481Y-81721791D01*
X96072244Y-81713670D01*
X96072246Y-81713669D01*
X96087437Y-81704640D01*
X96101693Y-81695508D01*
X96334915Y-81534841D01*
X96364211Y-81515489D01*
X96470138Y-81445516D01*
X96495493Y-81432672D01*
X96593755Y-81396362D01*
X96625371Y-81389199D01*
X96895646Y-81364354D01*
X96923236Y-81360962D01*
X96930799Y-81360500D01*
X98386952Y-81360500D01*
X98390697Y-81360613D01*
X98398042Y-81361057D01*
X98452606Y-81364358D01*
X98490314Y-81357447D01*
X98513621Y-81353177D01*
X98517325Y-81352613D01*
X98535170Y-81350446D01*
X98578872Y-81345140D01*
X98588335Y-81341550D01*
X98609961Y-81335522D01*
X98610893Y-81335351D01*
X98619932Y-81333695D01*
X98676512Y-81308229D01*
X98679942Y-81306809D01*
X98737930Y-81284818D01*
X98746266Y-81279062D01*
X98765821Y-81268034D01*
X98775057Y-81263878D01*
X98823896Y-81225613D01*
X98826876Y-81223421D01*
X98877929Y-81188183D01*
X98919065Y-81141748D01*
X98921599Y-81139056D01*
X99943837Y-80116819D01*
X100005161Y-80083334D01*
X100031519Y-80080500D01*
X100936842Y-80080500D01*
X100982666Y-80089278D01*
X101018399Y-80103489D01*
X101035407Y-80111809D01*
X101142084Y-80174508D01*
X101148739Y-80179024D01*
X101275436Y-80277566D01*
X101280493Y-80281957D01*
X101420206Y-80417172D01*
X101424009Y-80421196D01*
X101585232Y-80607865D01*
X101592056Y-80615208D01*
X101596146Y-80619021D01*
X101610845Y-80635398D01*
X101612448Y-80637540D01*
X101612455Y-80637547D01*
X101627833Y-80649059D01*
X101632959Y-80653346D01*
X101644974Y-80664547D01*
X101644976Y-80664548D01*
X101644980Y-80664552D01*
X101659329Y-80673074D01*
X101664809Y-80676739D01*
X101727664Y-80723793D01*
X101727671Y-80723797D01*
X101862517Y-80774091D01*
X101862516Y-80774091D01*
X101869444Y-80774835D01*
X101922127Y-80780500D01*
X103817872Y-80780499D01*
X103877483Y-80774091D01*
X104012331Y-80723796D01*
X104127546Y-80637546D01*
X104213796Y-80522331D01*
X104264091Y-80387483D01*
X104270500Y-80327873D01*
X104270499Y-78432128D01*
X104264091Y-78372517D01*
X104251510Y-78338786D01*
X104213797Y-78237671D01*
X104213793Y-78237664D01*
X104127547Y-78122455D01*
X104127544Y-78122452D01*
X104012335Y-78036206D01*
X104012328Y-78036202D01*
X103932094Y-78006277D01*
X103876160Y-77964406D01*
X103851743Y-77898941D01*
X103866595Y-77830668D01*
X103884190Y-77806121D01*
X103978979Y-77703153D01*
X104105924Y-77508849D01*
X104199157Y-77296300D01*
X104256134Y-77071305D01*
X104267374Y-76935659D01*
X104275300Y-76840006D01*
X104275300Y-76839993D01*
X104256135Y-76608702D01*
X104256133Y-76608691D01*
X104199157Y-76383699D01*
X104105924Y-76171151D01*
X103978983Y-75976852D01*
X103978980Y-75976849D01*
X103978979Y-75976847D01*
X103821784Y-75806087D01*
X103821779Y-75806083D01*
X103821777Y-75806081D01*
X103638634Y-75663535D01*
X103638628Y-75663531D01*
X103434504Y-75553064D01*
X103434495Y-75553061D01*
X103214984Y-75477702D01*
X103043281Y-75449050D01*
X102986049Y-75439500D01*
X102753951Y-75439500D01*
X102708164Y-75447140D01*
X102525015Y-75477702D01*
X102305496Y-75553063D01*
X102290361Y-75561252D01*
X102285096Y-75563788D01*
X102284318Y-75564118D01*
X101931368Y-75744471D01*
X101931369Y-75744472D01*
X101915907Y-75753068D01*
X101909631Y-75756850D01*
X101900114Y-75762585D01*
X101885353Y-75772199D01*
X101637920Y-75945900D01*
X101491009Y-76045574D01*
X101465495Y-76058853D01*
X101355527Y-76100704D01*
X101323116Y-76108260D01*
X101032926Y-76135749D01*
X101025241Y-76136710D01*
X101006758Y-76139021D01*
X100999063Y-76139500D01*
X100041519Y-76139500D01*
X99974480Y-76119815D01*
X99953838Y-76103181D01*
X99514187Y-75663530D01*
X98951598Y-75100941D01*
X98949064Y-75098250D01*
X98907929Y-75051817D01*
X98907928Y-75051816D01*
X98907924Y-75051812D01*
X98856896Y-75016591D01*
X98853887Y-75014377D01*
X98805060Y-74976124D01*
X98805055Y-74976120D01*
X98795813Y-74971961D01*
X98776266Y-74960936D01*
X98767931Y-74955183D01*
X98767932Y-74955183D01*
X98767930Y-74955182D01*
X98709941Y-74933189D01*
X98706490Y-74931759D01*
X98649930Y-74906304D01*
X98639946Y-74904474D01*
X98618343Y-74898451D01*
X98608874Y-74894860D01*
X98608870Y-74894859D01*
X98547313Y-74887384D01*
X98543612Y-74886821D01*
X98482608Y-74875642D01*
X98482603Y-74875642D01*
X98420697Y-74879387D01*
X98416952Y-74879500D01*
X96990492Y-74879500D01*
X96945734Y-74871140D01*
X96917515Y-74860218D01*
X96900399Y-74852036D01*
X96804365Y-74796732D01*
X96797636Y-74792250D01*
X96681605Y-74703520D01*
X96676484Y-74699142D01*
X96547359Y-74576019D01*
X96543492Y-74571983D01*
X96393048Y-74400120D01*
X96386768Y-74393410D01*
X96386762Y-74393404D01*
X96383323Y-74390208D01*
X96368474Y-74373692D01*
X96367548Y-74372455D01*
X96353035Y-74361590D01*
X96347986Y-74357374D01*
X96335133Y-74345432D01*
X96320124Y-74336514D01*
X96314635Y-74332844D01*
X96252331Y-74286204D01*
X96252328Y-74286202D01*
X96117482Y-74235908D01*
X96117483Y-74235908D01*
X96057883Y-74229501D01*
X96057881Y-74229500D01*
X96057873Y-74229500D01*
X96057864Y-74229500D01*
X94262129Y-74229500D01*
X94262123Y-74229501D01*
X94202516Y-74235908D01*
X94067672Y-74286202D01*
X94040113Y-74306832D01*
X94033366Y-74311230D01*
X94030626Y-74312772D01*
X94030619Y-74312776D01*
X94021531Y-74320571D01*
X94018326Y-74323140D01*
X93952456Y-74372452D01*
X93952451Y-74372457D01*
X93945216Y-74382121D01*
X93926693Y-74401916D01*
X93921411Y-74406446D01*
X93921410Y-74406447D01*
X93783433Y-74564069D01*
X93724465Y-74601547D01*
X93654596Y-74601194D01*
X93619785Y-74584510D01*
X93561736Y-74544520D01*
X93552656Y-74538700D01*
X93547569Y-74535440D01*
X93532385Y-74526408D01*
X93517531Y-74518232D01*
X93305795Y-74410784D01*
X93298301Y-74406292D01*
X93297848Y-74405975D01*
X93297833Y-74405966D01*
X93285292Y-74400118D01*
X93278921Y-74397147D01*
X93176801Y-74345326D01*
X93172074Y-74343147D01*
X93167349Y-74340969D01*
X93167348Y-74340969D01*
X93137881Y-74329902D01*
X93123840Y-74324628D01*
X93119437Y-74322778D01*
X93094671Y-74311230D01*
X93083663Y-74306097D01*
X93083661Y-74306096D01*
X93083658Y-74306095D01*
X92855413Y-74244938D01*
X92855403Y-74244936D01*
X92620001Y-74224341D01*
X92619999Y-74224341D01*
X92384596Y-74244936D01*
X92384586Y-74244938D01*
X92156344Y-74306094D01*
X92156335Y-74306098D01*
X91942171Y-74405964D01*
X91942169Y-74405965D01*
X91748597Y-74541505D01*
X91581505Y-74708597D01*
X91445965Y-74902169D01*
X91445964Y-74902171D01*
X91346098Y-75116335D01*
X91346094Y-75116344D01*
X91284938Y-75344586D01*
X91284936Y-75344596D01*
X91264341Y-75579999D01*
X91264341Y-75580000D01*
X91284936Y-75815403D01*
X91284938Y-75815413D01*
X91346094Y-76043655D01*
X91346096Y-76043659D01*
X91346097Y-76043663D01*
X91390787Y-76139500D01*
X91445965Y-76257830D01*
X91445967Y-76257834D01*
X91534100Y-76383700D01*
X91581505Y-76451401D01*
X91748599Y-76618495D01*
X91845384Y-76686264D01*
X91942165Y-76754032D01*
X91942167Y-76754033D01*
X91942170Y-76754035D01*
X92156337Y-76853903D01*
X92384592Y-76915063D01*
X92561034Y-76930500D01*
X92619999Y-76935659D01*
X92620000Y-76935659D01*
X92620001Y-76935659D01*
X92678966Y-76930500D01*
X92855408Y-76915063D01*
X93083663Y-76853903D01*
X93151978Y-76822046D01*
X93158245Y-76819531D01*
X93185290Y-76810365D01*
X93265247Y-76769789D01*
X93278882Y-76762870D01*
X93285296Y-76759879D01*
X93297830Y-76754035D01*
X93297836Y-76754030D01*
X93302526Y-76751324D01*
X93302616Y-76751481D01*
X93309700Y-76747230D01*
X93517481Y-76641791D01*
X93532244Y-76633670D01*
X93547436Y-76624640D01*
X93561692Y-76615508D01*
X93619784Y-76575487D01*
X93686155Y-76553666D01*
X93753791Y-76571192D01*
X93783431Y-76595927D01*
X93926951Y-76759879D01*
X93933232Y-76766590D01*
X93933239Y-76766597D01*
X93936674Y-76769789D01*
X93951525Y-76786307D01*
X93952446Y-76787538D01*
X93952453Y-76787545D01*
X93966959Y-76798404D01*
X93972009Y-76802621D01*
X93980344Y-76810365D01*
X93984864Y-76814565D01*
X93999881Y-76823487D01*
X94005350Y-76827144D01*
X94022514Y-76839993D01*
X94067664Y-76873793D01*
X94067671Y-76873797D01*
X94202517Y-76924091D01*
X94202516Y-76924091D01*
X94209444Y-76924835D01*
X94262127Y-76930500D01*
X96057872Y-76930499D01*
X96117483Y-76924091D01*
X96252331Y-76873796D01*
X96279911Y-76853148D01*
X96286658Y-76848752D01*
X96289376Y-76847223D01*
X96298455Y-76839434D01*
X96301627Y-76836891D01*
X96367546Y-76787546D01*
X96374780Y-76777880D01*
X96393317Y-76758071D01*
X96398588Y-76753551D01*
X96543512Y-76587992D01*
X96547376Y-76583962D01*
X96556262Y-76575489D01*
X96676507Y-76460831D01*
X96681577Y-76456498D01*
X96797640Y-76367742D01*
X96804355Y-76363268D01*
X96900402Y-76307958D01*
X96917505Y-76299783D01*
X96945731Y-76288858D01*
X96990486Y-76280500D01*
X98098481Y-76280500D01*
X98165520Y-76300185D01*
X98186162Y-76316818D01*
X99188399Y-77319056D01*
X99190935Y-77321750D01*
X99227610Y-77363148D01*
X99232070Y-77368182D01*
X99283106Y-77403410D01*
X99286122Y-77405630D01*
X99312490Y-77426287D01*
X99334943Y-77443878D01*
X99341845Y-77446984D01*
X99344182Y-77448036D01*
X99363733Y-77459063D01*
X99372070Y-77464818D01*
X99430058Y-77486809D01*
X99433496Y-77488234D01*
X99490068Y-77513695D01*
X99500042Y-77515522D01*
X99521656Y-77521548D01*
X99531127Y-77525140D01*
X99592686Y-77532614D01*
X99596366Y-77533173D01*
X99657394Y-77544357D01*
X99657395Y-77544356D01*
X99657396Y-77544357D01*
X99719293Y-77540613D01*
X99723037Y-77540500D01*
X101002640Y-77540500D01*
X101028546Y-77543587D01*
X101028558Y-77543519D01*
X101030006Y-77543761D01*
X101031782Y-77543973D01*
X101032255Y-77544087D01*
X101032929Y-77544250D01*
X101323113Y-77571736D01*
X101355525Y-77579292D01*
X101465499Y-77621146D01*
X101491012Y-77634425D01*
X101637921Y-77734099D01*
X101757288Y-77817896D01*
X101800847Y-77872526D01*
X101807956Y-77942033D01*
X101776358Y-78004349D01*
X101735284Y-78031641D01*
X101735455Y-78031953D01*
X101731871Y-78033909D01*
X101729382Y-78035564D01*
X101727678Y-78036199D01*
X101727667Y-78036205D01*
X101698464Y-78058065D01*
X101692080Y-78062257D01*
X101687806Y-78064700D01*
X101687798Y-78064705D01*
X101678365Y-78072905D01*
X101674850Y-78075742D01*
X101612453Y-78122454D01*
X101612451Y-78122457D01*
X101603761Y-78134065D01*
X101585857Y-78153326D01*
X101579219Y-78159096D01*
X101579215Y-78159101D01*
X101424022Y-78338786D01*
X101420217Y-78342814D01*
X101280497Y-78478036D01*
X101275440Y-78482428D01*
X101148733Y-78580977D01*
X101142078Y-78585493D01*
X101035406Y-78648189D01*
X101018402Y-78656507D01*
X100982664Y-78670721D01*
X100936840Y-78679500D01*
X99713037Y-78679500D01*
X99709293Y-78679387D01*
X99647397Y-78675643D01*
X99647390Y-78675643D01*
X99586402Y-78686819D01*
X99582701Y-78687382D01*
X99521125Y-78694860D01*
X99511642Y-78698456D01*
X99490038Y-78704478D01*
X99488535Y-78704754D01*
X99480065Y-78706306D01*
X99480063Y-78706307D01*
X99423527Y-78731752D01*
X99420069Y-78733184D01*
X99362069Y-78755182D01*
X99353724Y-78760942D01*
X99334183Y-78771964D01*
X99324944Y-78776122D01*
X99324939Y-78776125D01*
X99276121Y-78814370D01*
X99273106Y-78816589D01*
X99222072Y-78851816D01*
X99222065Y-78851822D01*
X99180942Y-78898240D01*
X99178375Y-78900966D01*
X98156162Y-79923181D01*
X98094839Y-79956666D01*
X98068481Y-79959500D01*
X96926390Y-79959500D01*
X96897582Y-79956107D01*
X96895654Y-79955646D01*
X96895646Y-79955645D01*
X96625372Y-79930797D01*
X96593744Y-79923631D01*
X96495505Y-79887330D01*
X96470140Y-79874482D01*
X96334916Y-79785157D01*
X96101735Y-79624519D01*
X96087569Y-79615440D01*
X96072385Y-79606408D01*
X96057531Y-79598232D01*
X95845795Y-79490784D01*
X95838301Y-79486292D01*
X95837848Y-79485975D01*
X95837833Y-79485966D01*
X95829112Y-79481899D01*
X95818921Y-79477147D01*
X95716801Y-79425326D01*
X95712074Y-79423147D01*
X95707349Y-79420969D01*
X95707348Y-79420969D01*
X95677881Y-79409902D01*
X95663840Y-79404628D01*
X95659437Y-79402778D01*
X95639996Y-79393713D01*
X95623663Y-79386097D01*
X95623661Y-79386096D01*
X95623658Y-79386095D01*
X95395413Y-79324938D01*
X95395403Y-79324936D01*
X95160001Y-79304341D01*
X95159999Y-79304341D01*
X94924596Y-79324936D01*
X94924586Y-79324938D01*
X94696344Y-79386094D01*
X94696334Y-79386098D01*
X94628051Y-79417938D01*
X94621751Y-79420466D01*
X94594710Y-79429633D01*
X94501062Y-79477155D01*
X94482166Y-79485967D01*
X94482160Y-79485971D01*
X94481719Y-79486280D01*
X94474223Y-79490774D01*
X94262549Y-79598190D01*
X94249338Y-79605454D01*
X94247873Y-79606261D01*
X94240289Y-79610764D01*
X94232703Y-79615268D01*
X94232433Y-79615441D01*
X94218359Y-79624453D01*
X93985083Y-79785157D01*
X93958342Y-79802821D01*
X93891555Y-79823345D01*
X93824274Y-79804504D01*
X93821654Y-79802820D01*
X93794916Y-79785157D01*
X93561735Y-79624519D01*
X93547569Y-79615440D01*
X93532385Y-79606408D01*
X93517531Y-79598232D01*
X93305795Y-79490784D01*
X93298301Y-79486292D01*
X93297848Y-79485975D01*
X93297833Y-79485966D01*
X93289112Y-79481899D01*
X93278921Y-79477147D01*
X93176801Y-79425326D01*
X93172074Y-79423147D01*
X93167349Y-79420969D01*
X93167348Y-79420969D01*
X93137881Y-79409902D01*
X93123840Y-79404628D01*
X93119437Y-79402778D01*
X93099996Y-79393713D01*
X93083663Y-79386097D01*
X93083661Y-79386096D01*
X93083658Y-79386095D01*
X92855413Y-79324938D01*
X92855403Y-79324936D01*
X92620001Y-79304341D01*
X92619999Y-79304341D01*
X92384596Y-79324936D01*
X92384586Y-79324938D01*
X92156344Y-79386094D01*
X92156335Y-79386098D01*
X91942171Y-79485964D01*
X91942169Y-79485965D01*
X91748597Y-79621505D01*
X91581505Y-79788597D01*
X91445965Y-79982169D01*
X91445964Y-79982171D01*
X91346098Y-80196335D01*
X91346094Y-80196344D01*
X91284938Y-80424586D01*
X91284936Y-80424596D01*
X91264341Y-80659999D01*
X91264341Y-80660000D01*
X82550500Y-80660000D01*
X82550500Y-73784500D01*
X82570185Y-73717461D01*
X82622989Y-73671706D01*
X82674500Y-73660500D01*
X105285500Y-73660500D01*
X105352539Y-73680185D01*
G37*
G04 #@! TD.AperFunction*
M02*
