%TF.GenerationSoftware,KiCad,Pcbnew,7.0.6*%
%TF.CreationDate,2023-10-13T18:19:32+03:00*%
%TF.ProjectId,colorimeter-photodiode,636f6c6f-7269-46d6-9574-65722d70686f,rev?*%
%TF.SameCoordinates,Original*%
%TF.FileFunction,Drillmap*%
%TF.FilePolarity,Positive*%
%FSLAX45Y45*%
G04 Gerber Fmt 4.5, Leading zero omitted, Abs format (unit mm)*
G04 Created by KiCad (PCBNEW 7.0.6) date 2023-10-13 18:19:32*
%MOMM*%
%LPD*%
G01*
G04 APERTURE LIST*
%ADD10C,1.000000*%
%ADD11C,0.200000*%
G04 APERTURE END LIST*
D10*
X8255000Y-7366000D02*
X10541000Y-7366000D01*
X10541000Y-8255000D01*
X8255000Y-8255000D01*
X8255000Y-7366000D01*
D11*
X8465777Y-8616484D02*
X8465777Y-8416484D01*
X8465777Y-8416484D02*
X8513396Y-8416484D01*
X8513396Y-8416484D02*
X8541967Y-8426008D01*
X8541967Y-8426008D02*
X8561015Y-8445055D01*
X8561015Y-8445055D02*
X8570539Y-8464103D01*
X8570539Y-8464103D02*
X8580063Y-8502198D01*
X8580063Y-8502198D02*
X8580063Y-8530770D01*
X8580063Y-8530770D02*
X8570539Y-8568865D01*
X8570539Y-8568865D02*
X8561015Y-8587912D01*
X8561015Y-8587912D02*
X8541967Y-8606960D01*
X8541967Y-8606960D02*
X8513396Y-8616484D01*
X8513396Y-8616484D02*
X8465777Y-8616484D01*
X8665777Y-8616484D02*
X8665777Y-8483150D01*
X8665777Y-8521246D02*
X8675301Y-8502198D01*
X8675301Y-8502198D02*
X8684824Y-8492674D01*
X8684824Y-8492674D02*
X8703872Y-8483150D01*
X8703872Y-8483150D02*
X8722920Y-8483150D01*
X8789586Y-8616484D02*
X8789586Y-8483150D01*
X8789586Y-8416484D02*
X8780063Y-8426008D01*
X8780063Y-8426008D02*
X8789586Y-8435531D01*
X8789586Y-8435531D02*
X8799110Y-8426008D01*
X8799110Y-8426008D02*
X8789586Y-8416484D01*
X8789586Y-8416484D02*
X8789586Y-8435531D01*
X8913396Y-8616484D02*
X8894348Y-8606960D01*
X8894348Y-8606960D02*
X8884824Y-8587912D01*
X8884824Y-8587912D02*
X8884824Y-8416484D01*
X9018158Y-8616484D02*
X8999110Y-8606960D01*
X8999110Y-8606960D02*
X8989586Y-8587912D01*
X8989586Y-8587912D02*
X8989586Y-8416484D01*
X9246729Y-8616484D02*
X9246729Y-8416484D01*
X9246729Y-8416484D02*
X9313396Y-8559341D01*
X9313396Y-8559341D02*
X9380063Y-8416484D01*
X9380063Y-8416484D02*
X9380063Y-8616484D01*
X9561015Y-8616484D02*
X9561015Y-8511722D01*
X9561015Y-8511722D02*
X9551491Y-8492674D01*
X9551491Y-8492674D02*
X9532444Y-8483150D01*
X9532444Y-8483150D02*
X9494348Y-8483150D01*
X9494348Y-8483150D02*
X9475301Y-8492674D01*
X9561015Y-8606960D02*
X9541967Y-8616484D01*
X9541967Y-8616484D02*
X9494348Y-8616484D01*
X9494348Y-8616484D02*
X9475301Y-8606960D01*
X9475301Y-8606960D02*
X9465777Y-8587912D01*
X9465777Y-8587912D02*
X9465777Y-8568865D01*
X9465777Y-8568865D02*
X9475301Y-8549817D01*
X9475301Y-8549817D02*
X9494348Y-8540293D01*
X9494348Y-8540293D02*
X9541967Y-8540293D01*
X9541967Y-8540293D02*
X9561015Y-8530770D01*
X9656253Y-8483150D02*
X9656253Y-8683150D01*
X9656253Y-8492674D02*
X9675301Y-8483150D01*
X9675301Y-8483150D02*
X9713396Y-8483150D01*
X9713396Y-8483150D02*
X9732444Y-8492674D01*
X9732444Y-8492674D02*
X9741967Y-8502198D01*
X9741967Y-8502198D02*
X9751491Y-8521246D01*
X9751491Y-8521246D02*
X9751491Y-8578389D01*
X9751491Y-8578389D02*
X9741967Y-8597436D01*
X9741967Y-8597436D02*
X9732444Y-8606960D01*
X9732444Y-8606960D02*
X9713396Y-8616484D01*
X9713396Y-8616484D02*
X9675301Y-8616484D01*
X9675301Y-8616484D02*
X9656253Y-8606960D01*
X9837205Y-8597436D02*
X9846729Y-8606960D01*
X9846729Y-8606960D02*
X9837205Y-8616484D01*
X9837205Y-8616484D02*
X9827682Y-8606960D01*
X9827682Y-8606960D02*
X9837205Y-8597436D01*
X9837205Y-8597436D02*
X9837205Y-8616484D01*
X9837205Y-8492674D02*
X9846729Y-8502198D01*
X9846729Y-8502198D02*
X9837205Y-8511722D01*
X9837205Y-8511722D02*
X9827682Y-8502198D01*
X9827682Y-8502198D02*
X9837205Y-8492674D01*
X9837205Y-8492674D02*
X9837205Y-8511722D01*
M02*
